<svg xmlns="http://www.w3.org/2000/svg" width="22.682" height="21.742" viewBox="0 0 22.682 21.742">
  <g id="Icon_feather-shopping-cart" data-name="Icon feather-shopping-cart" transform="translate(-0.5 1)">
    <path id="パス_56" data-name="パス 56" d="M13.88,30.94a.94.94,0,1,1-.94-.94A.94.94,0,0,1,13.88,30.94Z" transform="translate(-3.919 -12.138)" fill="#881ea4" stroke="#881ea4" stroke-linecap="round" stroke-linejoin="bevel" stroke-width="2"/>
    <path id="パス_57" data-name="パス 57" d="M30.38,30.94a.94.94,0,1,1-.94-.94A.94.94,0,0,1,30.38,30.94Z" transform="translate(-10.078 -12.138)" fill="#881ea4" stroke="#881ea4" stroke-linecap="round" stroke-linejoin="bevel" stroke-width="2"/>
    <path id="パス_58" data-name="パス 58" d="M1.5,1.5H5.26L7.78,14.088A1.88,1.88,0,0,0,9.66,15.6H18.8a1.88,1.88,0,0,0,1.88-1.514l1.5-7.887H6.2" transform="translate(0 -1.5)" fill="none" stroke="#881ea4" stroke-linecap="round" stroke-linejoin="round" stroke-width="2"/>
  </g>
</svg>
