<svg xmlns="http://www.w3.org/2000/svg" xmlns:xlink="http://www.w3.org/1999/xlink" width="521.236" height="161.435" viewBox="0 0 521.236 161.435">
  <defs>
    <clipPath id="clip-path">
      <rect id="長方形_49" data-name="長方形 49" width="521.236" height="161.435" fill="none"/>
    </clipPath>
  </defs>
  <g id="グループ_84" data-name="グループ 84" transform="translate(0 0)">
    <g id="グループ_83" data-name="グループ 83" transform="translate(0 0)" clip-path="url(#clip-path)">
      <path id="パス_99" data-name="パス 99" d="M239.607,55.785C233.483,40.026,221.038,13.961,211.036,0c-15.221,2.025-28.653,13.254-28.653,13.254S189.052,32.6,190.44,39.64s2.757,24.06,6.379,33.567,18.033,34.241,18.033,34.241a46.3,46.3,0,0,0,17.3-4.019A88.3,88.3,0,0,1,247.618,98.1c-.1-6.524-1.887-26.553-8.011-42.312" transform="translate(257.835 0)" fill="#1a1311"/>
      <path id="パス_100" data-name="パス 100" d="M214.308,100.581c-3.56-6.2-13.635-23.983-16.486-31.458-2.378-6.239-3.809-16.611-4.854-24.18-.483-3.493-.9-6.507-1.335-8.723-1.113-5.65-5.325-18.414-7.246-24.113,3.893-2.8,12.464-8.322,21.926-10.251,9.044,13.377,20.422,36.811,26.635,52.792,5.187,13.355,7.1,29.734,7.593,37.687a112.288,112.288,0,0,0-12.848,4.7,46.141,46.141,0,0,1-13.386,3.548" transform="translate(260.669 2.624)" fill="#fff"/>
      <path id="パス_101" data-name="パス 101" d="M194.939,9.253a70.987,70.987,0,0,0,1.723,7.806c.886,2.81,1.361,5.346,4.137,8.339,1.755,1.892,8.721-1.921,10.763-3.133s9.7-3.674,12.129.514,1.262,7.152.439,8.349-5.885,6.22-5.885,6.22,7.306-2.561,10.649,1.248-1.566,11.142-5.368,13.56c6.331-.164,7.758-.246,10,3.263s-.418,8.82-2.4,10.454-3.707,2.858-3.707,2.858,6.124,1.287,6.959,4.275.792,4.992-.507,7.118-6.4,5.187-9.867,7.024-9.759,2.684-11.849,2.906a25.88,25.88,0,0,1-19.826-7.482c-7.765-7.869-12.165-19.536-13.169-32.94s-.307-17.077,1.4-22.054c1.4-4.084,4.033-9.988,8.1-13.913,1.781-1.716,1.9-2.324,6.266-4.412" transform="translate(252.628 13.081)" fill="#1a1311" fill-rule="evenodd"/>
      <path id="パス_102" data-name="パス 102" d="M2.587,60.035c0,.521.06,1.238.075,1.909.019.946.039,1.8.039,1.892,0,.456-.111.521-.611.521-.7,0-.7.077-1.39.077-.5,0-.637-.142-.637-.6,0-.089.07-.944.089-1.892C.164,61.273.2,60.556.2,60.035c0-.835-.048-.835-.048-1.67s-.039-.835-.039-1.67-.024-.84-.024-1.678,0-.838,0-1.675c0-.524.092-1.241.08-1.912A18.639,18.639,0,0,0,0,49.537c0-.456.2-.6.7-.6.7,0,.7,0,1.39,0,.5,0,.611.135.611.591,0,.089.029.946.01,1.895-.012.671.012,1.385.012,1.909s0,.531,0,1.064.043.685.587.685c.787,0,.787.014,1.576.014s.789-.126,1.579-.126.792.118,1.586.118.792.014,1.583.014c.543,0,.724-.164.724-.707s-.058-.533-.058-1.064-.058-1.238-.07-1.909c-.019-.949-.01-1.805-.01-1.895,0-.456.13-.615.63-.615.7,0,.7.051,1.39.051.5,0,.6.109.6.565,0,.089.039.946.019,1.895-.014.671-.017,1.385-.017,1.909,0,.833-.058.833-.058,1.668s.051.835.051,1.673.014.838.014,1.675,0,.84,0,1.678c0,.521-.075,1.238-.06,1.909.017.949.089,1.8.089,1.892,0,.456-.13.6-.63.6-.7,0-.7-.063-1.39-.063-.5,0-.567-.082-.567-.538,0-.089.024-.944.041-1.892.014-.671.007-1.388.007-1.909,0-1-.084-1-.084-2,0-.543-.07-.678-.613-.678-.789,0-.789-.029-1.579-.029s-.789.1-1.579.1-.792-.121-1.583-.121-.792.007-1.583.007c-.543,0-.714.171-.714.714-.043,1,0,1,0,2" transform="translate(0 69.161)" fill="#1a1311"/>
      <path id="パス_103" data-name="パス 103" d="M11.5,60.723c-.565,0-.683.084-.879.562-.164.391-.336.784-.507,1.233-.142.374-.384.753-.553,1.226-.2.521-.234.69-.8.69-.76,0-.76-.08-1.521-.08-.345,0-.454-.019-.454-.193a.912.912,0,0,1,.145-.343c.3-.69.536-1.308.777-1.859.292-.661.553-1.248.8-1.83.311-.731.307-.734.615-1.465s.237-.768.545-1.5.389-.7.7-1.443.294-.746.606-1.484.336-.729.647-1.468c.205-.492.456-1,.688-1.559.21-.5.3-1.074.521-1.632.2-.519.362-.533.929-.533.466,0,.466-.123.932-.123.567,0,.62.181.816.7.215.555.473,1.06.676,1.557.229.555.418,1.086.625,1.569.311.729.3.736.608,1.465s.292.743.606,1.477.437.681.751,1.414.285.751.6,1.487.251.765.565,1.5c.256.608.533,1.195.821,1.849.246.56.567,1.142.879,1.834a1.061,1.061,0,0,1,.14.386c0,.174-.2.183-.543.183-.835,0-.835-.022-1.673-.022-.565,0-.615-.053-.811-.574-.169-.473-.336-.881-.478-1.255-.169-.449-.345-.842-.509-1.233-.2-.478-.355-.519-.939-.519-.886,0-.886-.053-1.772-.053s-.888,0-1.776-.012-.888.046-1.776.046m.364-2.677a.785.785,0,0,0-.024.379c0,.2.118.215.463.215.929,0,.929.1,1.859.1s.927-.13,1.856-.13c.35,0,.524.012.524-.183a.941.941,0,0,0-.068-.384c-.338-.828-.316-.835-.654-1.663s-.372-.816-.71-1.646-.333-.833-.671-1.663c-.087-.22-.179-.364-.266-.364-.068,0-.106.154-.193.4-.336.83-.418.8-.758,1.624s-.314.84-.661,1.668-.355.823-.7,1.653" transform="translate(9.595 69.161)" fill="#1a1311"/>
      <path id="パス_104" data-name="パス 104" d="M16.927,60.018c0,.521-.063,1.238-.048,1.909a17.275,17.275,0,0,0,.174,1.892c0,.456-.21.555-.71.555-.652,0-.652,0-1.3,0-.5,0-.63-.094-.63-.55,0-.089.007-.946.027-1.892.014-.671.075-1.388.075-1.909,0-.862-.075-.862-.075-1.723s.08-.864.08-1.726-.029-.867-.029-1.731.027-.867.027-1.731c0-.5-.019-1.175-.031-1.8-.019-.893-.041-1.694-.041-1.784,0-.456.1-.587.6-.587.36,0,.36.041.717.041.545,0,.657.121,1.007.555s.76.809,1.1,1.236.688.864,1.038,1.289c.541.673.509.7,1.048,1.373s.555.666,1.1,1.344.545.676,1.089,1.354.524.7,1.069,1.378.6.635,1.144,1.315c.109.13.14.268.208.268.106,0,.159-.157.159-.377,0-.9-.056-.9-.056-1.793s.043-.9.043-1.8-.051-.9-.051-1.8c0-.524.1-1.241.084-1.912-.019-.946-.113-1.8-.113-1.892,0-.456.147-.471.647-.471.652,0,.652-.1,1.3-.1.5,0,.594.111.594.567,0,.089-.014.946-.034,1.895-.012.669.072,1.385.072,1.909,0,.862-.094.862-.094,1.723s.014.862.014,1.726.048.864.048,1.731.034.864.034,1.731c0,.495,0,1.168.01,1.8.017.891-.056,1.7-.056,1.786,0,.456-.087.536-.589.536-.215,0-.215.065-.432.065a1.118,1.118,0,0,1-1.1-.538c-.333-.42-.545-.917-.881-1.332s-.755-.724-1.11-1.151c-.574-.707-.558-.722-1.132-1.431s-.492-.78-1.072-1.492-.642-.661-1.219-1.373-.519-.765-1.1-1.48-.594-.707-1.173-1.422a.449.449,0,0,0-.3-.171c-.111,0-.121.142-.121.36,0,.937-.072.937-.072,1.873s.075.939.08,1.878-.022.939-.022,1.878" transform="translate(20.371 69.178)" fill="#1a1311"/>
      <path id="パス_105" data-name="パス 105" d="M25.182,64.335c-.42,0-.956.1-1.453.106-.712.012-1.347.077-1.436.077-.478,0-.613-.241-.613-.763.01-.589-.034-1.212-.027-1.818.01-.647.126-1.272.126-1.813,0-.852.022-.852.022-1.7s-.092-.852-.092-1.7-.007-.854-.007-1.709,0-.854,0-1.709c0-.553,0-1.171-.01-1.813-.01-.594-.058-1.209-.068-1.815,0-.521.2-.77.673-.77.089,0,.724.053,1.436.065.5.01,1.033-.027,1.453-.027.669,0,.669.154,1.337.154s.669-.027,1.335-.027a10.333,10.333,0,0,1,1.629.031,7.062,7.062,0,0,1,1.533.546,5.607,5.607,0,0,1,1.41.775,5.235,5.235,0,0,1,1.043,1.216,6.091,6.091,0,0,1,.722,1.434,8.127,8.127,0,0,1,.461,1.554,12.059,12.059,0,0,1,.024,1.629,12.565,12.565,0,0,1-.048,1.8,9.214,9.214,0,0,1-.517,1.726,7.353,7.353,0,0,1-.78,1.608,6.326,6.326,0,0,1-1.173,1.342,6.429,6.429,0,0,1-1.463,1.048,7.818,7.818,0,0,1-1.748.439,9.569,9.569,0,0,1-1.786.169c-.99-.043-.99-.053-1.979-.053m-1-2.819c0,.546.179.632.722.632,1.1,0,1.1-.048,2.2-.048a6.146,6.146,0,0,0,1.723-.169,4.261,4.261,0,0,0,1.5-.85,4.336,4.336,0,0,0,1.163-1.286,6.175,6.175,0,0,0,.589-1.653,9.4,9.4,0,0,0,.068-1.752,7.262,7.262,0,0,0-.239-1.9,4.38,4.38,0,0,0-.859-1.694,3.636,3.636,0,0,0-1.54-1.086,5.342,5.342,0,0,0-1.88-.273c-.681,0-.681.01-1.359.01S25.577,51.4,24.9,51.4c-.543,0-.574.075-.574.618,0,.944-.154.944-.154,1.888s.027.949.027,1.9.1.951.1,1.9-.089.951-.113,1.9,0,.953,0,1.907" transform="translate(30.563 69.135)" fill="#1a1311"/>
      <path id="パス_106" data-name="パス 106" d="M31.326,59.84c-.012.364-.056,1.159-.053,1.943,0,.85-.031,1.685-.031,1.945,0,.541-.106.6-.647.6-.652,0-.652.029-1.3.029-.478,0-.606-.087-.606-.41,0-.181.08-1.081.123-2.114.027-.71-.075-1.487-.065-2.126.012-.809.142-.806.157-1.617s-.082-.813-.068-1.624.068-.811.08-1.624-.014-.816,0-1.629c.01-.48.06-1.149.063-1.784,0-.8-.036-1.538-.036-1.779,0-.545.089-.724.635-.724.357,0,.357.135.717.135a.982.982,0,0,1,1.028.468c.307.413.6.828.917,1.231s.606.816.92,1.207c.492.62.594.541,1.084,1.163s.422.681.915,1.3.483.632.978,1.255c.174.217.309.3.437.3.109,0,.21-.126.381-.34.483-.611.454-.632.937-1.243s.529-.574,1.011-1.188.442-.647.924-1.258c.321-.4.7-.765,1.023-1.185s.69-.787,1-1.2c.348-.437.439-.56.98-.56.36,0,.36,0,.717,0,.546,0,.62.092.62.637,0,.2-.022.905-.024,1.779,0,.558.039,1.183.048,1.784.012.811.036.811.048,1.62s-.072.813-.058,1.624.063.813.075,1.627.007.813.022,1.627c.01.5,0,1.279.024,2.013.034.944.087,1.822.087,2.008,0,.587-.014.579-.56.579-.661,0-.661.019-1.325.019-.543,0-.727-.058-.727-.6,0-.345.109-1.115.113-1.933,0-.683-.031-1.4-.051-1.936-.022-.927.07-.929.053-1.859s-.123-.929-.14-1.861-.058-.932-.072-1.863c0-.22,0-.418-.087-.418s-.212.1-.321.234c-.543.669-.507.7-1.048,1.366s-.526.685-1.069,1.354-.536.681-1.079,1.352-.546.673-1.091,1.344a.551.551,0,0,1-.48.164.578.578,0,0,1-.471-.152c-.538-.669-.439-.751-.975-1.419s-.649-.579-1.185-1.25-.5-.7-1.043-1.371-.526-.683-1.067-1.354A.3.3,0,0,0,31.485,54c-.087,0-.092.058-.092.278-.012.924-.126.924-.138,1.849s-.036.929-.024,1.859.111.929.094,1.856" transform="translate(40.552 69.162)" fill="#1a1311"/>
      <path id="パス_107" data-name="パス 107" d="M41.407,60.678c-.565,0-.71.111-.905.591-.164.389-.273.806-.442,1.255-.145.377-.36.763-.529,1.238-.2.519-.3.594-.864.594-.76,0-.76.082-1.521.082-.345,0-.574-.109-.574-.282a1.24,1.24,0,0,1,.164-.389c.307-.69.55-1.3.792-1.851.29-.661.637-1.209.888-1.791.309-.731.345-.717.654-1.448s.285-.748.594-1.484.217-.775.529-1.513.408-.7.719-1.436.237-.772.548-1.511c.205-.492.495-.985.727-1.542.21-.5.386-1.04.6-1.6.2-.521.311-.625.879-.625.466,0,.466-.039.932-.039.567,0,.7.14.891.659.215.555.352,1.108.558,1.6.227.555.5,1.052.71,1.533.311.731.251.755.562,1.487s.355.714.666,1.448.348.722.661,1.455.227.775.541,1.511.352.719.666,1.458c.258.606.55,1.188.838,1.842.249.56.454,1.195.765,1.888.087.174.179.258.179.345,0,.174-.147.2-.495.2-.835,0-.835.022-1.673.022-.567,0-.664-.1-.859-.62-.169-.475-.258-.91-.4-1.284-.171-.449-.415-.813-.579-1.2-.2-.478-.314-.517-.9-.517-.886,0-.886.048-1.772.048s-.888-.053-1.776-.075-.888-.051-1.776-.051m.331-2.653a.833.833,0,0,0-.019.393c0,.2.145.176.492.176.929,0,.929.07,1.859.07s.927.007,1.856.007c.35,0,.432-.058.432-.253a.9.9,0,0,0-.087-.34c-.338-.828-.307-.84-.644-1.668s-.36-.821-.7-1.649-.246-.869-.582-1.7c-.087-.22-.179-.408-.268-.408-.065,0-.191.164-.278.4-.336.83-.246.867-.587,1.694s-.418.8-.777,1.62-.357.823-.7,1.653" transform="translate(51.702 69.169)" fill="#1a1311"/>
      <path id="パス_108" data-name="パス 108" d="M47.79,64.415c-.42,0-.956.024-1.453.031-.712.014-1.347.036-1.436.036-.48,0-.63-.222-.63-.741.01-.589.113-1.212.121-1.815.007-.647-.113-1.274-.113-1.815,0-.852-.017-.852-.017-1.7s.022-.852.022-1.7S44.4,55.851,44.4,55s-.017-.854-.017-1.709c0-.553-.034-1.171-.041-1.813-.007-.594-.1-1.209-.116-1.815,0-.521.193-.625.673-.625a9.693,9.693,0,0,1,1.439-.121c.5.01,1.031.043,1.451.043.669,0,.669.043,1.337.043s.669.07,1.335.07a10.511,10.511,0,0,1,1.632,0,7.033,7.033,0,0,1,1.542.529,5.611,5.611,0,0,1,1.41.792,5.387,5.387,0,0,1,1.031,1.233,6.082,6.082,0,0,1,.755,1.422,8.224,8.224,0,0,1,.442,1.564,12.274,12.274,0,0,1,0,1.632,12.843,12.843,0,0,1,0,1.805,9.344,9.344,0,0,1-.492,1.74A7.523,7.523,0,0,1,56,61.42a6.819,6.819,0,0,1-2.756,2.225,7.4,7.4,0,0,1-1.692.558,9.631,9.631,0,0,1-1.789.15c-.99.014-.987.063-1.977.063M46.88,61.5c0,.546.084.613.628.613,1.1,0,1.1,0,2.2,0a5.968,5.968,0,0,0,1.719-.21,4.442,4.442,0,0,0,1.586-.734A4.489,4.489,0,0,0,54,59.73a5.947,5.947,0,0,0,.538-1.632,8.8,8.8,0,0,0,.181-1.723,7.532,7.532,0,0,0-.118-1.929,4.556,4.556,0,0,0-.886-1.721,3.769,3.769,0,0,0-1.586-1.079,5.444,5.444,0,0,0-1.9-.229c-.681,0-.681-.133-1.359-.133s-.681.145-1.359.145c-.543,0-.6.034-.6.577,0,.944-.041.944-.041,1.888s-.07.949-.07,1.9.126.951.126,1.9-.1.953-.094,1.907.056.951.056,1.9" transform="translate(62.524 69.149)" fill="#1a1311"/>
      <path id="パス_109" data-name="パス 109" d="M56.539,62.13c.434,0,1.028-.036,1.583-.048.777-.019,1.48-.063,1.569-.063.454,0,.613.14.613.64,0,.565,0,.565,0,1.13,0,.5-.162.664-.616.664-.089,0-.792-.1-1.569-.116-.555-.007-1.149,0-1.583,0-.838,0-.838.029-1.673.029-.42,0-.956.034-1.451.043-.717.012-1.349.063-1.441.063-.478,0-.6-.229-.6-.748.007-.589-.048-1.212-.041-1.818.01-.647.147-1.272.147-1.813,0-.852-.118-.852-.118-1.7s.106-.852.106-1.7-.007-.854-.007-1.709-.063-.854-.063-1.709c0-.538-.039-1.173-.048-1.815s.084-1.265.075-1.815c0-.519.075-.717.553-.717.092,0,.724.036,1.441.048.495.01,1.031-.01,1.451-.01.608,0,.608.058,1.219.058.432,0,1.026-.022,1.579-.031.782-.012,1.484,0,1.569,0,.459,0,.577.082.577.582,0,.587,0,.587,0,1.175,0,.5-.116.6-.574.6-.084,0-.787-.068-1.566-.087-.555-.012-1.149.019-1.581.019-.772,0-.772.077-1.545.077-.543,0-.635.06-.635.6,0,1.238-.019,1.238-.019,2.476,0,.543.111.584.654.584s.543.135,1.089.135c.425,0,1.023,0,1.581-.014.775-.012,1.48-.082,1.571-.082.451,0,.608.118.608.618,0,.531-.14.531-.14,1.062,0,.5-.017.69-.468.69-.092,0-.8-.072-1.574-.084-.555-.01-1.154-.039-1.579-.039-.546,0-.546.034-1.089.034s-.625.094-.625.64c0,.864.012.864.012,1.726s-.089.864-.089,1.728c0,.543.159.714.7.714,1,.024,1-.027,2-.027" transform="translate(72.565 69.165)" fill="#1a1311"/>
      <path id="パス_110" data-name="パス 110" d="M177.387,62.086c.435,0,1.028,0,1.581-.017.78-.019,1.482-.036,1.571-.036.454,0,.608.118.608.618,0,.562-.14.562-.14,1.127,0,.5-.014.6-.468.6-.089,0-.792-.017-1.569-.031-.555-.007-1.149.063-1.583.063-.838,0-.838.022-1.673.022-.42,0-.956.007-1.453.017-.712.012-1.347-.017-1.439-.017-.478,0-.676-.191-.676-.712.01-.589.07-1.212.077-1.815.01-.649.094-1.274.094-1.815,0-.85-.039-.85-.039-1.7s.051-.852.051-1.7-.041-.854-.041-1.709.019-.854.019-1.709c0-.536-.087-1.173-.1-1.813s.08-1.267.068-1.815c0-.521.065-.755.543-.755.092,0,.724.024,1.439.036.5.007,1.033.012,1.453.012.608,0,.608.111,1.219.111.432,0,1.026-.07,1.579-.077.777-.012,1.482-.06,1.569-.06.459,0,.6.169.6.669,0,.587-.085.587-.085,1.173,0,.5-.056.611-.514.611-.087,0-.792.014-1.569,0-.555-.014-1.147,0-1.579,0-.772,0-.772-.072-1.545-.072-.543,0-.681.14-.681.683,0,1.238.036,1.238.036,2.476,0,.545.1.69.644.69s.543-.031,1.086-.031c.427,0,1.023-.01,1.581-.019.777-.014,1.482-.094,1.571-.094.454,0,.509.2.509.7,0,.531.1.531.1,1.062,0,.5-.157.635-.611.635-.089,0-.794-.065-1.571-.077-.558-.01-1.154.075-1.581.075-.543,0-.543-.029-1.086-.029s-.618.092-.618.637c0,.864-.075.864-.075,1.728s.089.864.089,1.728c0,.541.06.693.6.693,1,0,1-.041,2-.041" transform="translate(243.364 69.099)" fill="#1a1311"/>
      <path id="パス_111" data-name="パス 111" d="M181.514,60.671c-.565,0-.7.092-.9.57-.167.389-.273.806-.444,1.255-.142.377-.422.739-.589,1.214-.2.521-.239.666-.8.666-.76,0-.76-.077-1.521-.077-.348,0-.485,0-.485-.174a.761.761,0,0,1,.087-.381c.307-.69.652-1.258.9-1.805.29-.661.437-1.3.688-1.878.309-.731.352-.714.661-1.446s.266-.755.577-1.492.432-.685.741-1.422.3-.746.608-1.484.287-.751.6-1.489c.205-.492.369-1.038.6-1.6.208-.5.422-1.026.64-1.581.2-.521.338-.657.905-.657.466,0,.466.1.934.1.565,0,.647.06.842.582.215.553.389,1.093.591,1.588.229.555.577,1.021.784,1.5.311.729.22.768.531,1.5s.389.7.7,1.434.249.763.562,1.5.3.743.611,1.48.372.712.685,1.451c.256.606.492,1.212.78,1.866.249.56.512,1.168.823,1.861a.782.782,0,0,1,.1.369c0,.174-.126.176-.471.176-.838,0-.838.034-1.675.034-.565,0-.7-.07-.9-.591-.169-.473-.258-.908-.4-1.284-.169-.449-.338-.842-.5-1.233-.2-.478-.348-.584-.934-.584-.886,0-.886.075-1.772.075s-.886-.06-1.774-.075-.891.029-1.779.029M181.866,58a.836.836,0,0,0-.036.384c0,.2.142.174.488.174.929,0,.929.138,1.859.138s.929-.106,1.856-.106c.35,0,.543-.01.543-.205a1.216,1.216,0,0,0-.113-.374c-.338-.825-.379-.811-.714-1.636s-.256-.864-.594-1.694-.447-.784-.784-1.615c-.087-.22-.094-.362-.181-.362-.068,0-.1.121-.186.362-.335.828-.461.777-.8,1.605s-.311.84-.664,1.665-.328.835-.671,1.665" transform="translate(249.901 69.123)" fill="#1a1311"/>
      <path id="パス_112" data-name="パス 112" d="M190.962,60.025c0,.521.029,1.238.043,1.909.017.946.06,1.8.06,1.892,0,.456-.154.541-.654.541-.685,0-.685-.01-1.371-.01-.5,0-.589-.075-.589-.531,0-.089-.058-.946-.039-1.895.014-.669.1-1.385.1-1.907,0-.8.031-.8.031-1.6s-.077-.8-.077-1.608.082-.8.082-1.608-.024-.806-.024-1.615.017-.806.017-1.612c0-.545-.176-.669-.719-.669-.338,0-.338.048-.676.048-.386,0-.944-.019-1.47,0-.717.019-1.376-.014-1.463-.014-.456,0-.507-.08-.507-.579,0-.6.019-.6.019-1.195,0-.5.031-.7.488-.7.089,0,.8.027,1.571.039.56.007,1.154.029,1.581.029.787,0,.787.072,1.576.072s.789-.048,1.579-.048h1.581c.427,0,1.021-.019,1.581-.027.775-.012,1.482.077,1.571.077.456,0,.476.053.476.553,0,.6.019.6.019,1.195,0,.5-.039.594-.495.594-.089,0-.746-.022-1.463-.039-.526-.014-1.086-.014-1.472-.014-.348,0-.348-.043-.7-.043-.543,0-.611.176-.611.722,0,.8-.024.8-.024,1.6s.048.8.048,1.608.007.8.007,1.608.01.809,0,1.615-.092.806-.092,1.612" transform="translate(259.712 69.096)" fill="#1a1311"/>
      <path id="パス_113" data-name="パス 113" d="M200.1,60.728c-.2.524-.393,1.011-.582,1.513-.181.483-.449.944-.64,1.5-.2.519-.278.56-.84.56-.261,0-.261.1-.524.1-.562,0-.676-.133-.85-.673s-.268-1.072-.427-1.557c-.167-.5-.3-1.009-.476-1.54-.261-.765-.331-.741-.594-1.506s-.316-.751-.579-1.518-.164-.8-.427-1.574-.323-.751-.589-1.523-.3-.758-.562-1.53c-.2-.558-.422-1.089-.632-1.682-.186-.517-.379-1.069-.613-1.7a1.241,1.241,0,0,1-.116-.391c0-.2.239-.246.587-.246.835,0,.835-.048,1.673-.048.565,0,.717.13.867.676.167.6.169,1.159.316,1.646.164.545.418,1.026.589,1.562.258.809.2.828.451,1.634s.319.792.574,1.6.28.8.538,1.615.249.813.507,1.624c.063.2.135.379.222.379.065,0,.08-.212.145-.386.3-.8.36-.777.666-1.571s.393-.765.7-1.564.21-.838.519-1.636.437-.751.743-1.55c.215-.57.314-1.132.517-1.692.186-.512.28-1.081.488-1.7.2-.521.393-.649.961-.649.171,0,.171-.012.345-.012.565,0,.7.162.874.707.208.611.3,1.185.485,1.694.205.56.437,1.074.642,1.632.3.794.427.746.724,1.54s.174.842.473,1.636.273.809.572,1.605.323.787.623,1.586c.063.174.171.244.258.244.065,0,.179-.077.244-.273.261-.8.237-.813.5-1.617s.159-.84.422-1.646.456-.746.719-1.554.232-.818.495-1.627c.174-.536.188-1.091.357-1.634.15-.49.369-.987.543-1.583.152-.546.282-.681.85-.681.76,0,.76.118,1.521.118.345,0,.442-.019.442.176a.8.8,0,0,1-.072.352c-.241.625-.377,1.2-.558,1.709-.21.587-.512,1.086-.71,1.644-.266.768-.159.8-.422,1.574s-.222.787-.485,1.559-.362.743-.625,1.516-.321.758-.587,1.535-.082.84-.348,1.615c-.176.521-.4.992-.57,1.5-.159.485-.447.941-.618,1.484s-.186.574-.753.574c-.27,0-.27.046-.541.046-.567,0-.739-.024-.934-.546-.188-.553-.34-1.06-.514-1.535-.191-.517-.413-.992-.606-1.5-.311-.818-.14-.883-.454-1.7s-.391-.787-.7-1.608-.256-.842-.57-1.665-.355-.806-.666-1.627a.262.262,0,0,0-.266-.193.3.3,0,0,0-.336.167c-.319.816-.162.876-.478,1.694s-.4.787-.714,1.608-.227.854-.521,1.682-.333.818-.649,1.639" transform="translate(270.937 69.11)" fill="#1a1311"/>
      <path id="パス_114" data-name="パス 114" d="M202.706,64.291c-.5,0-.608-.041-.608-.5,0-.089-.031-.946-.012-1.892.014-.671.031-1.388.031-1.909,0-.835.075-.835.075-1.668s-.014-.838-.014-1.673.027-.838.027-1.678-.046-.838-.046-1.675c0-.524-.1-1.238-.113-1.909a16.915,16.915,0,0,1,.1-1.895c0-.456.065-.565.565-.565.7,0,.7-.031,1.39-.031.5,0,.613.14.613.6,0,.089-.056.946-.075,1.895-.012.669.022,1.385.022,1.909,0,.833.048.833.048,1.668s-.109.838-.109,1.673.024.838.024,1.678-.014.838-.014,1.675c0,.521.075,1.238.087,1.909.019.946-.022,1.8-.022,1.892,0,.456-.077.6-.577.6-.7-.027-.693-.106-1.388-.106" transform="translate(285.627 69.128)" fill="#1a1311"/>
      <path id="パス_115" data-name="パス 115" d="M211.684,60.008c0,.521.039,1.238.051,1.909.019.946.058,1.8.058,1.892,0,.456-.116.616-.615.616-.686,0-.686-.048-1.369-.048-.5,0-.69-.111-.69-.567,0-.089.063-.946.082-1.892.014-.671.08-1.388.08-1.909,0-.8-.1-.8-.1-1.6s.128-.8.128-1.608-.123-.8-.123-1.608-.007-.806-.007-1.615.041-.806.041-1.612c0-.545-.08-.676-.623-.676-.338,0-.338-.048-.676-.048-.386,0-.941.145-1.468.159-.717.019-1.376-.024-1.463-.024-.459,0-.521-.13-.521-.63,0-.6-.1-.6-.1-1.195,0-.5.164-.666.623-.666.087,0,.792.068,1.569.08.558.007,1.154.065,1.581.065.789,0,.789-.1,1.576-.1s.789.039,1.579.039.792-.029,1.581-.029c.427,0,1.023.01,1.581,0,.775-.012,1.482-.022,1.571-.022.456,0,.608.133.608.632,0,.6-.087.6-.087,1.195,0,.5-.065.69-.521.69-.089,0-.748-.027-1.465-.046-.526-.014-1.084-.01-1.47-.01-.348,0-.348-.07-.7-.07-.543,0-.693.109-.693.654,0,.8.043.8.043,1.6s.053.8.053,1.608-.1.8-.1,1.608,0,.806-.014,1.612,0,.809,0,1.615" transform="translate(288.908 69.113)" fill="#1a1311"/>
      <path id="パス_116" data-name="パス 116" d="M213.275,60c0,.521.046,1.236.06,1.907a16.045,16.045,0,0,1-.1,1.895c0,.456-.056.536-.555.536-.7,0-.7,0-1.39,0-.5,0-.671-.077-.671-.533,0-.089.13-.944.15-1.892.012-.671-.1-1.388-.1-1.909,0-.835,0-.835,0-1.67s.094-.835.094-1.67-.027-.84-.027-1.678.017-.838.017-1.675c0-.524,0-1.241-.017-1.912-.017-.946-.075-1.8-.075-1.892,0-.456.128-.509.628-.509.7,0,.7-.053,1.39-.053.5,0,.613.106.613.562,0,.089.007.946-.012,1.895-.014.671,0,1.385,0,1.909s-.1.531-.1,1.064.167.707.71.707c.787,0,.787-.043,1.576-.043s.789-.041,1.581-.041.792,0,1.583,0,.792.053,1.583.053c.546,0,.64-.128.64-.671s.068-.533.068-1.064-.14-1.238-.154-1.909c-.017-.946.024-1.805.024-1.895,0-.456.14-.548.64-.548.7,0,.7-.056,1.39-.056.5,0,.659.147.659.6,0,.089.014.949,0,1.895-.015.671-.053,1.385-.053,1.909,0,.833-.1.833-.1,1.668s.06.835.06,1.673.012.838.012,1.675-.019.84-.019,1.678c0,.521.084,1.236.1,1.907a17.232,17.232,0,0,1-.1,1.895c0,.456-.06.56-.56.56-.7,0-.7-.043-1.39-.043-.5,0-.577-.06-.577-.517,0-.089,0-.946.017-1.892.014-.671,0-1.388,0-1.909,0-1-.022-1-.022-2,0-.543-.089-.661-.635-.661-.789,0-.789-.022-1.576-.022s-.792.029-1.581.029-.792.012-1.583.012-.792.012-1.583.012c-.543,0-.654.087-.654.63.022,1,.036,1,.036,2" transform="translate(297.746 69.124)" fill="#1a1311"/>
      <path id="パス_117" data-name="パス 117" d="M183.864,71.541c0,.521-.017,1.238,0,1.909.019.949.007,1.805.007,1.895,0,.456-.1.492-.6.492-.7,0-.7.058-1.39.058-.5,0-.7-.094-.7-.55,0-.089.133-.946.152-1.892.012-.671-.019-1.39-.019-1.912,0-.835.075-.835.075-1.668s-.06-.838-.06-1.673.048-.838.048-1.675-.058-.838-.058-1.675c0-.524-.022-1.238-.034-1.909-.019-.949,0-1.805,0-1.895,0-.456.1-.56.6-.56.7,0,.7.007,1.39.007.5,0,.6.1.6.553,0,.089.027.946.007,1.895-.012.671-.014,1.385-.014,1.909s-.1.531-.1,1.064.181.661.724.661c.787,0,.787-.029,1.576-.029s.789.065,1.581.065.792-.092,1.583-.092.792.056,1.583.056c.546,0,.637-.118.637-.661s.041-.533.041-1.064.022-1.241.01-1.912c-.019-.949-.058-1.8-.058-1.892,0-.456.087-.584.587-.584.7,0,.7.087,1.39.087.5,0,.628.041.628.5,0,.089-.017.946-.034,1.895-.014.671,0,1.385,0,1.909,0,.833,0,.833,0,1.668v1.67c0,.838.007.838.007,1.678s.034.838.034,1.675c0,.521,0,1.238.012,1.909.019.949.015,1.805.015,1.895,0,.456-.159.615-.659.615-.7,0-.7-.142-1.39-.142-.5,0-.587-.017-.587-.473,0-.089-.01-.946.01-1.895.015-.671.058-1.388.058-1.909,0-1,.029-1,.029-2,0-.543-.181-.707-.727-.707-.789,0-.789.1-1.576.1s-.792-.019-1.581-.019-.792-.1-1.583-.1-.792,0-1.583,0c-.543,0-.71.174-.71.714.024,1,.094,1,.094,2" transform="translate(256.124 85.475)" fill="#1a1311"/>
      <path id="パス_118" data-name="パス 118" d="M192.319,72.16c-.565,0-.739.084-.934.562-.167.391-.244.821-.413,1.27-.142.377-.285.792-.451,1.265-.2.521-.374.565-.941.565-.76,0-.76,0-1.521,0-.345,0-.461-.027-.461-.2a.984.984,0,0,1,.145-.348c.307-.69.572-1.291.816-1.842.29-.661.43-1.3.681-1.88.309-.731.389-.7.7-1.431s.328-.727.64-1.463.222-.775.533-1.511.367-.714.678-1.453.307-.743.618-1.482c.205-.492.422-1.016.657-1.571.208-.5.425-1.026.642-1.581.2-.521.309-.567.876-.567.466,0,.466.022.932.022.567,0,.714.01.91.533.215.553.35,1.105.553,1.6.229.555.5,1.05.71,1.533.311.729.258.753.57,1.482s.393.7.7,1.434.326.729.637,1.465.208.782.521,1.518.408.7.722,1.434c.258.608.5,1.209.787,1.863.246.562.531,1.159.842,1.851a.635.635,0,0,1,.029.391c0,.174-.1.275-.444.275-.835,0-.835-.126-1.673-.126-.565,0-.739,0-.934-.519-.167-.473-.273-.9-.413-1.277-.171-.449-.278-.869-.444-1.26-.2-.478-.362-.555-.946-.555-.886,0-.886.1-1.772.1s-.888-.041-1.776-.058-.888-.048-1.776-.048m.343-2.662a.944.944,0,0,0-.063.389c0,.2.179.176.524.176.929,0,.929-.012,1.859-.012s.927.094,1.856.094c.35,0,.517-.063.517-.258a.931.931,0,0,0-.068-.381c-.335-.828-.316-.838-.652-1.665l-.676-1.661c-.335-.83-.454-.784-.789-1.615-.089-.217-.089-.391-.176-.391-.068,0-.193.113-.28.35-.336.83-.251.867-.589,1.694s-.384.813-.739,1.636-.381.813-.724,1.644" transform="translate(265.207 85.521)" fill="#1a1311"/>
      <path id="パス_119" data-name="パス 119" d="M197.405,71.525c0,.521,0,1.238.017,1.909.017.949.094,1.805.094,1.895,0,.456-.181.507-.681.507-.652,0-.652-.041-1.3-.041-.5,0-.7-.01-.7-.466,0-.089.1-.946.121-1.895.015-.671.072-1.388.072-1.909,0-.862-.121-.862-.121-1.723s.017-.862.017-1.726-.017-.864-.017-1.728.07-.867.07-1.731c0-.5.051-1.175.036-1.8a17.7,17.7,0,0,0-.157-1.784c0-.456.174-.558.673-.558.357,0,.357.063.717.063a1.012,1.012,0,0,1,1.048.471c.335.444.649.9.992,1.325s.753.811,1.1,1.238c.541.671.485.717,1.023,1.39s.529.69,1.069,1.366.63.611,1.175,1.289l1.089,1.359c.545.681.485.729,1.031,1.41.109.128.205.193.27.193.109,0,.2-.135.2-.355,0-.9-.056-.9-.056-1.793s.084-.9.084-1.8-.068-.9-.068-1.8c0-.524-.084-1.238-.1-1.909-.019-.949.043-1.805.043-1.895,0-.456.109-.514.608-.514.652,0,.652.029,1.3.029.5,0,.671.029.671.485,0,.089-.135.944-.152,1.892-.014.671.065,1.388.065,1.912,0,.862-.041.862-.041,1.723s.092.862.092,1.726-.053.864-.053,1.731-.056.864-.056,1.731c0,.495.121,1.168.135,1.8a17.547,17.547,0,0,1-.077,1.786c0,.456-.084.468-.584.468-.217,0-.217.024-.434.024a.984.984,0,0,1-1.031-.48c-.331-.42-.717-.782-1.052-1.2-.321-.4-.6-.847-.953-1.274-.577-.707-.553-.727-1.127-1.434s-.584-.707-1.161-1.419-.577-.717-1.154-1.429-.555-.736-1.134-1.453-.62-.681-1.2-1.4a.368.368,0,0,0-.266-.164c-.111,0-.135.106-.135.323,0,.937-.094.937-.094,1.873s.014.937.017,1.875.063.939.063,1.878" transform="translate(275.441 85.49)" fill="#1a1311"/>
      <path id="パス_120" data-name="パス 120" d="M205.262,75.945c-.418,0-.956-.082-1.453-.072-.712.012-1.344.058-1.436.058-.478,0-.644-.191-.644-.71.012-.589.007-1.212.014-1.818.01-.647.012-1.272.012-1.813,0-.852.068-.852.068-1.7s-.085-.852-.085-1.7.08-.854.08-1.709-.022-.854-.022-1.709c0-.553-.031-1.171-.039-1.813-.01-.594-.024-1.209-.036-1.815,0-.521.174-.659.652-.659.092,0,.724.012,1.436.024.5.01,1.035-.031,1.453-.031.669,0,.669.043,1.337.043s.669.041,1.337.041a10.533,10.533,0,0,1,1.632,0,7.063,7.063,0,0,1,1.533.548,5.663,5.663,0,0,1,1.422.768,5.283,5.283,0,0,1,1.055,1.217,6.15,6.15,0,0,1,.77,1.426,8.732,8.732,0,0,1,.34,1.588,10.549,10.549,0,0,1-.063,3.411,9.78,9.78,0,0,1-.319,1.779,7.292,7.292,0,0,1-.876,1.579,6.019,6.019,0,0,1-2.7,2.274,7.51,7.51,0,0,1-1.7.529,9.385,9.385,0,0,1-1.784.239c-.987.046-.99.036-1.979.036m-.859-2.964c0,.545.036.666.577.666,1.1,0,1.1-.029,2.2-.029a5.878,5.878,0,0,0,1.714-.253,4.231,4.231,0,0,0,1.513-.813,4.274,4.274,0,0,0,1.064-1.34,5.963,5.963,0,0,0,.623-1.617,9.245,9.245,0,0,0,.075-1.74,7.446,7.446,0,0,0-.155-1.912,4.411,4.411,0,0,0-.879-1.694,3.649,3.649,0,0,0-1.557-1.067,5.291,5.291,0,0,0-1.878-.3c-.678,0-.678-.08-1.359-.08H204.98c-.541,0-.637.145-.637.688,0,.944-.043.944-.043,1.888s-.043.949-.043,1.9.133.951.133,1.9-.138.956-.113,1.907.128.951.128,1.9" transform="translate(285.173 85.49)" fill="#1a1311"/>
      <path id="パス_121" data-name="パス 121" d="M144.344,62.792a2.243,2.243,0,0,1-2.143-1.241,2.387,2.387,0,0,1-.138-1.834,2.349,2.349,0,0,1,1.151-1.412c.775-.413.772-.415,1.547-.83s.755-.456,1.533-.871.77-.432,1.55-.85.811-.355,1.586-.77.76-.444,1.538-.862.777-.415,1.554-.83.768-.439,1.547-.857.8-.372,1.583-.789.748-.471,1.528-.888.782-.415,1.564-.835.8-.377,1.581-.794.772-.43,1.552-.847.784-.408,1.562-.825.784-.415,1.566-.835.775-.434,1.557-.854.794-.408,1.579-.828,1.542.034,1.554-.857-.76-.422-1.533-.838-.784-.4-1.562-.818-.787-.406-1.564-.823-.755-.459-1.53-.874l-1.552-.83c-.777-.415-.787-.4-1.564-.813s-.789-.4-1.571-.818-.78-.415-1.557-.833-.768-.439-1.545-.857-.789-.4-1.571-.823-.765-.447-1.545-.864-.809-.362-1.588-.78-.763-.444-1.542-.862-.78-.42-1.562-.84-.8-.4-1.581-.816-.777-.434-1.562-.854-.794-.406-1.581-.825a2.451,2.451,0,0,1-1.173-1.451,2.4,2.4,0,0,1,.227-1.832,2.379,2.379,0,0,1,1.4-1.185,2.419,2.419,0,0,1,1.842.179c.756.405.751.413,1.506.818s.77.372,1.525.777.724.463,1.48.869.777.367,1.535.772.751.427,1.511.835.755.42,1.518.828.768.4,1.528.8.765.4,1.523.8.765.4,1.525.806.758.422,1.521.83.758.418,1.521.828.77.393,1.53.8.768.4,1.533.813.768.4,1.53.813.758.418,1.521.828.748.43,1.511.838.772.4,1.538.809.77.4,1.538.816.789.374,1.557.787.758.432,1.528.842a2.409,2.409,0,0,1,0,4.275c-.753.4-.768.381-1.521.784s-.731.449-1.487.854-.784.35-1.54.753-.729.461-1.487.867-.758.41-1.518.816-.772.391-1.535.8-.772.384-1.533.792-.77.386-1.53.792-.729.463-1.489.871-.78.381-1.542.792-.768.4-1.53.806-.739.451-1.5.859-.775.393-1.54.8-.775.386-1.538.794-.775.389-1.538.8-.739.451-1.5.859-.775.393-1.54.8-.76.422-1.528.833-.772.406-1.54.818l-1.54.821a2.363,2.363,0,0,1-1.139.258" transform="translate(200.634 35.822)" fill="#1a1311"/>
      <path id="パス_122" data-name="パス 122" d="M253.778,36.924c-.905,0-.905.222-1.808.222s-.9-.133-1.808-.133-.9.058-1.8.058-.9-.094-1.8-.094-.908-.084-1.813-.084-.905.036-1.813.036-.91.208-1.82.208-.908-.212-1.818-.212a2.311,2.311,0,0,1-1.7-.6,2.4,2.4,0,0,1-.717-1.7,2.49,2.49,0,0,1,.661-1.757,2.538,2.538,0,0,1,1.757-.719H241.1c.9,0,.9-.017,1.808-.017s.9-.084,1.8-.084.9.031,1.8.031.908.065,1.813.065.905-.113,1.813-.113.91.35,1.82.35.908-.06,1.818-.06a2.138,2.138,0,0,1,2.308,2.305,2.5,2.5,0,0,1-2.308,2.3m-33.792,0c-.905,0-.905.222-1.808.222s-.9-.133-1.808-.133-.9.058-1.8.058-.9-.094-1.8-.094-.908-.084-1.813-.084-.905.036-1.813.036-.91.208-1.82.208-.908-.212-1.818-.212a2.311,2.311,0,0,1-1.7-.6,2.4,2.4,0,0,1-.717-1.7,2.49,2.49,0,0,1,.661-1.757,2.538,2.538,0,0,1,1.757-.719h1.808c.9,0,.9-.017,1.808-.017s.9-.084,1.8-.084.9.031,1.8.031.908.065,1.813.065.905-.113,1.813-.113.91.35,1.82.35.908-.06,1.818-.06a2.138,2.138,0,0,1,2.307,2.305,2.5,2.5,0,0,1-2.307,2.3m-33.792,0c-.905,0-.905.222-1.808.222s-.9-.133-1.808-.133-.9.058-1.8.058-.9-.094-1.8-.094-.908-.084-1.813-.084-.905.036-1.813.036-.91.208-1.82.208-.908-.212-1.818-.212a2.311,2.311,0,0,1-1.7-.6,2.4,2.4,0,0,1-.717-1.7,2.49,2.49,0,0,1,.661-1.757,2.538,2.538,0,0,1,1.757-.719h1.808c.9,0,.9-.017,1.808-.017s.9-.084,1.8-.084.9.031,1.8.031.908.065,1.813.065.905-.113,1.813-.113.91.35,1.82.35.908-.06,1.818-.06a2.138,2.138,0,0,1,2.308,2.305,2.5,2.5,0,0,1-2.308,2.3m-33.792,0c-.905,0-.905.222-1.808.222s-.9-.133-1.808-.133-.9.058-1.8.058-.9-.094-1.8-.094-.908-.084-1.813-.084-.905.036-1.813.036-.91.208-1.82.208-.908-.212-1.818-.212a2.311,2.311,0,0,1-1.7-.6,2.4,2.4,0,0,1-.717-1.7,2.49,2.49,0,0,1,.661-1.757,2.538,2.538,0,0,1,1.757-.719h1.808c.9,0,.9-.017,1.808-.017s.9-.084,1.8-.084.9.031,1.8.031.908.065,1.813.065.905-.113,1.813-.113.91.35,1.82.35.908-.06,1.818-.06a2.138,2.138,0,0,1,2.307,2.305,2.5,2.5,0,0,1-2.307,2.3m-33.792,0c-.905,0-.905.222-1.808.222s-.9-.133-1.808-.133-.9.058-1.8.058-.9-.094-1.8-.094-.908-.084-1.813-.084-.905.036-1.813.036-.91.208-1.82.208-.908-.212-1.818-.212a2.311,2.311,0,0,1-1.7-.6,2.4,2.4,0,0,1-.717-1.7,2.49,2.49,0,0,1,.661-1.757,2.538,2.538,0,0,1,1.757-.719h1.808c.9,0,.9-.017,1.808-.017s.9-.084,1.8-.084.9.031,1.8.031.908.065,1.813.065.905-.113,1.813-.113.91.35,1.82.35.908-.06,1.818-.06a2.138,2.138,0,0,1,2.308,2.305,2.5,2.5,0,0,1-2.308,2.3m-33.792,0c-.83,0-.83.222-1.663.222s-.83-.133-1.661-.133-.83.058-1.658.058-.828-.094-1.656-.094-.833-.084-1.665-.084-.835.036-1.668.036-.835.208-1.673.208-.835-.212-1.673-.212a2.311,2.311,0,0,1-1.7-.6,2.413,2.413,0,0,1-.717-1.7,2.49,2.49,0,0,1,.661-1.757,2.538,2.538,0,0,1,1.757-.719h1.663c.83,0,.83-.017,1.661-.017s.83-.084,1.661-.084.828.031,1.656.031.833.065,1.665.065.833-.113,1.665-.113.838.35,1.673.35.838-.06,1.673-.06a2.138,2.138,0,0,1,2.308,2.305,2.5,2.5,0,0,1-2.308,2.3" transform="translate(97.664 45.279)" fill="#1a1311"/>
      <path id="パス_123" data-name="パス 123" d="M65.792,23.73c-1.875.1-13.08,1.878-15.783,2.266s-8.882.644-11.195.871-7.55,1.789-11.11,2.942-8.759,4.258-10.751,5.245S4.13,41.814,4.064,41.889a16.708,16.708,0,0,0-1.34,4.984c-.227,2.3-.227,3.118-.227,3.118.133.55,5.561,3.669,6.541,4.374s9.737,6.652,13.379,8.2,8.19,2.088,10.405,2.561a78.814,78.814,0,0,1,9.43,3.251c3.138,1.233,9.744,4.135,22.508,3.007s38.745-10.755,45.112-14.757,7.147-4.538,8.151-5.243,3.068-2.218,4.574-3.075a6.19,6.19,0,0,0,.632-4.091c-.63-.309-3.268-2.242-4.236-2.9s-2.194-1.412-3.563-2.245-4.885-2.245-7.193-3.28a33.372,33.372,0,0,1-5.848-3.51c-2.235-1.535-9.57-5.491-10.34-5.8A50.612,50.612,0,0,0,82.184,24.5a155.817,155.817,0,0,0-16.391-.772" transform="translate(3.531 33.517)" fill="#1a1311" fill-rule="evenodd"/>
      <path id="パス_124" data-name="パス 124" d="M97.873,49.456l-.159-1.545c-.654-5.38-.949-5.774-2-8.335-2.4-5.853-7-12.462-10.838-15.392a49.881,49.881,0,0,0-11.533-6.208c-2.785-1.171-6.4-2.447-11.39-4.012-13.664-4.282-26.21-4.909-35.752.07-7.627,3.98-11.431,10.944-13.823,16.775A63.35,63.35,0,0,0,9.158,45.017c-.266,4.171.924,9.544,2.517,11.665s2.122,2.385,5.409,2.735,6.971-5.206,6.971-5.206S24.586,56.4,25.424,59s5.049,7.33,9.4,6.488,4.839-2.283,7.166-8.614c.9,4.716,3.635,11.757,10,10.915,5.749-.763,6.729-14.306,6.729-14.306S60.521,64.28,61.9,66.042c.951,1.219,3,3.43,8.1,2.677s6.464-10.509,6.068-13.01-1.248-5.443.094-6.416a1.8,1.8,0,0,1,2.2.065c1.13.787,2.431,2.737,2.858,5.964.688,5.2,4.386,6.519,7.364,6.937,5.6.78,10.089-5.047,9.29-12.8" transform="translate(12.894 14.877)" fill="#1a1311" fill-rule="evenodd"/>
      <path id="パス_125" data-name="パス 125" d="M65.693,62.536a3.173,3.173,0,0,1-2.979-1.289C60.088,57.853,60.3,53.555,59.492,50.5c-.463-1.764-1.294-3.355-3.092-3.355-.106,0-.208,0-.311.014-1.926.15-1.8,1.661-2,3.582-.292,2.672-2.3,10.425-2.877,11.32-.852,1.311-2.443,1.412-4.444,1.192-3.5-.389-4.786-11.962-4.936-12.754-.336-1.762-.76-3.782-2.549-3.929-.111-.007-.22-.012-.331-.012-1.658,0-2.126,3.181-2.184,4.864-.169,4.979-2.112,9.15-3.956,9.747a5.861,5.861,0,0,1-2.766.041c-1.605-.307-3.519-4.009-3.915-5.233a63.77,63.77,0,0,1-1.364-8.738c-.374-1.545-.053-2.563-1.617-2.839a4.164,4.164,0,0,0-.69-.058c-1.323,0-1.627,1.7-2.457,3.464-.794,1.682-2.3,6.155-3.377,6.7a4.759,4.759,0,0,1-3.432.227c-.654-.34-.758-.751-1.183-1.622-.62-1.279-1.426-6.589-1.2-10.179a59.5,59.5,0,0,1,2.93-12.945c2.066-5.037,5.3-11.265,11.979-14.753a29.86,29.86,0,0,1,13.934-3.056,63.706,63.706,0,0,1,18.771,3.256c4.827,1.513,8.337,2.747,11.035,3.884a45.887,45.887,0,0,1,10.659,5.7c3.22,2.457,7.42,8.489,9.565,13.732l.234.572c.772,1.863.956,2.307,1.492,6.729l.152,1.47c.3,2.937-.381,5.643-1.822,7.241a3.317,3.317,0,0,1-2.491,1.233,3.672,3.672,0,0,1-.451-.031c-2.991-.418-3.7-1.554-3.954-3.5-.517-3.893-2.17-7.07-4.538-8.718a4.969,4.969,0,0,0-3.09-1.11c-1.2,0-.953-.065-1.714.3-3.058,1.472-2.573,6.457-2.269,11.009.34,5.1-.937,7.743-4.316,8.566h-.056c-.34,0-.772.031-1.173.031" transform="translate(15.229 17.217)" fill="#fff" fill-rule="evenodd"/>
    </g>
  </g>
</svg>
