<svg xmlns="http://www.w3.org/2000/svg" width="40.574" height="58.339" viewBox="0 0 40.574 58.339">
  <path id="パス_126" data-name="パス 126" d="M11.714,170.948a51.264,51.264,0,0,0,1.243,5.631c.64,2.027.981,3.857,2.984,6.015,1.266,1.366,6.291-1.384,7.766-2.259s7-2.65,8.749.371.91,5.16.318,6.023-4.246,4.488-4.246,4.488,5.271-1.847,7.682.9-1.129,8.038-3.872,9.783c4.566-.12,5.6-.178,7.215,2.353s-.3,6.362-1.729,7.542-2.674,2.062-2.674,2.062,4.417.928,5.02,3.084.57,3.6-.366,5.134-4.616,3.742-7.118,5.066-7.04,1.937-8.548,2.1a18.67,18.67,0,0,1-14.3-5.4c-5.6-5.676-8.774-14.092-9.5-23.762s-.221-12.319,1.013-15.91c1.012-2.947,2.91-7.2,5.847-10.036a11.5,11.5,0,0,1,4.519-3.183" transform="translate(0 -170.948)" fill="#881ea4" fill-rule="evenodd"/>
</svg>
