<svg xmlns="http://www.w3.org/2000/svg" xmlns:xlink="http://www.w3.org/1999/xlink" width="191" height="150" viewBox="0 0 191 150">
  <defs>
    <clipPath id="clip-path">
      <rect id="長方形_74" data-name="長方形 74" width="191" height="150" transform="translate(947 4137)" fill="#fff" stroke="#707070" stroke-width="1"/>
    </clipPath>
    <clipPath id="clip-path-2">
      <rect id="長方形_72" data-name="長方形 72" width="95.569" height="240.894" fill="none"/>
    </clipPath>
  </defs>
  <g id="マスクグループ_3" data-name="マスクグループ 3" transform="translate(-947 -4137)" clip-path="url(#clip-path)">
    <g id="グループ_137" data-name="グループ 137" transform="translate(1004.431 4166.553)">
      <g id="グループ_136" data-name="グループ 136" clip-path="url(#clip-path-2)">
        <path id="パス_244" data-name="パス 244" d="M43.166,0s1.63,0,6.219.452a33.337,33.337,0,0,1,9.937,2.672c.149.129,11.656,21.731,13.626,25.7S81.1,43.155,83.4,50.255s5.41,17.542,5.865,22.152.966,16.931,1.741,22.321,4.32,27.733,4.517,31.47a311.754,311.754,0,0,1-1.539,32.68c-1.248,10.689-3.34,18.139-3.954,19.675s-8.5,16.166-11.561,20.619-4.937,7.056-7,11.657-4.882,11.623-6.541,14.346-3.162,5.167-4.475,7.1-5.168,7.191-5.786,8.447c-2.277.317-5.783.357-8.156-1.259-1.709-3-4.726-7.122-6.13-9.122s-2.479-3.56-10.455-16.253S2.756,149.592.509,124.143s3.539-38.62,6-44.876,5.541-14.382,6.483-18.8S15.008,46.981,18.1,39.719s14.942-24.726,16.35-26.679S42.069.265,43.166,0" transform="translate(0)" fill="#881ea4" fill-rule="evenodd"/>
        <path id="パス_245" data-name="パス 245" d="M68.13,74.768H65.892c-.015.051-.1.207-.117.258l-.226.011c.006.114.012.226.018.339l-.436.362c0,.075.007.151.011.226-.109.081-.514.058-.623.138-.035.078-.069.155-.1.232l-.226.012.007.113-.448.135c0,.038,0,.075.006.114l-.338.017,0,.113-.338.017-.1.232c-.324.208-.382-.047-.785.152,0,.037,0,.075.005.113l-.446.136c0,.037,0,.075.005.113-.486.208-1.01-.1-1.255-.164L59.031,77.4c0,.037,0,.075.005.113l-.114.005c0-.037,0-.075-.005-.113l-.226.012,0-.114a1.044,1.044,0,0,0-.571-.085c-.18-.559-.324-.288-.707-.531,0-.037,0-.075-.005-.113l-.232-.1c-.166-.193.044-.17-.243-.327l-.161-1.375h-2.06l.063,1.256.233.1q.009.226.023.452l.112-.005c.045.149.09.3.137.446l.112-.005c.006.113.011.226.018.339l.937.632c.005.114.011.226.017.339l.587.424.012.226a3.065,3.065,0,0,1,.457.09c0-.037,0-.075-.005-.113l.226-.012c.005.114.011.226.017.339l.572.085c0,.038,0,.075.005.114l.225-.012.125.22.565-.028c0,.038,0,.075.005.113l1.13-.057c.082.11.163.219.244.328l.338-.017c0,.038,0,.075.005.114l1.464-.187c0-.038,0-.075,0-.114L63,79.8c0-.038,0-.075-.005-.114l.226-.011c0-.038,0-.075-.006-.113l.9-.159.1-.232.452-.023c0-.037,0-.075-.006-.113l.226-.012c0-.037,0-.075,0-.113l.338-.017.1-.232.233.1c.033-.077.067-.155.1-.232l.334-.13,0-.114.332-.13c0-.075-.006-.15-.011-.226.383-.125.278-.256.662-.373.051-.426.114-.8.52-.933a1.677,1.677,0,0,1,.3-.808l.22-.124c-.006-.113-.012-.226-.018-.339l.114-.005c0-.075-.008-.151-.011-.226l.112-.005c-.025-.119-.052-.238-.078-.357" transform="translate(-12.158 -16.617)" fill="#fff" fill-rule="evenodd"/>
        <path id="パス_246" data-name="パス 246" d="M82.975,60.846l-.435.362c0,.075.007.151.011.226l-.327.243-.1.232-.226.012c0,.037,0,.075.006.113l-.446.135c0,.038,0,.075.005.114l-.339.017c0,.037,0,.075.005.113l-.339.017-.1.232c-.324.208-.383-.048-.786.152,0,.037,0,.075.006.113l-.446.135c0,.038,0,.075.005.114-.486.208-1.01-.1-1.255-.164l-1.475-.039c0,.037,0,.075.005.113l-.114.005c0-.037,0-.075-.005-.113l-.226.011c0-.037,0-.075-.005-.113a1.036,1.036,0,0,0-.571-.085c-.18-.559-.324-.288-.706-.531,0-.037,0-.075-.005-.113l-.232-.1c-.166-.193.044-.17-.243-.327-.054-.459-2.179-.537-2.158-.119l.232.1c.007.151.015.3.023.452l.113-.005c.045.149.09.3.136.446l.113-.005c.005.113.012.226.017.339l.938.632c.005.114.012.226.017.339l.587.424.012.226a3,3,0,0,1,.458.09c0-.037,0-.075-.006-.113l.226-.012c.005.113.011.226.017.339l.571.085c0,.038,0,.075.005.114l.226-.012c.042.073.083.147.124.22l.565-.028c0,.037,0,.075.005.113l1.13-.057.243.328.339-.017c0,.037,0,.075.005.113l1.464-.186c0-.038,0-.075-.005-.114l.678-.033c0-.038,0-.075-.006-.114l.226-.011c0-.038,0-.075-.005-.114l.9-.158.1-.232.452-.023c0-.038,0-.075-.005-.113L82.6,64.6c0-.037,0-.075-.006-.113l.339-.017.1-.232.232.1c.033-.078.068-.155.1-.232l.333-.13c0-.038,0-.075-.005-.114l.334-.13-.012-.226c.382-.125.278-.256.661-.373.052-.426.114-.8.52-.933a1.665,1.665,0,0,1,.3-.808,13.491,13.491,0,0,0-2.521-.554" transform="translate(-16.107 -13.52)" fill="#fff" fill-rule="evenodd"/>
        <path id="パス_247" data-name="パス 247" d="M50.351,59.77l-.438.359c0,.075.007.151.01.226l-.33.241-.1.231-.226.009,0,.114-.447.132,0,.114-.339.014c0,.038,0,.075.005.114l-.34.015-.1.231c-.326.206-.383-.051-.787.147,0,.038,0,.075.005.113l-.447.133,0,.113c-.488.2-1.009-.107-1.254-.172l-1.475-.05c0,.038,0,.075.005.114l-.114,0,0-.114-.226.01,0-.113a1.044,1.044,0,0,0-.57-.089c-.177-.561-.324-.29-.7-.536l0-.114-.231-.1c-.164-.194.045-.17-.241-.33-.051-.459-2.176-.552-2.157-.133l.231.1c.006.15.013.3.019.452l.113,0,.133.447.113,0c0,.113.01.226.015.339l.934.639.014.339L42,63.19c0,.075.007.151.01.226a2.939,2.939,0,0,1,.457.093l0-.114.226-.009c.005.113.01.226.015.339l.57.089c0,.037,0,.075.005.113l.226-.01.123.222.565-.025,0,.114,1.131-.049.24.329.34-.014,0,.113,1.465-.177,0-.114.678-.029,0-.114.226-.009c0-.038,0-.075-.005-.114l.9-.152.1-.231.452-.02,0-.113.226-.009c0-.038,0-.075-.005-.114l.34-.015.1-.231.231.1c.035-.077.069-.154.1-.231l.334-.128,0-.114.334-.128-.009-.226c.383-.123.28-.254.663-.369.055-.426.12-.8.527-.929a1.667,1.667,0,0,1,.3-.806,13.445,13.445,0,0,0-2.517-.571" transform="translate(-8.856 -13.28)" fill="#fff" fill-rule="evenodd"/>
      </g>
    </g>
  </g>
</svg>
