<svg id="グループ_106" data-name="グループ 106" xmlns="http://www.w3.org/2000/svg" xmlns:xlink="http://www.w3.org/1999/xlink" width="78.501" height="167.844" viewBox="0 0 78.501 167.844">
  <defs>
    <clipPath id="clip-path">
      <rect id="長方形_56" data-name="長方形 56" width="78.501" height="167.844" fill="none"/>
    </clipPath>
  </defs>
  <g id="グループ_105" data-name="グループ 105" clip-path="url(#clip-path)">
    <path id="パス_127" data-name="パス 127" d="M52.061,0S53.2,0,56.394.315a23.228,23.228,0,0,1,6.924,1.861c.1.09,8.122,15.141,9.494,17.907S78.5,30.068,80.1,35.015s3.77,12.222,4.087,15.435S84.857,62.247,85.4,66s3.01,19.323,3.147,21.927a217.214,217.214,0,0,1-1.072,22.77,70.183,70.183,0,0,1-2.755,13.709c-.427,1.07-5.924,11.264-8.055,14.367a46.208,46.208,0,0,0-4.877,8.122c-1.437,3.205-3.4,8.1-4.557,10s-2.2,3.6-3.118,4.945-3.6,5.01-4.031,5.886c-1.586.221-4.029.249-5.682-.877-1.191-2.092-3.293-4.962-4.271-6.356s-1.728-2.48-7.285-11.324S23.905,104.229,22.339,86.5s2.466-26.908,4.178-31.268a109.414,109.414,0,0,0,4.517-13.1c.657-3.079,1.408-9.395,3.559-14.454S45,10.446,45.985,9.086,51.3.185,52.061,0" transform="translate(-10.071)" fill="#881ea4" fill-rule="evenodd"/>
    <path id="パス_128" data-name="パス 128" d="M13.151,170.948a57.555,57.555,0,0,0,1.4,6.322c.718,2.275,1.1,4.33,3.35,6.753,1.421,1.533,7.063-1.554,8.718-2.537s7.857-2.976,9.823.417,1.022,5.793.357,6.762-4.767,5.038-4.767,5.038,5.917-2.074,8.624,1.01-1.268,9.024-4.347,10.983c5.126-.134,6.282-.2,8.1,2.642s-.338,7.143-1.942,8.467-3,2.314-3,2.314,4.958,1.042,5.636,3.463.64,4.041-.411,5.764-5.182,4.2-7.991,5.688-7.9,2.175-9.6,2.354a20.961,20.961,0,0,1-16.058-6.061C4.754,223.956,1.19,214.507.376,203.651S.128,189.82,1.513,185.789c1.136-3.308,3.267-8.089,6.564-11.267a12.909,12.909,0,0,1,5.074-3.573" transform="translate(0 -78.31)" fill="#fff" fill-rule="evenodd"/>
    <path id="パス_129" data-name="パス 129" d="M31.159,227.519a.335.335,0,0,0,.122-.148.346.346,0,0,0,.121-.148h0a.337.337,0,0,0,.119-.132.379.379,0,0,0,.074-.135l.02-.018a.385.385,0,0,0,.128-.277c0-.01.008-.019.011-.029a.382.382,0,0,0,.11-.265.386.386,0,0,0,.069-.182.308.308,0,0,0,.033-.268c0-.021-.008-.081-.011-.146a.383.383,0,0,0,.059-.368.727.727,0,0,1-.01-.311,2.36,2.36,0,0,0,.015-.271.4.4,0,0,0-.03-.141l-.023-.055a.39.39,0,0,0-.05-.3L31.9,224.3a.381.381,0,0,0-.016-.062.392.392,0,0,0-.053-.1.43.43,0,0,0-.065-.1.436.436,0,0,0-.059-.149.382.382,0,0,0-.037-.048.478.478,0,0,0-.113-.17.237.237,0,0,0-.025-.022l-.1-.187a.327.327,0,0,0-.033-.05.376.376,0,0,0-.036-.115l-.136-.271a.382.382,0,0,0-.209-.176l-.028-.018a.391.391,0,0,0-.362-.115l-.04.009a1.046,1.046,0,0,0-.1-.07.384.384,0,0,0-.276-.149.546.546,0,0,0-.057-.019l-.178-.161a.376.376,0,0,0-.261-.1.477.477,0,0,0-.146-.044.753.753,0,0,0-.329-.11.387.387,0,0,0-.3-.093.376.376,0,0,0-.1,0,.3.3,0,0,0-.045.005.981.981,0,0,0-.434-.005l-.012.007a.391.391,0,0,0-.189.022l-.036.014a2.149,2.149,0,0,0-.447.1.379.379,0,0,0-.111.037l-.594.305a.305.305,0,0,0-.069.049.536.536,0,0,0-.224.154.317.317,0,0,0-.037.053l-.014.016-.116.057a.388.388,0,0,0-.166.209l0,0a.323.323,0,0,0-.109.116.584.584,0,0,0-.107.223l-.061.075a.4.4,0,0,0-.076.155.453.453,0,0,0-.068.218.648.648,0,0,0-.057.146.354.354,0,0,0-.07.188.378.378,0,0,0-.047.176l0,.089a.38.38,0,0,0-.057.277.361.361,0,0,0,.02.072.266.266,0,0,0,.009.048l0,.018a.386.386,0,0,0,.03.354l.015.023a.488.488,0,0,0,.021.1l.011.029c0,.014,0,.027.007.04a.449.449,0,0,0,.043.241.392.392,0,0,0,.047.3l0,0h0a.388.388,0,0,0,.048.187.36.36,0,0,0,.054.074l.2.324a.364.364,0,0,0,.114.125.333.333,0,0,0,.109.1l.208.288a.306.306,0,0,0,.1.084.412.412,0,0,0,.08.112,6.665,6.665,0,0,0,.2.108.363.363,0,0,0,.142.158,3.328,3.328,0,0,1,.39.169.392.392,0,0,0,.075.036.313.313,0,0,0,.055.035.381.381,0,0,0,.2.089l.033.016a.387.387,0,0,0,.208.105.383.383,0,0,0,.195.059h.053a.337.337,0,0,0,.273.046l.055.007a.5.5,0,0,0,.309.029h.008l.074,0a.36.36,0,0,1,.159.011.389.389,0,0,0,.15-.03l.042-.018a.4.4,0,0,0,.277.025.544.544,0,0,0,.1,0A.43.43,0,0,0,30,228.01a.388.388,0,0,0,.249-.059l.079-.049a.341.341,0,0,0,.039-.009.365.365,0,0,0,.235-.058l.079-.05a.4.4,0,0,0,.139-.053.435.435,0,0,0,.151-.06.352.352,0,0,0,.1-.1Zm-1.076-1.079-.029.006a.384.384,0,0,0-.138-.009.37.37,0,0,0-.222.03l-.029,0a.367.367,0,0,0-.158.017l-.081.027-.019,0a.434.434,0,0,0-.2-.049.37.37,0,0,0-.128.023.305.305,0,0,0-.062-.01l-.066-.006a.4.4,0,0,0-.1-.027.254.254,0,0,1-.047-.011.451.451,0,0,0-.158-.023.463.463,0,0,0-.121-.01c-.024-.01-.049-.019-.076-.028l-.005-.005a.405.405,0,0,0-.2-.093l-.022-.024a.392.392,0,0,0-.244-.115.373.373,0,0,0-.206-.113l-.471-.561a.48.48,0,0,0-.127-.162l-.005-.01a.382.382,0,0,0-.027-.183c0-.008-.023-.049-.048-.1l-.008-.017a.391.391,0,0,0-.032-.257.563.563,0,0,0,0-.177.389.389,0,0,0,0-.2.592.592,0,0,0,.017-.073,1.283,1.283,0,0,0,.14-.244.282.282,0,0,0,.01-.034l.046-.029a.161.161,0,0,0,.022-.015.657.657,0,0,0,.169-.114.379.379,0,0,0,.135-.043.637.637,0,0,0,.158-.13l.012-.012a.432.432,0,0,0,.178-.054.379.379,0,0,0,.167-.057l.01-.006a.559.559,0,0,0,.182-.028.383.383,0,0,0,.066-.01l.054-.014a.334.334,0,0,0,.109,0,.424.424,0,0,0,.118,0,.346.346,0,0,0,.143.012l.024,0h0a.384.384,0,0,0,.154.06l.151.023a.39.39,0,0,0,.2.123.42.42,0,0,0,.126.059l.015.015a.95.95,0,0,1,.271.172l.014.01.022.034a.33.33,0,0,0,.138.12.48.48,0,0,0,.063.037l.043.048a.3.3,0,0,0,.115.077.343.343,0,0,0,.27.175l.008.028a1.281,1.281,0,0,0,.041.125.613.613,0,0,0,.109.167.419.419,0,0,0,.033.064l.034.051a.4.4,0,0,0,.02.075l0,.01a.354.354,0,0,0,.049.2.174.174,0,0,0,.028.041c0,.01,0,.02,0,.028.011.114.011.114-.009.15a.356.356,0,0,0-.03.21.389.389,0,0,0-.031.253c-.02.057-.036.117-.05.171a.392.392,0,0,0-.114.207l-.121.078-.011,0a.445.445,0,0,0-.122.022.41.41,0,0,0-.146.091" transform="translate(-11.771 -101.659)" fill="#881ea4"/>
    <path id="パス_130" data-name="パス 130" d="M55.087,271.1l.087-.055a.333.333,0,0,0,.122-.149.339.339,0,0,0,.121-.148h0a.341.341,0,0,0,.119-.132.383.383,0,0,0,.074-.135l.02-.018a.388.388,0,0,0,.128-.277c0-.009.008-.019.011-.029a.382.382,0,0,0,.11-.264.393.393,0,0,0,.069-.182.308.308,0,0,0,.033-.268c0-.021-.008-.082-.011-.146a.383.383,0,0,0,.059-.368.715.715,0,0,1-.01-.311,2.342,2.342,0,0,0,.015-.271A.4.4,0,0,0,56,268.2l-.023-.055a.392.392,0,0,0-.05-.3l-.018-.027a.38.38,0,0,0-.016-.062.392.392,0,0,0-.053-.1.429.429,0,0,0-.065-.1.423.423,0,0,0-.059-.149.369.369,0,0,0-.037-.048.476.476,0,0,0-.113-.17.313.313,0,0,0-.025-.022l-.1-.187a.288.288,0,0,0-.033-.049.376.376,0,0,0-.036-.115l-.136-.271a.378.378,0,0,0-.209-.176l-.028-.018a.391.391,0,0,0-.362-.115l-.04.009a1.16,1.16,0,0,0-.1-.07.388.388,0,0,0-.276-.15l-.057-.018-.178-.161a.374.374,0,0,0-.261-.1.463.463,0,0,0-.146-.045.75.75,0,0,0-.329-.11.387.387,0,0,0-.3-.093.375.375,0,0,0-.1,0l-.044,0a.451.451,0,0,0-.067-.013.387.387,0,0,0-.36,0l-.018.01a.392.392,0,0,0-.189.022l-.036.014a3.1,3.1,0,0,0-.557.141l-.594.306a.3.3,0,0,0-.069.049.536.536,0,0,0-.224.154.265.265,0,0,0-.037.053l-.014.016-.116.057a.393.393,0,0,0-.166.21h0a.321.321,0,0,0-.11.117.584.584,0,0,0-.107.223l-.061.075a.385.385,0,0,0-.076.155.453.453,0,0,0-.068.218.606.606,0,0,0-.057.147.348.348,0,0,0-.07.188.378.378,0,0,0-.047.176l0,.089a.38.38,0,0,0-.057.277.372.372,0,0,0,.02.072.257.257,0,0,0,.009.048l0,.018a.386.386,0,0,0,.03.354l.015.023a.5.5,0,0,0,.021.1l.011.029c0,.014,0,.027.007.04a.448.448,0,0,0,.043.241.394.394,0,0,0,.047.3l0,0h0a.388.388,0,0,0,.048.187.4.4,0,0,0,.054.075l.2.324a.379.379,0,0,0,.114.125.333.333,0,0,0,.109.1l.208.288a.313.313,0,0,0,.1.084.388.388,0,0,0,.08.111.342.342,0,0,0,.14.077.346.346,0,0,0,.061.032.363.363,0,0,0,.142.158.4.4,0,0,0,.27.111.388.388,0,0,0,.12.059.393.393,0,0,0,.075.036.361.361,0,0,0,.055.035.385.385,0,0,0,.2.089l.033.016a.387.387,0,0,0,.208.105.382.382,0,0,0,.195.059h.053a.338.338,0,0,0,.273.046l.054.007a.492.492,0,0,0,.309.029h.008c.021,0,.042,0,.074,0a.293.293,0,0,0,.05,0,.39.39,0,0,0,.109.016.4.4,0,0,0,.15-.031l.042-.018a.4.4,0,0,0,.277.025.5.5,0,0,0,.1,0,.414.414,0,0,0,.185-.015.385.385,0,0,0,.249-.059l.079-.049.038-.009a.369.369,0,0,0,.236-.058l.079-.05a.361.361,0,0,0,.138-.052h0a.424.424,0,0,0,.151-.06.352.352,0,0,0,.1-.1m-.989-1.134-.029.006a.382.382,0,0,0-.138-.009.374.374,0,0,0-.222.03l-.029,0a.376.376,0,0,0-.158.018l-.081.027-.019,0a.432.432,0,0,0-.2-.049.371.371,0,0,0-.128.023.343.343,0,0,0-.062-.01L52.97,270a.405.405,0,0,0-.1-.027.309.309,0,0,1-.047-.01.426.426,0,0,0-.158-.024.464.464,0,0,0-.121-.01c-.024-.01-.049-.019-.076-.028l-.005-.006a.407.407,0,0,0-.2-.093l-.022-.024a.392.392,0,0,0-.244-.115.368.368,0,0,0-.206-.112l-.471-.562a.47.47,0,0,0-.127-.161l-.005-.011a.381.381,0,0,0-.027-.182c0-.008-.023-.049-.048-.1l-.008-.016a.391.391,0,0,0-.032-.257.563.563,0,0,0,0-.177.389.389,0,0,0,0-.2.608.608,0,0,0,.017-.072,1.356,1.356,0,0,0,.141-.245.3.3,0,0,0,.01-.033l.047-.03.021-.015a.661.661,0,0,0,.169-.114.378.378,0,0,0,.135-.043.633.633,0,0,0,.158-.129l.012-.012a.424.424,0,0,0,.178-.054.381.381,0,0,0,.167-.057l.01-.007a.569.569,0,0,0,.183-.028.369.369,0,0,0,.066-.01l.054-.013a.388.388,0,0,0,.109,0,.422.422,0,0,0,.118,0,.346.346,0,0,0,.143.012l.023,0h0a.389.389,0,0,0,.154.06l.151.023a.386.386,0,0,0,.2.122.423.423,0,0,0,.126.06l.015.015a.361.361,0,0,0,.154.081.355.355,0,0,0,.118.09l.014.01.022.035a.324.324,0,0,0,.138.119.351.351,0,0,0,.063.038l.043.048a.305.305,0,0,0,.115.077.343.343,0,0,0,.27.175l.008.028a1.281,1.281,0,0,0,.041.125.626.626,0,0,0,.109.167.418.418,0,0,0,.033.064l.034.051a.4.4,0,0,0,.02.075l0,.01a.341.341,0,0,0,.05.2.24.24,0,0,0,.027.041c0,.01,0,.02,0,.028.011.115.011.115-.009.15a.351.351,0,0,0-.03.21.386.386,0,0,0-.032.253c-.02.057-.036.117-.05.171a.387.387,0,0,0-.114.207l-.122.078-.012,0a.426.426,0,0,0-.122.022.41.41,0,0,0-.146.091" transform="translate(-22.772 -121.597)" fill="#881ea4"/>
    <path id="パス_131" data-name="パス 131" d="M46.386,256.177l0,0,.021-.022a.53.53,0,0,0,.233-.149.393.393,0,0,0,.033-.042.358.358,0,0,0,.073-.08l.066-.042a.352.352,0,0,0,.127-.152l.028-.027a.339.339,0,0,0,.08-.119.438.438,0,0,0,.11-.26.747.747,0,0,0,.114-.314.381.381,0,0,0-.007-.073.39.39,0,0,0,.006-.2.385.385,0,0,0,0-.223.416.416,0,0,0-.01-.123l-.013-.053a.389.389,0,0,0-.031-.215l-.021-.047a.387.387,0,0,0-.057-.253l-.082-.13a.38.38,0,0,0-.055-.143l-.1-.154a.323.323,0,0,0-.027-.049l-.1-.153a.324.324,0,0,0-.139-.12l-.016-.011-.106-.167a.352.352,0,0,0-.142-.126l-.055-.065a.384.384,0,0,0-.081-.072.325.325,0,0,0-.12-.138.174.174,0,0,0-.014-.023.343.343,0,0,0-.1-.1L46,252.317a19.267,19.267,0,0,1-.483-.329.328.328,0,0,0-.092-.049.378.378,0,0,0-.18-.1.642.642,0,0,0,.024-.1.079.079,0,0,1,.012-.014.422.422,0,0,0,.12-.363.386.386,0,0,0,.036-.228.361.361,0,0,0-.011-.134.386.386,0,0,0,0-.165c0-.007,0-.014,0-.021a.375.375,0,0,0,.012-.153.385.385,0,0,0-.021-.206v0a.386.386,0,0,0-.063-.385v0a.383.383,0,0,0-.055-.26l-.067-.106a.379.379,0,0,0-.064-.157l-.366-.521a.332.332,0,0,0-.141-.1.461.461,0,0,0-.286-.205l-.241-.2a.381.381,0,0,0-.144-.078.4.4,0,0,0-.178-.057.552.552,0,0,0-.053-.02l-.011-.01a.386.386,0,0,0-.157-.089.349.349,0,0,0-.081-.038.478.478,0,0,0-.169-.073h-.007a.384.384,0,0,0-.23-.1,1.092,1.092,0,0,0-.261-.105l-.035-.008a.39.39,0,0,0-.152-.055,1.129,1.129,0,0,0-.244-.1.338.338,0,0,0-.16-.067.379.379,0,0,0-.192-.059.822.822,0,0,0-.246-.069.429.429,0,0,0-.174-.035.566.566,0,0,0-.092-.01l-.024-.01a.481.481,0,0,0-.362-.081.755.755,0,0,0-.309-.029.517.517,0,0,0-.19-.033.524.524,0,0,0-.254,0,.616.616,0,0,0-.152-.026,1.235,1.235,0,0,0-.391-.039.377.377,0,0,0-.229-.011h0l-.007,0-.008,0a.387.387,0,0,0-.274-.009.529.529,0,0,0-.078,0,.356.356,0,0,0-.261,0,.649.649,0,0,0-.083-.018.38.38,0,0,0-.053-.018.388.388,0,0,0-.191,0,.376.376,0,0,0-.135,0,.629.629,0,0,0-.212.07.46.46,0,0,0-.257.082.572.572,0,0,0-.217.248l-.008.018a.389.389,0,0,0-.091.2l-.049.316a.453.453,0,0,0,.075.3.468.468,0,0,0,.38.241.5.5,0,0,0,.246.033h.005a.373.373,0,0,0,.228-.02.385.385,0,0,0,.267,0,.563.563,0,0,0,.137-.012.715.715,0,0,0,.274.009l.03,0a.413.413,0,0,0,.122.008,1.531,1.531,0,0,0,.36,0,.388.388,0,0,0,.14.047l.237.03a.386.386,0,0,0,.129-.015l.018,0,.017,0a.833.833,0,0,0,.158,0,.625.625,0,0,0,.3.024.409.409,0,0,0,.19.037l.057.009.025.011a.388.388,0,0,0,.247.053l.1.014a.384.384,0,0,0,.184.07.376.376,0,0,0,.083.018.365.365,0,0,0,.105.021,1.449,1.449,0,0,0,.339.125l.039.007a.382.382,0,0,0,.15.079.446.446,0,0,0,.2.1.363.363,0,0,0,.234.1.4.4,0,0,0,.122.056.39.39,0,0,0,.211.084.568.568,0,0,0,.06.033.385.385,0,0,0,.121.059.368.368,0,0,0,.053.027.348.348,0,0,0,.114.076.475.475,0,0,0,.088.042.373.373,0,0,0,.108.056l.061.049a.29.29,0,0,0,.049.033l.132.174a.314.314,0,0,0,.139.1l.027.062a.448.448,0,0,0,.007.065.4.4,0,0,0,.044.174c0,.01,0,.022.007.033l.024.1a.387.387,0,0,0,.018.218.049.049,0,0,0,0,.019.461.461,0,0,0,0,.048.353.353,0,0,0-.014.083l0,.062-.02.013a.625.625,0,0,0-.105.012.417.417,0,0,0-.2.039,1.033,1.033,0,0,1-.438.034.377.377,0,0,0-.052-.007.393.393,0,0,0-.288-.094l-.074.008a.368.368,0,0,0-.079.017l-.037-.015a.366.366,0,0,0-.2-.007.4.4,0,0,0-.2.011l-.048.016-.049-.008a1.129,1.129,0,0,0-.341-.015.38.38,0,0,0-.309-.023.487.487,0,0,1-.125.018,1.48,1.48,0,0,0-.176.02.505.505,0,0,0-.242,0,.4.4,0,0,0-.053-.014.379.379,0,0,0-.3.062.514.514,0,0,0-.26.052,1.022,1.022,0,0,0-.378.268.321.321,0,0,0-.027.04.365.365,0,0,0-.088.148.412.412,0,0,0-.06.323.4.4,0,0,0-.019.162.7.7,0,0,0,.187.383.38.38,0,0,1,.039.048.441.441,0,0,0,.471.154h0a.811.811,0,0,0,.154,0,.487.487,0,0,0,.094.018l.03,0a.432.432,0,0,0,.166.041.414.414,0,0,0,.27.03l.03,0a.286.286,0,0,0,.068.015.379.379,0,0,0,.237.017.514.514,0,0,0,.08-.007.377.377,0,0,0,.211,0,.349.349,0,0,0,.163,0h.022a.389.389,0,0,0,.175.01.289.289,0,0,0,.177-.042.473.473,0,0,0,.223-.018,2.527,2.527,0,0,0,.408-.059.387.387,0,0,0,.251-.021l.016,0,.04.006.067.025a.37.37,0,0,0,.191,0,.314.314,0,0,0,.044.007h0a.383.383,0,0,0,.171.062.445.445,0,0,0,.076.018l.125.016.138.113a.388.388,0,0,0,.2.084l.053.005.012.012a.429.429,0,0,0,.2.094l0,0a.291.291,0,0,0,.1.062.4.4,0,0,0,.077.073.385.385,0,0,0,.193.135l.139.156a.333.333,0,0,0,.121.086.307.307,0,0,0,.083.076l.126.2a.293.293,0,0,0,.054.063l.014.034a.347.347,0,0,0,.15.164l.03.039a.4.4,0,0,0,.014.083.532.532,0,0,0,.1.2l0,.008c0,.009,0,.017-.006.027a1.132,1.132,0,0,0-.017.163,1.25,1.25,0,0,1-.195.161l-.056.011a.375.375,0,0,0-.251.057l-.07.045-.037-.008a.394.394,0,0,0-.308.087.382.382,0,0,0-.152.056l-.069.044-.02,0a.531.531,0,0,0-.073,0,.358.358,0,0,0-.138,0,.565.565,0,0,0-.18.064l-.057.007a.38.38,0,0,0-.274.01l-.024.01a.388.388,0,0,0-.12,0l-.028-.01a.392.392,0,0,0-.248-.01.191.191,0,0,0-.044-.007.451.451,0,0,0-.2-.008l-.056-.014a1.02,1.02,0,0,0-.167-.024.476.476,0,0,0-.178-.026h-.022l-.046-.017a.3.3,0,0,0-.118-.018l-.05-.02-.007,0a.366.366,0,0,0-.1-.054.358.358,0,0,0-.162-.079.386.386,0,0,0-.4.013l-.069.047a.437.437,0,0,0-.2.093.328.328,0,0,0-.077.1.374.374,0,0,0-.074.147v0a.387.387,0,0,0-.083.319.208.208,0,0,0,.02.047l0,0a.386.386,0,0,0,.039.266l.014.022.13.2a.4.4,0,0,0,.256.161l.025,0a.416.416,0,0,0,.175.06l.035.017a.307.307,0,0,0,.07.016.39.39,0,0,0,.284.057l.043,0a.394.394,0,0,0,.2,0,.376.376,0,0,0,.075.016l.243.027a.408.408,0,0,0,.328.054l.027,0a.394.394,0,0,0,.163.035.39.39,0,0,0,.138-.026l.007,0a.387.387,0,0,0,.21.007.362.362,0,0,0,.087,0,.387.387,0,0,0,.186,0,.376.376,0,0,0,.321-.041h0l.023,0h.02a.4.4,0,0,0,.235-.031l.089-.042a.381.381,0,0,0,.133-.03.4.4,0,0,0,.187-.042l.148-.076a.415.415,0,0,0,.108-.007l.023,0a.41.41,0,0,0,.079-.013.436.436,0,0,0,.193-.121l.054-.022a.456.456,0,0,0,.353-.121m-5.5-4.914h0l-.016-.012v0Z" transform="translate(-17.273 -113.263)" fill="#881ea4"/>
    <path id="パス_132" data-name="パス 132" d="M21.277,211.755h0a.341.341,0,0,0,.1-.1l.143-.092a.357.357,0,0,0,.083-.072,1.549,1.549,0,0,0,.107-.142.387.387,0,0,1,.1-.113.383.383,0,0,0,.147-.22.494.494,0,0,0,.132-.161.383.383,0,0,0,.043-.18.388.388,0,0,0,.157-.28v0a.79.79,0,0,0,.066-.479l-.006-.015a.583.583,0,0,0-.005-.133,1.177,1.177,0,0,0-.07-.386l-.018-.03a.381.381,0,0,0-.06-.207l-.094-.15a.425.425,0,0,0-.061-.151.312.312,0,0,0-.047-.057.423.423,0,0,0-.057-.1.344.344,0,0,0-.076-.069l-.068-.107a.312.312,0,0,0-.06-.069l-.029-.064a.348.348,0,0,0-.028-.049.221.221,0,0,0-.014-.023l-.1-.153a.317.317,0,0,0-.1-.1l-.008-.012a.321.321,0,0,0-.1-.1l-.025-.04a.334.334,0,0,0-.1-.1.358.358,0,0,0-.087-.081l-.009-.012a.382.382,0,0,0-.174-.15.4.4,0,0,0-.147-.09l-.141-.115a.3.3,0,0,0-.084-.048l0,0a.361.361,0,0,0-.135-.09l0,0a.337.337,0,0,0-.087-.06.379.379,0,0,0-.15-.072.289.289,0,0,0-.067-.038.519.519,0,0,0,.03-.117.777.777,0,0,0,.123-.256.345.345,0,0,0,.07-.177l.022-.027a.362.362,0,0,0,.075-.184.381.381,0,0,0,.09-.174.385.385,0,0,0-.021-.234.362.362,0,0,0-.011-.1l0-.008a1.222,1.222,0,0,0-.045-.5l0,0a.375.375,0,0,0-.046-.184.382.382,0,0,0-.081-.238l-.11-.143a.238.238,0,0,0-.012-.036.471.471,0,0,0-.169-.224l-.119-.188a.316.316,0,0,0-.1-.1l-.074-.117a.334.334,0,0,0-.163-.134.486.486,0,0,0-.074-.036l-.086-.107a.339.339,0,0,0-.124-.095.306.306,0,0,0-.056-.033l-.038-.043a.324.324,0,0,0-.131-.082.419.419,0,0,0-.057-.044,4.12,4.12,0,0,0-.165-.13.577.577,0,0,0-.19-.092l-.116-.116a.382.382,0,0,0-.176-.1.374.374,0,0,0-.161-.054l-.025-.008a.362.362,0,0,0-.173-.078.388.388,0,0,0-.17-.066l-.007-.005a.4.4,0,0,0-.085-.053.563.563,0,0,0-.115-.037.363.363,0,0,0-.248-.085c-.026-.01-.054-.019-.088-.029l-.014,0a.4.4,0,0,0-.184-.042h0a.4.4,0,0,0-.2-.073.263.263,0,0,0-.042-.01.621.621,0,0,0-.209-.045.7.7,0,0,0-.1-.042.464.464,0,0,0-.157-.06.57.57,0,0,0-.072-.029.208.208,0,0,0-.042-.009.4.4,0,0,0-.172-.014.611.611,0,0,0-.063-.009.389.389,0,0,0-.174-.021.467.467,0,0,0-.132-.043.366.366,0,0,0-.286-.033l-.03,0-.011,0a.36.36,0,0,0-.31-.051l-.038-.01a.377.377,0,0,0-.161,0,1.215,1.215,0,0,0-.126,0h0a.451.451,0,0,0-.318-.039h0a.761.761,0,0,0-.154,0,.43.43,0,0,0-.087.022h0a.38.38,0,0,0-.23.007.467.467,0,0,0-.106.028l-.024,0c-.037,0-.078.009-.121.016a.744.744,0,0,0-.1-.029.387.387,0,0,0-.288.051l0,0a.41.41,0,0,0-.051,0,.387.387,0,0,0-.238.012l-.048.018a.652.652,0,0,0-.082,0,.4.4,0,0,0-.206.02.383.383,0,0,0-.268.054h0a.409.409,0,0,0-.087,0,.374.374,0,0,0-.069-.007.513.513,0,0,0-.106.015.389.389,0,0,0-.255.074.824.824,0,0,0-.193.2.362.362,0,0,0-.1.193.812.812,0,0,0-.073.085.387.387,0,0,0-.033.41l.169.322,0,.006a.351.351,0,0,0,.137.134.384.384,0,0,0,.174.082.389.389,0,0,0,.473-.018.379.379,0,0,0,.106-.031l.12-.054a.38.38,0,0,0,.08-.018.226.226,0,0,0,.038-.008l.027,0a.373.373,0,0,0,.217.008l.068-.017a.452.452,0,0,0,.178-.024.553.553,0,0,0,.172-.023.385.385,0,0,0,.326-.029.3.3,0,0,0,.053-.007l.029,0a.38.38,0,0,0,.225-.016.359.359,0,0,0,.053.005.409.409,0,0,0,.086,0,.391.391,0,0,0,.291.011l.1-.037a.591.591,0,0,0,.184.023.485.485,0,0,0,.09.023l.063.008a.392.392,0,0,0,.214.035.438.438,0,0,0,.142.013l.015,0a.422.422,0,0,0,.048.012,2.376,2.376,0,0,0,.292.044.469.469,0,0,0,.159.042.413.413,0,0,0,.115.041l.39.07a.4.4,0,0,0,.258.081.344.344,0,0,0,.049.009.365.365,0,0,0,.177.063.882.882,0,0,0,.161.071l.018,0h0l.054.02a.566.566,0,0,0,.117.047.626.626,0,0,0,.086.035.992.992,0,0,0,.316.134h0a.38.38,0,0,0,.088.043.319.319,0,0,0,.069.038.373.373,0,0,0,.066.035.323.323,0,0,0,.105.073.291.291,0,0,0,.056.03.494.494,0,0,0,.106.05l.022.023a.343.343,0,0,0,.116.08.375.375,0,0,0,.055.03l.021.022a.315.315,0,0,0,.06.049.347.347,0,0,0,.109.091.4.4,0,0,0,.12.074l.119.157a.345.345,0,0,0,.129.1l.012.008.038.061a.326.326,0,0,0,.1.1l.009.013a.319.319,0,0,0,.09.093l.007.019a.607.607,0,0,0,.089.177c.007.009.016.018.024.027l.005.012.01.023a.383.383,0,0,0,.009.153v.007a.379.379,0,0,0-.014.067.323.323,0,0,0-.022.031.4.4,0,0,0-.076.092.488.488,0,0,0-.07.033.406.406,0,0,0-.114.1l-.077.04a.225.225,0,0,0-.037.006.38.38,0,0,0-.2.059l-.041.026a.271.271,0,0,0-.048.014.513.513,0,0,0-.094.023l-.055.011a.377.377,0,0,0-.216.037l-.1.047a.37.37,0,0,0-.164.02.356.356,0,0,0-.224-.012l-.027,0a.2.2,0,0,0-.043,0,.384.384,0,0,0-.135.024l-.032-.006a1.129,1.129,0,0,0-.3-.021.378.378,0,0,0-.237,0,.6.6,0,0,1-.139-.013l-.016,0a1.226,1.226,0,0,0-.345-.022l-.022,0a.269.269,0,0,0-.193-.047.5.5,0,0,0-.158-.014.426.426,0,0,0-.251,0,.364.364,0,0,0-.159-.015.382.382,0,0,0-.117,0,.446.446,0,0,0-.126.036.393.393,0,0,0-.219.036l-.246.12a.389.389,0,0,0-.192.217.436.436,0,0,0-.063.182.249.249,0,0,0,0,.041l-.053.089a.377.377,0,0,0,0,.4l.21.331a.387.387,0,0,0,.207.16l.225.073a.341.341,0,0,0,.154.007l.024.009a.387.387,0,0,0,.2.018l.047.016a.381.381,0,0,0,.262-.005l.013-.005a.49.49,0,0,0,.145-.012l.018.008a.427.427,0,0,0,.307.007.735.735,0,0,0,.075-.009l.027,0,.062.007a.476.476,0,0,0,.342.012.808.808,0,0,0,.157,0,.383.383,0,0,0,.273-.017l.053-.024a.545.545,0,0,0,.151-.011l.015.005a.383.383,0,0,0,.227.013l.074-.018a.51.51,0,0,0,.14-.008l.02.007a.384.384,0,0,0,.273,0h.012a.382.382,0,0,0,.238.01.347.347,0,0,0,.057.007l.015,0a.394.394,0,0,0,.125.036l.047,0a.393.393,0,0,0,.137.061l.086.019a.29.29,0,0,0,.061,0,.4.4,0,0,0,.076.033c.017.008.035.015.053.022a.387.387,0,0,0,.288.15l.014.011a.338.338,0,0,0,.192.07c.026.015.053.029.081.043a.41.41,0,0,0,.06.048.388.388,0,0,0,.06.06l.075.061a.321.321,0,0,0,.134.06l.09.094a.326.326,0,0,0,.128.078l.053.07a.449.449,0,0,0,.053.121.338.338,0,0,0,.11.106.361.361,0,0,0,.081.064l.132.184a.381.381,0,0,0,.068.147l.128.17a.379.379,0,0,0,.025.069l.042.089a.366.366,0,0,0,.007.056c0,.008,0,.015,0,.023a.386.386,0,0,0-.057.1.394.394,0,0,0-.072.124.383.383,0,0,0-.037.057l-.087.072a.332.332,0,0,0-.079.094c-.038.02-.088.043-.135.061a.336.336,0,0,0-.1.005.38.38,0,0,0-.2.06l-.027.017a.384.384,0,0,0-.142.055l0,0-.04.009a.366.366,0,0,0-.2.038l-.117.057a.373.373,0,0,0-.1.018l-.1.032-.015,0a.44.44,0,0,0-.126,0,.526.526,0,0,0-.257.033l-.043.006a.371.371,0,0,0-.147.013.428.428,0,0,0-.219.015.388.388,0,0,0-.305.016l-.027,0a.386.386,0,0,0-.381-.025c-.012.006-.014.006-.061.006h-.011a.479.479,0,0,0-.2-.032l-.051-.021a.5.5,0,0,0-.439-.06.859.859,0,0,0-.191.041.359.359,0,0,0-.2.211.553.553,0,0,0-.1.14c0,.007-.007.014-.009.022a.963.963,0,0,0-.139.511l.086.3a.386.386,0,0,0,.28.268.365.365,0,0,0,.3.084.393.393,0,0,0,.279,0H17.6a.362.362,0,0,0,.185.009.774.774,0,0,0,.139,0h.017a.506.506,0,0,0,.137.009.47.47,0,0,0,.1,0,.319.319,0,0,0,.1.014.648.648,0,0,0,.2-.037.462.462,0,0,0,.2.027.365.365,0,0,0,.113,0,.484.484,0,0,0,.216-.011.4.4,0,0,0,.227-.015l.011,0a.4.4,0,0,0,.1-.011l.1-.024a1.4,1.4,0,0,0,.37-.04l.083-.037a.369.369,0,0,0,.2-.033l.061-.028a.377.377,0,0,0,.13-.026l.012,0a.345.345,0,0,0,.081-.008.5.5,0,0,0,.173-.043.394.394,0,0,0,.1-.03l.069-.031a.451.451,0,0,0,.19-.057l.051-.033a.406.406,0,0,0,.144-.055Z" transform="translate(-5.267 -92.554)" fill="#881ea4"/>
    <path id="パス_133" data-name="パス 133" d="M34.612,239.15a.4.4,0,0,0,.079-.121.606.606,0,0,0,.03-.138.823.823,0,0,0,.015-.138.928.928,0,0,0-.029-.137c-.008-.046.02-.1,0-.146s-.076-.07-.1-.108a.416.416,0,0,0-.081-.107.282.282,0,0,0-.125-.042c-.04-.019-.066-.077-.107-.1s-.081-.04-.124-.056-.1,0-.139-.009-.08-.044-.124-.054-.091.012-.136.007-.086-.065-.131-.065a1.092,1.092,0,0,0-.137.012c-.044.005-.083.043-.128.055s-.1.047-.148.054a1.051,1.051,0,0,1-.158,0c-.053,0-.1-.059-.146-.069s-.109.017-.158,0a.513.513,0,0,0-.117-.022c-.043-.006-.08-.044-.119-.043s-.08.006-.121.005a.552.552,0,0,1-.116-.021.42.42,0,0,0-.149-.008c-.047.007-.087.053-.132.064a.753.753,0,0,1-.14.035.246.246,0,0,1-.145-.031.485.485,0,0,0-.116-.038,4.283,4.283,0,0,0-.244.046c-.04.015-.077-.008-.113.015-.038-.038-.089-.012-.135-.02s-.094-.044-.142-.043-.111.045-.154.029a.572.572,0,0,0-.118-.081c-.048-.027-.077-.071-.121-.079a1.32,1.32,0,0,0-.144-.033c-.044,0-.1.048-.157.037s-.074-.076-.117-.1-.076-.062-.119-.086-.089-.04-.132-.064-.077-.065-.12-.087-.091-.04-.135-.06-.1-.01-.148-.028-.083-.054-.13-.068-.095-.024-.131-.05-.054-.083-.087-.112-.076-.054-.107-.086-.087-.05-.114-.085a.935.935,0,0,1-.058-.129.807.807,0,0,1-.073-.12c-.016-.044,0-.1,0-.141a.62.62,0,0,1,.007-.134.647.647,0,0,1,.028-.13.826.826,0,0,1,.021-.136,1.171,1.171,0,0,1,.083-.11,1.339,1.339,0,0,1,.081-.108c.028-.035.028-.1.06-.131s.085-.043.12-.075.054-.077.09-.106.067-.064.1-.092.072-.058.111-.083.083-.041.124-.064.1,0,.144-.024.079-.044.121-.064.068-.072.111-.089.077-.058.12-.074.094-.014.137-.028.1,0,.139-.017.087-.029.132-.04.095,0,.139,0,.085-.062.129-.067.094-.006.139-.008a1.325,1.325,0,0,1,.138.022c.048,0,.1-.021.14-.014s.091,0,.135,0,.091.016.135.015.09-.014.135-.019.09-.01.134-.02.1.021.144.008.075-.065.115-.084a1,1,0,0,0,.115-.071c.04-.025.092-.029.126-.059a.811.811,0,0,0,.092-.1.752.752,0,0,0,.092-.106.6.6,0,0,0,.036-.136c.011-.045-.017-.092-.017-.137s.029-.093.016-.138a.589.589,0,0,0-.074-.117.674.674,0,0,0-.094-.1c-.029-.033-.035-.089-.073-.119a1.034,1.034,0,0,0-.122-.063,1.346,1.346,0,0,0-.128-.046,1.166,1.166,0,0,0-.122-.059c-.042-.014-.076-.063-.123-.074s-.092-.016-.139-.023-.1.023-.146.023-.1-.03-.144-.029-.1.032-.143.035l-.142.011c-.046,0-.092.016-.141.02a1.265,1.265,0,0,0-.143,0c-.046.01-.087.04-.133.054s-.1,0-.144.013-.086.04-.131.053-.086.047-.13.055-.081.052-.128.066-.092.016-.138.03-.1-.02-.148-.006-.083.049-.129.063-.082.05-.127.065-.088.03-.132.046-.1,0-.143.019-.086.04-.13.056-.1.009-.142.027-.073.07-.115.09-.091.028-.133.049-.071.068-.112.09-.1.016-.139.04-.068.068-.107.094-.089.037-.126.066-.056.079-.091.11-.067.064-.1.1-.074.058-.1.094-.092.053-.118.092,0,.106-.017.145-.036.083-.057.122-.089.055-.11.094-.042.08-.062.12,0,.1-.02.14-.037.08-.054.122-.024.084-.038.127-.079.07-.089.115.007.092,0,.138.02.089.017.135-.051.087-.05.133,0,.089,0,.135.036.086.043.132.018.086.027.132,0,.092.015.134.035.083.049.126.047.077.064.119.007.1.027.135.063.068.085.107,0,.1.028.141.056.073.082.109.088.046.116.081.041.082.07.116.077.052.107.085.062.065.093.1.061.066.092.1.037.09.068.121.079.06.108.09a.534.534,0,0,0-.149-.02.668.668,0,0,0-.143.015.825.825,0,0,0-.137.042,1.134,1.134,0,0,0-.141.052.526.526,0,0,0-.126-.032c-.041,0-.076.04-.117.048s-.084,0-.124.012-.085.007-.124.014a.482.482,0,0,1-.122,0c-.039,0-.089,0-.146,0s-.095-.017-.146-.012-.094.015-.144.02-.094.03-.143.035-.093.044-.141.049-.1.007-.146.01-.1,0-.146,0-.1-.029-.143-.03a.581.581,0,0,0-.113-.069c-.038-.015-.082-.028-.127-.041s-.083-.027-.128-.037-.085-.021-.129-.03-.094.02-.138.011-.078-.06-.121-.069-.1.028-.14.018-.076-.063-.118-.074-.1.014-.138,0-.088-.025-.127-.041a.881.881,0,0,1-.118-.063c-.038-.023-.086-.034-.127-.058s-.081-.042-.123-.066-.068-.065-.109-.089l-.12-.072c-.039-.024-.057-.081-.1-.107s-.1-.011-.142-.037-.048-.092-.085-.12-.089-.036-.125-.065-.068-.063-.1-.094-.088-.044-.12-.077-.038-.084-.066-.119-.058-.066-.083-.1-.029-.085-.051-.123-.049-.072-.069-.112-.048-.074-.066-.115-.018-.087-.034-.128-.036-.08-.051-.121-.046-.077-.06-.119-.056-.075-.069-.117-.016-.089-.029-.131-.007-.09-.008-.137.036-.087.038-.133-.033-.091-.028-.137.046-.083.051-.129-.014-.092-.007-.136,0-.09.008-.135.033-.085.042-.129.047-.081.055-.125.02-.088.029-.132-.012-.094,0-.138.015-.088.024-.132.057-.081.065-.124,0-.091.01-.134,0-.091,0-.134.017-.09.017-.134a1.055,1.055,0,0,0,0-.137.844.844,0,0,0-.041-.132c-.014-.042-.055-.074-.077-.113a.632.632,0,0,0-.087-.1.644.644,0,0,0-.093-.09.909.909,0,0,0-.109-.073.561.561,0,0,0-.133-.04c-.049-.014-.089-.054-.134-.053a.5.5,0,0,0-.151.006c-.043.016-.06.09-.1.118a.73.73,0,0,0-.106.088,1.176,1.176,0,0,0-.092.106c-.028.037-.047.079-.073.12s-.09.057-.112.1,0,.105-.022.148-.07.073-.088.117-.029.092-.046.135-.017.094-.03.135-.022.09-.033.132-.068.08-.076.122-.025.091-.031.135.012.093.008.139.013.09.008.138-.056.081-.061.129.025.092.018.14-.006.089-.014.137a1.155,1.155,0,0,0-.025.127c0,.041,0,.085,0,.13s0,.086.006.13,0,.087,0,.13.011.087.014.13-.017.09-.013.132.023.087.029.128.026.087.033.127.01.092.018.127,0,.093.015.138.024.088.042.132.037.083.056.126.068.068.088.11.044.079.066.119.014.1.037.137.043.082.068.12.094.049.119.087.02.1.047.134.046.083.073.119.077.058.106.091.079.051.109.081.054.067.088.1.081.038.113.068.04.084.073.113.077.041.112.068.063.057.1.081a.928.928,0,0,0,.106.074c.038.02.068.064.109.079a1.034,1.034,0,0,0,.128.017c.028.037.08.044.109.075a.959.959,0,0,0,.1.087c.036.029.057.072.095.094s.067.07.108.087a1,1,0,0,0,.132.033c.043.011.095-.026.139-.02s.082.044.126.046a.731.731,0,0,0,.117.09c.041.024.093,0,.146.012s.081.063.139.055a.312.312,0,0,0,.1.059c.036.017.089,0,.13.011s.074.068.113.075a.668.668,0,0,0,.121.009c.041.027.085.037.123.059s.091.03.131.049.083.046.125.061.089.029.133.04.092.011.138.02.092,0,.138.009.086.041.133.047.086.035.133.041.1-.033.144-.025.092,0,.139.014.082.046.126.051.086.031.131.036.093-.038.137-.036.088,0,.132,0,.089,0,.132,0,.1.037.141.03.071-.048.113-.043.077.032.119.035a.32.32,0,0,0,.122-.016c.037.01.082-.029.135-.031s.092.035.141.028.092,0,.139-.012.084-.052.131-.061.087-.038.133-.047.1.017.144.01.089-.046.133-.051.1.046.143.043.089-.048.135-.049.092.032.138.03.089-.057.134-.059.092.018.137.017.092.02.137.017.088-.041.133-.044.09,0,.135,0,.095.038.14.034.089-.018.134-.023.092,0,.137,0,.09-.018.134-.027.084-.042.128-.052.087-.01.131-.021c.042.024.092.007.135.017s.085.062.131.062a1.2,1.2,0,0,0,.138-.031c.045-.006.086-.042.132-.05l.137-.022c.046-.008.1.023.142.018a.819.819,0,0,1,.135-.005c.044,0,.092-.03.135-.024s.086.032.129.039.085.03.128.038l.13.025c.044.008.091-.007.134,0s.087.014.131.017.087-.02.131-.02.091.055.135.049a1.091,1.091,0,0,0,.128-.046.985.985,0,0,0,.136-.018.283.283,0,0,1,.144-.041c.052.008.095.05.147.064a.486.486,0,0,0,.165-.021c.044-.005.107.015.17.01s.118-.059.168-.055.105.044.154.029.1-.041.143-.055a.163.163,0,0,1,.131,0,.368.368,0,0,0,.152.017c.048,0,.085-.049.132-.067s.117.018.158-.008.044-.107.081-.138.085-.052.118-.084.1-.047.129-.076" transform="translate(-9.89 -106.942)" fill="#881ea4"/>
    <path id="パス_134" data-name="パス 134" d="M86.045,74.768h-1.56c-.01.036-.071.144-.081.18l-.158.008c0,.079.008.158.012.236l-.3.252c0,.053,0,.105.008.158-.076.056-.359.04-.435.1l-.071.161-.158.008c0,.026,0,.053,0,.079l-.312.094c0,.027,0,.053,0,.079l-.236.012c0,.026,0,.052,0,.079l-.236.012-.071.161c-.225.145-.267-.033-.547.106,0,.026,0,.053,0,.079l-.311.095c0,.026,0,.053,0,.079-.339.145-.7-.069-.874-.114L79.705,76.6c0,.026,0,.053,0,.079l-.079,0c0-.026,0-.053,0-.079l-.158.008c0-.027,0-.053,0-.079a.727.727,0,0,0-.4-.059c-.125-.39-.226-.2-.492-.37,0-.026,0-.053,0-.079l-.161-.071c-.115-.134.03-.119-.17-.228l-.112-.958H76.692l.044.875.161.071q.007.158.016.315l.079,0c.031.1.063.208.095.311l.079,0c0,.079.008.157.012.236l.654.441c0,.079.008.158.012.236l.409.3.008.158a2.134,2.134,0,0,1,.319.063c0-.026,0-.053,0-.079l.158-.008c0,.079.008.158.012.236l.4.059c0,.027,0,.053,0,.079l.157-.008.087.153.394-.02c0,.027,0,.053,0,.079l.787-.04.17.229.236-.012c0,.027,0,.053,0,.079L82,78.38c0-.027,0-.053,0-.079l.473-.023c0-.027,0-.053,0-.079l.158-.008c0-.027,0-.053,0-.079L83.249,78l.071-.161.315-.016c0-.026,0-.053,0-.079l.157-.008c0-.026,0-.053,0-.079l.236-.012.071-.161.161.071.07-.161.232-.09c0-.027,0-.053,0-.079l.232-.09-.008-.157c.266-.087.194-.178.461-.26.036-.3.08-.558.362-.65a1.168,1.168,0,0,1,.209-.563l.153-.087c0-.079-.008-.157-.012-.236l.079,0c0-.053,0-.105-.008-.158l.079,0-.054-.249" transform="translate(-35.132 -34.251)" fill="#fff" fill-rule="evenodd"/>
    <path id="パス_135" data-name="パス 135" d="M101.775,60.842l-.3.252c0,.053,0,.105.008.158l-.228.169-.071.161-.158.008c0,.026,0,.053,0,.079l-.311.094c0,.027,0,.053,0,.079l-.236.012c0,.026,0,.052,0,.079l-.236.012-.071.161c-.225.145-.267-.034-.547.106,0,.026,0,.053,0,.079l-.311.094c0,.027,0,.053,0,.079-.339.145-.7-.069-.874-.114l-1.027-.027c0,.026,0,.052,0,.079l-.079,0c0-.026,0-.053,0-.079l-.158.008c0-.026,0-.053,0-.079a.722.722,0,0,0-.4-.059c-.125-.39-.226-.2-.492-.37,0-.026,0-.053,0-.079l-.161-.071c-.115-.134.031-.119-.17-.228-.037-.32-1.518-.374-1.5-.083l.161.071q.007.158.016.315l.079,0c.031.1.063.208.095.311l.079,0c0,.079.008.157.012.236l.654.441c0,.079.008.158.012.236l.409.3.008.158a2.093,2.093,0,0,1,.319.063c0-.026,0-.053,0-.079l.158-.008c0,.079.008.158.012.236l.4.059c0,.027,0,.053,0,.079l.157-.008.087.153.394-.02c0,.026,0,.053,0,.079l.787-.04.17.229.236-.012c0,.026,0,.053,0,.079l1.02-.13c0-.027,0-.053,0-.079L100.2,64c0-.027,0-.053,0-.079l.158-.008c0-.027,0-.053,0-.079l.626-.11.071-.161.315-.016c0-.027,0-.053,0-.079l.158-.008c0-.026,0-.053,0-.079l.236-.012.071-.161.161.071c.023-.054.047-.108.071-.161l.232-.09c0-.027,0-.053,0-.079l.232-.09L102.5,62.7c.266-.087.194-.178.461-.26.036-.3.08-.558.363-.65a1.16,1.16,0,0,1,.209-.563,9.4,9.4,0,0,0-1.756-.386" transform="translate(-43.271 -27.867)" fill="#fff" fill-rule="evenodd"/>
    <path id="パス_136" data-name="パス 136" d="M69.151,59.766l-.305.25c0,.053,0,.105.007.158l-.23.168-.072.161-.158.007,0,.079-.312.092,0,.079-.236.01c0,.027,0,.053,0,.079l-.237.01-.072.161c-.227.144-.267-.035-.548.1,0,.027,0,.053,0,.079l-.312.093,0,.079c-.34.143-.7-.074-.874-.12l-1.027-.035c0,.027,0,.053,0,.079l-.079,0,0-.079-.158.007,0-.079a.728.728,0,0,0-.4-.062c-.122-.391-.225-.2-.49-.373l0-.079-.161-.072c-.114-.135.031-.119-.168-.23-.035-.32-1.516-.385-1.5-.093l.161.072c0,.1.009.21.014.315l.079,0,.093.312.079,0c0,.079.007.157.01.236l.651.445c0,.079.007.157.01.236l.407.3c0,.053,0,.105.007.158a2.048,2.048,0,0,1,.319.065l0-.079.157-.006c0,.079.007.158.01.236l.4.062c0,.026,0,.053,0,.079l.157-.007.086.154.394-.017,0,.079.788-.034.167.229.237-.01,0,.079,1.02-.123,0-.079.473-.02,0-.079.158-.006c0-.027,0-.053,0-.079l.627-.106.072-.161.315-.014,0-.079.158-.007c0-.027,0-.053,0-.079l.237-.01.072-.161.161.072.072-.161.233-.089,0-.079.232-.089-.007-.157c.267-.086.2-.177.462-.257.038-.3.083-.558.367-.648a1.162,1.162,0,0,1,.212-.561,9.368,9.368,0,0,0-1.754-.4" transform="translate(-28.325 -27.374)" fill="#fff" fill-rule="evenodd"/>
  </g>
</svg>
