<svg xmlns="http://www.w3.org/2000/svg" xmlns:xlink="http://www.w3.org/1999/xlink" width="191" height="150" viewBox="0 0 191 150">
  <defs>
    <clipPath id="clip-path">
      <rect id="長方形_73" data-name="長方形 73" width="191" height="150" transform="translate(122 3165)" fill="#fff" stroke="#707070" stroke-width="1"/>
    </clipPath>
    <clipPath id="clip-path-2">
      <rect id="長方形_71" data-name="長方形 71" width="95.569" height="240.894" fill="none"/>
    </clipPath>
  </defs>
  <g id="マスクグループ_2" data-name="マスクグループ 2" transform="translate(-122 -3165)" clip-path="url(#clip-path)">
    <g id="グループ_135" data-name="グループ 135" transform="translate(271.569 3285.447) rotate(180)">
      <g id="グループ_134" data-name="グループ 134" clip-path="url(#clip-path-2)">
        <path id="パス_240" data-name="パス 240" d="M43.166,0s1.63,0,6.219.452a33.337,33.337,0,0,1,9.937,2.672c.149.129,11.656,21.731,13.626,25.7S81.1,43.155,83.4,50.255s5.41,17.542,5.865,22.152.966,16.931,1.741,22.321,4.32,27.733,4.517,31.47a311.754,311.754,0,0,1-1.539,32.68c-1.248,10.689-3.34,18.139-3.954,19.675s-8.5,16.166-11.561,20.619-4.937,7.056-7,11.657-4.882,11.623-6.541,14.346-3.162,5.167-4.475,7.1-5.168,7.191-5.786,8.447c-2.277.317-5.783.357-8.156-1.259-1.709-3-4.726-7.122-6.13-9.122s-2.479-3.56-10.455-16.253S2.756,149.592.509,124.143s3.539-38.62,6-44.876,5.541-14.382,6.483-18.8S15.008,46.981,18.1,39.719s14.942-24.726,16.35-26.679S42.069.265,43.166,0" transform="translate(0)" fill="#881ea4" fill-rule="evenodd"/>
        <path id="パス_241" data-name="パス 241" d="M60.448,87.464a25.071,25.071,0,0,1-3.867-.835,4.049,4.049,0,0,1-1.948-2.158c-.336-.751-.733-2.162-.093-2.68a1.332,1.332,0,0,1,.8-.352.811.811,0,0,1,.15.015c.605.122,1.049.947,1.48,1.747a3.426,3.426,0,0,0,1.089,1.459,6.268,6.268,0,0,0,2.763.709,4.4,4.4,0,0,0,1.93-.432,3.268,3.268,0,0,0,1.363-1.873,2.306,2.306,0,0,1,.128-.3c.582-.649.857-2.97.866-3.746l.009-.721-.646.32a9.668,9.668,0,0,1-3.438.88,1.889,1.889,0,0,1-.384-.033,8.225,8.225,0,0,1-4.323-1.64,2.358,2.358,0,0,1-.933-1.5c-.061-.235-.123-.467-.22-.754a3.065,3.065,0,0,0-.009-.6c-.04-.671-.115-1.918.391-2.041a2.794,2.794,0,0,1,.633-.1c.244,0,.7,0,1.221,1.772.517,1.751,1.174,2.021,2.292,2.347a2.872,2.872,0,0,0,.8.1,7.81,7.81,0,0,0,1.916-.293,3.633,3.633,0,0,0,.673-.374,6.582,6.582,0,0,1,1-.555l.12-.041.079-.1a.864.864,0,0,1,.166-.142,1.915,1.915,0,0,0,.271-.229l.075-.079s.082-.3.119-.444a11.456,11.456,0,0,1,.632-1.976c.075-.152.255-.234.519-.268a2.143,2.143,0,0,1,.244-.013,1.453,1.453,0,0,1,1,.291,1.674,1.674,0,0,1,.068.807l-.01.211.012.055c-.009.029-.022.444-.037.96l-.005.216a53.2,53.2,0,0,1-.3,5.818l-.033.132.047.128c.016.04-.022.112-.047.16l-.068.134,0,.194a3.158,3.158,0,0,1-.053.474,2.88,2.88,0,0,0-.053.558c-.1.17-.221.417-.358.7-.5,1.035-1.339,2.767-2.735,3.523a3.931,3.931,0,0,1-1.951.551c-.19,0-.36-.014-.514-.026s-.275-.02-.392-.02a1.368,1.368,0,0,0-.46.068" transform="translate(-12.045 -16.119)" fill="#fff"/>
        <path id="パス_242" data-name="パス 242" d="M43.75,68.105a.417.417,0,0,1-.2-.052L43.45,68h-.123a.455.455,0,0,1-.337-.112l-.12-.114-.166-.007a.545.545,0,0,1-.281-.1l-.054-.037-.11-.039-.11-.028a.677.677,0,0,1-.172-.045l-.092-.037-.192.009a.419.419,0,0,1-.32-.156l-.091-.115-.142-.037-.051-.023s-.193-.043-.218-.051a.406.406,0,0,1-.23-.2l-.06-.112-.282-.163a.416.416,0,0,1-.14-.135l-.048-.078-.076-.051a.339.339,0,0,1-.128-.14l-.037-.087-.068-.065a.977.977,0,0,1-.155-.185l-.05-.079-.078-.052a.586.586,0,0,1-.2-.186l-.038-.08-.066-.06a.425.425,0,0,1-.106-.151L39,65l-.067-.065a.86.86,0,0,1-.211-.28l-.015-.04-.021-.037a.293.293,0,0,1-.047-.135l-.021-.107-.077-.153a.511.511,0,0,1-.132-.244l.019-.4-.042-.1-.018-.059-.03-.044a.777.777,0,0,1-.06-.423l.015-.09-.023-.089.036-1.545a.389.389,0,0,1,.023-.12L38.358,61l0-.089a.41.41,0,0,1,.046-.23l.061-.1v-.12a.4.4,0,0,1,.079-.236l.072-.094.026-.2a.448.448,0,0,1,.079-.188l.082-.112,0-.14a.451.451,0,0,1,.184-.394l.065-.044s.082-.111.1-.133l.061-.064.032-.083a.584.584,0,0,1,.082-.156l.038-.047.023-.057a.416.416,0,0,1,.244-.236l.128-.047.079-.11a1.228,1.228,0,0,1,.42-.391l.086-.047L40.4,57.6a.55.55,0,0,1,.14-.135l.092-.064.051-.1a.394.394,0,0,1,.226-.182l.6-.2s.119-.121.142-.142l.047-.04.034-.051a.413.413,0,0,1,.282-.182l.075-.011.067-.036a1.986,1.986,0,0,1,.2-.1l.194-.08.086-.287a.426.426,0,0,1,.3-.28L43,55.694l.086-.048.1-.06a.429.429,0,0,1,.254-.115l.683.026a.4.4,0,0,1,.123.026l.114.043.121-.022.6.009.085-.036a.68.68,0,0,1,.215-.038.624.624,0,0,1,.078,0l.081.011.079-.019.083-.01a.51.51,0,0,1,.163.026l.117.037.12-.028a.418.418,0,0,1,.082-.006l.043,0,.107,0,.124,0,.083.028.152.012.086,0a.41.41,0,0,1,.287.107l.107.1.278.028a.411.411,0,0,1,.145.044,4.654,4.654,0,0,1,.469.293,1.947,1.947,0,0,0,.792.386.4.4,0,0,1,.315.244l.064.152.148.072c.15.075.294.14.345.157l.037.013.039.006a.236.236,0,0,1,.174.137l.046.078.072.054a.451.451,0,0,1,.141.157l.06.132.126.071a.407.407,0,0,1,.187.233l.029.1.112.124.1.086a.415.415,0,0,1,.2.264l.028.121.1.146a.416.416,0,0,1,.086.138l.017.047.028.042a.326.326,0,0,1,.058.158l.008.128.077.107a.34.34,0,0,1,.074.161l.009.129.076.1a.315.315,0,0,1,.072.159l.02.324.043.082a.371.371,0,0,1,.039.132.519.519,0,0,1-.026.182l-.023.067v.071a.444.444,0,0,1-.021.18l-.029.082.016.3a.375.375,0,0,1-.058.24l-.051.072-.019.087-.028.082-.006.125.012.2a.417.417,0,0,1-.072.264l-.056.079-.018.093a.467.467,0,0,1-.089.194l-.04.052-.023.062a.766.766,0,0,1-.059.122l-.037.06-.016.068a.46.46,0,0,1-.182.26l-.152.114-.033.291a.411.411,0,0,1-.05.162.453.453,0,0,1-.072.1l-.068.069-.033.092c-.048.1-.068.129-.088.162l-.037.058-.027.084a.643.643,0,0,1-.226.325l-.057.044-.095.133-.054.07-.023.086a.308.308,0,0,1-.159.2l-.114.058-.123.213a.411.411,0,0,1-.153.15l-.08.044-.055.072a.417.417,0,0,1-.208.139l-.071.022-.183.133-.043.058a.412.412,0,0,1-.189.145l-.044.017-.04.026-.063.027-.114.079a.443.443,0,0,1-.076.054l-.051.029-.043.042a.4.4,0,0,1-.116.083l-.126.058-.07.121a.432.432,0,0,1-.249.2l-.046.014-.042.023a.388.388,0,0,1-.185.054h-.159l-.242.131-.1.082a.3.3,0,0,1-.124.082.413.413,0,0,1-.121.016h-.121l-.149.061a.239.239,0,0,1-.089.037l-.877.108-.08.047a.317.317,0,0,1-.125.046l-.086.009L44.956,68a.4.4,0,0,1-.173.038l-.894.044-.04.009a.451.451,0,0,1-.1.012M45,57.97a.34.34,0,0,1-.284.131l-.139.009-.109.086a.233.233,0,0,1-.089.054l-.228.053-.069.047a.536.536,0,0,1-.074.044l-.043.019-.038.028a.274.274,0,0,1-.142.054l-.182.012-.11.055-.063.036a.33.33,0,0,1-.129.058l-.128.024-.093.091a.505.505,0,0,1-.136.1l-.113.03L42.711,59a.433.433,0,0,1-.122.093l-.083.037-.062.068a.4.4,0,0,1-.219.128l-.159.034-.3.4a.43.43,0,0,1-.138.114l-.1.052-.084.127-.049.085a.35.35,0,0,1-.073.116l-.069.065-.037.088a.412.412,0,0,1-.066.113l-.047.058-.026.068a.392.392,0,0,1-.057.1l-.05.067-.056.2-.017.041-.038.125a.8.8,0,0,1-.087.245l-.072.117.008.137a.439.439,0,0,1-.03.212l-.037.085v.093a.505.505,0,0,1-.043.214l-.072.151.047.162a1.186,1.186,0,0,1,.075.356.378.378,0,0,1-.03.146l-.051.13.032.137a1.018,1.018,0,0,1,.03.315l0,.051.009.051.021.322.135.12a2.372,2.372,0,0,1,.271.447l.044.095.082.065a.747.747,0,0,1,.078.069l.091.094.126.03a.427.427,0,0,1,.2.1l.065.061.083.031a.773.773,0,0,1,.219.11l.115.094.148.005a.425.425,0,0,1,.26.1l.115.1s.387.018.411.02a.4.4,0,0,1,.183.068l.107.073.219.006.112-.033a.616.616,0,0,1,.228-.044l.145-.006,1.74-.342.1-.111a.418.418,0,0,1,.191-.14l.184-.033.1-.158a.422.422,0,0,1,.237-.168l.118-.033.153-.108a.639.639,0,0,1,.186-.158l.111-.027s.161-.144.2-.172l.082-.065.045-.094a.529.529,0,0,1,.084-.126l.036-.041.024-.048a.514.514,0,0,1,.11-.149.757.757,0,0,0,.123-.134A.644.644,0,0,1,48,63.5l.061-.045.123-.187.091-.1.062-.184a.38.38,0,0,1,.045-.13.54.54,0,0,1,.17-.183l.112-.077.064-.165.023-.079.034-.187a.422.422,0,0,1,.061-.152l.033-.046.043-.114.028-.125a.386.386,0,0,1,.086-.219l.039-.049.024-.058a.407.407,0,0,1,.08-.128l.069-.075.065-.219L49.3,60.8a.451.451,0,0,1-.009-.194.528.528,0,0,1,.054-.146l.046-.1v-.135l-.033-.508-.145-.121a.417.417,0,0,1-.135-.215l-.031-.123-.091-.087c-.082-.08-.175-.167-.257-.259l-.082-.09-.117-.035a.431.431,0,0,1-.224-.163l-.075-.107-.12-.049a.405.405,0,0,1-.167-.106c-.117-.194-.223-.24-.479-.351l-.117-.051-.188-.007-.081,0a.325.325,0,0,1-.174-.058l-.078-.045-.09-.012a.52.52,0,0,1-.095-.021l-.088-.032-.23.016-.078-.01-.149.016a.963.963,0,0,1-.219.026l-.084,0c-.049,0-.131-.023-.232-.044l-.3-.066Z" transform="translate(-8.505 -12.327)" fill="#fff"/>
        <path id="パス_243" data-name="パス 243" d="M76.975,68.105a.411.411,0,0,1-.2-.051l-.1-.056h-.124a.456.456,0,0,1-.338-.112l-.12-.115-.166-.006a.551.551,0,0,1-.282-.1l-.052-.036L75.49,67.6l-.116-.03a.719.719,0,0,1-.173-.045l-.091-.037-.191.009a.419.419,0,0,1-.32-.157l-.091-.114-.142-.037-.054-.024-.137-.032a.393.393,0,0,1-.078-.018.413.413,0,0,1-.232-.2l-.059-.111-.28-.163a.406.406,0,0,1-.142-.135l-.048-.078-.076-.051a.338.338,0,0,1-.129-.142l-.037-.086-.067-.065a.909.909,0,0,1-.153-.184l-.051-.079-.079-.053a.6.6,0,0,1-.2-.186l-.037-.079-.065-.06a.408.408,0,0,1-.106-.149L72.224,65l-.068-.065a.888.888,0,0,1-.209-.278l-.015-.041-.023-.038a.3.3,0,0,1-.047-.133l-.006-.145-.092-.117a.491.491,0,0,1-.131-.245l.018-.394-.089-.2a.769.769,0,0,1-.059-.423l.014-.087-.021-.087.034-1.549a.418.418,0,0,1,.023-.124L71.582,61l0-.087a.41.41,0,0,1,.046-.23l.061-.1v-.119a.4.4,0,0,1,.08-.237l.069-.093.026-.2a.432.432,0,0,1,.079-.191l.079-.109,0-.135a.459.459,0,0,1,.185-.4l.067-.044.047-.067a.488.488,0,0,1,.051-.061l.068-.069.032-.09a.581.581,0,0,1,.08-.15l.037-.046.023-.055a.416.416,0,0,1,.244-.236l.128-.047.079-.11a1.217,1.217,0,0,1,.421-.391l.087-.047.058-.081a.56.56,0,0,1,.139-.135l.091-.063.05-.1a.394.394,0,0,1,.226-.182l.6-.2.073-.075c.021-.022.117-.1.117-.1l.035-.054a.418.418,0,0,1,.282-.181l.075-.011.067-.035c.076-.04.142-.072.2-.1l.191-.08.088-.282a.424.424,0,0,1,.3-.284l.057-.016.087-.048.1-.06a.429.429,0,0,1,.254-.115l.683.026a.406.406,0,0,1,.121.025l.115.044.122-.022.6.009.085-.036a.68.68,0,0,1,.215-.038.624.624,0,0,1,.078,0l.082.011.079-.019.084-.01a.531.531,0,0,1,.163.025l.117.038.12-.028a.418.418,0,0,1,.082-.006l.043,0,.107,0,.124,0,.082.027.154.012.086,0a.411.411,0,0,1,.285.106l.108.1.278.028a.412.412,0,0,1,.145.044,4.454,4.454,0,0,1,.469.293,1.942,1.942,0,0,0,.792.386.4.4,0,0,1,.315.244l.064.152.148.072c.15.075.294.14.345.157l.037.013.039.006a.239.239,0,0,1,.176.138l.045.078.072.053a.468.468,0,0,1,.141.158l.059.133.127.07a.412.412,0,0,1,.187.235l.026.093.108.125.1.089a.422.422,0,0,1,.2.264l.028.121.1.146a.435.435,0,0,1,.088.14l.017.046.027.041a.326.326,0,0,1,.058.16l.009.127.075.1a.334.334,0,0,1,.073.161l.009.129.076.1a.315.315,0,0,1,.072.159l.02.325.044.083a.33.33,0,0,1,.037.127.509.509,0,0,1-.026.187l-.022.066v.069a.41.41,0,0,1-.021.178l-.03.084.016.3a.381.381,0,0,1-.058.24l-.051.072-.019.086-.029.082-.006.126.012.2a.411.411,0,0,1-.072.264l-.056.079-.019.095a.461.461,0,0,1-.088.194l-.039.05-.022.059a.819.819,0,0,1-.061.126l-.037.061-.016.069a.448.448,0,0,1-.18.257l-.152.114L84,63.9a.4.4,0,0,1-.05.162.4.4,0,0,1-.072.1l-.066.067-.033.087a1.692,1.692,0,0,1-.089.163l-.036.059-.03.088a.654.654,0,0,1-.227.327l-.058.044-.149.2-.023.086a.307.307,0,0,1-.158.2l-.114.058-.123.213a.405.405,0,0,1-.153.15l-.08.044-.055.072a.418.418,0,0,1-.207.139l-.071.023-.183.132-.043.058a.42.42,0,0,1-.19.145l-.044.017-.04.026-.064.028-.113.079a.444.444,0,0,1-.076.054l-.053.03-.043.044a.392.392,0,0,1-.114.081l-.126.058-.07.121a.433.433,0,0,1-.248.2l-.045.014-.042.023a.386.386,0,0,1-.186.054h-.159l-.243.131-.1.082a.316.316,0,0,1-.123.08.407.407,0,0,1-.12.016h-.121l-.149.06a.226.226,0,0,1-.091.037l-.877.108-.08.047a.319.319,0,0,1-.124.046l-.086.009L78.181,68a.4.4,0,0,1-.173.038l-.894.044-.04.009a.444.444,0,0,1-.1.012m1.254-10.137a.342.342,0,0,1-.285.132l-.138.009L77.7,58.2a.24.24,0,0,1-.091.054l-.23.053-.07.049a.437.437,0,0,1-.072.042l-.043.019-.038.028a.28.28,0,0,1-.141.054l-.176.011-.113.053-.068.04a.336.336,0,0,1-.128.057l-.129.025-.094.091a.5.5,0,0,1-.134.1l-.11.03L75.938,59a.464.464,0,0,1-.124.095l-.085.037-.062.069a.406.406,0,0,1-.218.126l-.158.034-.306.4a.419.419,0,0,1-.138.114l-.1.053-.083.126-.049.083a.379.379,0,0,1-.075.12l-.067.064-.037.085a.439.439,0,0,1-.068.117l-.046.057-.026.068a.356.356,0,0,1-.055.1l-.052.068-.055.2-.02.046-.036.121a.789.789,0,0,1-.087.243l-.066.111,0,.129a.467.467,0,0,1-.03.224l-.037.085v.093a.505.505,0,0,1-.043.214l-.072.151.047.161a1.2,1.2,0,0,1,.075.356.387.387,0,0,1-.029.147l-.051.129.031.135a1.073,1.073,0,0,1,.03.318l0,.043.026.38.137.121a2.3,2.3,0,0,1,.271.446l.044.1.085.065a.792.792,0,0,1,.075.068l.091.093.126.031a.416.416,0,0,1,.2.1l.066.062.084.031a.846.846,0,0,1,.221.111l.114.093.147.005a.425.425,0,0,1,.26.1l.115.1s.387.018.412.02a.4.4,0,0,1,.18.068l.108.074.22.006.112-.033a.6.6,0,0,1,.228-.044l.145-.006,1.742-.342.1-.112a.41.41,0,0,1,.189-.139l.185-.034.1-.157a.422.422,0,0,1,.237-.168l.119-.034.154-.108a.613.613,0,0,1,.184-.156l.107-.028s.165-.143.2-.172l.082-.065.045-.094a.6.6,0,0,1,.086-.128l.033-.039.023-.046a.537.537,0,0,1,.112-.151.8.8,0,0,0,.132-.145.562.562,0,0,1,.079-.088l.061-.046.123-.187.094-.1.058-.18a.372.372,0,0,1,.044-.13.531.531,0,0,1,.17-.182l.122-.084.076-.236.035-.187a.419.419,0,0,1,.061-.154l.037-.052.038-.115.027-.117a.38.38,0,0,1,.086-.217l.04-.051.025-.061a.4.4,0,0,1,.078-.124l.069-.075.065-.218-.014-.184a.449.449,0,0,1,.045-.343l.046-.1v-.136l-.033-.506-.144-.121a.418.418,0,0,1-.136-.216l-.031-.122-.091-.087c-.082-.08-.175-.168-.257-.259l-.082-.09-.117-.035a.431.431,0,0,1-.224-.163l-.075-.107-.12-.049a.4.4,0,0,1-.166-.106c-.119-.194-.218-.237-.48-.351l-.117-.051-.188-.007-.081,0A.326.326,0,0,1,80.1,57.9l-.077-.045-.089-.012a.5.5,0,0,1-.1-.021l-.088-.032-.231.016-.078-.01-.149.016a.956.956,0,0,1-.218.026l-.084,0c-.05,0-.131-.023-.231-.044l-.3-.067Z" transform="translate(-15.889 -12.327)" fill="#fff"/>
      </g>
    </g>
  </g>
</svg>
