<svg xmlns="http://www.w3.org/2000/svg" width="31.501" height="30" viewBox="0 0 31.501 30">
  <path id="Icon_simple-line" data-name="Icon simple-line" d="M25.417,13.053a.828.828,0,0,1,0,1.655h-2.3v1.477h2.3a.826.826,0,1,1,0,1.652H22.286a.828.828,0,0,1-.823-.826V10.749a.829.829,0,0,1,.827-.827h3.132a.827.827,0,0,1,0,1.654h-2.3v1.477Zm-5.06,3.959a.826.826,0,0,1-.567.782.848.848,0,0,1-.261.041.812.812,0,0,1-.669-.328l-3.207-4.354v3.859a.825.825,0,1,1-1.65,0V10.749a.823.823,0,0,1,.564-.781.764.764,0,0,1,.255-.043.849.849,0,0,1,.65.333L18.7,14.629v-3.88a.827.827,0,1,1,1.654,0Zm-7.535,0a.826.826,0,1,1-1.651,0V10.749a.826.826,0,1,1,1.651,0Zm-3.237.826H6.454a.832.832,0,0,1-.827-.826V10.749a.827.827,0,1,1,1.654,0v5.435h2.3a.826.826,0,0,1,0,1.652M31.5,13.645C31.5,6.6,24.433.858,15.75.858S0,6.6,0,13.645C0,19.959,5.6,25.25,13.171,26.256c.513.108,1.211.339,1.389.774a3.206,3.206,0,0,1,.05,1.418l-.215,1.339c-.059.4-.315,1.557,1.377.847s9.078-5.353,12.385-9.155A11.318,11.318,0,0,0,31.5,13.645" transform="translate(0 -0.858)"/>
</svg>
