<svg xmlns="http://www.w3.org/2000/svg" xmlns:xlink="http://www.w3.org/1999/xlink" width="352.443" height="129.366" viewBox="0 0 352.443 129.366">
  <defs>
    <clipPath id="clip-path">
      <rect id="長方形_2" data-name="長方形 2" width="352.443" height="85.559" transform="translate(0 0)"/>
    </clipPath>
    <clipPath id="clip-path-2">
      <rect id="長方形_5" data-name="長方形 5" width="86.397" height="26.287" fill="none"/>
    </clipPath>
    <clipPath id="clip-path-3">
      <rect id="長方形_7" data-name="長方形 7" width="219.704" height="28.097" fill="none"/>
    </clipPath>
  </defs>
  <g id="グループ_28" data-name="グループ 28" transform="translate(-464 -619.634)">
    <g id="グループ_4" data-name="グループ 4" transform="translate(464 663.442)">
      <g id="グループ_3" data-name="グループ 3" clip-path="url(#clip-path)">
        <path id="パス_11" data-name="パス 11" d="M150.963,20.84a2.5,2.5,0,0,0-.535-1.339,2.556,2.556,0,0,0-.532-1.325v-.008a2.58,2.58,0,0,0-.434-1.249,2.909,2.909,0,0,0-.615-.976l-.046-.191a2.884,2.884,0,0,0-1.349-1.833c-.049-.062-.1-.12-.15-.177a2.856,2.856,0,0,0-1.333-1.674,2.932,2.932,0,0,0-.938-1.106,2.3,2.3,0,0,0-1.639-1.181c-.146-.053-.561-.245-.994-.459a2.853,2.853,0,0,0-2.193-1.713,5.4,5.4,0,0,1-2.067-1.059,17.512,17.512,0,0,0-1.724-1.072,2.863,2.863,0,0,0-1.03-.309l-.447-.05a2.906,2.906,0,0,0-2.113-.739l-.24.016a2.589,2.589,0,0,0-.463-.119,2.857,2.857,0,0,0-.852-.022,3.207,3.207,0,0,0-.917.048,3.277,3.277,0,0,0-1.186-.153,3.158,3.158,0,0,0-.446.068,3.624,3.624,0,0,0-1.519.13,2.318,2.318,0,0,0-.235.082l-1.58-.03a2.78,2.78,0,0,0-.441.033,2.893,2.893,0,0,0-.878-.178l-2.267-.09a2.821,2.821,0,0,0-1.9.732c-.071.033-.144.071-.221.115a2.92,2.92,0,0,0-2.057,1.953l-.088.292a7.8,7.8,0,0,0-.812.387,2.879,2.879,0,0,0-1.974,1.264c-.113.1-.223.2-.328.307l-1.7.578a2.791,2.791,0,0,0-1.6,1.341,3.449,3.449,0,0,0-.819.8,5.614,5.614,0,0,0-1.909,1.755,2.9,2.9,0,0,0-1.684,1.615,2.818,2.818,0,0,0-.37.607c-.051.107-.093.209-.131.313a3.151,3.151,0,0,0-.323.391,2.911,2.911,0,0,0-1.27,2.428l0,.1a2.9,2.9,0,0,0-.536,1.317l-.039.281a2.828,2.828,0,0,0-.567,1.677,2.857,2.857,0,0,0-.364,1.619,2.937,2.937,0,0,0-.158.857l-.145,4.986a2.327,2.327,0,0,0,.071.627,4.035,4.035,0,0,0,.2,2.022,2.244,2.244,0,0,0,.213.431q.024.076.054.15l-.045.964a2.915,2.915,0,0,0,.773,1.841v.014a2.432,2.432,0,0,0,.365,1.136,4.4,4.4,0,0,0,1.074,1.506l.268.669a2.91,2.91,0,0,0,.74,1.056,3.4,3.4,0,0,0,1.178,1.228,4.618,4.618,0,0,0,.753.9,2.61,2.61,0,0,0,.974,1.137,2.835,2.835,0,0,0,.981.942l.577.335a2.852,2.852,0,0,0,1.6,1.372,2.824,2.824,0,0,0,.54.131,2.219,2.219,0,0,0,.342.115l.135.036a2.875,2.875,0,0,0,2.424,1.083l.2-.011a3.6,3.6,0,0,0,.705.216l.235.033c.093.035.187.068.28.1a3.346,3.346,0,0,0,1.733.589,2.91,2.91,0,0,0,2.15.785h.041a2.858,2.858,0,0,0,2.072.28l2.838-.14a2.708,2.708,0,0,0,1.226-.292,2.527,2.527,0,0,0,1.043-.355l2.632-.324a2.265,2.265,0,0,0,.891-.323,2.891,2.891,0,0,0,1.015-.122,2.509,2.509,0,0,0,1.01-.64,2.4,2.4,0,0,0,.43-.284,2.735,2.735,0,0,0,1.543-.358,2.958,2.958,0,0,0,1.7-1.367,2.938,2.938,0,0,0,.815-.575,2.929,2.929,0,0,0,.506-.359,2.63,2.63,0,0,0,.424-.231,2.879,2.879,0,0,0,1.315-1.008l.221-.159a2.9,2.9,0,0,0,1.437-.978,2.841,2.841,0,0,0,1.086-1.063l.2-.34a2.514,2.514,0,0,0,1.284-1.615c.082-.106.164-.214.243-.33a3.654,3.654,0,0,0,1.3-1.92l.03-.051c.083-.133.167-.268.281-.48a3.092,3.092,0,0,0,.157-.344,2.894,2.894,0,0,0,.49-.656,2.83,2.83,0,0,0,.34-1.09l.037-.341A2.98,2.98,0,0,0,149.1,32.1a3.869,3.869,0,0,0,.324-.663A3.041,3.041,0,0,0,150,30.169a2.876,2.876,0,0,0,.52-1.842l-.041-.691c.032-.095.06-.192.082-.286a2.751,2.751,0,0,0,.467-1.748l-.04-.7a2.937,2.937,0,0,0,.157-1.1,3.216,3.216,0,0,0,.154-1.2,2.638,2.638,0,0,0-.287-1Zm-10.934,3.138c-.025.069-.046.139-.067.21a2.84,2.84,0,0,0-.551.872,2.783,2.783,0,0,0-.609,1.559c-.027.067-.054.136-.078.207a2.778,2.778,0,0,0-.453,1.094l-.117.625c-.017.043-.035.087-.051.134a3.246,3.246,0,0,0-1.031,1.111,2.848,2.848,0,0,0-.316.919,2.71,2.71,0,0,0-.287.365l-.273.412a3.088,3.088,0,0,0-.554.583,1.761,1.761,0,0,1-.241.272,3.25,3.25,0,0,0-.723.951,3.371,3.371,0,0,0-.5.756c-.154.121-.3.251-.457.4l-.058.014a3.09,3.09,0,0,0-1.316.945l-.234.062a2.927,2.927,0,0,0-1.636,1.181,2.765,2.765,0,0,0-1.482.944l-5.369,1.055a3.534,3.534,0,0,0-1.518.246l-.092,0a2.83,2.83,0,0,0-1.289-.48c-.062-.006-.4-.029-.816-.041l-.139-.006a2.884,2.884,0,0,0-1.8-.717,4.208,4.208,0,0,0-1.167-.621,2.918,2.918,0,0,0-1.338-.7,4.651,4.651,0,0,0-.411-.37,9.7,9.7,0,0,0-1.09-1.8,1.562,1.562,0,0,0-.185-.189l-.026-.408a1.667,1.667,0,0,0-.018-.2,5.008,5.008,0,0,0-.135-1.514,2.866,2.866,0,0,0,.205-1.04,4.72,4.72,0,0,0-.278-1.5c-.012-.039-.025-.083-.039-.125a3.182,3.182,0,0,0,.287-1.358,2.807,2.807,0,0,0,.226-1.3l0-.09a4.2,4.2,0,0,0,.475-1.29,2.818,2.818,0,0,0,.169-.467l.108-.4a2.814,2.814,0,0,0,.4-.706,3.063,3.063,0,0,0,.445-.758,2.616,2.616,0,0,0,.6-.886c.039-.051.074-.1.1-.15l.008-.011a2.9,2.9,0,0,0,.945-.79l.695-.9a2.876,2.876,0,0,0,1.529-.883,3.01,3.01,0,0,0,.844-.611l.151-.041a2.693,2.693,0,0,0,1.088-.711,2.624,2.624,0,0,0,1.015-.444c.04-.018.078-.038.116-.056l.305-.021a2.429,2.429,0,0,0,1.278-.469,3.27,3.27,0,0,0,.473-.274l.466-.107a2.3,2.3,0,0,0,.926-.474,2.577,2.577,0,0,0,2.121-1.139l.206.047a9.32,9.32,0,0,0,.965.181,4.624,4.624,0,0,0,1.489-.108,3.049,3.049,0,0,0,.534.018l.459-.032a3,3,0,0,0,.56.137l.081.01a2.6,2.6,0,0,0,1.483.4,1.268,1.268,0,0,0,.365-.034,1.867,1.867,0,0,0,.193.092c.787.342.787.342.942.6a2.641,2.641,0,0,0,1.263.953,2.908,2.908,0,0,0,1.542,1.119c.305.338.636.66.938.947a2.907,2.907,0,0,0,.941,1.5l.072,1.077c-.01.028-.019.055-.028.083a3.218,3.218,0,0,0-.3.875,3.01,3.01,0,0,0,.069,1.284"/>
        <path id="パス_12" data-name="パス 12" d="M352.148,21.6l-.048-.762a2.508,2.508,0,0,0-.534-1.337,2.553,2.553,0,0,0-.533-1.326v-.009a2.577,2.577,0,0,0-.434-1.25,2.906,2.906,0,0,0-.615-.974l-.045-.192a2.89,2.89,0,0,0-1.35-1.832c-.048-.061-.1-.12-.149-.177a2.847,2.847,0,0,0-1.331-1.673,2.954,2.954,0,0,0-.941-1.108A2.3,2.3,0,0,0,344.53,9.78c-.146-.052-.561-.243-.995-.458a2.85,2.85,0,0,0-2.192-1.712,5.327,5.327,0,0,1-2.067-1.059,17.156,17.156,0,0,0-1.725-1.073,2.869,2.869,0,0,0-1.03-.309l-.447-.049a2.907,2.907,0,0,0-2.112-.74l-.241.017a2.589,2.589,0,0,0-.463-.119,2.856,2.856,0,0,0-.852-.023,3.2,3.2,0,0,0-.917.049,3.212,3.212,0,0,0-1.187-.153,2.937,2.937,0,0,0-.445.068,3.613,3.613,0,0,0-1.521.129,2.353,2.353,0,0,0-.232.083l-1.58-.031a2.394,2.394,0,0,0-.442.033,2.924,2.924,0,0,0-.878-.178l-2.267-.089a2.809,2.809,0,0,0-1.9.732c-.071.033-.144.071-.221.115a2.92,2.92,0,0,0-2.057,1.953l-.088.291a8.678,8.678,0,0,0-.812.387,2.879,2.879,0,0,0-1.973,1.264c-.114.1-.224.2-.329.308l-1.7.577a2.8,2.8,0,0,0-1.6,1.342,3.445,3.445,0,0,0-.819.8,5.6,5.6,0,0,0-1.91,1.755,2.9,2.9,0,0,0-1.684,1.617,2.882,2.882,0,0,0-.372.608c-.049.106-.09.208-.128.308a3.414,3.414,0,0,0-.324.393,2.886,2.886,0,0,0-1.269,2.374l0,.154a2.921,2.921,0,0,0-.537,1.318l-.037.282a2.825,2.825,0,0,0-.568,1.675,2.832,2.832,0,0,0-.363,1.622,2.91,2.91,0,0,0-.158.854l-.145,4.986a2.352,2.352,0,0,0,.07.627,4.035,4.035,0,0,0,.2,2.022,2.316,2.316,0,0,0,.214.432c.016.051.033.1.053.148l-.045.965a2.916,2.916,0,0,0,.774,1.842v.01a2.426,2.426,0,0,0,.364,1.14,4.42,4.42,0,0,0,1.074,1.506l.269.667a2.882,2.882,0,0,0,.74,1.057,3.379,3.379,0,0,0,1.178,1.228,4.619,4.619,0,0,0,.753.9,2.61,2.61,0,0,0,.973,1.136,2.825,2.825,0,0,0,.981.942l.577.335a2.855,2.855,0,0,0,1.6,1.372,2.787,2.787,0,0,0,.54.132,2.365,2.365,0,0,0,.342.114l.135.037a2.877,2.877,0,0,0,2.424,1.082l.205-.01a3.7,3.7,0,0,0,.7.215l.235.034c.093.034.188.068.281.1a3.362,3.362,0,0,0,1.732.587,2.926,2.926,0,0,0,2.15.786h.041a2.872,2.872,0,0,0,2.073.281l2.838-.14a2.844,2.844,0,0,0,1.226-.293,2.5,2.5,0,0,0,1.042-.356l2.631-.322a2.271,2.271,0,0,0,.892-.324,2.919,2.919,0,0,0,1.016-.121,2.52,2.52,0,0,0,1.01-.64,2.485,2.485,0,0,0,.43-.285,2.725,2.725,0,0,0,1.543-.358,2.95,2.95,0,0,0,1.7-1.367,2.843,2.843,0,0,0,.816-.576,2.952,2.952,0,0,0,.505-.357,2.719,2.719,0,0,0,.424-.231,2.874,2.874,0,0,0,1.316-1.01l.22-.158a2.882,2.882,0,0,0,1.437-.977,2.851,2.851,0,0,0,1.086-1.064l.2-.339a2.523,2.523,0,0,0,1.285-1.616c.082-.1.163-.213.243-.329a3.655,3.655,0,0,0,1.3-1.921l.033-.054c.083-.133.166-.268.279-.479a2.8,2.8,0,0,0,.156-.342,2.94,2.94,0,0,0,.492-.656,2.879,2.879,0,0,0,.338-1.089l.037-.342a2.977,2.977,0,0,0,1.165-1.723,3.89,3.89,0,0,0,.323-.662,3.056,3.056,0,0,0,.572-1.265,2.882,2.882,0,0,0,.52-1.841l-.042-.691a2.687,2.687,0,0,0,.081-.286,2.75,2.75,0,0,0,.468-1.749l-.04-.7a2.717,2.717,0,0,0,.157-1.087V23.8a3.221,3.221,0,0,0,.155-1.206,2.638,2.638,0,0,0-.288-1m-10.982,2.376c-.024.069-.045.139-.066.21a2.873,2.873,0,0,0-.551.871,2.771,2.771,0,0,0-.609,1.56c-.027.067-.055.136-.079.206a2.788,2.788,0,0,0-.453,1.095l-.117.626c-.017.042-.032.085-.05.132a3.251,3.251,0,0,0-1.03,1.111,2.823,2.823,0,0,0-.318.921,2.719,2.719,0,0,0-.287.364l-.273.413a3.03,3.03,0,0,0-.554.583,1.974,1.974,0,0,1-.238.271,3.214,3.214,0,0,0-.726.951,3.4,3.4,0,0,0-.5.756c-.154.121-.3.253-.455.4l-.06.015a3.079,3.079,0,0,0-1.315.945l-.235.061a2.92,2.92,0,0,0-1.636,1.182,2.765,2.765,0,0,0-1.481.943l-5.37,1.055a3.552,3.552,0,0,0-1.517.246l-.092,0a2.838,2.838,0,0,0-1.29-.48c-.063-.006-.4-.029-.816-.041l-.139-.005a2.884,2.884,0,0,0-1.8-.718,4.207,4.207,0,0,0-1.168-.62,2.912,2.912,0,0,0-1.339-.7,4.21,4.21,0,0,0-.41-.37,9.791,9.791,0,0,0-1.093-1.8,1.662,1.662,0,0,0-.182-.184l-.026-.418a1.706,1.706,0,0,0-.019-.192,4.992,4.992,0,0,0-.135-1.514,2.873,2.873,0,0,0,.206-1.041,4.8,4.8,0,0,0-.279-1.5c-.012-.039-.025-.081-.039-.122a3.184,3.184,0,0,0,.287-1.361,2.793,2.793,0,0,0,.226-1.3l0-.088a4.207,4.207,0,0,0,.476-1.292,2.875,2.875,0,0,0,.168-.466l.109-.4a2.792,2.792,0,0,0,.4-.707,3.066,3.066,0,0,0,.446-.758,2.589,2.589,0,0,0,.6-.886,1.774,1.774,0,0,0,.1-.146l.01-.014a2.914,2.914,0,0,0,.947-.792l.693-.9a2.87,2.87,0,0,0,1.529-.883,3.01,3.01,0,0,0,.845-.611l.152-.04a2.708,2.708,0,0,0,1.086-.712,2.624,2.624,0,0,0,1.015-.444c.04-.018.078-.037.116-.056l.307-.02a2.419,2.419,0,0,0,1.275-.47,3.042,3.042,0,0,0,.474-.274l.466-.106a2.288,2.288,0,0,0,.926-.475,2.576,2.576,0,0,0,2.121-1.138l.207.047a9.61,9.61,0,0,0,.966.181,4.7,4.7,0,0,0,1.487-.109,3.064,3.064,0,0,0,.534.018l.459-.032a2.851,2.851,0,0,0,.56.137l.081.012a2.55,2.55,0,0,0,1.484.395,1.886,1.886,0,0,0,.364-.032c.065.033.129.065.193.09.788.342.788.342.943.6a2.628,2.628,0,0,0,1.262.953,2.91,2.91,0,0,0,1.542,1.12c.305.337.636.659.938.947a2.9,2.9,0,0,0,.942,1.494l.071,1.077c-.01.028-.019.057-.028.085a3.133,3.133,0,0,0-.3.874,3.023,3.023,0,0,0,.068,1.283"/>
        <path id="パス_13" data-name="パス 13" d="M297.535,18.778l0-.019c-.02-.074-.041-.146-.066-.217a3.914,3.914,0,0,0-.133-2.059,2.364,2.364,0,0,0-.158-.37,2.516,2.516,0,0,0-.263-.764l-.034-.585a2.63,2.63,0,0,0-.54-1.38l-.074-.277a2.562,2.562,0,0,0-.491-.95,3.25,3.25,0,0,0-1.3-1.654,5.562,5.562,0,0,0-1.639-1.881,3.033,3.033,0,0,0-.5-.218,2.939,2.939,0,0,0-1.312-.774,2.859,2.859,0,0,0-1.444-.826,2.969,2.969,0,0,0-.837-.375l-.393-.1a2.837,2.837,0,0,0-1.517-.574l-.383-.033a2.888,2.888,0,0,0-1.856-.536l-1.144.071a2.878,2.878,0,0,0-1.134-.154l-1.378.112a2.406,2.406,0,0,0-.415-.006l-1.351.083a2.424,2.424,0,0,0-1.283.475c-.045.021-.09.043-.134.067l-1.48.089a2.631,2.631,0,0,0-1.333.473l-.619.131a2.773,2.773,0,0,0-.764.269,2.473,2.473,0,0,0-1.34.286,1.968,1.968,0,0,0-.2.007,2.551,2.551,0,0,0-1.01.292l-.1.005a2.863,2.863,0,0,0-2.007,1.029,2.9,2.9,0,0,0-1.889.934,2.6,2.6,0,0,0-.656.426,2.877,2.877,0,0,0-1.3.818,4.718,4.718,0,0,0-.584-.529.609.609,0,0,1-.048-.132,3.142,3.142,0,0,0-1.938-2.089,2.871,2.871,0,0,0-1.36-1.06,2.792,2.792,0,0,0-.921-.412,2.874,2.874,0,0,0-1.088-.584c-.043-.023-.089-.046-.14-.071a2.887,2.887,0,0,0-.958-.638,2.906,2.906,0,0,0-1.426-.606l-.032-.009a2.889,2.889,0,0,0-2.747-.975l-.013,0a2.858,2.858,0,0,0-1.9-.58l-.934.058a2.82,2.82,0,0,0-1.253-.144l-4.729.515a2.457,2.457,0,0,0-1.172.556,3.442,3.442,0,0,0-2.374,1.127l-2.207.834a2.838,2.838,0,0,0-1.029.661,2.938,2.938,0,0,0-1.015.955c-.108.084-.214.175-.318.271l-.11.037a2.941,2.941,0,0,0-1.149.706,2.867,2.867,0,0,0-.545.4,3.526,3.526,0,0,0-1.082.837l-.036.042a2.868,2.868,0,0,0-1.5,1.131,8.15,8.15,0,0,0-1.63,1.324c-.061.067-.12.134-.174.2a2.874,2.874,0,0,0-.907.8,8.228,8.228,0,0,0-1.533,1.237,2.529,2.529,0,0,0-1.02.806,2.8,2.8,0,0,0-1.073,1.047,6.174,6.174,0,0,0-1.339,1.359,3.172,3.172,0,0,0-.858,1.013,3.936,3.936,0,0,0-.4.563c-.054.038-.106.077-.155.117a3.615,3.615,0,0,0-1.836,2.077,5.672,5.672,0,0,0-1.307,1.918,3.847,3.847,0,0,0-.9,1.119,3.884,3.884,0,0,0-.9,1.669,4.433,4.433,0,0,0-.716.9,9.164,9.164,0,0,0-1.667,2.413,2.8,2.8,0,0,0-.9,1.457h0c-.007.018-.011.035-.015.048l-.011.056a2.882,2.882,0,0,0-1.048,1.755,3.993,3.993,0,0,0-.267.519,2.661,2.661,0,0,0-.938,1.709,4.705,4.705,0,0,0-.419.481,3.93,3.93,0,0,0-.309.281,2.929,2.929,0,0,0-.687,1.255,2.829,2.829,0,0,0-.514.867,4.612,4.612,0,0,0-.3,1.644,3.38,3.38,0,0,0-.389,1.978,4.272,4.272,0,0,0,.835,2.311c.029.037.061.076.094.115a2.887,2.887,0,0,0,.948,1.3l1.89,1.462a3.4,3.4,0,0,0,2.207.574,3.5,3.5,0,0,0,2.947-1.615,3.741,3.741,0,0,0,1.1-1.49l.028-.031a2.791,2.791,0,0,0,.693-1.557,2.888,2.888,0,0,0,1-1.725,4.378,4.378,0,0,0,.41-.937,5.344,5.344,0,0,0,1.044-1.763c.043-.06.085-.123.123-.189a2.959,2.959,0,0,0,.49-.772,2.9,2.9,0,0,0,.962-1.577,2.966,2.966,0,0,0,.351-.772,2.931,2.931,0,0,0,.811-.746l1.054-1.436a2.932,2.932,0,0,0,.369-.9l.082-.115.071-.108a6.221,6.221,0,0,0,.577-1.024,4.724,4.724,0,0,0,1.233-1.858,3.071,3.071,0,0,0,.931-1.109,4.314,4.314,0,0,0,.262-.347c.055-.041.11-.084.163-.128a2.856,2.856,0,0,0,1.232-1.42l.462-.623a2.893,2.893,0,0,0,1.121-.947,2.9,2.9,0,0,0,.422-.477,2.8,2.8,0,0,0,.513-.613,10.943,10.943,0,0,0,2.043-1.765,2.436,2.436,0,0,0,.187-.23,2.85,2.85,0,0,0,1.053-.7,3.306,3.306,0,0,0,1.378-.95,2.71,2.71,0,0,0,1.5-1.175,2.922,2.922,0,0,0,.81-.6,2.92,2.92,0,0,0,1.312-1.078,3.724,3.724,0,0,0,.43-.277,2.887,2.887,0,0,0,.815-.578,2.834,2.834,0,0,0,.369-.248,2.537,2.537,0,0,0,.907-.466,3.548,3.548,0,0,0,.6-.426,2.851,2.851,0,0,0,.755-.509l.541-.217a2.446,2.446,0,0,0,.393-.2l1.62-.236a2.4,2.4,0,0,0,1.125-.564l.5.049a3.1,3.1,0,0,0,.448.189,2.92,2.92,0,0,0,1.3.342c.076.027.155.051.238.075l.722.192a2.876,2.876,0,0,0,1.489.667c.072.029.137.054.136.043a3.14,3.14,0,0,0,.322.153,2.685,2.685,0,0,0,.5.392l.392.247.011.179a4.65,4.65,0,0,0-.3.73,3.081,3.081,0,0,0-.451,1.416,2.829,2.829,0,0,0-.793,2.106,2.848,2.848,0,0,0-.565.879,2.337,2.337,0,0,0-.229.314,2.938,2.938,0,0,0-1.659,1.546l-.218.512a2.747,2.747,0,0,0-.175.577l-.23.188a2.757,2.757,0,0,0-.764,1.287,2.946,2.946,0,0,0-.639,1.329l-.069.366c-.071.093-.146.187-.229.288a8.459,8.459,0,0,0-1.328,2.175,2.831,2.831,0,0,0-1.265,1.938,3.465,3.465,0,0,1-.328.88,11.513,11.513,0,0,0-.505,1.221,3.826,3.826,0,0,0-.855,1.588,2.6,2.6,0,0,0-.283.294A2.829,2.829,0,0,0,245,37.082a3.862,3.862,0,0,0-.6,1.882A7.684,7.684,0,0,0,244.8,42.4a2.468,2.468,0,0,0,.163.32,2.732,2.732,0,0,0,.65,1.109,3.073,3.073,0,0,0,1.9,1.561,2.936,2.936,0,0,0,.989.7,5.229,5.229,0,0,0,3.177.158,3.874,3.874,0,0,1,.454-.08,3.3,3.3,0,0,0,2.714-2.524l.014-.021a6.21,6.21,0,0,0,.528-1.022,3.614,3.614,0,0,0,.456-.555q.066-.093.132-.18a3.24,3.24,0,0,0,.867-.94,3.067,3.067,0,0,0,1.171-1.657c.043-.061.084-.124.122-.189a2.5,2.5,0,0,0,.34-.392,2.839,2.839,0,0,0,.967-1.491,4.468,4.468,0,0,0,.243-.551,2.807,2.807,0,0,0,.787-1.364,2.594,2.594,0,0,0,.573-1.074c.016-.037.037-.075.058-.113l.018-.035a2.933,2.933,0,0,0,.7-1.1,2.141,2.141,0,0,0,.362-1.306,3.521,3.521,0,0,0,.687-1.521,2.759,2.759,0,0,0,.393-.883,2.793,2.793,0,0,0,.692-1.994,2.883,2.883,0,0,0,.77-1.716q.041-.042.081-.087c.066-.077.129-.158.188-.242l.4-.347a2.738,2.738,0,0,0,.7-1.241,2.543,2.543,0,0,0,.2-.265l.01-.014a2.866,2.866,0,0,0,1.017-.893,3.171,3.171,0,0,0,.393-.431l.554-.761,1.232-.494a2.894,2.894,0,0,0,1.275-1.011l.228-.327.124-.032a3.209,3.209,0,0,0,1.351-1l.046-.014a2.2,2.2,0,0,0,.781-.458,2.879,2.879,0,0,0,.755-.24,2.874,2.874,0,0,0,1.585-.777l1.518-.346a2.512,2.512,0,0,0,1-.482,2.308,2.308,0,0,0,.794-.272l1.754-.109a2.071,2.071,0,0,0,.606-.121l.271.03a2.593,2.593,0,0,0,1.616-.388l.364-.06a2.8,2.8,0,0,0,.6.208,3.991,3.991,0,0,0,1.65.033l.053.014c.05.045.1.089.158.134a7.9,7.9,0,0,0,1,.7,9.268,9.268,0,0,1,.351,1.851,4.034,4.034,0,0,0-.131.408,2.764,2.764,0,0,0-.535,1.848l.04.622a2.763,2.763,0,0,0-.184.213,2.932,2.932,0,0,0-.54,2.327,2.9,2.9,0,0,0-.18,1.2l.04.612c-.016.047-.03.095-.043.143a3.69,3.69,0,0,0-.275.464,2.72,2.72,0,0,0-.5.9,4.187,4.187,0,0,0-.226,1.41,3.77,3.77,0,0,0-.162.4,2.845,2.845,0,0,0-.926,1.826l-.022.195a2.946,2.946,0,0,0-.418.8l-.169.144a2.911,2.911,0,0,0-.959,1.582,1.574,1.574,0,0,0-.206.264,3.346,3.346,0,0,0-.775,1.293c-.11.11-.211.219-.293.315a7.63,7.63,0,0,0-.76,1.009,3.569,3.569,0,0,0-.814,1.071l-.079.144-.276.236a2.314,2.314,0,0,0-.543.7c-.1.081-.209.171-.307.258a.5.5,0,0,0-.041.035,2.789,2.789,0,0,0-.7.434,2.69,2.69,0,0,0-1.1.777,2.89,2.89,0,0,0-1.344,2.634l.062.622a3.215,3.215,0,0,0-.112,1.638,2.485,2.485,0,0,0,.4.884,2.813,2.813,0,0,0,.7,1.013l.022.021a2.891,2.891,0,0,0,1.784,1.695,1.482,1.482,0,0,0,.378.036l.029,0a2.856,2.856,0,0,0,1.875.7q.1,0,.192-.006l1.8-.114a2.987,2.987,0,0,0,1.979-1.091c.039-.047.079-.1.118-.148a3.131,3.131,0,0,0,1.024-.926c.084-.055.163-.112.238-.171a2.344,2.344,0,0,0,.355-.4,2.91,2.91,0,0,0,1.4-1.652,2.162,2.162,0,0,0,.137-.289,2.9,2.9,0,0,0,.741-1.33,2.649,2.649,0,0,0,.377-.433l1.051-1.495a3.047,3.047,0,0,0,1.534-1.952c.042-.055.083-.111.123-.167a2.908,2.908,0,0,0,1.148-1.933l.007-.051a2.86,2.86,0,0,0,.8-1.352,2.669,2.669,0,0,0,.306-.576,2.894,2.894,0,0,0,.646-1.231,2.824,2.824,0,0,0,.891-2.252v-.022c.02-.056.038-.114.054-.171.024-.041.046-.084.068-.13a2.953,2.953,0,0,0,.645-1.646l.045-.734a2.836,2.836,0,0,0,.282-.974,2.961,2.961,0,0,0,.4-1.377l.035-1.247a3.01,3.01,0,0,0,.344-.728c.015-.045.04-.1.067-.159a2.775,2.775,0,0,0,.2-.562,3.275,3.275,0,0,0-.091-1.7l.051-.429a3.41,3.41,0,0,0,.483-2.746M245.552,37.041h0l-.136.062L245.4,37.1Z"/>
        <path id="パス_14" data-name="パス 14" d="M95.236,18.9v0a2.482,2.482,0,0,0-.287-.978l-.08-1.266a2.789,2.789,0,0,0-.17-.805,11.181,11.181,0,0,0-.545-1.214,2.952,2.952,0,0,1-.387-1.037,2.853,2.853,0,0,0-.908-1.755A3.68,3.68,0,0,0,92.28,10.4a2.847,2.847,0,0,0-1.022-.931,2.894,2.894,0,0,0-1.267-2.038l-.012-.008A2.872,2.872,0,0,0,88.95,6.314a2.892,2.892,0,0,0-1.862-1.046l-.123-.018a4.6,4.6,0,0,0-.89-.446,2.86,2.86,0,0,0-1.037-.469,2.8,2.8,0,0,0-1.74-.462l-.265.014a2.866,2.866,0,0,0-1.57-.356l-1.317.078a3.224,3.224,0,0,0-1.208-.15,2.684,2.684,0,0,0-.547.1,3.21,3.21,0,0,0-.881,0,2.508,2.508,0,0,0-.729.25l-.94.058a2.313,2.313,0,0,0-.671.143l-.522-.043a2.435,2.435,0,0,0-.421.008c-.073,0-.14,0-.2,0l-1.352.083a2.425,2.425,0,0,0-.99.291l-.109.008a2.438,2.438,0,0,0-.993.28l-.352.025a2.468,2.468,0,0,0-1.038.291,2.575,2.575,0,0,0-.844.278l-.113.008a2.9,2.9,0,0,0-1.609.605,2.992,2.992,0,0,0-1.115.635L64.248,7a2.229,2.229,0,0,0-.619.373l-.021.011a2.734,2.734,0,0,0-1.079.555l-.03.009a2.49,2.49,0,0,0-.705.352,2.883,2.883,0,0,0-1.006.718,2.331,2.331,0,0,0-.489.3,3.982,3.982,0,0,0-.655-.622,5.776,5.776,0,0,0-1.228-1.723,2.573,2.573,0,0,0-.9-1.094l-.1-.244a2.678,2.678,0,0,0-.932-1.159,2.88,2.88,0,0,0-2.419-1.928,2.742,2.742,0,0,0-.714-.3l-.06-.015A2.843,2.843,0,0,0,51.9,1.414,2.84,2.84,0,0,0,49.869.728l-.042,0A2.882,2.882,0,0,0,48.455.366,2.883,2.883,0,0,0,46.6.035l-1.33.2a2.147,2.147,0,0,0-.282-.054,3.554,3.554,0,0,0-2.074.293l-1.658.1a2.4,2.4,0,0,0-.992.285l-1.03.066a2.5,2.5,0,0,0-1.464.578,3.713,3.713,0,0,0-.5.352l-1.013.176a2.548,2.548,0,0,0-1.07.468,2.679,2.679,0,0,0-.42.251l-.415.1a2.413,2.413,0,0,0-1.009.554,2.762,2.762,0,0,0-.5.214,2.614,2.614,0,0,0-.692.281,2.665,2.665,0,0,0-.755.327,4.373,4.373,0,0,0-1.282.907l-1.177.339a2.891,2.891,0,0,0-1.3.79,2.844,2.844,0,0,0-.931.858l-.138.137a2.668,2.668,0,0,0-1.133.848,2.857,2.857,0,0,0-1.044.877l-.059.025a3.031,3.031,0,0,0-.649.364,4.068,4.068,0,0,0-.659.62,2.713,2.713,0,0,0-1.449,1.313c-.16.135-.318.286-.508.469l-.074.078A2.917,2.917,0,0,0,20.07,12.9l-.017.012a2.945,2.945,0,0,0-1.187,1.021,1.819,1.819,0,0,0-.219.241,4.568,4.568,0,0,0-1.048,1.2,4.953,4.953,0,0,0-.649.514,3.5,3.5,0,0,0-.952.811,3.643,3.643,0,0,0-.448.368,1.38,1.38,0,0,0-.213.242,3,3,0,0,0-.712,1.072c-.1.123-.2.25-.286.381a2.955,2.955,0,0,0-.766,1.07,3.559,3.559,0,0,0-.755.707A2.748,2.748,0,0,0,11.573,22.3c-.035.053-.088.116-.136.179l-.05.064a2.7,2.7,0,0,0-1.452,1.842c-.069.07-.137.142-.205.214a2.767,2.767,0,0,0-.559,1.063,8.09,8.09,0,0,0-.48.809l-.017.019a3.379,3.379,0,0,0-1.4,1.937l-.017.029a5.822,5.822,0,0,0-.529,1.023,3.063,3.063,0,0,0-.171.65v0a2.854,2.854,0,0,0-.786,1.533,3.418,3.418,0,0,0-.2.789c-.02.043-.044.1-.073.163-.108.263-.224.542-.33.852a5.139,5.139,0,0,0-.535.516,2.883,2.883,0,0,0-.706,2.067l0,.036a3.331,3.331,0,0,0-.174.338,2.9,2.9,0,0,0-.781,1.6l-.052.379a4,4,0,0,0-.317.524,3,3,0,0,0-.618,1.423,2.86,2.86,0,0,0-.615,1.947v.02a3.13,3.13,0,0,0-.337.554,2.77,2.77,0,0,0-.289.428,3.708,3.708,0,0,0-.286.747,2.9,2.9,0,0,0-.438,1.934,6.239,6.239,0,0,0,.591,1.975,2.7,2.7,0,0,0,.9,1.355,5.78,5.78,0,0,0,.291.778,2.885,2.885,0,0,0,2.558,1.692l2.717.057h.052a2.623,2.623,0,0,0,1.37-.413,2.877,2.877,0,0,0,1.169-.845,2.907,2.907,0,0,0,1.587-3.159,2.873,2.873,0,0,0,.18-.8l.077-.983a3.016,3.016,0,0,0,.176-.589,1.52,1.52,0,0,0,.082-.278c.031-.063.058-.123.084-.185a2.811,2.811,0,0,0,.837-1.4l.134-.509a3.368,3.368,0,0,0,.484-1.253,4.045,4.045,0,0,0,.469-1.2,2.879,2.879,0,0,0,.991-2.237,2.55,2.55,0,0,0,.146-.37c.033-.066.064-.13.094-.2a2.858,2.858,0,0,0,.708-1.528,2.855,2.855,0,0,0,.226-.327A3.339,3.339,0,0,0,16.234,35a2.916,2.916,0,0,0,1.124-1.859l.124-.794a4.431,4.431,0,0,0,.812-1.115,3.538,3.538,0,0,0,.479-.507c.095-.122.188-.249.279-.383a2.9,2.9,0,0,0,1-1.269,3.338,3.338,0,0,0,.6-.882l.043-.1a3.363,3.363,0,0,0,.254-.268,16.973,16.973,0,0,0,1.339-1.75,3.408,3.408,0,0,0,.848-.882,2.95,2.95,0,0,0,.686-.609l1.867-2.3a3.034,3.034,0,0,0,1.463-1.4,2.345,2.345,0,0,0,.237-.29,2.69,2.69,0,0,0,1.052-.931,6.638,6.638,0,0,0,1.043-.793.668.668,0,0,0,.1-.1h0c.108-.088.217-.184.318-.281a4.1,4.1,0,0,0,.73-.6,5.342,5.342,0,0,0,.534-.432,2.9,2.9,0,0,0,1.021-.662,2.873,2.873,0,0,0,1-.924l.009-.012a2.847,2.847,0,0,0,.6-.421,2.543,2.543,0,0,0,.5-.31,3.132,3.132,0,0,0,.461-.305A2.447,2.447,0,0,0,35.6,14.4a1.969,1.969,0,0,0,.4-.258,3.651,3.651,0,0,0,.715-.511l.226-.06a2.565,2.565,0,0,0,.94-.469,3.28,3.28,0,0,0,.391-.25l.221-.061a2.349,2.349,0,0,0,.535-.211,2.589,2.589,0,0,0,.987-.386,2.931,2.931,0,0,0,.918-.516l1.455-.213a2.58,2.58,0,0,0,1.136-.47c.033-.016.066-.032.1-.049l.535-.032a2.428,2.428,0,0,0,.974-.287l.118-.009a2.365,2.365,0,0,0,.932-.251c.053.008.1.017.149.026a4.625,4.625,0,0,0,1.473.056,2.475,2.475,0,0,0,.265-.061.9.9,0,0,0,.1.009l.186.019a2.872,2.872,0,0,0,1.032.493l.041.029a2.88,2.88,0,0,0,.386.33,2.666,2.666,0,0,0,.129.256,2.879,2.879,0,0,0,.324.83,3.479,3.479,0,0,0-.043.577,3.036,3.036,0,0,0,.218,1.1l-.014.649a1.425,1.425,0,0,0-.094.259,2.847,2.847,0,0,0-.349,1.548l.021.361a2.175,2.175,0,0,0-.082.37,3.391,3.391,0,0,0-.184.694c-.049.134-.09.269-.126.4a2.822,2.822,0,0,0-.537,1.546l-.038.8a2.824,2.824,0,0,0-.461,1.143,2.67,2.67,0,0,0-.885,1.422L47.6,23.4a1.767,1.767,0,0,0-.124.293,2.875,2.875,0,0,0-.329.973L47,24.862a8.442,8.442,0,0,0-1.216,1.873,2.835,2.835,0,0,0-.86,1.551,4.405,4.405,0,0,1-.588.863l-.073.093a9.229,9.229,0,0,0-1.387,2.175c-.036.042-.07.084-.1.127a1.984,1.984,0,0,0-1,1.092,3.721,3.721,0,0,0-.662.984,3.154,3.154,0,0,0-.932,1.625,2.753,2.753,0,0,0-.673.989,2.8,2.8,0,0,0-.431.755,3.383,3.383,0,0,0-.217.957,2.9,2.9,0,0,0-.551,1.56l-.1,2.043a2.9,2.9,0,0,0,.724,2.043,3.307,3.307,0,0,0,.961,1.071,1.8,1.8,0,0,0,.266.158l.388.671A2.818,2.818,0,0,0,43.2,46.919l2.926-.181a2.888,2.888,0,0,0,1.8-.775l1.288-1.212a2.575,2.575,0,0,0,.6-.981l.146-.123a2.938,2.938,0,0,0,.83-1.228l.272-.249a2.837,2.837,0,0,0,.906-1.731l.014-.1a3.654,3.654,0,0,0,.443-.989c.039-.029.08-.059.122-.092a3.169,3.169,0,0,0,1.151-1.982,4.767,4.767,0,0,0,.213-.521c.041-.049.081-.1.125-.156.087-.119.179-.244.268-.381a3.553,3.553,0,0,0,1.313-2.189A6.322,6.322,0,0,0,56.193,33a2.862,2.862,0,0,0,.874-1.846l.035-.433a3.915,3.915,0,0,0,.474-1.028l.093-.08a2.858,2.858,0,0,0,.9-1.436l.149-.553a3.848,3.848,0,0,0,.451-.947l.116-.1a2.863,2.863,0,0,0,.978-1.785l.038-.087a2.854,2.854,0,0,0,.927-1.52,3.034,3.034,0,0,0,.251-.347l.062-.091a2.916,2.916,0,0,0,.69-.69l.2-.285a2.932,2.932,0,0,0,.891-.677l.435-.494a2.2,2.2,0,0,0,.25-.385,2.851,2.851,0,0,0,.492-.381c.115-.081.224-.17.333-.264a2.9,2.9,0,0,0,2.024-1.344l.121-.048a2.514,2.514,0,0,0,1.149-1c.194-.116.383-.241.577-.373a2.759,2.759,0,0,0,.526-.222,2.777,2.777,0,0,0,.607-.175l.671-.27a2.379,2.379,0,0,0,.875-.662l.942-.253a2.425,2.425,0,0,0,.975-.559l.645-.093a3.306,3.306,0,0,0,.986.1,2.6,2.6,0,0,0,1.092-.337,2.6,2.6,0,0,0,.71-.3l1.682-.2a2.8,2.8,0,0,0,1.205.082l1.571-.226a2.815,2.815,0,0,0,.541.083l.734.046a2.814,2.814,0,0,0,.39.16c.052.028.1.054.15.078a2.909,2.909,0,0,0,.45.731,2.9,2.9,0,0,0,.545.92,2.966,2.966,0,0,0,.242.445l.157.825a2.494,2.494,0,0,0,.327.855c-.008.326-.04.732-.086,1.1a2.554,2.554,0,0,0-.332.686,2.83,2.83,0,0,0-.348,1.552l.011.24a2.918,2.918,0,0,0-.153,1.124v.023a2.589,2.589,0,0,0-.085.292,2.7,2.7,0,0,0-.467,1.433l-.049.964a2.787,2.787,0,0,0-.229.7l-.146.759-.036.108a3.144,3.144,0,0,0-.486.8,3.959,3.959,0,0,0-.717,1.8c-.042.1-.082.2-.117.3a2.793,2.793,0,0,0-.444,1.009,3.157,3.157,0,0,0-.694,1.486,2.9,2.9,0,0,0-1,2.054l-.108.165a2.877,2.877,0,0,0-1.539,2.4c0,.1-.006.116-.176.422l-.04.071a3.568,3.568,0,0,0-.939,1.206c-.118.089-.223.177-.32.261a3.722,3.722,0,0,0-1.975,2.652,6.251,6.251,0,0,0-.418,1.4,2.681,2.681,0,0,0,.651,2.071,4.242,4.242,0,0,0,.57,1.143,1.731,1.731,0,0,0,.105.138,2.894,2.894,0,0,0,.94,1.281A2.881,2.881,0,0,0,78,48.956l2.3.534a2.881,2.881,0,0,0,2.765-.862,2.734,2.734,0,0,0,1.627-1.652,2.928,2.928,0,0,0,1.019-1.818l.046-.092a2.72,2.72,0,0,0,.727-1.176,5.648,5.648,0,0,0,.486-.919c.022-.031.042-.065.067-.107a3.659,3.659,0,0,0,.548-.86,3.243,3.243,0,0,0,.4-.671,2.26,2.26,0,0,0,.437-.575,4.733,4.733,0,0,0,.466-1.424,3.49,3.49,0,0,0,.9-1.206,2.784,2.784,0,0,0,.393-.747,3.645,3.645,0,0,0,.706-1.452,2.953,2.953,0,0,0,.718-1.534l.012-.089a2.965,2.965,0,0,0,.3-.718l.2-.724a2.913,2.913,0,0,0,.629-1.251,2.987,2.987,0,0,0,.448-1.31l.054-.678a2.759,2.759,0,0,0,.5-1.408l.04-.5a2.809,2.809,0,0,0,.294-.94l.014-.1a2.733,2.733,0,0,0,.245-.556,3.69,3.69,0,0,0,.344-1.292,2.933,2.933,0,0,0,.163-.755l.047-.558a3.355,3.355,0,0,0,.31-1.453l-.027-.451a2.989,2.989,0,0,0,.159-1.139Z"/>
        <path id="パス_15" data-name="パス 15" d="M211.7,8.869a3.07,3.07,0,0,0-.509-.952,4.577,4.577,0,0,0-.8-.691,5.906,5.906,0,0,0-.852-.6,6.788,6.788,0,0,0-1-.3c-.328-.12-.6-.5-.934-.557-.35-.063-.731.244-1.064.258a3.13,3.13,0,0,0-.989.142c-.328.123-.489.413-.728.664-.266.193-.74.153-1.011.361s-.552.384-.812.6-.319.643-.562.877-.576.365-.8.617-.251.639-.447.915-.735.321-.9.617a8.359,8.359,0,0,0-.417.943c-.122.305-.018.7-.1,1.034-.1.4-.059.828-.183,1.159A7.391,7.391,0,0,1,199.067,15c-.2.345-.737.421-.977.7s-.276.776-.569,1.032a3.84,3.84,0,0,0-.56.686c-.2.26-.58.363-.715.62s-.252.548-.4.813a4.2,4.2,0,0,1-.553.687,3.177,3.177,0,0,0-.592.942c-.124.332.029.761-.056,1.1a5.546,5.546,0,0,1-.277,1.042,1.85,1.85,0,0,1-.728.833,3.413,3.413,0,0,0-.666.621,4.2,4.2,0,0,0-.306.883,4.137,4.137,0,0,0-.276.877c-.046.313-.335.478-.309.792-.388.109-.4.542-.614.814s-.631.452-.8.771-.106.886-.366,1.116a4.163,4.163,0,0,0-.958.48c-.346.216-.744.245-.955.507a9.9,9.9,0,0,0-.737.82c-.179.281-.057.857-.32,1.158-.3.193-.766.207-1.081.4s-.678.275-.99.467-.585.436-.894.633-.7.266-1.005.471-.589.449-.88.666-.439.631-.715.864-.656.349-.91.605c-.315.17-.5.531-.8.67-.325.152-.739.054-1.048.169-.336.127-.631.3-.947.391-.347.095-.643.391-.966.44a6.633,6.633,0,0,1-1.053-.085,6.61,6.61,0,0,1-1.049.043c-.348-.062-.621-.373-.932-.5a4.739,4.739,0,0,1-.852-.53,5,5,0,0,1-.749-.651c-.241-.235-.605-.35-.813-.63a8.476,8.476,0,0,1-.422-.938,9.215,9.215,0,0,1-.415-.921c-.13-.308-.532-.525-.638-.858s.022-.712-.059-1.052-.31-.63-.369-.973-.184-.668-.224-1.013-.116-.683-.139-1.028.03-.693.023-1.037.356-.681.364-1.026-.005-.678.016-1.02-.22-.7-.184-1.046-.1-.712-.053-1.05.248-.663.311-1,.314-.639.391-.969.123-.68.215-1.006.372-.6.481-.923-.1-.775.025-1.084c.134-.328.3-.638.452-.937.157-.316.467-.538.639-.819.187-.3.212-.7.415-.962.206-.284.322-.6.5-.883.186-.3.435-.537.588-.831.162-.314.232-.643.36-.951.135-.326.258-.628.355-.946.1-.338.509-.588.572-.915.066-.347-.158-.724-.135-1.053a7.191,7.191,0,0,0-.05-1.006,7.626,7.626,0,0,0,.069-1.034,5.776,5.776,0,0,0-.343-.969,5.578,5.578,0,0,0-.362-.986,4.554,4.554,0,0,0-.759-.724c-.254-.234-.658-.22-.958-.381s-.507-.529-.844-.606a4.5,4.5,0,0,0-1.03.061,4.97,4.97,0,0,0-.961.268c-.317.076-.712-.09-1.041.05a7.85,7.85,0,0,0-.851.577,9.428,9.428,0,0,0-.762.669A9.317,9.317,0,0,0,166,7c-.238.226-.684.275-.922.539-.221.246-.436.541-.656.82-.2.331-.212.747-.375,1.036-.19.336-.556.543-.709.838-.174.336-.137.75-.283,1.058-.153.327-.295.644-.439.971s-.227.656-.377,1a8.642,8.642,0,0,0-.541.922c-.1.337-.053.716-.128,1.059s-.367.645-.433.988-.054.706-.129,1.041c-.079.351,0,.728-.106,1.05-.075.333.047.721-.033,1.072s-.225.661-.3,1.01-.5.6-.576.952.02.719-.053,1.067.035.721-.034,1.068-.116.686-.179,1.031-.332.652-.388,1-.052.7-.1,1.05-.3.674-.34,1.023.2.728.173,1.078-.144.7-.161,1.046.189.707.186,1.056-.258.706-.244,1.055.2.693.229,1.041-.078.717-.025,1.062.315.654.39.995.18.667.283,1,.113.694.245,1.018.015.788.178,1.1c.192.284.7.359.884.634s.416.539.594.817.038.778.217,1.055.372.567.558.841.648.364.845.632.389.535.6.792.462.462.694.705.175.771.427,1,.628.288.9.494.655.2.945.381c.274.174.383.645.688.807.284.152.584.318.9.46.3.135.688.072,1.012.2.3.117.63.188.96.3s.612.307.931.388.673.074,1,.133.677-.025,1.006.011.648.3.979.317.673-.17,1.005-.174.692.349,1.023.325.676-.1,1.005-.142.622-.409.949-.465.689.026,1.013-.043.618-.317.939-.4.65-.168.967-.254.656-.162.972-.251.726.083,1.039,0c.332-.094.671-.3.982-.381a3.846,3.846,0,0,0-.67.9,4.7,4.7,0,0,0-.414.988,6.112,6.112,0,0,0-.22,1.049,8.33,8.33,0,0,0-.17,1.112c-.208.232-.525.433-.663.711s-.013.64-.107.936-.29.558-.369.854-.261.581-.358.863a3.613,3.613,0,0,1-.467.785,10.676,10.676,0,0,0-.5.966c-.146.3-.454.559-.612.912-.141.316-.243.67-.391,1.012-.141.326-.145.719-.289,1.055s-.044.772-.188,1.1-.313.67-.46.991c-.156.343-.365.654-.517.961-.174.351-.549.541-.714.822a4.35,4.35,0,0,0-.856.493c-.236.194-.48.437-.729.682-.223.222-.474.449-.706.7-.216.236-.444.481-.665.736s-.206.688-.422.94-.671.292-.886.542-.167.736-.384.983-.69.27-.911.506-.256.682-.484.9c-.247.24-.485.483-.726.682a6.5,6.5,0,0,1-.837.543c-.284.171-.527.437-.835.624-.287.175-.568.381-.872.567s-.672.215-.977.393-.594.35-.9.522-.738.082-1.045.246-.447.641-.758.8-.774-.019-1.09.124-.556.455-.877.583-.658.219-.985.328-.606.419-.938.5-.685-.052-1.012,0-.64.144-.971.172-.656-.116-.988-.109-.648.058-.98.046-.656.042-.986.014-.636-.2-.964-.238-.652-.052-.978-.1-.668.018-.992-.042-.691.1-1.013.031-.643-.215-.963-.284c-.3-.121-.616-.277-.922-.438-.285-.151-.442-.547-.734-.729s-.712-.115-.994-.311-.382-.6-.655-.8-.651-.237-.917-.447-.591-.327-.853-.539-.433-.522-.69-.737-.365-.6-.62-.818-.5-.442-.756-.659-.663-.259-.918-.476-.522-.417-.775-.629-.32-.665-.575-.872-.58-.352-.84-.551-.59-.334-.86-.516-.529-.436-.813-.593a8.453,8.453,0,0,0-.881-.52,6.045,6.045,0,0,0-1.01-.2,5.138,5.138,0,0,0-1.014.1,4.726,4.726,0,0,0-.954.211,5.155,5.155,0,0,0-.928.283,6.708,6.708,0,0,0-.87.451,4.133,4.133,0,0,0-.741.728c-.267.269-.672.385-.826.687a3.709,3.709,0,0,0-.505,1c-.052.344.374.713.414,1.076a5.382,5.382,0,0,0,.2,1.011,7.982,7.982,0,0,0,.36.98c.141.318.346.593.523.909s.05.793.246,1.094.681.392.892.678.224.725.445,1,.5.522.724.786.553.448.771.682c.249.266.517.467.746.689.259.251.279.728.523.937.269.231.5.493.769.692s.653.253.935.45.636.243.927.443c.262.181.331.662.622.87.26.185.691.165.981.383.256.192.56.358.844.583a8.479,8.479,0,0,0,.744.624c.258.167.54.329.835.5.273.158.577.277.871.432s.566.311.86.454.606.24.9.375.526.439.819.565c.309.132.653.158.941.272.323.13.665.147.946.247.351.125.642.266.9.337.316.085.609.334.956.4.326.061.664.156,1.011.2s.68.062,1.026.09.692-.2,1.036-.183.678-.006,1.021,0,.688.261,1.03.252.693.011,1.032-.009.658-.438.994-.468.718.223,1.049.182c.351-.044.71,0,1.037-.049.353-.057.66-.294.978-.361.357-.076.615-.334.917-.42.277-.142.635-.114.949-.232.291-.111.539-.39.853-.5.3-.1.689.046,1-.063s.545-.36.847-.488.6-.209.892-.361a8.528,8.528,0,0,0,.87-.427c.261-.177.662-.213.91-.432a7.948,7.948,0,0,0,.578-.774c.342-.05.578-.362.886-.444a7,7,0,0,0,.916-.324,7.867,7.867,0,0,0,.956-.282c.29-.171.7-.186.953-.392a7.78,7.78,0,0,0,.693-.748c.227-.24.172-.712.371-.978s.58-.374.754-.659a5.68,5.68,0,0,0,1.012-.438c.308-.179.366-.589.607-.912.193-.257.706-.3.858-.708a2.419,2.419,0,0,0,.755-.46c.241-.178.316-.585.544-.811s.709-.239.9-.466a5.346,5.346,0,0,0,.493-.759c.323-.17.545-.421.824-.592.312-.192.527-.49.794-.684.291-.213.6-.375.847-.593.267-.235.508-.481.74-.726s.407-.558.625-.826.346-.59.555-.871.581-.413.79-.7c.194-.267.539-.437.752-.724.2-.265.13-.749.353-1.033.205-.26.357-.584.589-.861.2-.259.592-.373.79-.642s.517-.452.705-.727.082-.744.257-1.023.353-.562.512-.849.322-.579.459-.872c.144-.31.6-.515.709-.819.031-.314-.062-.637.122-.89.17-.234.488-.389.656-.658a2.294,2.294,0,0,0,.336-.856c.2-.208.108-.638.288-1,.141-.282.556-.475.69-.824.118-.308.305-.616.42-.956.109-.322-.034-.736.074-1.073s.07-.707.177-1.037.469-.584.581-.907.026-.746.149-1.058c.134-.34.657-.486.8-.775.153-.305.009-.758.162-1.06s.544-.488.7-.791-.054-.786.1-1.088.449-.531.6-.834.458-.529.606-.832.047-.728.191-1.031.323-.6.463-.9.59-.48.724-.791.2-.651.331-.964.344-.6.463-.911.2-.654.31-.972.026-.706.125-1.029.245-.6.332-.93c.3-.187.375-.573.6-.822s.708-.33.879-.63a8.637,8.637,0,0,0,.293-1.014c.127-.318.04-.712.15-1.04s.237-.65.348-.973.5-.553.632-.863a6.387,6.387,0,0,1,.454-.906c.177-.282.139-.709.329-.974s.517-.446.72-.7.5-.445.708-.7.427-.5.633-.758.287-.617.484-.877.4-.518.586-.79.186-.64.343-.931.688-.4.811-.7a8.412,8.412,0,0,0,.166-1,7.317,7.317,0,0,0,.371-.954,2.089,2.089,0,0,1,.254-1.088c.236-.314.673-.436.948-.727a3.658,3.658,0,0,0,.46-1.154c.121-.3.48-.644.675-1.072.179-.394.042-.98.248-1.3s.667-.532.745-.907.086-.781.154-1.128a1.223,1.223,0,0,1,.452-.872,2.77,2.77,0,0,0,.662-.932c.172-.316-.018-.735.039-1.1.055-.35.54-.694.519-1.063s-.54-.673-.606-1.028c-.068-.371-.037-.743-.124-1.078-.1-.388.051-.812-.032-1.115"/>
      </g>
    </g>
    <g id="グループ_10" data-name="グループ 10" transform="translate(673 722.712)">
      <g id="グループ_9" data-name="グループ 9" transform="translate(0 0)" clip-path="url(#clip-path-2)">
        <path id="パス_23" data-name="パス 23" d="M16.273,1.9c.924,0,1.818.031,2.742,0,.4-.031.77-.062,1.171-.062.8,0,.832.37.832,1.943,0,1.078-.062,1.385-.893,1.385-1.294,0-2.557-.062-3.851-.062H14.7a.908.908,0,0,0-.924.926V9.48a.92.92,0,0,0,.924.892h5.241c1.417,0,2.9-.062,4-.062.834,0,.834.339.834,1.756,0,.9,0,1.573-.8,1.573-1.356,0-2.713-.062-4.036-.062h-5.3a.855.855,0,0,0-.863.834V17.03c0,2.342.154,2.4,3.483,2.4a40.715,40.715,0,0,0,5.178-.277,2.315,2.315,0,0,1,.462-.031c.709,0,.647,1.14.647,1.6,0,1.85-.277,1.91-2.5,1.91-10.232,0-10.633-.154-10.633-5.085V14.473a.893.893,0,0,0-.892-.9H4.683c-1.292,0-2.557.062-3.851.062C0,13.639,0,13.054,0,12.161c0-1.479.031-1.881.77-1.881.709,0,2.434.092,3.913.092H9.524a.891.891,0,0,0,.892-.892V6a.883.883,0,0,0-.924-.9H7.951c-1.232,0-2.5.033-3.76.033-.861,0-1.015-.154-1.015-1.14,0-1.974,0-2.158.986-2.158,1.2,0,2.5.062,3.851.062Z" transform="translate(0 1.306)" fill="#1b1311"/>
        <path id="パス_24" data-name="パス 24" d="M32.651,21.325c0,1.357.06,2.713.06,4.038,0,.832-.4.924-1.539.924-1.695,0-2-.092-2-.893,0-1.325.062-2.651.062-3.974V13.036c0-.185.092-.864-.493-.864-.308,0-.957.525-1.2.709-.924.68-5.826,3.945-6.626,3.945a5.19,5.19,0,0,1-2.4-2.465c0-.308.277-.431.493-.524A44.348,44.348,0,0,0,31.11,5.671,26.185,26.185,0,0,0,35.3.462c.094-.154.277-.462.493-.462a11.422,11.422,0,0,1,2.1,1.261c.339.216,1.2.741,1.2,1.111,0,.185-.154.246-.308.308a1.666,1.666,0,0,0-1.2.739,60.409,60.409,0,0,1-4.223,4.623,1.641,1.641,0,0,0-.709,1.386Z" transform="translate(13.168 -0.001)" fill="#1b1311"/>
        <path id="パス_25" data-name="パス 25" d="M52.273,1.9c.924,0,1.818.031,2.742,0,.4-.031.77-.062,1.171-.062.8,0,.832.37.832,1.943,0,1.078-.062,1.385-.893,1.385-1.294,0-2.557-.062-3.851-.062H50.7a.908.908,0,0,0-.924.926V9.48a.92.92,0,0,0,.924.892h5.241c1.417,0,2.9-.062,4-.062.834,0,.834.339.834,1.756,0,.9,0,1.573-.8,1.573-1.356,0-2.713-.062-4.036-.062h-5.3a.855.855,0,0,0-.863.834V17.03c0,2.342.154,2.4,3.483,2.4a40.715,40.715,0,0,0,5.178-.277,2.315,2.315,0,0,1,.462-.031c.709,0,.647,1.14.647,1.6,0,1.85-.277,1.91-2.5,1.91-10.232,0-10.633-.154-10.633-5.085V14.473a.893.893,0,0,0-.892-.9H40.683c-1.292,0-2.557.062-3.851.062-.832,0-.832-.585-.832-1.479,0-1.479.031-1.881.77-1.881.709,0,2.434.092,3.913.092h4.841a.891.891,0,0,0,.892-.892V6a.883.883,0,0,0-.924-.9h-1.54c-1.232,0-2.5.033-3.76.033-.861,0-1.015-.154-1.015-1.14,0-1.974,0-2.158.986-2.158,1.2,0,2.5.062,3.851.062Z" transform="translate(25.619 1.306)" fill="#1b1311"/>
      </g>
    </g>
    <g id="グループ_14" data-name="グループ 14" transform="translate(530 619.634)">
      <g id="グループ_13" data-name="グループ 13" transform="translate(0 0)" clip-path="url(#clip-path-3)">
        <path id="パス_33" data-name="パス 33" d="M6.957,1.659c.927,0,.861.464.927,1.226.2,2.02.631,3.976,1.029,5.964.1.431.2.994.762.994.6,0,4.9-2.617,5.7-3.113a2.181,2.181,0,0,1,.863-.366c.563,0,2.153,2.85,2.153,3.38,0,.331-.4.432-.629.5a55.3,55.3,0,0,0-6.891,3.115c-2.254,1.192-7.256,3.712-7.256,6.659a2.9,2.9,0,0,0,2.153,2.42,13.463,13.463,0,0,0,4.44.561,45.512,45.512,0,0,0,5.167-.329c.6-.066,2.95-.432,3.447-.53a1.07,1.07,0,0,1,.331-.035c.464,0,.5,1.358.5,2.12v.4c0,.9-.068,1.227-.929,1.393-1.49.265-7.09.464-8.812.464a13.359,13.359,0,0,1-6.891-1.393A5.759,5.759,0,0,1,0,19.948c0-3.314,2.32-5.566,4.935-7.224.4-.263.8-.464.8-1.025a1.367,1.367,0,0,0-.1-.53C5.167,9.908,4.308,6.5,3.942,5.039a17.2,17.2,0,0,0-.627-2.155,2.314,2.314,0,0,1-.1-.4c0-.464,1.027-.53,2.186-.7a11.835,11.835,0,0,1,1.557-.132M20.276,4.046a10.5,10.5,0,0,1,1.26,2.186c0,.5-1.358,1.259-1.757,1.259-.265,0-.331-.2-.629-.7-.431-.762-.961-1.658-1.457-2.385-.132-.2-.464-.6-.464-.8,0-.4,1.391-1.093,1.755-1.093.331,0,1.093,1.226,1.292,1.525m3.48-2.254a11.065,11.065,0,0,1,1.226,2.153c0,.53-1.391,1.292-1.755,1.292-.267,0-.364-.263-.464-.464-.631-1.159-1.26-2.02-1.989-3.113a.632.632,0,0,1-.1-.265C20.674.93,22.1.233,22.429.233c.3,0,1.029,1.128,1.327,1.559" transform="translate(0 0.196)" fill="#1b1311"/>
        <path id="パス_34" data-name="パス 34" d="M20.869,15.081c.432,0,.532.3.6.629.7,3.513,3.513,4.01,6.626,4.01a41.334,41.334,0,0,0,9.872-1.159,2.688,2.688,0,0,1,.5-.1c.495,0,.727.563.727,2.716,0,.629-.164,1.027-.793,1.227-1.755.53-7.953.927-9.94.927-3.447,0-7.156-.432-9.309-3.447a7.717,7.717,0,0,1-1.292-3.215c0-.828,2.981-1.59,3.012-1.59m.565-11.563c.1-.563.166-1.159.795-1.159a4.8,4.8,0,0,1,.961.2,21.424,21.424,0,0,0,5.634.694,28.2,28.2,0,0,0,6-.662,1.776,1.776,0,0,1,.431-.066c.828,0,.863,1.492.863,2.85,0,.793-.166.861-.927.994a45.576,45.576,0,0,1-6,.4c-1.822,0-5.931-.166-7.554-.83a.686.686,0,0,1-.466-.694,11.524,11.524,0,0,1,.267-1.724" transform="translate(15.002 1.982)" fill="#1b1311"/>
        <path id="パス_35" data-name="パス 35" d="M36.551,4.112c4.839-.3,9.677-.8,14.482-1.36,2.519-.3,5.036-.627,7.521-1.027a1.9,1.9,0,0,1,.431-.033c.5,0,.563.432.629.828a14.865,14.865,0,0,1,.3,2.42c0,.727-.7.661-1.492.7a16.324,16.324,0,0,0-5.5.7,10.069,10.069,0,0,0-5.633,4.935A12.414,12.414,0,0,0,45.7,17.1c0,3.844,2.451,4.771,5.831,4.771.565,0,1.292-.033,1.656-.033.5,0,.762.033.762.563a9.4,9.4,0,0,1-.5,2.718c-.232.5-.5.563-1.06.563-5.633,0-10.472-1.789-10.472-8.249a14.724,14.724,0,0,1,3.647-9.51c.363-.4.563-.629.563-.795,0-.3-.265-.4-.5-.4s-1.755.265-2.087.3c-2.221.331-5.2.795-7.322,1.358a2.556,2.556,0,0,1-.5.066c-.464,0-.631-.729-.727-1.093a14.434,14.434,0,0,1-.366-2.387c0-.859.462-.762,1.919-.859m22,8.082c0,.5-1.325,1.393-1.691,1.393-.232,0-.329-.232-.464-.4-.661-.961-1.389-1.888-2.12-2.782-.1-.1-.3-.3-.3-.464,0-.4,1.329-1.226,1.693-1.226a12.82,12.82,0,0,1,2.882,3.476m4.01-1.822c0,.466-1.292,1.393-1.691,1.393-.232,0-.364-.267-.495-.432A28.575,28.575,0,0,0,58.22,8.583a.782.782,0,0,1-.23-.431c0-.4,1.292-1.26,1.689-1.26a13.476,13.476,0,0,1,2.883,3.48" transform="translate(29.095 1.422)" fill="#1b1311"/>
        <path id="パス_36" data-name="パス 36" d="M66.544,1.722c0,.167-.131.267-.3.364-.464.232-.7.267-1.159,1.459-.3.795-.563,1.623-.828,2.418a1.178,1.178,0,0,0-.1.466c0,.561.431.7.894.762,1.128.131,2.252.232,3.378.263.631,0,1.128-.031,1.128.629a9.676,9.676,0,0,1-.366,2.155c-.131.464-.263.729-.727.729a41.6,41.6,0,0,1-4.506-.5.917.917,0,0,0-.3-.066c-.53,0-.762.364-.894.795-.1.4-.563,2.484-.563,2.751,0,.694.7.727,1.157.762,1,.1,1.991.132,2.985.132.894,0,.994.232.994.563a7.328,7.328,0,0,1-.432,2.219c-.166.5-.364.764-.927.764-.762,0-2.319-.234-3.113-.333a3.3,3.3,0,0,0-.53-.066c-.894,0-.894.828-.894,2.252,0,2.883,1.524,4.407,4.405,4.407,1.492,0,3.778-.4,4.8-1.557a3.325,3.325,0,0,0,.729-2.352,14.315,14.315,0,0,0-1.126-4.8,1.744,1.744,0,0,1-.132-.6c0-.793,2.451-1.226,2.817-1.226.53,0,.627.53.894,1.26a18.158,18.158,0,0,1,1.093,5.8c0,5.136-4.738,6.926-9.145,6.926-5,0-7.951-2.882-7.951-7.92,0-.828.132-2.085.132-2.418,0-.729-.563-.927-1.325-1.159a10.815,10.815,0,0,1-1.954-.8c-.366-.2-.629-.363-.629-.793,0-.2.331-2.817,1.159-2.817a1.824,1.824,0,0,1,.828.331,6,6,0,0,0,2.12.927c.563,0,.662-.464.861-1.422.066-.366.2-.8.3-1.3a6.463,6.463,0,0,0,.132-.727c0-.731-.6-.927-1.06-1.095-2.319-.892-2.983-1.191-2.983-1.787,0-.565.53-2.85,1.227-2.85a1.8,1.8,0,0,1,.762.364A20.684,20.684,0,0,0,59.653,5.8a1.029,1.029,0,0,0,.431.1c.53,0,.664-.432.762-.8.3-1.126,1.029-3.48,1.292-4.44.1-.363.166-.662.5-.662a12.3,12.3,0,0,1,1.656.532c.563.2,2.252.661,2.252,1.191" transform="translate(45.412 0.001)" fill="#1b1311"/>
        <path id="パス_37" data-name="パス 37" d="M78.054,19.3c-.4,0-4.339,3.182-4.9,3.677a1.054,1.054,0,0,1-.5.267c-.664,0-1.987-2.486-1.987-3.148,0-.364.364-.464.762-.7,1.853-1.06,3.612-2.254,5.434-3.38,1.257-.762,1.391-.795,1.391-1.822V13.072c0-.495.031-.994.031-1.489V11.25a.723.723,0,0,0-.727-.762c-.066,0-.134.035-.2.035-.629.131-2.882.53-3.378.53-.431,0-.961-.035-.961-2.453,0-.9.066-1.027.7-1.06,1.027-.033,2.186-.1,3.213-.232a1.779,1.779,0,0,0,1.227-.4,1.349,1.349,0,0,0,.263-.994c.035-.927.068-1.857.068-2.784,0-.662-.068-1.424-.068-1.557,0-.265.1-.5.432-.5.5,0,2.716.464,3.378.6.2.033.662.132.662.429,0,.2-.2.4-.331.534-.5.4-.53.793-.627,1.822-.035.2-.066.464-.1.762,0,.131-.033.331-.033.464a.579.579,0,0,0,.563.561c.232,0,1.755-.462,2.089-.561a1.822,1.822,0,0,1,.561-.166c.764,0,.863,2.153.863,2.716,0,.861-.563.861-3.082,1.292-1.226.234-1.292.466-1.292,1.989v.464c0,.561.066,1.292.5,1.292a3.164,3.164,0,0,0,.828-.3,15.464,15.464,0,0,1,5.5-1.093c3.678,0,7.222,2.285,7.222,6.26a5.827,5.827,0,0,1-2.65,4.937c-1.689,1.161-4.67,1.49-6.661,1.49h-.4c-.53,0-1.226-.031-1.391-.364a6.423,6.423,0,0,1-.53-2.385c0-.431.1-.861.6-.861a26.149,26.149,0,0,0,2.718.3c1.919,0,4.736-.629,4.736-3.049,0-2.085-2.122-3.113-3.975-3.113a12.908,12.908,0,0,0-5.831,1.59,1.112,1.112,0,0,0-.53,1.029c0,.4.066,1.721.1,2.184.066.7.3,3.678.3,4.01,0,1.625-2.02,2.42-2.917,2.42-.727,0-.959-.7-1.226-1.259a6.689,6.689,0,0,0-2.02-2.584c-.166-.167-.4-.366-.4-.631a.749.749,0,0,1,.729-.662,7.952,7.952,0,0,1,1.689,1.027.661.661,0,0,0,.4.2c.2,0,.234-.134.234-.267,0-.033-.066-1.391-.066-1.457,0-.166-.035-.331-.035-.464-.031-.6-.031-.927-.364-.927M94.786,7.739c.894.7,2.552,2.087,2.552,2.451,0,.631-1.426,2.254-2.089,2.254a1.329,1.329,0,0,1-.729-.4,47.154,47.154,0,0,0-4.405-3.712c-.232-.166-.6-.431-.6-.795,0-.5,1.457-2.153,1.987-2.153A9.938,9.938,0,0,1,93.991,7.11c.265.2.53.431.795.629" transform="translate(59.369 0.908)" fill="#1b1311"/>
        <path id="パス_38" data-name="パス 38" d="M93.59,3.754c.265.066.729.134.729.464,0,.2-.132.265-.331.432-.464.363-.5,1.025-.6,1.59a24.683,24.683,0,0,0-.265,3.511,18.936,18.936,0,0,0,1.06,6.924c.4.929,1.492,2.882,2.652,2.882.926,0,1.888-1.457,2.285-2.184.2-.333.464-.828.894-.828.7,0,2.387,1.358,2.387,1.952,0,.631-1.492,2.354-1.956,2.883-.961,1.093-1.989,2.087-3.544,2.087-2.451,0-4.374-2.219-5.467-4.24-1.656-3.115-1.923-7.289-1.923-10.8,0-.532.1-4.738.167-5.036a.412.412,0,0,1,.464-.364c.429,0,2.882.629,3.445.729m13.484-.662c.729,0,3.513,2.089,5.1,5.136a18.078,18.078,0,0,1,1.954,6.891c0,.629-.331.795-.892.962a7.089,7.089,0,0,1-1.857.3c-1.06,0-1.027-.464-1.093-1.259-.4-3.875-1.755-7.024-4.9-9.443a.544.544,0,0,1-.3-.495c0-.631,1.327-2.089,1.987-2.089" transform="translate(75.202 2.542)" fill="#1b1311"/>
        <path id="パス_39" data-name="パス 39" d="M120.544,1.722c0,.167-.131.267-.3.364-.464.232-.7.267-1.159,1.459-.3.795-.563,1.623-.828,2.418a1.178,1.178,0,0,0-.1.466c0,.561.431.7.894.762,1.128.131,2.252.232,3.378.263.631,0,1.128-.031,1.128.629a9.675,9.675,0,0,1-.366,2.155c-.131.464-.263.729-.727.729a41.6,41.6,0,0,1-4.506-.5.917.917,0,0,0-.3-.066c-.53,0-.762.364-.894.795-.1.4-.563,2.484-.563,2.751,0,.694.7.727,1.157.762,1,.1,1.991.132,2.985.132.894,0,.994.232.994.563a7.328,7.328,0,0,1-.432,2.219c-.166.5-.364.764-.927.764-.762,0-2.319-.234-3.113-.333a3.3,3.3,0,0,0-.53-.066c-.894,0-.894.828-.894,2.252,0,2.883,1.524,4.407,4.405,4.407,1.492,0,3.778-.4,4.8-1.557a3.325,3.325,0,0,0,.729-2.352,14.315,14.315,0,0,0-1.126-4.8,1.744,1.744,0,0,1-.132-.6c0-.793,2.451-1.226,2.817-1.226.53,0,.627.53.894,1.26a18.158,18.158,0,0,1,1.093,5.8c0,5.136-4.738,6.926-9.145,6.926-5,0-7.951-2.882-7.951-7.92,0-.828.132-2.085.132-2.418,0-.729-.563-.927-1.325-1.159a10.815,10.815,0,0,1-1.954-.8c-.366-.2-.629-.363-.629-.793,0-.2.331-2.817,1.159-2.817a1.824,1.824,0,0,1,.828.331,6,6,0,0,0,2.12.927c.563,0,.662-.464.861-1.422.066-.366.2-.8.3-1.3a6.464,6.464,0,0,0,.132-.727c0-.731-.6-.927-1.06-1.095-2.319-.892-2.983-1.191-2.983-1.787,0-.565.53-2.85,1.227-2.85a1.8,1.8,0,0,1,.762.364A20.683,20.683,0,0,0,113.653,5.8a1.029,1.029,0,0,0,.431.1c.53,0,.664-.432.762-.8.3-1.126,1.029-3.48,1.292-4.44.1-.363.166-.662.5-.662a12.3,12.3,0,0,1,1.656.532c.563.2,2.252.661,2.252,1.191" transform="translate(90.778 0.001)" fill="#1b1311"/>
      </g>
    </g>
  </g>
</svg>
