<svg id="グループ_46" data-name="グループ 46" xmlns="http://www.w3.org/2000/svg" xmlns:xlink="http://www.w3.org/1999/xlink" width="238.356" height="510" viewBox="0 0 238.356 510">
  <defs>
    <clipPath id="clip-path">
      <rect id="長方形_25" data-name="長方形 25" width="238.356" height="510" fill="none"/>
    </clipPath>
  </defs>
  <path id="パス_86" data-name="パス 86" d="M117.955,0l-4.4.674-2.812,2.644L108.3,6.7l-2.01,3.657-2.05,3.626L101.365,17.1l-1.538,3.938L97.51,24.5l-2.295,3.473-2,3.34L90.584,34.22l-1.748,3.517-2.69,2.892L83.9,43.819l-1.6,3.609-2.088,3.3-2.333,3.138-2.2,3.225-2.32,3.152L71.228,63.51l-1.539,3.621-2.051,3.315-1.584,3.58L63.548,77.1l-1.7,3.516-1.729,3.511-.817,4.1L57.333,91.9l-.882,4.044-1.62,3.836-.682,4.078-.512,4.1L52.3,111.881l.072,4.2-1.217,3.96-.428,4.106-.581,4.09-1.329,3.619-.825,3.746-1.552,3.526L45.1,142.719l-.607,3.853L43.05,150.13l-1.722,3.447-.961,3.729-1.753,3.424-1.743,3.422-.963,3.723-1.794,3.434-1.223,3.67-1.3,3.649L30.25,182.26l-.812,3.8-1.314,3.646-.361,3.907-1.085,3.706L25.359,201l-.5,3.846-.724,3.8.133,3.922-.782,3.8-.835,3.812-.2,3.877.216,3.9L22,231.81l-.283,3.874.354,3.879.41,3.864-.323,3.877.663,3.848.077,3.868-.44,3.915.436,3.858,1.177,3.828.092,3.948.094,3.976,1.544,3.738.059,4-1.748,3.586.983,4.021.7,3.877,3.354,3.95-.856,3.866,2.275,3.912L32,309.2l.965,3.825.859,3.851,1.444,3.695.7,3.9.952,3.833.981,3.828,1.264,3.744,1.225,3.754,1.566,3.647.677,3.923,1.541,3.651,1.49,3.662.9,3.854,1.119,3.78,1.862,3.527,1.291,3.718,1.159,3.759.761,3.912,2.033,3.46,1.276,3.728,1.017,3.825,1.584,3.614,1.315,3.713,1.31,3.715,1.263,3.734,1.225,3.752,2.115,3.4,1.116,3.8,1.8,3.519,1.261,3.739,1.939,3.452.853,3.925,1.531,3.629,1.674,3.568,2.425,3.208,1.276,3.757,2.209,3.292,1.282,3.782,2.287,3.228,2.413,3.328,2.257,3.417,2.195,3.456,1.969,3.586,1.842,3.677,2.318,3.368,2,3.568,2.269,3.386,2.721,3.1,1.852,3.687,2.315,3.1,2.639,2.886,2.155,3.231,2.437,3.045,1.707,3.514,2.165,3.159,3,1.756,3.518.488L130.744,510l3.576-.784,3.763.354,1.831-4.172,2.822-3.333,2.583-3.493,2.188-3.756,2.662-3.41,2.823-3.453,1.938-4.025,2.02-3.97,2.835-3.475,1.714-3.8,2.193-3.572,1.439-3.933,1.222-4.024,1.987-3.688,1.513-3.892,2.069-3.646,1.747-3.785,1.592-3.79,1.408-3.912,2.4-3.379,2.3-3.409,1.933-3.667,2.321-3.409,2.272-3.434,2.4-3,2.211-3.157,2.163-3.2,1.62-3.521,2.275-3.149,1.333-3.674,2.025-3.281,2.143-3.213,1.147-3.753,2.346-3.093,1.513-3.549,1.714-3.433,2.013-3.294,1.042-3.715,1.065-3.7,1.027-3.725.81-3.784.584-3.825.515-3.833.991-3.746,1.2-3.726-.163-3.935.6-3.815.775-3.8-.145-3.879.767-3.787.509-3.822.262-3.84.624-3.82-.076-3.868.553-3.825-.556-3.884.823-3.812-.37-3.864.372-3.831.385-3.83L224,286.3l.176-3.838-.072-3.84.018-3.835.479-3.843,0-3.849-.747-3.9-.255-3.953-.989-3.854-.489-3.924.038-4.006-.708-3.9-1.133-3.836-.4-3.943.049-4.014-.826-3.873-1.177-3.82-.556-3.912.074-4.011-.5-3.92-1.014-3.84-.538-3.915-1.1-3.835-.474-3.924.42-4-.445-3.924-1.032-3.886.063-3.971L212.425,177l-.038-3.953-.593-3.917.249-3.965-.533-3.917-.143-3.94-.267-3.928-.474-4-.607-4.006-1.067-3.91-1.552-3.789-.407-4.075-1.138-3.887-1.513-3.774-1.2-3.863-.683-4.016-1.179-3.864-1.51-3.753-1.3-3.826-1.45-3.586-.942-3.8-1.951-3.387-1.184-3.734L190.86,88.8l-1.567-3.562-1.286-3.711-1.913-3.389-1.872-3.406L181.675,71.7l-1.375-3.67-2.051-3.3-1.727-3.473L175.245,57.6l-2.585-3-1.241-3.693-2.264-3.156-1.7-3.458-1.546-3.534-2.041-3.281-2.025-3.287-1.218-3.706-2.333-3.111-1.261-3.68-1.9-3.341-1.948-3.313-2.188-3.179-1.76-3.415-1.635-3.4L144.21,5.955,141.035,4l-3.568-.839L133.9,2.385l-3.508-1.141-3.707.115L122.334.422Z" transform="translate(13.758 0)" fill="#881ea4"/>
  <g id="グループ_45" data-name="グループ 45">
    <g id="グループ_44" data-name="グループ 44" clip-path="url(#clip-path)">
      <path id="パス_87" data-name="パス 87" d="M39.906,171.125s.747,4.588,1.863,9.812c.682,3.187,1.5,6.61,2.373,9.371,2.179,6.9,3.343,13.139,10.164,20.492,4.313,4.652,21.433-4.716,26.455-7.7s23.842-9.029,29.806,1.265,3.1,17.579,1.082,20.519-14.464,15.288-14.464,15.288,17.955-6.293,26.17,3.063-3.848,27.384-13.19,33.328c15.556-.408,19.063-.605,24.579,8.016s-1.026,21.675-5.892,25.692-9.11,7.023-9.11,7.023,15.046,3.162,17.1,10.508,1.942,12.262-1.248,17.491-15.725,12.747-24.248,17.259-23.982,6.6-29.119,7.143-29.648.946-48.728-18.391S3.611,303.3,1.141,270.359s-.751-41.968,3.45-54.2c3.448-10.039,9.914-24.544,19.918-34.19,4.374-4.218,4.675-5.709,15.4-10.843" transform="translate(0 110.271)" fill="#fff" fill-rule="evenodd"/>
      <path id="パス_88" data-name="パス 88" d="M42.275,239.091a1.012,1.012,0,0,0,.37-.452,1.035,1.035,0,0,0,.367-.449l0,0a1.046,1.046,0,0,0,.36-.4,1.149,1.149,0,0,0,.225-.409l.059-.054a1.17,1.17,0,0,0,.388-.84c.012-.03.023-.059.033-.087a1.159,1.159,0,0,0,.334-.8,1.179,1.179,0,0,0,.21-.551.936.936,0,0,0,.1-.814c-.012-.063-.025-.248-.033-.444a1.161,1.161,0,0,0,.179-1.117,2.208,2.208,0,0,1-.03-.944,7.163,7.163,0,0,0,.044-.824,1.209,1.209,0,0,0-.092-.428l-.071-.168a1.181,1.181,0,0,0-.153-.9l-.053-.082a1.155,1.155,0,0,0-.048-.187,1.19,1.19,0,0,0-.16-.307,1.3,1.3,0,0,0-.2-.317,1.323,1.323,0,0,0-.179-.452,1.157,1.157,0,0,0-.112-.145,1.452,1.452,0,0,0-.344-.515.722.722,0,0,0-.076-.067l-.3-.569a1.066,1.066,0,0,0-.1-.15,1.142,1.142,0,0,0-.109-.349l-.413-.824a1.154,1.154,0,0,0-.635-.533.924.924,0,0,0-.084-.056,1.188,1.188,0,0,0-1.1-.349l-.122.026a3.178,3.178,0,0,0-.3-.214,1.173,1.173,0,0,0-.839-.454c-.056-.021-.115-.039-.173-.056l-.539-.49a1.141,1.141,0,0,0-.791-.306,1.447,1.447,0,0,0-.444-.135,2.285,2.285,0,0,0-1-.334,1.174,1.174,0,0,0-.9-.283,1.137,1.137,0,0,0-.289-.012,1.186,1.186,0,0,0-.136.015,1.372,1.372,0,0,0-.2-.039,1.187,1.187,0,0,0-1.113.025l-.036.02a1.187,1.187,0,0,0-.574.067l-.109.043a1.146,1.146,0,0,0-.707.127,1.155,1.155,0,0,0-.648.189,1.152,1.152,0,0,0-.335.112l-1.8.926a.927.927,0,0,0-.21.15,1.627,1.627,0,0,0-.679.469.962.962,0,0,0-.112.16c-.015.016-.03.033-.043.049l-.352.173a1.187,1.187,0,0,0-.5.636l0,0a1,1,0,0,0-.332.354,1.773,1.773,0,0,0-.326.678l-.186.227a1.188,1.188,0,0,0-.23.47,1.376,1.376,0,0,0-.206.661,1.939,1.939,0,0,0-.174.444,1.073,1.073,0,0,0-.212.571,1.147,1.147,0,0,0-.143.533l0,.271a1.153,1.153,0,0,0-.174.84,1.1,1.1,0,0,0,.059.217.806.806,0,0,0,.026.145l.013.056a1.171,1.171,0,0,0,.09,1.074l.044.071a1.506,1.506,0,0,0,.062.294l.033.089c.007.041.013.081.021.12a1.363,1.363,0,0,0,.13.732,1.192,1.192,0,0,0,.143.919l.007.01,0,0v0a1.178,1.178,0,0,0,.145.567,1.136,1.136,0,0,0,.163.225l.607.983a1.1,1.1,0,0,0,.345.378,1.011,1.011,0,0,0,.331.3l.631.873a.95.95,0,0,0,.291.255,1.218,1.218,0,0,0,.242.337,1.036,1.036,0,0,0,.426.234,1.047,1.047,0,0,0,.186.1,1.11,1.11,0,0,0,.431.479,1.2,1.2,0,0,0,.819.335,48.556,48.556,0,0,0,.592.286,1.057,1.057,0,0,0,.166.107,1.17,1.17,0,0,0,.617.27l.1.048a1.174,1.174,0,0,0,.63.319,1.16,1.16,0,0,0,.59.178l.16,0a1.023,1.023,0,0,0,.827.14c.054.008.109.016.166.021a1.493,1.493,0,0,0,.939.087h.023c.064,0,.128.007.225.007a1.109,1.109,0,0,0,.155-.013,1.118,1.118,0,0,0,.329.046,1.18,1.18,0,0,0,.455-.092l.128-.054a1.214,1.214,0,0,0,.842.076,1.516,1.516,0,0,0,.3-.015,1.256,1.256,0,0,0,.562-.044,1.166,1.166,0,0,0,.756-.178l.238-.15c.039-.008.079-.016.118-.028a1.117,1.117,0,0,0,.714-.176l.24-.151a1.209,1.209,0,0,0,.423-.161,1.32,1.32,0,0,0,.459-.181,1.069,1.069,0,0,0,.3-.3Zm-3.264-3.274c-.03,0-.059.012-.087.018a1.163,1.163,0,0,0-.419-.026,1.135,1.135,0,0,0-.674.09.824.824,0,0,0-.089.013,1.115,1.115,0,0,0-.479.053l-.245.082c-.02,0-.038,0-.058.008a1.316,1.316,0,0,0-.6-.15,1.123,1.123,0,0,0-.388.069,1.064,1.064,0,0,0-.187-.031l-.2-.016a1.23,1.23,0,0,0-.316-.082.766.766,0,0,1-.143-.033,1.333,1.333,0,0,0-.48-.071,1.4,1.4,0,0,0-.368-.03c-.072-.031-.148-.058-.23-.085l-.016-.016a1.244,1.244,0,0,0-.6-.283l-.067-.072a1.189,1.189,0,0,0-.742-.35,1.133,1.133,0,0,0-.627-.342l-1.429-1.7a1.457,1.457,0,0,0-.386-.492l-.016-.033a1.155,1.155,0,0,0-.082-.553c-.01-.023-.069-.148-.146-.3l-.025-.051a1.186,1.186,0,0,0-.1-.781,1.707,1.707,0,0,0-.01-.538,1.18,1.18,0,0,0-.012-.613,1.8,1.8,0,0,0,.051-.22,3.947,3.947,0,0,0,.426-.74.855.855,0,0,0,.031-.1l.14-.089a.485.485,0,0,0,.067-.046,2.036,2.036,0,0,0,.513-.345,1.151,1.151,0,0,0,.409-.132,1.934,1.934,0,0,0,.48-.393l.036-.038a1.312,1.312,0,0,0,.539-.164,1.172,1.172,0,0,0,.506-.174l.03-.02a1.65,1.65,0,0,0,.553-.084,1.158,1.158,0,0,0,.2-.031l.163-.041a1.115,1.115,0,0,0,.331,0,1.285,1.285,0,0,0,.357.01,1.049,1.049,0,0,0,.432.038.653.653,0,0,0,.072.008h.007a1.163,1.163,0,0,0,.467.181l.457.071a1.171,1.171,0,0,0,.613.372,1.242,1.242,0,0,0,.383.179l.044.046a1.086,1.086,0,0,0,.467.247,1.075,1.075,0,0,0,.357.275l.043.031.067.1a1,1,0,0,0,.418.363,1.464,1.464,0,0,0,.191.113l.13.146a.942.942,0,0,0,.35.235,1.042,1.042,0,0,0,.821.531l.025.082a3.791,3.791,0,0,0,.125.38,1.861,1.861,0,0,0,.331.508,1.274,1.274,0,0,0,.1.194l.1.156a1.2,1.2,0,0,0,.061.227l.012.03a1.073,1.073,0,0,0,.15.607.565.565,0,0,0,.084.123c0,.03,0,.059,0,.085.033.347.033.347-.026.454a1.079,1.079,0,0,0-.092.636,1.18,1.18,0,0,0-.1.768c-.059.174-.109.355-.153.52a1.188,1.188,0,0,0-.347.628l-.368.237-.035.007a1.3,1.3,0,0,0-.372.066,1.244,1.244,0,0,0-.442.276" transform="translate(16.557 143.116)" fill="#881ea4"/>
      <path id="パス_89" data-name="パス 89" d="M66.027,282.782l.263-.168a1.012,1.012,0,0,0,.37-.452,1.026,1.026,0,0,0,.367-.449l0,0a1.033,1.033,0,0,0,.36-.4,1.163,1.163,0,0,0,.225-.409l.059-.054a1.176,1.176,0,0,0,.388-.84c.012-.028.023-.058.033-.087a1.158,1.158,0,0,0,.334-.8,1.191,1.191,0,0,0,.21-.552.936.936,0,0,0,.1-.814c-.01-.062-.025-.248-.033-.444a1.161,1.161,0,0,0,.179-1.117,2.169,2.169,0,0,1-.03-.944,7.106,7.106,0,0,0,.044-.824,1.2,1.2,0,0,0-.092-.427l-.071-.168a1.19,1.19,0,0,0-.151-.9l-.054-.082a1.152,1.152,0,0,0-.048-.187,1.19,1.19,0,0,0-.16-.307,1.3,1.3,0,0,0-.2-.317,1.284,1.284,0,0,0-.179-.452,1.12,1.12,0,0,0-.112-.145,1.443,1.443,0,0,0-.344-.516.94.94,0,0,0-.076-.066l-.3-.569a.867.867,0,0,0-.1-.15,1.142,1.142,0,0,0-.109-.349l-.413-.824a1.146,1.146,0,0,0-.635-.533.914.914,0,0,0-.084-.056,1.187,1.187,0,0,0-1.1-.349l-.122.026a3.52,3.52,0,0,0-.3-.214,1.179,1.179,0,0,0-.837-.454c-.058-.021-.117-.039-.174-.056l-.539-.49a1.135,1.135,0,0,0-.791-.3,1.406,1.406,0,0,0-.444-.136,2.276,2.276,0,0,0-1-.334,1.175,1.175,0,0,0-.906-.281,1.137,1.137,0,0,0-.289-.013c-.046,0-.09.008-.135.015a1.367,1.367,0,0,0-.2-.039,1.174,1.174,0,0,0-1.094.015l-.056.03a1.189,1.189,0,0,0-.574.067l-.109.043a6.522,6.522,0,0,0-1.355.316,1.152,1.152,0,0,0-.335.112l-1.8.927a.918.918,0,0,0-.21.148,1.627,1.627,0,0,0-.679.469.8.8,0,0,0-.112.161.591.591,0,0,0-.043.048l-.352.173a1.193,1.193,0,0,0-.5.636l0,0a.976.976,0,0,0-.334.354,1.773,1.773,0,0,0-.326.677l-.184.227a1.169,1.169,0,0,0-.232.47,1.376,1.376,0,0,0-.206.661,1.835,1.835,0,0,0-.173.446,1.055,1.055,0,0,0-.214.569,1.147,1.147,0,0,0-.143.533l0,.271a1.154,1.154,0,0,0-.174.84,1.128,1.128,0,0,0,.059.217.78.78,0,0,0,.026.145l.013.056a1.171,1.171,0,0,0,.09,1.074l.044.071a1.507,1.507,0,0,0,.062.294l.033.089c.007.041.013.081.021.12a1.358,1.358,0,0,0,.13.732,1.2,1.2,0,0,0,.143.919l.007.01v0l0,0a1.178,1.178,0,0,0,.145.567,1.218,1.218,0,0,0,.163.227l.607.982a1.153,1.153,0,0,0,.345.378,1.011,1.011,0,0,0,.331.3l.631.873a.95.95,0,0,0,.291.255,1.177,1.177,0,0,0,.242.337,17.117,17.117,0,0,0,.612.331,1.1,1.1,0,0,0,.431.479,1.2,1.2,0,0,0,.819.335,1.175,1.175,0,0,0,.365.178,1.192,1.192,0,0,0,.227.109,1.1,1.1,0,0,0,.166.107,1.169,1.169,0,0,0,.617.27l.1.048a1.174,1.174,0,0,0,.63.319,1.16,1.16,0,0,0,.59.178l.16,0a1.026,1.026,0,0,0,.829.14c.053.008.107.016.164.021a1.493,1.493,0,0,0,.939.087h.025c.064,0,.128.007.225,0a.887.887,0,0,0,.153-.012,1.182,1.182,0,0,0,.331.048,1.2,1.2,0,0,0,.454-.094l.128-.054a1.214,1.214,0,0,0,.842.076,1.511,1.511,0,0,0,.3-.015,1.255,1.255,0,0,0,.562-.044,1.168,1.168,0,0,0,.756-.178l.238-.15a1.188,1.188,0,0,0,.117-.028,1.119,1.119,0,0,0,.715-.176l.24-.151a1.1,1.1,0,0,0,.418-.158l0,0a1.288,1.288,0,0,0,.459-.181,1.069,1.069,0,0,0,.3-.3m-3-3.442c-.03,0-.058.012-.087.018a1.16,1.16,0,0,0-.419-.026,1.135,1.135,0,0,0-.674.09c-.03,0-.059.007-.089.012a1.142,1.142,0,0,0-.479.054l-.245.082c-.02,0-.038,0-.058.008a1.31,1.31,0,0,0-.6-.15,1.126,1.126,0,0,0-.39.069,1.038,1.038,0,0,0-.187-.031l-.2-.016a1.229,1.229,0,0,0-.316-.082.938.938,0,0,1-.143-.031,1.292,1.292,0,0,0-.48-.072,1.407,1.407,0,0,0-.368-.03c-.072-.031-.148-.058-.23-.084l-.016-.018a1.236,1.236,0,0,0-.6-.283l-.067-.072a1.19,1.19,0,0,0-.742-.35,1.116,1.116,0,0,0-.627-.34l-1.429-1.705a1.427,1.427,0,0,0-.386-.49l-.016-.035a1.155,1.155,0,0,0-.082-.552c-.01-.025-.069-.15-.146-.3l-.025-.049a1.185,1.185,0,0,0-.1-.781,1.709,1.709,0,0,0-.01-.538,1.18,1.18,0,0,0-.012-.613,1.847,1.847,0,0,0,.051-.219,4.117,4.117,0,0,0,.428-.743.892.892,0,0,0,.03-.1l.143-.092a.444.444,0,0,0,.064-.044,2.008,2.008,0,0,0,.513-.345,1.147,1.147,0,0,0,.411-.132,1.921,1.921,0,0,0,.479-.393l.036-.038a1.288,1.288,0,0,0,.539-.164,1.157,1.157,0,0,0,.506-.174l.03-.02a1.724,1.724,0,0,0,.554-.084,1.12,1.12,0,0,0,.2-.031l.163-.04a1.171,1.171,0,0,0,.331,0,1.283,1.283,0,0,0,.357.01,1.05,1.05,0,0,0,.432.038.669.669,0,0,0,.071.008h.008a1.181,1.181,0,0,0,.467.182l.457.069a1.171,1.171,0,0,0,.613.372,1.286,1.286,0,0,0,.383.181l.044.046a1.1,1.1,0,0,0,.467.245,1.075,1.075,0,0,0,.357.275l.043.031.067.105a.982.982,0,0,0,.418.36,1.067,1.067,0,0,0,.191.115l.13.146a.928.928,0,0,0,.35.235,1.042,1.042,0,0,0,.821.531q.015.047.025.084a3.884,3.884,0,0,0,.125.378,1.9,1.9,0,0,0,.331.508,1.272,1.272,0,0,0,.1.194l.1.156a1.2,1.2,0,0,0,.061.227l.012.031a1.034,1.034,0,0,0,.151.605.731.731,0,0,0,.082.123c0,.03,0,.059,0,.086.035.349.035.349-.026.454a1.065,1.065,0,0,0-.09.636,1.17,1.17,0,0,0-.1.768c-.059.174-.109.355-.153.52a1.175,1.175,0,0,0-.345.628l-.37.237-.036.007a1.291,1.291,0,0,0-.37.066,1.243,1.243,0,0,0-.442.276" transform="translate(32.032 171.161)" fill="#881ea4"/>
      <path id="パス_90" data-name="パス 90" d="M64.044,274.517l.007,0c.021-.021.044-.044.064-.066a1.607,1.607,0,0,0,.707-.452,1.2,1.2,0,0,0,.1-.128,1.085,1.085,0,0,0,.22-.243l.2-.128a1.068,1.068,0,0,0,.385-.462l.084-.081a1.029,1.029,0,0,0,.242-.362,1.329,1.329,0,0,0,.334-.789,2.265,2.265,0,0,0,.347-.952,1.158,1.158,0,0,0-.021-.22,1.182,1.182,0,0,0,.018-.618,1.169,1.169,0,0,0,.012-.676,1.261,1.261,0,0,0-.031-.373l-.039-.16a1.18,1.18,0,0,0-.094-.653l-.064-.141a1.174,1.174,0,0,0-.174-.766l-.25-.393a1.153,1.153,0,0,0-.168-.434l-.309-.469a.98.98,0,0,0-.081-.148l-.294-.465a.983.983,0,0,0-.421-.363l-.049-.035-.322-.508a1.068,1.068,0,0,0-.431-.382l-.168-.2a1.165,1.165,0,0,0-.247-.219.987.987,0,0,0-.365-.419.526.526,0,0,0-.041-.071,1.04,1.04,0,0,0-.3-.3l-.02-.035a1.165,1.165,0,0,0-.761-.511,1.17,1.17,0,0,0-.7-.488.994.994,0,0,0-.28-.15,1.148,1.148,0,0,0-.546-.3,1.95,1.95,0,0,0,.074-.312.242.242,0,0,1,.038-.043,1.281,1.281,0,0,0,.363-1.1,1.17,1.17,0,0,0,.109-.692,1.1,1.1,0,0,0-.033-.408,1.172,1.172,0,0,0-.007-.5c0-.02,0-.041,0-.064a1.14,1.14,0,0,0,.038-.465,1.17,1.17,0,0,0-.064-.627l0-.013a1.172,1.172,0,0,0-.192-1.169v0a1.161,1.161,0,0,0-.166-.789l-.2-.321a1.149,1.149,0,0,0-.2-.475l-1.112-1.582a1.008,1.008,0,0,0-.428-.308,1.4,1.4,0,0,0-.867-.623l-.73-.622a1.158,1.158,0,0,0-.437-.237,1.207,1.207,0,0,0-.539-.173,1.686,1.686,0,0,0-.16-.061l-.035-.031a1.173,1.173,0,0,0-.477-.27,1.059,1.059,0,0,0-.247-.117,1.449,1.449,0,0,0-.511-.222l-.021,0a1.166,1.166,0,0,0-.7-.312,3.318,3.318,0,0,0-.791-.319c-.036-.01-.071-.016-.107-.023a1.183,1.183,0,0,0-.462-.166,3.422,3.422,0,0,0-.74-.3,1.025,1.025,0,0,0-.487-.2,1.148,1.148,0,0,0-.584-.178,2.5,2.5,0,0,0-.747-.209,1.3,1.3,0,0,0-.529-.107,1.718,1.718,0,0,0-.278-.031l-.072-.031a1.461,1.461,0,0,0-1.1-.245,2.29,2.29,0,0,0-.939-.089,1.569,1.569,0,0,0-.576-.1,1.59,1.59,0,0,0-.771.007,1.872,1.872,0,0,0-.46-.079,3.75,3.75,0,0,0-1.186-.118,1.144,1.144,0,0,0-.7-.033h0l-.02,0-.023.007a1.176,1.176,0,0,0-.83-.028,1.607,1.607,0,0,0-.237.007,1.08,1.08,0,0,0-.793,0,1.962,1.962,0,0,0-.253-.054,1.158,1.158,0,0,0-.161-.054,1.176,1.176,0,0,0-.58,0,1.139,1.139,0,0,0-.409-.013,1.91,1.91,0,0,0-.645.214,1.4,1.4,0,0,0-.781.25,1.735,1.735,0,0,0-.658.751l-.023.056a1.181,1.181,0,0,0-.276.592l-.148.96a1.375,1.375,0,0,0,.229.9,1.42,1.42,0,0,0,1.153.732,1.528,1.528,0,0,0,.747.1l.016,0a1.131,1.131,0,0,0,.691-.059,1.17,1.17,0,0,0,.809.015,1.709,1.709,0,0,0,.414-.038,2.169,2.169,0,0,0,.832.026c.03,0,.061,0,.09.007a1.252,1.252,0,0,0,.372.023,4.647,4.647,0,0,0,1.094,0,1.178,1.178,0,0,0,.424.143l.719.092a1.171,1.171,0,0,0,.391-.044.476.476,0,0,0,.056.007l.053,0a2.527,2.527,0,0,0,.479,0,1.9,1.9,0,0,0,.9.074,1.242,1.242,0,0,0,.577.113c.058.011.115.02.174.026.026.012.053.021.077.033a1.177,1.177,0,0,0,.748.16l.312.041a1.164,1.164,0,0,0,.557.214,1.142,1.142,0,0,0,.252.056,1.108,1.108,0,0,0,.319.062,4.4,4.4,0,0,0,1.029.38.992.992,0,0,0,.118.021,1.159,1.159,0,0,0,.454.238,1.352,1.352,0,0,0,.61.3,1.1,1.1,0,0,0,.71.3,1.207,1.207,0,0,0,.372.171,1.183,1.183,0,0,0,.641.255,1.714,1.714,0,0,0,.183.1,1.167,1.167,0,0,0,.367.178,1.124,1.124,0,0,0,.16.082,1.056,1.056,0,0,0,.345.232,1.439,1.439,0,0,0,.268.127,1.133,1.133,0,0,0,.329.169l.184.15a.882.882,0,0,0,.15.1l.4.529a.955.955,0,0,0,.421.289l.082.189a1.361,1.361,0,0,0,.02.2,1.2,1.2,0,0,0,.135.529c0,.031.012.066.02.1l.072.294a1.175,1.175,0,0,0,.056.661.149.149,0,0,0,.012.058,1.4,1.4,0,0,0,.008.145,1.07,1.07,0,0,0-.041.253l-.012.187-.061.039a1.9,1.9,0,0,0-.319.036,1.265,1.265,0,0,0-.592.118,1.149,1.149,0,0,0-.906.132,5.34,5.34,0,0,1-.58-.049,1.194,1.194,0,0,0-.875-.286l-.225.023a1.116,1.116,0,0,0-.24.051l-.112-.044a1.11,1.11,0,0,0-.608-.02,1.2,1.2,0,0,0-.6.033l-.145.048c-.048-.007-.1-.015-.148-.025a3.425,3.425,0,0,0-1.034-.046,1.154,1.154,0,0,0-.937-.069,1.476,1.476,0,0,1-.378.056,4.484,4.484,0,0,0-.533.061,1.533,1.533,0,0,0-.733.007,1.217,1.217,0,0,0-.16-.043,1.15,1.15,0,0,0-.9.187,1.559,1.559,0,0,0-.788.158,3.1,3.1,0,0,0-1.148.814.976.976,0,0,0-.081.122,1.108,1.108,0,0,0-.268.449,1.252,1.252,0,0,0-.183.98,1.219,1.219,0,0,0-.058.492,2.13,2.13,0,0,0,.567,1.161,1.15,1.15,0,0,1,.118.146,1.338,1.338,0,0,0,1.431.469l.012,0a2.463,2.463,0,0,0,.467-.013,1.473,1.473,0,0,0,.286.054c.031,0,.061.007.09.012a1.309,1.309,0,0,0,.5.123,1.255,1.255,0,0,0,.819.092.854.854,0,0,0,.092,0,.866.866,0,0,0,.206.044,1.151,1.151,0,0,0,.72.051,1.551,1.551,0,0,0,.243-.021,1.145,1.145,0,0,0,.64.013,1.058,1.058,0,0,0,.495-.008c.016,0,.035,0,.053,0h.015a1.181,1.181,0,0,0,.531.031.877.877,0,0,0,.536-.127,1.435,1.435,0,0,0,.676-.054,1.141,1.141,0,0,0,.391-.035,1.136,1.136,0,0,0,.845-.145,1.175,1.175,0,0,0,.761-.062l.048.012a1,1,0,0,0,.122.018l.2.076a1.122,1.122,0,0,0,.58.007.959.959,0,0,0,.133.02h.007a1.161,1.161,0,0,0,.518.187,1.353,1.353,0,0,0,.23.054l.38.048.418.342a1.177,1.177,0,0,0,.61.255l.161.016.036.038a1.3,1.3,0,0,0,.62.286l.015.013a.884.884,0,0,0,.316.188,1.2,1.2,0,0,0,.233.222,1.169,1.169,0,0,0,.587.411l.423.472a1.007,1.007,0,0,0,.367.26.931.931,0,0,0,.253.23l.382.6a.888.888,0,0,0,.163.192l.043.1a1.053,1.053,0,0,0,.455.5l.092.118a1.2,1.2,0,0,0,.043.253,1.616,1.616,0,0,0,.312.592l.007.023c-.007.026-.013.053-.018.082a3.438,3.438,0,0,0-.051.495,3.794,3.794,0,0,1-.59.488c-.058.008-.115.02-.171.033a1.138,1.138,0,0,0-.763.173l-.212.136c-.036-.01-.074-.016-.112-.023a1.2,1.2,0,0,0-.936.265,1.162,1.162,0,0,0-.46.171l-.209.133a.521.521,0,0,0-.059.013,1.608,1.608,0,0,0-.22-.007,1.09,1.09,0,0,0-.419,0,1.718,1.718,0,0,0-.546.2c-.058,0-.115.012-.174.021a1.154,1.154,0,0,0-.832.03l-.074.031a1.18,1.18,0,0,0-.365.007l-.084-.031a1.189,1.189,0,0,0-.751-.031.579.579,0,0,0-.135-.021,1.368,1.368,0,0,0-.612-.023c-.061-.016-.118-.031-.169-.041a3.1,3.1,0,0,0-.508-.072,1.444,1.444,0,0,0-.541-.079h-.067l-.138-.053a.919.919,0,0,0-.357-.054c-.049-.021-.1-.041-.151-.059l-.021-.008a1.113,1.113,0,0,0-.291-.163,1.086,1.086,0,0,0-.492-.238,1.173,1.173,0,0,0-1.2.039l-.209.143a1.327,1.327,0,0,0-.605.283,1,1,0,0,0-.235.314,1.136,1.136,0,0,0-.224.447l0,.013a1.173,1.173,0,0,0-.253.967.63.63,0,0,0,.061.141l.007.01a1.172,1.172,0,0,0,.118.806c.013.023.026.044.041.067l.395.618a1.207,1.207,0,0,0,.776.49c.025,0,.049.01.076.013a1.261,1.261,0,0,0,.531.182,1.056,1.056,0,0,0,.107.051.928.928,0,0,0,.212.048,1.184,1.184,0,0,0,.862.174,1.1,1.1,0,0,0,.13-.008,1.194,1.194,0,0,0,.618,0,1.141,1.141,0,0,0,.229.049l.738.081a1.238,1.238,0,0,0,1,.163l.082.012a1.2,1.2,0,0,0,.495.107,1.184,1.184,0,0,0,.419-.079l.02-.007a1.174,1.174,0,0,0,.638.02,1.105,1.105,0,0,0,.265,0,1.175,1.175,0,0,0,.566-.013,1.141,1.141,0,0,0,.975-.125l.008,0,.071-.015c.02,0,.039,0,.061,0a1.2,1.2,0,0,0,.712-.094l.27-.128a1.16,1.16,0,0,0,.4-.09,1.2,1.2,0,0,0,.567-.128l.451-.232a1.26,1.26,0,0,0,.327-.021.675.675,0,0,1,.069-.007,1.234,1.234,0,0,0,.24-.039,1.321,1.321,0,0,0,.587-.368l.163-.066a1.384,1.384,0,0,0,1.072-.367m-16.7-14.911h0l-.049-.036,0,0Z" transform="translate(24.298 159.438)" fill="#881ea4"/>
      <path id="パス_91" data-name="パス 91" d="M41.173,231.689h0a1.035,1.035,0,0,0,.291-.294l.434-.278a1.085,1.085,0,0,0,.253-.219,4.7,4.7,0,0,0,.326-.431,1.174,1.174,0,0,1,.293-.342,1.162,1.162,0,0,0,.446-.668,1.5,1.5,0,0,0,.4-.488,1.161,1.161,0,0,0,.132-.548,1.179,1.179,0,0,0,.477-.85v-.007a1.168,1.168,0,0,0,.192-.584,1.182,1.182,0,0,0,.007-.868l-.018-.046a1.77,1.77,0,0,0-.016-.4,3.572,3.572,0,0,0-.214-1.171l-.056-.092a1.155,1.155,0,0,0-.183-.628l-.286-.454a1.288,1.288,0,0,0-.184-.459.949.949,0,0,0-.143-.174,1.281,1.281,0,0,0-.174-.312,1.041,1.041,0,0,0-.232-.21l-.206-.324a.95.95,0,0,0-.183-.21l-.087-.194a1.062,1.062,0,0,0-.086-.148.667.667,0,0,0-.043-.071l-.294-.465a.96.96,0,0,0-.3-.294l-.025-.038a.974.974,0,0,0-.294-.3L41.326,220a1.013,1.013,0,0,0-.307-.312,1.086,1.086,0,0,0-.265-.245l-.026-.038a1.159,1.159,0,0,0-.529-.454,1.214,1.214,0,0,0-.446-.273l-.428-.35a.9.9,0,0,0-.255-.146l-.008,0a1.1,1.1,0,0,0-.409-.275l-.008-.01a1.024,1.024,0,0,0-.263-.181,1.149,1.149,0,0,0-.454-.217.88.88,0,0,0-.2-.115,1.575,1.575,0,0,0,.092-.355,2.357,2.357,0,0,0,.373-.776,1.047,1.047,0,0,0,.212-.536l.067-.082a1.1,1.1,0,0,0,.229-.559,1.155,1.155,0,0,0,.275-.529,1.169,1.169,0,0,0-.062-.71,1.1,1.1,0,0,0-.035-.312l-.007-.025a3.707,3.707,0,0,0-.136-1.511l-.01-.015a1.138,1.138,0,0,0-.14-.559,1.159,1.159,0,0,0-.245-.724L38,210.248a.72.72,0,0,0-.036-.11,1.429,1.429,0,0,0-.511-.681l-.362-.571a.959.959,0,0,0-.3-.3l-.225-.354a1.014,1.014,0,0,0-.493-.408,1.474,1.474,0,0,0-.224-.109l-.261-.326a1.028,1.028,0,0,0-.377-.288.935.935,0,0,0-.171-.1l-.115-.13a.984.984,0,0,0-.4-.25,1.277,1.277,0,0,0-.173-.135,12.568,12.568,0,0,0-.5-.395,1.75,1.75,0,0,0-.576-.278l-.352-.352a1.16,1.16,0,0,0-.534-.306,1.135,1.135,0,0,0-.488-.163l-.076-.023a1.1,1.1,0,0,0-.525-.237,1.177,1.177,0,0,0-.516-.2l-.021-.016a1.218,1.218,0,0,0-.257-.16,1.706,1.706,0,0,0-.35-.112,1.1,1.1,0,0,0-.751-.258c-.079-.031-.164-.058-.266-.089l-.043-.011a1.209,1.209,0,0,0-.559-.128l-.007,0a1.2,1.2,0,0,0-.6-.222.8.8,0,0,0-.128-.031,1.882,1.882,0,0,0-.635-.136,2.116,2.116,0,0,0-.311-.128,1.407,1.407,0,0,0-.475-.181,1.735,1.735,0,0,0-.219-.087.631.631,0,0,0-.128-.028,1.228,1.228,0,0,0-.521-.043,1.867,1.867,0,0,0-.192-.026,1.18,1.18,0,0,0-.529-.063,1.419,1.419,0,0,0-.4-.13,1.112,1.112,0,0,0-.868-.1l-.09-.013-.033,0a1.093,1.093,0,0,0-.941-.156l-.115-.03a1.143,1.143,0,0,0-.488.008,3.682,3.682,0,0,0-.383-.012l-.01,0a1.369,1.369,0,0,0-.964-.118H20.5a2.307,2.307,0,0,0-.467.012,1.3,1.3,0,0,0-.265.067h0a1.155,1.155,0,0,0-.7.021,1.416,1.416,0,0,0-.321.084l-.072.007c-.113.013-.237.026-.367.049a2.244,2.244,0,0,0-.289-.089,1.174,1.174,0,0,0-.873.155l-.013.008a1.243,1.243,0,0,0-.155,0,1.174,1.174,0,0,0-.724.036l-.145.056a1.977,1.977,0,0,0-.25-.01,1.209,1.209,0,0,0-.627.059,1.162,1.162,0,0,0-.814.164l-.007,0a1.241,1.241,0,0,0-.263-.01,1.136,1.136,0,0,0-.209-.02,1.556,1.556,0,0,0-.322.044,1.179,1.179,0,0,0-.775.225,2.5,2.5,0,0,0-.587.6,1.1,1.1,0,0,0-.3.587,2.457,2.457,0,0,0-.22.257,1.173,1.173,0,0,0-.1,1.243l.513.978.01.018a1.064,1.064,0,0,0,.416.406,1.165,1.165,0,0,0,.529.25,1.182,1.182,0,0,0,1.436-.056,1.151,1.151,0,0,0,.321-.094l.365-.164a1.152,1.152,0,0,0,.243-.054.684.684,0,0,0,.117-.025c.028,0,.054,0,.082-.007a1.13,1.13,0,0,0,.659.025l.207-.053a1.37,1.37,0,0,0,.541-.074,1.678,1.678,0,0,0,.521-.069,1.169,1.169,0,0,0,.99-.087.913.913,0,0,0,.16-.02l.089,0a1.152,1.152,0,0,0,.682-.049,1.093,1.093,0,0,0,.161.016,1.242,1.242,0,0,0,.26-.012,1.187,1.187,0,0,0,.883.035l.306-.112a1.8,1.8,0,0,0,.557.071,1.471,1.471,0,0,0,.275.071c.061.01.125.018.191.025a1.189,1.189,0,0,0,.648.107,1.33,1.33,0,0,0,.431.039l.044,0a1.28,1.28,0,0,0,.146.038,7.2,7.2,0,0,0,.885.133,1.422,1.422,0,0,0,.482.128,1.255,1.255,0,0,0,.35.125l1.184.212a1.228,1.228,0,0,0,.784.247,1.036,1.036,0,0,0,.15.028,1.107,1.107,0,0,0,.538.191,2.674,2.674,0,0,0,.488.215.171.171,0,0,0,.056.015h0c.053.021.109.041.163.059a1.718,1.718,0,0,0,.355.141,1.906,1.906,0,0,0,.26.105,3.014,3.014,0,0,0,.96.406l0,0a1.155,1.155,0,0,0,.268.13.966.966,0,0,0,.209.117,1.13,1.13,0,0,0,.2.105.978.978,0,0,0,.319.22.885.885,0,0,0,.169.09,1.5,1.5,0,0,0,.322.153l.066.069a1.042,1.042,0,0,0,.352.242,1.135,1.135,0,0,0,.166.09l.064.067a.955.955,0,0,0,.181.148,1.052,1.052,0,0,0,.331.276,1.211,1.211,0,0,0,.365.225l.36.475a1.045,1.045,0,0,0,.391.312l.036.025.117.184a.988.988,0,0,0,.293.291l.026.039a.969.969,0,0,0,.273.283l.02.058a1.842,1.842,0,0,0,.27.536c.021.028.048.056.072.082l.016.036.03.069a1.161,1.161,0,0,0,.028.464l0,.021a1.151,1.151,0,0,0-.041.2.984.984,0,0,0-.066.1,1.213,1.213,0,0,0-.232.278,1.477,1.477,0,0,0-.214.1,1.232,1.232,0,0,0-.347.293l-.234.122a.682.682,0,0,0-.112.018,1.153,1.153,0,0,0-.618.179l-.125.079a.824.824,0,0,0-.146.043,1.554,1.554,0,0,0-.284.071c-.056.01-.113.021-.168.035a1.144,1.144,0,0,0-.654.113l-.293.143a1.122,1.122,0,0,0-.5.061,1.079,1.079,0,0,0-.681-.036l-.082,0a.607.607,0,0,0-.13.015,1.166,1.166,0,0,0-.411.074l-.1-.018a3.424,3.424,0,0,0-.906-.064,1.148,1.148,0,0,0-.72,0,1.81,1.81,0,0,1-.423-.039l-.048-.008a3.721,3.721,0,0,0-1.046-.066l-.066-.013a.816.816,0,0,0-.585-.141,1.51,1.51,0,0,0-.48-.043,1.292,1.292,0,0,0-.761-.013,1.106,1.106,0,0,0-.483-.044,1.159,1.159,0,0,0-.354,0,1.353,1.353,0,0,0-.383.11,1.191,1.191,0,0,0-.664.11l-.747.365a1.182,1.182,0,0,0-.584.659,1.324,1.324,0,0,0-.192.553.755.755,0,0,0,0,.125l-.161.27a1.144,1.144,0,0,0,.015,1.228l.638,1a1.174,1.174,0,0,0,.628.487l.684.22a1.034,1.034,0,0,0,.467.02l.072.028a1.175,1.175,0,0,0,.6.054l.141.048a1.156,1.156,0,0,0,.794-.016l.039-.016a1.488,1.488,0,0,0,.439-.036l.056.025a1.294,1.294,0,0,0,.932.021,2.23,2.23,0,0,0,.227-.026l.081.013c.059.008.122.016.187.021a1.445,1.445,0,0,0,1.038.036,2.453,2.453,0,0,0,.477.007,1.163,1.163,0,0,0,.829-.051l.161-.072a1.655,1.655,0,0,0,.459-.033l.046.016a1.163,1.163,0,0,0,.689.039l.225-.056a1.546,1.546,0,0,0,.426-.025l.059.021a1.166,1.166,0,0,0,.827,0l.038,0a1.157,1.157,0,0,0,.724.031,1.06,1.06,0,0,0,.173.021l.044,0a1.2,1.2,0,0,0,.38.11l.141.015a1.192,1.192,0,0,0,.416.184l.261.058a.874.874,0,0,0,.186.013,1.223,1.223,0,0,0,.232.1c.051.025.105.046.16.067a1.176,1.176,0,0,0,.875.455l.041.035a1.027,1.027,0,0,0,.582.212c.079.046.161.089.245.132a1.239,1.239,0,0,0,.183.145,1.178,1.178,0,0,0,.181.181l.229.186a.976.976,0,0,0,.408.181l.275.286a.988.988,0,0,0,.39.237l.16.212a1.364,1.364,0,0,0,.161.368,1.027,1.027,0,0,0,.334.322,1.1,1.1,0,0,0,.245.2l.4.557a1.156,1.156,0,0,0,.207.446l.39.515a1.149,1.149,0,0,0,.076.209l.128.27a1.109,1.109,0,0,0,.02.171c0,.023,0,.046,0,.069a1.173,1.173,0,0,0-.173.3,1.194,1.194,0,0,0-.219.375,1.159,1.159,0,0,0-.112.174l-.263.217a1.009,1.009,0,0,0-.24.284c-.117.061-.268.13-.409.186a1.02,1.02,0,0,0-.309.016,1.152,1.152,0,0,0-.62.181l-.082.051a1.165,1.165,0,0,0-.431.166l-.008,0c-.041.007-.082.016-.12.026a1.11,1.11,0,0,0-.6.115l-.354.173a1.132,1.132,0,0,0-.294.056l-.3.1-.044.008a1.333,1.333,0,0,0-.382-.015,1.6,1.6,0,0,0-.781.1c-.044,0-.089.01-.132.018a1.126,1.126,0,0,0-.446.039,1.3,1.3,0,0,0-.666.046,1.178,1.178,0,0,0-.926.048l-.081-.007a1.171,1.171,0,0,0-1.156-.076c-.036.018-.043.02-.184.02H31.13a1.454,1.454,0,0,0-.613-.1c-.056-.025-.107-.044-.156-.062a1.511,1.511,0,0,0-1.332-.183,2.6,2.6,0,0,0-.579.125,1.088,1.088,0,0,0-.608.64,1.678,1.678,0,0,0-.3.426c-.01.021-.02.043-.028.066a2.923,2.923,0,0,0-.423,1.551l.261.923a1.17,1.17,0,0,0,.85.814,1.107,1.107,0,0,0,.906.255,1.192,1.192,0,0,0,.847.007l.043,0a1.1,1.1,0,0,0,.561.026,2.347,2.347,0,0,0,.423-.007l.051,0a1.535,1.535,0,0,0,.414.026,1.427,1.427,0,0,0,.316.01.968.968,0,0,0,.291.043,1.966,1.966,0,0,0,.6-.113,1.4,1.4,0,0,0,.605.082,1.106,1.106,0,0,0,.344-.007,1.468,1.468,0,0,0,.654-.033,1.2,1.2,0,0,0,.687-.046l.035-.013a1.227,1.227,0,0,0,.314-.035l.3-.072a1.186,1.186,0,0,0,.567-.023,1.191,1.191,0,0,0,.554-.1l.253-.113a1.119,1.119,0,0,0,.6-.1l.184-.084a1.143,1.143,0,0,0,.393-.079l.038-.015a1.049,1.049,0,0,0,.247-.023,1.5,1.5,0,0,0,.526-.13,1.2,1.2,0,0,0,.3-.09l.209-.094a1.37,1.37,0,0,0,.577-.174l.155-.1a1.23,1.23,0,0,0,.437-.166Z" transform="translate(7.409 130.308)" fill="#881ea4"/>
      <path id="パス_92" data-name="パス 92" d="M61.105,250.922a1.227,1.227,0,0,0,.238-.368,1.84,1.84,0,0,0,.09-.419,2.5,2.5,0,0,0,.046-.419,2.816,2.816,0,0,0-.087-.414c-.023-.14.059-.311.015-.442s-.23-.212-.3-.327a1.263,1.263,0,0,0-.245-.324.855.855,0,0,0-.38-.128c-.12-.058-.2-.234-.326-.289s-.245-.122-.375-.171-.289.013-.421-.028-.243-.133-.377-.163-.276.036-.413.02-.26-.2-.4-.2a3.305,3.305,0,0,0-.416.036c-.133.016-.253.132-.388.166-.163.043-.308.141-.449.163a3.188,3.188,0,0,1-.479.015c-.161,0-.294-.179-.442-.209s-.331.053-.479,0a1.556,1.556,0,0,0-.354-.066c-.132-.018-.243-.135-.362-.132s-.243.018-.368.016a1.672,1.672,0,0,1-.352-.063,1.277,1.277,0,0,0-.452-.025c-.143.021-.265.16-.4.2a2.283,2.283,0,0,1-.424.105.747.747,0,0,1-.441-.1,1.471,1.471,0,0,0-.352-.115,13.04,13.04,0,0,0-.74.138c-.12.046-.235-.025-.342.046-.115-.117-.271-.036-.411-.059s-.284-.135-.431-.132-.335.136-.469.089a1.734,1.734,0,0,0-.358-.247c-.145-.081-.233-.215-.368-.24a4.008,4.008,0,0,0-.436-.1c-.135-.01-.316.146-.475.112-.127-.067-.224-.232-.355-.3s-.23-.187-.36-.261-.271-.122-.4-.194-.234-.2-.365-.265-.276-.122-.409-.183-.311-.031-.449-.084-.252-.164-.393-.206c-.122-.079-.288-.074-.4-.153s-.163-.253-.265-.34-.232-.164-.326-.26-.265-.151-.347-.258a2.836,2.836,0,0,1-.176-.391,2.453,2.453,0,0,1-.22-.365c-.048-.135.01-.293-.007-.428a1.881,1.881,0,0,1,.021-.408,1.965,1.965,0,0,1,.084-.395,2.506,2.506,0,0,1,.064-.413,3.548,3.548,0,0,1,.252-.334,4.067,4.067,0,0,1,.245-.329c.086-.107.084-.293.181-.4s.258-.132.363-.227.163-.233.273-.322.2-.2.317-.278.219-.176.337-.252.253-.125.375-.2.312-.007.436-.072.24-.135.367-.194.207-.217.335-.271.234-.176.363-.225.284-.041.416-.086.289-.013.423-.051.265-.089.4-.12.288.013.423-.01.257-.189.391-.2.286-.018.421-.023a4.024,4.024,0,0,1,.418.066c.145.007.293-.063.424-.041s.276,0,.411,0,.276.049.411.046.275-.043.409-.058.273-.031.406-.059.309.064.437.023.227-.2.349-.255a3.043,3.043,0,0,0,.349-.215c.12-.077.28-.089.381-.178a2.457,2.457,0,0,0,.278-.312,2.279,2.279,0,0,0,.278-.322,1.825,1.825,0,0,0,.11-.413c.033-.136-.051-.278-.053-.416s.089-.283.049-.419a1.789,1.789,0,0,0-.224-.354,2.046,2.046,0,0,0-.284-.289c-.089-.1-.107-.271-.222-.36a3.14,3.14,0,0,0-.372-.191,4.1,4.1,0,0,0-.388-.14,3.539,3.539,0,0,0-.372-.178c-.128-.041-.232-.191-.373-.224s-.278-.048-.421-.071c-.156-.007-.308.071-.442.069-.156,0-.3-.092-.437-.087-.153,0-.293.1-.432.107s-.286.021-.431.035-.278.048-.429.061a3.836,3.836,0,0,0-.434-.012c-.14.031-.265.122-.4.163s-.3,0-.436.039-.261.12-.4.16-.26.141-.395.168-.247.158-.388.2-.28.049-.419.09-.312-.059-.451-.018-.253.148-.391.191-.248.153-.386.2-.266.092-.4.138-.3.01-.432.058-.26.12-.393.171-.3.026-.431.081-.22.214-.35.273-.276.085-.4.148-.215.206-.34.273-.3.048-.423.12-.207.207-.326.286-.27.113-.383.2-.171.24-.276.334-.2.2-.3.3-.225.176-.314.286-.278.161-.357.28c-.062.123.01.321-.053.439s-.11.253-.173.372-.27.166-.334.285-.128.243-.189.363,0,.3-.059.424-.113.243-.164.37-.072.255-.115.385-.238.214-.27.349.02.28,0,.418.059.271.051.411-.155.263-.153.4,0,.27.013.409.11.26.13.4.056.261.082.4.012.278.044.408.105.253.148.381.143.235.194.36.021.289.081.409.192.207.258.324.012.314.086.428.169.22.248.331.266.14.352.245.125.25.214.352.234.158.324.258.189.2.281.294.186.2.28.3.113.275.206.368.238.181.329.275a1.622,1.622,0,0,0-.452-.061,2.029,2.029,0,0,0-.434.046,2.5,2.5,0,0,0-.416.128,3.447,3.447,0,0,0-.429.158,1.6,1.6,0,0,0-.383-.1c-.123.007-.23.122-.354.146s-.255.007-.377.036-.258.021-.377.043a1.463,1.463,0,0,1-.372-.013c-.118-.008-.271,0-.442.012-.133.007-.288-.051-.444-.038-.14.011-.286.044-.437.059s-.284.09-.432.105-.283.135-.429.148-.3.021-.442.031-.3,0-.444,0c-.158.007-.3-.089-.432-.092a1.762,1.762,0,0,0-.342-.209c-.117-.046-.25-.086-.386-.125s-.253-.081-.388-.113-.258-.064-.391-.092-.286.061-.418.035-.237-.183-.367-.209-.3.086-.426.056-.232-.192-.358-.225-.293.043-.418,0-.266-.077-.385-.123a2.674,2.674,0,0,1-.357-.191c-.117-.069-.26-.1-.386-.176s-.247-.127-.373-.2-.207-.2-.331-.27-.242-.143-.363-.217-.174-.247-.293-.324-.316-.033-.431-.113-.146-.28-.258-.363-.271-.109-.38-.2-.207-.192-.311-.286-.268-.133-.363-.235-.115-.255-.2-.36-.176-.2-.252-.312-.087-.256-.155-.373-.148-.219-.209-.339-.145-.225-.2-.349-.054-.265-.1-.39-.11-.242-.156-.368-.138-.234-.181-.36-.169-.229-.209-.355-.049-.271-.089-.4c-.015-.13-.021-.273-.025-.414s.109-.265.115-.4-.1-.276-.084-.414.138-.253.156-.391-.043-.278-.02-.413,0-.275.025-.409.1-.257.127-.391.141-.247.168-.38.059-.266.087-.4-.038-.286-.012-.419.046-.268.072-.4.173-.245.2-.375.012-.276.031-.408,0-.276.015-.408.051-.273.051-.406a3.2,3.2,0,0,0,.012-.414,2.56,2.56,0,0,0-.125-.4c-.041-.127-.166-.224-.234-.342a1.919,1.919,0,0,0-.263-.3,1.955,1.955,0,0,0-.283-.275,2.753,2.753,0,0,0-.331-.222,1.7,1.7,0,0,0-.4-.12c-.148-.043-.27-.163-.406-.16a1.509,1.509,0,0,0-.457.018c-.132.049-.181.273-.3.358a2.213,2.213,0,0,0-.322.268,3.573,3.573,0,0,0-.278.321c-.084.112-.143.24-.22.365s-.273.173-.34.3-.007.319-.066.451-.214.222-.268.355-.089.28-.138.411-.051.284-.09.409-.066.275-.1.4c-.039.141-.206.242-.232.37s-.076.276-.1.409.038.283.023.421.039.275.025.418-.169.247-.186.391.076.278.056.424c-.018.13-.018.27-.043.416a3.5,3.5,0,0,0-.076.386c-.008.125-.012.257-.013.395s.015.26.018.395,0,.263.007.395.033.263.043.395-.053.273-.039.4.071.265.087.39.079.265.1.385c.023.15.031.28.056.385.031.13,0,.283.046.419s.074.266.127.4.112.253.171.382.206.207.268.334.135.24.2.362.043.3.113.416.132.248.206.365.284.15.362.263.061.3.141.408.138.253.22.36.235.176.321.276.24.155.331.245c.1.071.164.2.268.291s.245.115.344.206.12.255.22.344.234.123.339.207.192.173.3.245a2.818,2.818,0,0,0,.322.225c.115.059.206.2.332.24a3.14,3.14,0,0,0,.39.053c.084.113.242.135.331.229a2.9,2.9,0,0,0,.3.263c.109.087.174.217.288.284s.2.212.327.263a3.041,3.041,0,0,0,.4.1c.13.035.288-.079.421-.061s.248.133.383.14a2.219,2.219,0,0,0,.355.275c.123.074.281.015.442.036.13.018.247.192.421.166a.948.948,0,0,0,.312.179c.11.051.27,0,.395.035s.224.206.342.227a2.03,2.03,0,0,0,.367.026c.123.082.257.112.373.178s.276.09.4.148.252.14.378.184.27.087.4.122.28.035.418.061.278.007.418.026.261.125.4.143.261.107.4.125.293-.1.437-.077.278.013.423.041.248.138.383.155.261.1.4.109.281-.117.416-.109.268.015.4.015.27,0,.4-.008.3.113.429.092c.118-.051.215-.146.342-.132s.234.1.362.105a.972.972,0,0,0,.372-.049c.112.03.248-.087.411-.094.128,0,.278.105.429.084.132-.018.28-.013.423-.038s.255-.158.4-.184.265-.115.4-.141.3.053.437.03.271-.138.4-.155.3.138.434.132.271-.145.409-.15.28.1.418.092.27-.173.406-.179.278.056.414.051.278.059.416.051.268-.125.4-.133.275,0,.411-.013.288.115.424.1.271-.054.408-.071.28,0,.414-.015.273-.056.408-.081.255-.128.39-.158.263-.031.4-.064c.127.072.278.021.411.053s.257.187.4.189a3.637,3.637,0,0,0,.419-.094c.136-.018.26-.127.4-.151s.276-.043.414-.067.294.069.431.056a2.479,2.479,0,0,1,.411-.016c.135.008.28-.09.411-.074s.26.1.391.118.257.09.388.115.263.053.393.076.276-.02.408,0,.263.043.4.053.265-.059.4-.059.276.166.409.15a3.326,3.326,0,0,0,.388-.138,2.989,2.989,0,0,0,.413-.054.858.858,0,0,1,.437-.123c.158.023.288.153.446.194a1.474,1.474,0,0,0,.5-.062c.133-.016.324.044.515.03.174-.013.357-.178.51-.166s.319.133.469.087.294-.123.432-.166a.5.5,0,0,1,.4-.012,1.116,1.116,0,0,0,.462.053c.146,0,.258-.15.4-.2s.354.056.48-.025.133-.324.247-.418.257-.158.358-.255c.118-.112.3-.141.391-.23" transform="translate(13.912 150.547)" fill="#881ea4"/>
      <path id="パス_93" data-name="パス 93" d="M81.138,56.8c.324.995.778.952,1.815,1.08.118.385.235.768.352,1.153a6.012,6.012,0,0,0,1.495.511c.229.779.526.886.95,1.416l.294-.015q.027.585.058,1.169L86.4,62.1c.35.316.007.115.6.263l.409,2.32.293-.015.03.585.293-.015c-.082.3-.166.594-.248.89.071.408.184-.117.307.278l-.074,4.4-.293.015c-.321,1.317.382,2.039-.439,2.948-.321.414-.511.474-1.143.643a2.775,2.775,0,0,1-1.362,2.118c-.293.013-.585.028-.878.043q-.4.752-.806,1.5l-.585.03.015.291-1.158.35.015.293-.878.044.015.291-.88.044.015.291-.585.03.015.293-2.051.1-.263.6-1.172.059.015.291-2.036.395c0-.1-.01-.194-.013-.293-.439-.033-1.71.674-2.623.424l-.015-.293-.878.044-.322-.569q-1.332-.227-2.666-.452c-.107-.191-.214-.38-.322-.571a3.61,3.61,0,0,0-1.8-.788l-.03-.584a5.828,5.828,0,0,1-2.8-3.082l-.585.03-.441-2.906-.908-.539c-.326-.646.232-1.148.22-1.475l-.015-.293-.293.015q.072-1.468.146-2.935l.293-.015-.074-1.459c.283-.21.567-.419.85-.628l-.044-.876c.059-.125.426-.214.556-.613l-.307-.278.294-.015a3.392,3.392,0,0,0,.8-1.5l.587-.03c.441-.751,1.008-.722,1.7-1.256.179-.3.36-.6.541-.9l.585-.03.265-.6q.987-.782,1.977-1.562l-.044-.876.585-.03c.594-1.514.544-.781,1.684-1.547,0-.1-.008-.194-.013-.293.385-.281.5-.247,1.156-.35.876.669,2.588-.266,3.823.1,0,.1.008.2.013.293l.587-.03.015.293.878-.044.015.293,1.171-.059c.109.189.215.38.322.569l1.172-.058.015.291a3.577,3.577,0,0,0,1.508.8M70.9,63.455l.585-.03-.015-.291.88-.044.263-.6.585-.03-.015-.291,1.172-.059-.015-.293c1.286-.467,2.046.174,2.9-.73q1.026-.049,2.051-.1l.015.293.6.263.03.584q1.223.962,2.445,1.927l.044.875.293-.013.089,1.751-.294.015.03.584-.293.015c-.352,1.21.235,2.176-.424,3.241l-.293.015-.263.6-.587.03c-.179.3-.36.6-.541.906-.2.008-.391.018-.585.028q-.55.76-1.1,1.519c-.293.015-.585.03-.88.043l.015.293-.585.03.015.291-1.45.365.015.293c-1.123.479-2.388-.02-3.192.745l-4.1.2-.015-.291-1.215-.817c-.112-.288-.225-.576-.337-.862l-.585.03.206-1.768-.294.015q-.19-.868-.38-1.738l.293-.015q.1-.883.206-1.766c.3-.781.714-.857.776-2.088.784-.261.663-.1.834-.919l.585-.03c.079-.395.156-.788.235-1.182,1.465-.164,1.431-.488,2.3-.993" transform="translate(38.705 35.018)" fill="#fff" fill-rule="evenodd"/>
      <path id="パス_94" data-name="パス 94" d="M113.59,56.8c.324.995.778.952,1.815,1.08.118.385.235.768.352,1.153a6.012,6.012,0,0,0,1.495.511c.229.779.526.886.95,1.416l.294-.015.058,1.169.293-.015c.35.316.007.115.6.263l.409,2.32.293-.015.03.585.293-.015c-.082.3-.166.594-.248.89.071.408.184-.117.308.278l-.074,4.4-.293.015c-.321,1.317.382,2.039-.439,2.948-.321.414-.511.474-1.143.643a2.775,2.775,0,0,1-1.362,2.118c-.293.013-.585.028-.878.043q-.4.752-.806,1.5l-.585.03.015.291-1.158.35.015.293-.878.044.015.291-.88.044.015.291-.585.03.015.293-2.051.1-.263.6-1.172.059.015.291-2.036.395c0-.1-.01-.194-.013-.293-.439-.033-1.71.674-2.623.424l-.015-.293-.878.044-.322-.569q-1.332-.227-2.666-.452c-.107-.191-.214-.38-.322-.571a3.61,3.61,0,0,0-1.8-.788l-.03-.584a5.828,5.828,0,0,1-2.8-3.082l-.585.03-.441-2.906-.908-.539c-.326-.646.232-1.148.22-1.475l-.015-.293-.293.015q.072-1.468.146-2.935l.293-.015q-.037-.73-.074-1.459c.283-.21.567-.419.85-.628l-.044-.876c.059-.125.426-.214.556-.613l-.307-.278.294-.015a3.392,3.392,0,0,0,.8-1.5l.587-.03c.441-.751,1.008-.722,1.7-1.256.179-.3.36-.6.541-.9l.585-.03.265-.6q.987-.782,1.977-1.562l-.044-.876.585-.03c.594-1.514.544-.781,1.684-1.547,0-.1-.008-.194-.013-.293.385-.281.5-.247,1.156-.35.876.669,2.588-.266,3.823.1,0,.1.008.2.013.293l.587-.03.015.293.878-.044.015.293,1.171-.059c.109.189.215.38.322.569l1.172-.058.015.291a3.577,3.577,0,0,0,1.508.8m-10.236,6.658.585-.03-.015-.291.88-.044.263-.6.585-.03-.015-.291,1.172-.059-.015-.293c1.286-.467,2.046.174,2.9-.73q1.026-.049,2.051-.1l.015.293.6.263.03.584q1.223.962,2.445,1.927l.044.875.293-.013.089,1.751-.294.015.03.584-.293.015c-.352,1.21.235,2.176-.424,3.241l-.293.015-.263.6-.587.03c-.179.3-.36.6-.541.906-.2.008-.391.018-.585.028q-.55.76-1.1,1.519c-.293.015-.585.03-.88.043l.015.293-.585.03.015.291-1.45.365.015.293c-1.123.479-2.388-.02-3.192.745l-4.1.2-.015-.291-1.215-.817c-.112-.288-.225-.576-.337-.862l-.585.03.206-1.768-.294.015q-.19-.868-.38-1.738l.293-.015q.1-.883.206-1.766c.3-.781.714-.857.776-2.088.784-.261.663-.1.834-.919l.585-.03.235-1.182c1.465-.164,1.431-.488,2.3-.993" transform="translate(59.617 35.018)" fill="#fff" fill-rule="evenodd"/>
      <path id="パス_95" data-name="パス 95" d="M92.86,76.961l.424-.072c.025.143.048.283.072.424.141-.025.283-.049.424-.072.013.071.025.14.036.21.3.046-.081-.1.176-.247l.638-.109q.158-.355.316-.707c.4-.27.638.079.885.067-.012-.071-.023-.141-.036-.212l.426-.072c-.013-.071-.025-.141-.036-.212l.849-.143c-.012-.071-.025-.141-.036-.212l1.062-.181c-.013-.071-.025-.141-.036-.212a4.168,4.168,0,0,1,2.511-.645c.012.071.023.141.036.212l2.723-.681c.012.071.025.141.036.212.365.01.732.02,1.1.031.1.128.191.258.284.386l.424-.071c.013.069.025.14.036.21l.638-.109c.094.13.189.258.284.388.141-.025.283-.049.424-.072.012.071.023.141.036.21l.424-.071c.1.128.189.258.284.386.549.268.345-.293.745.526.224.036.449.069.673.1l.429,1.233c.153.048.306.094.46.14.023.141.048.283.072.424.071-.013.141-.025.212-.036.036.21.072.423.107.635.155.046.307.092.462.141-.012.362-.021.727-.033,1.092l.212-.036a15.163,15.163,0,0,1-.24,2.439c-.13.092-.258.187-.388.281.036.212.072.424.109.635l-.39.284c.025.141.048.283.072.423-.071.013-.141.025-.212.036.061.354.12.705.181,1.059l-.566.531c-.3.825.472.878-.633,1.414a1.491,1.491,0,0,1-.067.883l-.212.036.109.635-.39.284c.061.352.12.705.181,1.057l-.212.036c.012.071.023.141.036.212q-1.416.022-2.832.046c-.186-.233-.39-.238-.5-.352-.025-.141-.049-.281-.072-.423l-.46-.14c-.025-.141-.048-.283-.072-.423l-.212.035c-.012-.069-.025-.14-.036-.21-.141.023-.283.048-.424.072-.273-.176-.224-.4-.357-.811.2-.283.084-.015.14-.46-.224-.033-.449-.067-.673-.1-.012-.071-.025-.141-.036-.212.225-.164.271-.428.352-.495l.638-.109c-.013-.071-.025-.141-.036-.212l-.212.036-.109-.635c1.23-.5.674-1.108,1.906-1.631l.069-.883c.071-.012.141-.023.212-.036-.036-.21-.072-.423-.109-.635q.37-.39.742-.779c-.013-.5-.028-1.011-.041-1.516q.106-.02.212-.035c-.023-.143-.048-.284-.071-.426.071-.012.141-.023.212-.036.15-.352.081-.549.031-1.094-.8-.031-1.508-.391-2.266-.487q-1.7.291-3.4.579l-.1.671a5.849,5.849,0,0,0-2.652,1.1l-.636.109c-.046.153-.094.306-.14.459l-.6.321c.013.071.025.141.036.212l-.636.107c-.046.155-.094.307-.14.46-.141.023-.283.048-.424.072-.082.377-.163.753-.245,1.13l-.424.072c-.012.365-.021.73-.033,1.094-.141.025-.283.049-.424.072-.084.967-.816,1.286-.913,2.333l-.424.072a2.922,2.922,0,0,1-.6,1.626l-.39.283c.025.141.049.283.072.424-.3.615-.743.488-.845,1.45l-.812.355c.012.071.025.141.036.212a4.251,4.251,0,0,1-2.48-.451c-.036-.21-.072-.423-.109-.635-.071.013-.141.025-.212.036-.459-.362-.467-.066-.781-.738.128-.293-.222-1-.076-1.728.071-.013.141-.025.212-.036-.025-.141-.048-.283-.072-.424.071-.012.141-.023.212-.036.118-.615-.247-1.028-.039-1.516q.37-.39.742-.779l-.109-.635.74-.779-.035-.21c.141-.026.283-.049.424-.074.222-.4.446-.8.668-1.2l.214-.036c-.036-.212-.072-.424-.109-.635.156-.326.531-.1.812-.357.46-.419.474-1.534.488-2.261a18.278,18.278,0,0,0-2.55-.872l-1.062.179c.013.072.025.141.036.212l-2.123.36c.013.071.025.141.036.212a4.973,4.973,0,0,1-2.051.784c.025.141.048.283.072.423-1.454.548-2.1,1.748-3.32,2.307l-.1.671-.638.109c.025.141.049.283.072.424l-.776.567-.493.954c-.141.025-.283.049-.424.072.012.071.023.141.036.212l-.566.531q-.158.355-.316.707c-.141.025-.283.049-.424.072.023.141.048.283.072.424l-.39.283-.1.671-.6.321c.023.141.048.281.071.423-.128.1-.258.189-.388.284.025.141.048.281.072.423q-.37.39-.742.779l.253,1.482c-.107.646-.592,1.094-.809,1.662-1.687-.319-3.2-.661-3.549-2.881.071-.013.141-.025.212-.036q-.057-.972-.112-1.942c.141-.023.283-.048.424-.069l.067-.885.424-.072c.092-.283.3-.365.354-.495-.025-.141-.048-.283-.072-.424.071-.012.141-.023.212-.036-.025-.141-.048-.281-.072-.423.13-.1.26-.189.388-.284l-.107-.635c.2-.107.4-.214.6-.319-.012-.071-.025-.141-.036-.212.13-.1.26-.189.388-.284-.023-.141-.048-.281-.071-.423A12.818,12.818,0,0,1,73.8,83.032c-.035-.21-.071-.423-.107-.635.141-.021.283-.048.424-.072.217-.574.566-.7.633-1.414a1.908,1.908,0,0,0,.776-.567c-.012-.071-.023-.141-.036-.212l.85-.143q.158-.355.316-.707l.636-.109c.048-.153.094-.306.141-.46l.424-.071c.046-.155.094-.307.14-.46.141-.023.283-.048.424-.072.048-.153.094-.306.141-.459l.812-.357q.158-.353.316-.707c.554-.166,1.108-.331,1.662-.5-.012-.071-.023-.141-.036-.212.4-.212.8-.426,1.2-.64-.012-.071-.025-.14-.036-.21q.53-.091,1.062-.181c-.013-.071-.025-.141-.036-.212a5.849,5.849,0,0,1,3.256-.118l1.273-.215c.013.071.025.14.036.21l.638-.107c.012.069.023.14.036.21l.636-.109c.094.13.189.258.284.388l.424-.072.533.562.636-.107c.012.069.025.14.036.21a3.04,3.04,0,0,1,1.562,1.477" transform="translate(45.152 47.748)" fill="#fff" fill-rule="evenodd"/>
    </g>
  </g>
</svg>
