<svg id="グループ_43" data-name="グループ 43" xmlns="http://www.w3.org/2000/svg" xmlns:xlink="http://www.w3.org/1999/xlink" width="84.187" height="180" viewBox="0 0 84.187 180">
  <defs>
    <clipPath id="clip-path">
      <rect id="長方形_1" data-name="長方形 1" width="84.187" height="180" fill="none"/>
    </clipPath>
  </defs>
  <g id="グループ_1" data-name="グループ 1" clip-path="url(#clip-path)">
    <path id="パス_1" data-name="パス 1" d="M54.239,0s1.218,0,4.647.338a24.91,24.91,0,0,1,7.425,2c.112.1,8.71,16.237,10.181,19.2s6.1,10.708,7.813,16.014S88.348,50.659,88.688,54.1s.722,12.651,1.3,16.679S93.217,91.5,93.364,94.3a232.942,232.942,0,0,1-1.15,24.419,75.266,75.266,0,0,1-2.955,14.7c-.458,1.148-6.353,12.08-8.638,15.407a49.557,49.557,0,0,0-5.23,8.71c-1.541,3.438-3.648,8.685-4.888,10.719s-2.362,3.861-3.344,5.3-3.862,5.373-4.323,6.312c-1.7.237-4.321.267-6.094-.941-1.277-2.243-3.531-5.322-4.58-6.816s-1.853-2.66-7.812-12.144-20.3-48.19-21.985-67.207S25.009,63.9,26.846,59.23s4.14-10.747,4.844-14.049,1.51-10.075,3.816-15.5S46.671,11.2,47.723,9.744,53.42.2,54.239,0" transform="translate(-9.208)" fill="#881ea4" fill-rule="evenodd"/>
    <path id="パス_2" data-name="パス 2" d="M14.1,170.948a61.723,61.723,0,0,0,1.5,6.78c.77,2.44,1.181,4.643,3.592,7.242,1.524,1.644,7.575-1.667,9.35-2.72s8.426-3.191,10.534.447,1.1,6.213.382,7.252-5.112,5.4-5.112,5.4,6.346-2.224,9.249,1.083-1.36,9.678-4.661,11.779c5.5-.144,6.737-.214,8.687,2.833s-.363,7.66-2.082,9.08-3.22,2.482-3.22,2.482,5.318,1.118,6.045,3.714.686,4.334-.441,6.182-5.558,4.505-8.57,6.1-8.476,2.332-10.291,2.525a22.478,22.478,0,0,1-17.221-6.5C5.1,227.795,1.276,217.661.4,206.019s-.266-14.832,1.219-19.155c1.219-3.548,3.5-8.674,7.04-12.083,1.546-1.491,1.652-2.018,5.441-3.832" transform="translate(0 -71.601)" fill="#faf553" fill-rule="evenodd"/>
    <path id="パス_3" data-name="パス 3" d="M31.555,227.924a.359.359,0,0,0,.131-.159.371.371,0,0,0,.13-.159h0a.362.362,0,0,0,.127-.141.406.406,0,0,0,.08-.145l.021-.019a.413.413,0,0,0,.137-.3c0-.01.008-.02.012-.031a.41.41,0,0,0,.118-.284.415.415,0,0,0,.074-.195.331.331,0,0,0,.035-.288c0-.022-.009-.087-.012-.157a.41.41,0,0,0,.063-.395.78.78,0,0,1-.01-.334,2.535,2.535,0,0,0,.016-.291.427.427,0,0,0-.033-.151l-.025-.059a.418.418,0,0,0-.054-.318l-.019-.029a.408.408,0,0,0-.017-.066.421.421,0,0,0-.056-.109.461.461,0,0,0-.07-.112.467.467,0,0,0-.063-.16.407.407,0,0,0-.04-.051.513.513,0,0,0-.121-.182.258.258,0,0,0-.027-.024l-.106-.2a.352.352,0,0,0-.035-.053.4.4,0,0,0-.038-.123l-.146-.291a.41.41,0,0,0-.224-.188l-.03-.02a.42.42,0,0,0-.388-.123l-.043.009a1.121,1.121,0,0,0-.1-.076.412.412,0,0,0-.3-.16.566.566,0,0,0-.061-.02l-.191-.173a.4.4,0,0,0-.28-.108.512.512,0,0,0-.157-.048.807.807,0,0,0-.353-.118.415.415,0,0,0-.32-.1.4.4,0,0,0-.1,0,.325.325,0,0,0-.048.006.425.425,0,0,0-.071-.015.42.42,0,0,0-.393.009l-.013.007a.419.419,0,0,0-.2.024l-.038.015a2.305,2.305,0,0,0-.479.112.407.407,0,0,0-.119.04l-.637.327a.327.327,0,0,0-.074.053.575.575,0,0,0-.24.166.34.34,0,0,0-.04.056l-.015.017-.124.062a.416.416,0,0,0-.178.224l0,0a.346.346,0,0,0-.117.124.627.627,0,0,0-.115.239l-.066.08a.424.424,0,0,0-.081.166.486.486,0,0,0-.073.234.7.7,0,0,0-.062.157.379.379,0,0,0-.075.2.405.405,0,0,0-.051.188l0,.1a.407.407,0,0,0-.062.3.387.387,0,0,0,.021.077.285.285,0,0,0,.009.051l0,.02a.414.414,0,0,0,.032.379l.016.025a.524.524,0,0,0,.022.1l.012.031c0,.015,0,.028.008.042a.482.482,0,0,0,.046.259.421.421,0,0,0,.051.325l0,0h0a.416.416,0,0,0,.051.2.385.385,0,0,0,.058.08l.214.348a.39.39,0,0,0,.122.134.357.357,0,0,0,.117.106l.223.309a.328.328,0,0,0,.1.09.442.442,0,0,0,.085.12,7.19,7.19,0,0,0,.216.116.389.389,0,0,0,.152.169,3.56,3.56,0,0,1,.418.181.42.42,0,0,0,.08.038.337.337,0,0,0,.059.038.408.408,0,0,0,.218.1l.035.017a.415.415,0,0,0,.223.113.41.41,0,0,0,.209.063h.056a.361.361,0,0,0,.292.049l.059.008a.532.532,0,0,0,.332.031h.008l.08,0a.388.388,0,0,0,.055,0,.4.4,0,0,0,.116.016.417.417,0,0,0,.161-.033l.045-.019a.426.426,0,0,0,.3.027.588.588,0,0,0,.106,0,.46.46,0,0,0,.2-.016.416.416,0,0,0,.267-.063l.084-.053a.364.364,0,0,0,.042-.01.391.391,0,0,0,.252-.062l.085-.053a.427.427,0,0,0,.149-.057.466.466,0,0,0,.162-.064.378.378,0,0,0,.105-.105ZM30.4,226.767l-.031.006a.412.412,0,0,0-.148-.009.4.4,0,0,0-.238.033l-.031,0a.394.394,0,0,0-.169.019l-.087.029-.02,0a.465.465,0,0,0-.212-.053.4.4,0,0,0-.137.024.327.327,0,0,0-.066-.01l-.071-.006a.434.434,0,0,0-.112-.029.271.271,0,0,1-.051-.012.484.484,0,0,0-.17-.025.5.5,0,0,0-.13-.01c-.026-.011-.052-.02-.081-.03l-.006-.006a.435.435,0,0,0-.21-.1l-.024-.026a.42.42,0,0,0-.262-.124.4.4,0,0,0-.221-.121l-.505-.6a.515.515,0,0,0-.137-.174l-.006-.011a.41.41,0,0,0-.029-.2c0-.008-.024-.052-.052-.105l-.009-.018a.419.419,0,0,0-.034-.276.6.6,0,0,0,0-.19.417.417,0,0,0,0-.217.637.637,0,0,0,.018-.078,1.377,1.377,0,0,0,.151-.262.3.3,0,0,0,.011-.037l.049-.031a.171.171,0,0,0,.024-.016.7.7,0,0,0,.181-.122.406.406,0,0,0,.145-.046.683.683,0,0,0,.17-.139l.013-.013a.464.464,0,0,0,.191-.058.407.407,0,0,0,.179-.062l.01-.006a.6.6,0,0,0,.2-.03.413.413,0,0,0,.071-.011l.058-.015a.358.358,0,0,0,.117,0,.455.455,0,0,0,.126,0,.371.371,0,0,0,.153.013l.026,0h0a.411.411,0,0,0,.165.064l.162.025a.419.419,0,0,0,.217.132.45.45,0,0,0,.135.063l.016.016a.384.384,0,0,0,.165.087.38.38,0,0,0,.126.1l.015.011.024.037a.354.354,0,0,0,.148.128.513.513,0,0,0,.067.04l.046.052a.326.326,0,0,0,.124.083.368.368,0,0,0,.29.188l.009.03a1.374,1.374,0,0,0,.044.134.657.657,0,0,0,.117.18.45.45,0,0,0,.035.069l.036.055a.425.425,0,0,0,.022.08l0,.01a.379.379,0,0,0,.053.214.187.187,0,0,0,.03.044c0,.01,0,.021,0,.03.012.123.012.123-.009.16a.381.381,0,0,0-.033.225.417.417,0,0,0-.034.271c-.021.062-.038.126-.054.184a.42.42,0,0,0-.123.222l-.13.084-.012,0a.477.477,0,0,0-.131.023.44.44,0,0,0-.156.1" transform="translate(-10.762 -92.949)" fill="#881ea4"/>
    <path id="パス_4" data-name="パス 4" d="M55.477,271.507l.093-.059a.357.357,0,0,0,.131-.16.363.363,0,0,0,.13-.159h0a.365.365,0,0,0,.127-.141.411.411,0,0,0,.08-.145l.021-.019a.416.416,0,0,0,.137-.3c0-.01.008-.02.012-.031a.409.409,0,0,0,.118-.284.421.421,0,0,0,.074-.2.331.331,0,0,0,.035-.288c0-.022-.009-.088-.012-.157a.41.41,0,0,0,.063-.395.766.766,0,0,1-.01-.334,2.512,2.512,0,0,0,.016-.291.424.424,0,0,0-.033-.151l-.025-.059a.421.421,0,0,0-.053-.317L56.362,268a.407.407,0,0,0-.017-.066.42.42,0,0,0-.056-.109.461.461,0,0,0-.07-.112.454.454,0,0,0-.063-.16.4.4,0,0,0-.04-.051.51.51,0,0,0-.121-.182.345.345,0,0,0-.027-.023l-.106-.2a.307.307,0,0,0-.035-.053.4.4,0,0,0-.038-.123l-.146-.291a.405.405,0,0,0-.224-.188l-.03-.02a.42.42,0,0,0-.388-.123l-.043.009a1.24,1.24,0,0,0-.1-.076.416.416,0,0,0-.3-.16c-.02-.008-.041-.014-.062-.02l-.191-.173a.4.4,0,0,0-.28-.108.5.5,0,0,0-.157-.048.805.805,0,0,0-.353-.118.415.415,0,0,0-.32-.1.4.4,0,0,0-.1,0l-.048.005a.487.487,0,0,0-.071-.014.415.415,0,0,0-.386.005l-.02.01a.421.421,0,0,0-.2.024l-.038.015a3.328,3.328,0,0,0-.6.151l-.637.328a.324.324,0,0,0-.074.052.575.575,0,0,0-.24.166.283.283,0,0,0-.04.057l-.015.017-.124.061a.421.421,0,0,0-.178.225h0a.345.345,0,0,0-.118.125.627.627,0,0,0-.115.239l-.065.08a.413.413,0,0,0-.082.166.486.486,0,0,0-.073.234.649.649,0,0,0-.061.157.373.373,0,0,0-.076.2.406.406,0,0,0-.051.188l0,.1a.408.408,0,0,0-.062.3.4.4,0,0,0,.021.077.276.276,0,0,0,.009.051l0,.02a.414.414,0,0,0,.032.38l.016.025a.532.532,0,0,0,.022.1l.012.031c0,.015,0,.028.008.042a.48.48,0,0,0,.046.259.422.422,0,0,0,.051.325l0,0h0a.417.417,0,0,0,.051.2.433.433,0,0,0,.058.08l.214.347a.408.408,0,0,0,.122.134.357.357,0,0,0,.117.106l.223.309a.337.337,0,0,0,.1.09.416.416,0,0,0,.085.119,6.105,6.105,0,0,0,.216.117.389.389,0,0,0,.152.169.425.425,0,0,0,.289.119.416.416,0,0,0,.129.063.42.42,0,0,0,.08.038.387.387,0,0,0,.059.038.413.413,0,0,0,.218.1l.035.017a.415.415,0,0,0,.223.113.41.41,0,0,0,.209.063h.056a.362.362,0,0,0,.293.049l.058.008a.528.528,0,0,0,.332.031h.009c.023,0,.045,0,.08,0a.31.31,0,0,0,.054,0,.417.417,0,0,0,.117.017.426.426,0,0,0,.16-.033l.045-.019a.429.429,0,0,0,.3.027.533.533,0,0,0,.106-.005.444.444,0,0,0,.2-.016.413.413,0,0,0,.267-.063l.084-.053.041-.01a.4.4,0,0,0,.253-.062l.085-.053a.389.389,0,0,0,.148-.056h0a.454.454,0,0,0,.162-.064.378.378,0,0,0,.105-.105m-1.061-1.216-.031.006a.412.412,0,0,0-.148-.009.4.4,0,0,0-.238.032l-.031,0a.4.4,0,0,0-.169.019l-.087.029-.02,0a.463.463,0,0,0-.211-.053.4.4,0,0,0-.138.024.368.368,0,0,0-.066-.011l-.071-.006a.436.436,0,0,0-.112-.029.328.328,0,0,1-.051-.011.456.456,0,0,0-.17-.026.5.5,0,0,0-.13-.01c-.026-.011-.052-.02-.081-.03l-.006-.006a.437.437,0,0,0-.21-.1l-.024-.026a.42.42,0,0,0-.262-.124.394.394,0,0,0-.221-.12l-.505-.6a.5.5,0,0,0-.137-.173l-.006-.012a.408.408,0,0,0-.029-.2c0-.009-.024-.053-.052-.106l-.009-.017a.419.419,0,0,0-.034-.276.6.6,0,0,0,0-.19.417.417,0,0,0,0-.217.652.652,0,0,0,.018-.077,1.453,1.453,0,0,0,.151-.263.311.311,0,0,0,.01-.035l.051-.032.023-.016a.709.709,0,0,0,.181-.122.406.406,0,0,0,.145-.046.681.681,0,0,0,.169-.139l.013-.013a.454.454,0,0,0,.191-.058.409.409,0,0,0,.179-.062l.01-.007a.609.609,0,0,0,.2-.03.393.393,0,0,0,.07-.011l.058-.014a.415.415,0,0,0,.117,0,.455.455,0,0,0,.126,0,.371.371,0,0,0,.153.013l.025,0h0a.417.417,0,0,0,.165.064l.162.024a.413.413,0,0,0,.217.131.453.453,0,0,0,.135.064l.016.016a.387.387,0,0,0,.165.087.381.381,0,0,0,.126.1l.015.011.024.037a.347.347,0,0,0,.148.127.376.376,0,0,0,.067.041l.046.052a.328.328,0,0,0,.124.083.368.368,0,0,0,.29.188l.009.03a1.37,1.37,0,0,0,.044.134.67.67,0,0,0,.117.18.449.449,0,0,0,.035.069l.036.055a.424.424,0,0,0,.022.08l0,.011a.365.365,0,0,0,.053.214.26.26,0,0,0,.029.044c0,.01,0,.021,0,.03.012.123.012.123-.009.16a.377.377,0,0,0-.032.225.413.413,0,0,0-.034.271c-.021.062-.038.126-.054.184a.415.415,0,0,0-.122.222l-.131.084-.013,0a.457.457,0,0,0-.131.023.439.439,0,0,0-.156.1" transform="translate(-20.821 -111.179)" fill="#881ea4"/>
    <path id="パス_5" data-name="パス 5" d="M47.015,256.824l0,0,.023-.023a.567.567,0,0,0,.25-.16.42.42,0,0,0,.035-.045.384.384,0,0,0,.078-.086l.071-.045a.377.377,0,0,0,.136-.163l.03-.029a.363.363,0,0,0,.085-.128.47.47,0,0,0,.118-.279.8.8,0,0,0,.123-.336.41.41,0,0,0-.008-.078.418.418,0,0,0,.006-.219.413.413,0,0,0,0-.239.446.446,0,0,0-.011-.132l-.014-.056a.417.417,0,0,0-.033-.231l-.023-.05a.415.415,0,0,0-.062-.271l-.088-.139a.407.407,0,0,0-.059-.153l-.109-.166a.346.346,0,0,0-.028-.052l-.1-.164a.347.347,0,0,0-.149-.128l-.017-.012-.114-.18a.377.377,0,0,0-.152-.135l-.059-.069a.411.411,0,0,0-.087-.077.349.349,0,0,0-.129-.148.185.185,0,0,0-.015-.025.368.368,0,0,0-.107-.107l-.007-.012a20.727,20.727,0,0,1-.518-.353.351.351,0,0,0-.1-.053.406.406,0,0,0-.193-.106.69.69,0,0,0,.026-.11.084.084,0,0,1,.013-.015.453.453,0,0,0,.128-.389.414.414,0,0,0,.038-.245.388.388,0,0,0-.012-.144.414.414,0,0,0,0-.177c0-.007,0-.015,0-.023A.4.4,0,0,0,46,250.9a.413.413,0,0,0-.023-.221v0a.414.414,0,0,0-.068-.413v0a.41.41,0,0,0-.059-.279l-.072-.113a.406.406,0,0,0-.069-.168l-.393-.559a.356.356,0,0,0-.151-.109.494.494,0,0,0-.306-.22l-.258-.22a.409.409,0,0,0-.155-.084.426.426,0,0,0-.191-.061.592.592,0,0,0-.056-.022l-.012-.011a.414.414,0,0,0-.169-.1.374.374,0,0,0-.087-.041.512.512,0,0,0-.181-.078h-.008a.412.412,0,0,0-.246-.11,1.172,1.172,0,0,0-.28-.113l-.038-.008a.418.418,0,0,0-.163-.059,1.21,1.21,0,0,0-.262-.107.363.363,0,0,0-.172-.072.407.407,0,0,0-.206-.063.882.882,0,0,0-.264-.074.46.46,0,0,0-.187-.038.609.609,0,0,0-.1-.011l-.026-.011a.516.516,0,0,0-.388-.087.808.808,0,0,0-.332-.031.554.554,0,0,0-.2-.035.562.562,0,0,0-.273,0,.663.663,0,0,0-.163-.028,1.324,1.324,0,0,0-.419-.042.4.4,0,0,0-.246-.012h0l-.007,0-.008,0a.415.415,0,0,0-.293-.01.57.57,0,0,0-.084,0,.382.382,0,0,0-.28,0,.7.7,0,0,0-.089-.019.408.408,0,0,0-.262-.019.4.4,0,0,0-.145,0,.675.675,0,0,0-.228.076.493.493,0,0,0-.276.088.613.613,0,0,0-.232.266l-.008.02a.417.417,0,0,0-.1.209l-.052.339a.486.486,0,0,0,.081.317.5.5,0,0,0,.407.259.54.54,0,0,0,.264.035h.006a.4.4,0,0,0,.244-.021.413.413,0,0,0,.286.005.606.606,0,0,0,.146-.013.767.767,0,0,0,.294.009l.032,0a.443.443,0,0,0,.131.008,1.643,1.643,0,0,0,.386,0,.417.417,0,0,0,.15.051l.254.033a.415.415,0,0,0,.138-.016l.02,0,.019,0a.892.892,0,0,0,.169,0,.671.671,0,0,0,.319.026.438.438,0,0,0,.2.04l.062.009.027.012a.416.416,0,0,0,.264.056l.11.015a.411.411,0,0,0,.2.076.4.4,0,0,0,.089.02.393.393,0,0,0,.113.022,1.554,1.554,0,0,0,.364.134l.042.008a.41.41,0,0,0,.16.084.478.478,0,0,0,.216.108.389.389,0,0,0,.251.106.427.427,0,0,0,.131.06.418.418,0,0,0,.227.09.6.6,0,0,0,.065.035.412.412,0,0,0,.13.063.4.4,0,0,0,.056.029.374.374,0,0,0,.122.082.507.507,0,0,0,.095.045.4.4,0,0,0,.116.06l.065.053a.311.311,0,0,0,.053.035l.142.187a.337.337,0,0,0,.149.1l.029.067a.48.48,0,0,0,.007.07.424.424,0,0,0,.048.187c0,.011,0,.023.007.035l.026.1a.415.415,0,0,0,.02.234.053.053,0,0,0,0,.02.494.494,0,0,0,0,.051.378.378,0,0,0-.015.089l0,.066-.021.014a.668.668,0,0,0-.113.013.447.447,0,0,0-.209.042,1.109,1.109,0,0,1-.47.036.407.407,0,0,0-.056-.007.422.422,0,0,0-.309-.1l-.08.008a.4.4,0,0,0-.085.018l-.04-.016a.392.392,0,0,0-.215-.007.426.426,0,0,0-.211.012l-.051.017-.052-.009a1.21,1.21,0,0,0-.366-.016.408.408,0,0,0-.331-.024.52.52,0,0,1-.134.02,1.59,1.59,0,0,0-.188.022.541.541,0,0,0-.259,0,.429.429,0,0,0-.056-.015.407.407,0,0,0-.317.066.551.551,0,0,0-.278.056,1.1,1.1,0,0,0-.406.288.348.348,0,0,0-.028.043.391.391,0,0,0-.095.159.442.442,0,0,0-.065.346.431.431,0,0,0-.02.174.753.753,0,0,0,.2.41.407.407,0,0,1,.042.052.473.473,0,0,0,.506.166h0a.869.869,0,0,0,.165,0,.521.521,0,0,0,.1.019l.032,0a.463.463,0,0,0,.178.044.444.444,0,0,0,.289.033l.033,0a.309.309,0,0,0,.073.016.407.407,0,0,0,.255.018.551.551,0,0,0,.086-.008.4.4,0,0,0,.226,0,.375.375,0,0,0,.175,0h.024a.418.418,0,0,0,.188.011.31.31,0,0,0,.189-.045.508.508,0,0,0,.239-.019,2.7,2.7,0,0,0,.437-.063.416.416,0,0,0,.269-.022l.017,0,.043.006.071.027a.4.4,0,0,0,.205,0,.338.338,0,0,0,.047.007h0a.41.41,0,0,0,.183.066.48.48,0,0,0,.081.019l.134.017.148.121a.416.416,0,0,0,.216.09l.057.006.013.013a.46.46,0,0,0,.219.1l.005,0a.313.313,0,0,0,.112.066.425.425,0,0,0,.083.078.413.413,0,0,0,.207.145l.149.167a.356.356,0,0,0,.13.092.33.33,0,0,0,.09.081l.135.213a.314.314,0,0,0,.058.068l.015.036a.372.372,0,0,0,.161.176l.033.042a.424.424,0,0,0,.015.089.571.571,0,0,0,.11.209l0,.008c0,.009,0,.019-.006.029a1.214,1.214,0,0,0-.018.175,1.342,1.342,0,0,1-.209.173l-.06.012a.4.4,0,0,0-.27.061l-.075.048-.04-.008a.422.422,0,0,0-.331.094.41.41,0,0,0-.163.06l-.074.047-.021,0a.571.571,0,0,0-.078,0,.385.385,0,0,0-.148,0,.608.608,0,0,0-.193.069l-.062.008a.408.408,0,0,0-.294.01l-.026.011a.416.416,0,0,0-.129,0l-.03-.011a.42.42,0,0,0-.266-.011.2.2,0,0,0-.048-.008.483.483,0,0,0-.216-.008l-.06-.015a1.093,1.093,0,0,0-.18-.026.51.51,0,0,0-.191-.028h-.024l-.049-.019a.325.325,0,0,0-.126-.019l-.053-.021-.008,0a.392.392,0,0,0-.1-.058.383.383,0,0,0-.174-.084.415.415,0,0,0-.425.014l-.074.051a.469.469,0,0,0-.214.1.352.352,0,0,0-.083.111.4.4,0,0,0-.079.158v0a.415.415,0,0,0-.089.342.224.224,0,0,0,.021.05l0,0a.414.414,0,0,0,.042.285l.015.024.139.219a.427.427,0,0,0,.274.173l.027,0a.447.447,0,0,0,.188.065l.038.018a.322.322,0,0,0,.075.017.418.418,0,0,0,.3.062.39.39,0,0,0,.046,0,.422.422,0,0,0,.219,0,.4.4,0,0,0,.081.017l.261.028a.438.438,0,0,0,.352.058l.029,0a.423.423,0,0,0,.175.038.418.418,0,0,0,.148-.028l.007,0a.415.415,0,0,0,.225.007.387.387,0,0,0,.094,0,.415.415,0,0,0,.2,0,.4.4,0,0,0,.345-.044h0l.025-.005H45.3a.423.423,0,0,0,.252-.033l.1-.045a.41.41,0,0,0,.142-.032.425.425,0,0,0,.2-.045l.159-.082a.445.445,0,0,0,.116-.008l.024,0a.433.433,0,0,0,.085-.014.467.467,0,0,0,.207-.13l.058-.023a.489.489,0,0,0,.379-.13m-5.9-5.27h0l-.017-.013v0Z" transform="translate(-15.793 -103.559)" fill="#881ea4"/>
    <path id="パス_6" data-name="パス 6" d="M21.986,212.458h0a.366.366,0,0,0,.1-.1l.153-.1a.383.383,0,0,0,.089-.077,1.659,1.659,0,0,0,.115-.152.415.415,0,0,1,.1-.121.411.411,0,0,0,.157-.236.53.53,0,0,0,.141-.173.41.41,0,0,0,.046-.194.417.417,0,0,0,.169-.3v0a.847.847,0,0,0,.07-.513l-.006-.016a.626.626,0,0,0-.006-.143,1.262,1.262,0,0,0-.076-.414l-.02-.033a.408.408,0,0,0-.065-.222l-.1-.16a.455.455,0,0,0-.065-.162.336.336,0,0,0-.051-.062.453.453,0,0,0-.062-.11.368.368,0,0,0-.082-.074l-.073-.114a.336.336,0,0,0-.065-.074l-.031-.069a.375.375,0,0,0-.03-.052.237.237,0,0,0-.015-.025l-.1-.164a.339.339,0,0,0-.105-.1l-.009-.013a.344.344,0,0,0-.1-.105l-.027-.043a.358.358,0,0,0-.109-.11.384.384,0,0,0-.094-.087l-.009-.013a.409.409,0,0,0-.187-.16.429.429,0,0,0-.157-.1l-.151-.124a.32.32,0,0,0-.09-.052l0,0a.387.387,0,0,0-.145-.1l0,0a.361.361,0,0,0-.093-.064.406.406,0,0,0-.16-.077.309.309,0,0,0-.071-.041.557.557,0,0,0,.033-.126.833.833,0,0,0,.132-.274.37.37,0,0,0,.075-.189l.024-.029a.388.388,0,0,0,.081-.2.408.408,0,0,0,.1-.187.413.413,0,0,0-.022-.251.388.388,0,0,0-.012-.11l0-.009a1.31,1.31,0,0,0-.048-.534l0-.005a.4.4,0,0,0-.049-.2.409.409,0,0,0-.087-.256l-.118-.153a.254.254,0,0,0-.013-.039.505.505,0,0,0-.181-.241l-.128-.2a.339.339,0,0,0-.1-.1l-.08-.125a.358.358,0,0,0-.174-.144.519.519,0,0,0-.079-.038l-.092-.115a.363.363,0,0,0-.133-.1.329.329,0,0,0-.06-.035l-.041-.046a.348.348,0,0,0-.14-.088.45.45,0,0,0-.061-.048,4.449,4.449,0,0,0-.177-.139.618.618,0,0,0-.2-.1l-.124-.124a.41.41,0,0,0-.189-.108.4.4,0,0,0-.173-.058l-.027-.008a.388.388,0,0,0-.185-.084.415.415,0,0,0-.182-.07l-.008-.006a.429.429,0,0,0-.091-.056.6.6,0,0,0-.124-.04.389.389,0,0,0-.266-.091c-.028-.011-.058-.02-.094-.031l-.015,0a.427.427,0,0,0-.2-.045h0a.424.424,0,0,0-.211-.078.284.284,0,0,0-.045-.011.665.665,0,0,0-.224-.048.748.748,0,0,0-.11-.045.5.5,0,0,0-.168-.064.613.613,0,0,0-.077-.031.223.223,0,0,0-.045-.01.434.434,0,0,0-.184-.015.661.661,0,0,0-.068-.009.417.417,0,0,0-.187-.022.5.5,0,0,0-.142-.046.393.393,0,0,0-.307-.035l-.032,0-.012,0a.386.386,0,0,0-.332-.055l-.041-.01a.4.4,0,0,0-.173,0,1.305,1.305,0,0,0-.135,0h0a.484.484,0,0,0-.341-.042h-.005a.817.817,0,0,0-.165,0,.459.459,0,0,0-.094.024h0a.408.408,0,0,0-.247.008.5.5,0,0,0-.113.03l-.026,0c-.04,0-.084.009-.13.017a.792.792,0,0,0-.1-.031.415.415,0,0,0-.309.055l0,0a.437.437,0,0,0-.055,0,.415.415,0,0,0-.256.013l-.051.02a.7.7,0,0,0-.088,0,.427.427,0,0,0-.221.021.411.411,0,0,0-.288.058h0a.438.438,0,0,0-.093,0,.4.4,0,0,0-.074-.007.548.548,0,0,0-.114.016.417.417,0,0,0-.274.08.884.884,0,0,0-.207.211.388.388,0,0,0-.108.207.869.869,0,0,0-.078.091.414.414,0,0,0-.035.439l.181.346,0,.006a.376.376,0,0,0,.147.144.412.412,0,0,0,.187.088.418.418,0,0,0,.507-.02.407.407,0,0,0,.113-.033l.129-.058a.406.406,0,0,0,.086-.019.243.243,0,0,0,.041-.009l.029,0a.4.4,0,0,0,.233.009l.073-.019a.485.485,0,0,0,.191-.026.593.593,0,0,0,.184-.024.413.413,0,0,0,.35-.031.322.322,0,0,0,.056-.007l.031,0a.407.407,0,0,0,.241-.017.385.385,0,0,0,.057.006.44.44,0,0,0,.092,0,.42.42,0,0,0,.312.012l.108-.04a.634.634,0,0,0,.2.025.518.518,0,0,0,.1.025l.067.009a.42.42,0,0,0,.229.038.47.47,0,0,0,.152.014l.016,0a.453.453,0,0,0,.052.013,2.546,2.546,0,0,0,.313.047.5.5,0,0,0,.17.045.443.443,0,0,0,.124.044l.418.075a.434.434,0,0,0,.277.087.366.366,0,0,0,.053.01.391.391,0,0,0,.19.067.946.946,0,0,0,.173.076.06.06,0,0,0,.02.005h0l.058.021a.607.607,0,0,0,.126.05.669.669,0,0,0,.092.037,1.065,1.065,0,0,0,.339.144h0a.408.408,0,0,0,.095.046.341.341,0,0,0,.074.041.4.4,0,0,0,.07.037.347.347,0,0,0,.113.078.313.313,0,0,0,.06.032.533.533,0,0,0,.114.054l.023.024a.368.368,0,0,0,.124.085.4.4,0,0,0,.059.032l.023.024a.338.338,0,0,0,.064.052.372.372,0,0,0,.117.1.428.428,0,0,0,.129.08l.127.168a.369.369,0,0,0,.138.11l.013.009.041.065a.349.349,0,0,0,.1.1l.009.014a.342.342,0,0,0,.1.1l.007.02a.651.651,0,0,0,.1.189c.008.01.017.02.026.029l.006.013.01.024a.41.41,0,0,0,.01.164v.008a.407.407,0,0,0-.015.071.345.345,0,0,0-.023.034.429.429,0,0,0-.082.1.519.519,0,0,0-.076.035.435.435,0,0,0-.123.1l-.083.043a.24.24,0,0,0-.04.006.408.408,0,0,0-.219.063l-.044.028a.292.292,0,0,0-.052.015.551.551,0,0,0-.1.025l-.059.012a.4.4,0,0,0-.231.04l-.1.051a.4.4,0,0,0-.176.021.381.381,0,0,0-.241-.013l-.029,0a.214.214,0,0,0-.046.005.412.412,0,0,0-.145.026l-.034-.006a1.211,1.211,0,0,0-.32-.023.406.406,0,0,0-.255,0,.642.642,0,0,1-.149-.014l-.017,0a1.316,1.316,0,0,0-.37-.023l-.023,0a.289.289,0,0,0-.207-.05.533.533,0,0,0-.17-.015.457.457,0,0,0-.269,0,.391.391,0,0,0-.171-.016.41.41,0,0,0-.125,0,.479.479,0,0,0-.135.039.421.421,0,0,0-.235.039l-.264.129a.417.417,0,0,0-.206.233.468.468,0,0,0-.068.2.267.267,0,0,0,0,.044l-.057.1a.4.4,0,0,0,.005.434l.225.355a.415.415,0,0,0,.222.172l.242.078a.365.365,0,0,0,.165.007l.026.01a.415.415,0,0,0,.212.019l.05.017a.409.409,0,0,0,.281-.006l.014-.006a.526.526,0,0,0,.155-.013l.02.009a.457.457,0,0,0,.33.008.779.779,0,0,0,.08-.009l.028,0,.066.008a.511.511,0,0,0,.367.013.866.866,0,0,0,.169,0,.411.411,0,0,0,.293-.018l.057-.026a.586.586,0,0,0,.162-.012l.016.006a.411.411,0,0,0,.244.014l.08-.02a.548.548,0,0,0,.151-.009l.021.008a.412.412,0,0,0,.292,0h.013a.409.409,0,0,0,.256.011.37.37,0,0,0,.061.008l.016,0a.423.423,0,0,0,.134.039l.05.005a.422.422,0,0,0,.147.065l.092.02a.311.311,0,0,0,.066,0,.433.433,0,0,0,.082.035c.018.009.037.016.056.024a.416.416,0,0,0,.309.161l.015.012a.363.363,0,0,0,.206.075c.028.016.057.031.087.046a.437.437,0,0,0,.065.051.415.415,0,0,0,.064.064l.081.066a.345.345,0,0,0,.144.064l.1.1a.35.35,0,0,0,.138.084l.056.075a.482.482,0,0,0,.057.13.363.363,0,0,0,.118.114.387.387,0,0,0,.087.069l.142.2a.408.408,0,0,0,.073.157l.138.182a.406.406,0,0,0,.027.074l.045.1a.392.392,0,0,0,.007.06c0,.008,0,.016,0,.024a.415.415,0,0,0-.061.107.422.422,0,0,0-.077.133.41.41,0,0,0-.04.062l-.093.077a.356.356,0,0,0-.085.1c-.041.022-.095.046-.145.066a.361.361,0,0,0-.109.006.407.407,0,0,0-.219.064l-.029.018a.411.411,0,0,0-.152.059l0,0-.042.009a.392.392,0,0,0-.213.041l-.125.061a.4.4,0,0,0-.1.02l-.106.034-.016,0a.471.471,0,0,0-.135-.005.564.564,0,0,0-.276.035l-.046.006a.4.4,0,0,0-.157.014.459.459,0,0,0-.235.016.417.417,0,0,0-.327.017l-.028,0a.414.414,0,0,0-.409-.027c-.013.006-.015.007-.065.007h-.012a.514.514,0,0,0-.217-.034l-.055-.022a.534.534,0,0,0-.471-.065.922.922,0,0,0-.2.044.385.385,0,0,0-.215.226.593.593,0,0,0-.1.151c0,.008-.007.015-.01.023a1.033,1.033,0,0,0-.149.548l.092.326a.414.414,0,0,0,.3.288.391.391,0,0,0,.32.09.421.421,0,0,0,.3,0h.015a.388.388,0,0,0,.2.009.825.825,0,0,0,.149,0H18.4a.542.542,0,0,0,.146.009.5.5,0,0,0,.112,0,.343.343,0,0,0,.1.015.7.7,0,0,0,.212-.04.5.5,0,0,0,.214.029.391.391,0,0,0,.121,0,.519.519,0,0,0,.231-.012.425.425,0,0,0,.243-.016l.012,0a.433.433,0,0,0,.111-.012l.1-.026a1.506,1.506,0,0,0,.4-.042l.089-.04a.4.4,0,0,0,.212-.035l.065-.03a.4.4,0,0,0,.139-.028l.013-.005a.371.371,0,0,0,.087-.008.531.531,0,0,0,.186-.046.424.424,0,0,0,.106-.032l.074-.033a.484.484,0,0,0,.2-.062l.055-.035a.435.435,0,0,0,.155-.059Z" transform="translate(-4.816 -84.625)" fill="#881ea4"/>
    <path id="パス_7" data-name="パス 7" d="M35.555,239.563a.434.434,0,0,0,.084-.13.65.65,0,0,0,.032-.148.882.882,0,0,0,.016-.148,1,1,0,0,0-.031-.146c-.008-.049.021-.11.005-.156s-.081-.075-.106-.116a.447.447,0,0,0-.087-.115.3.3,0,0,0-.134-.045c-.042-.02-.07-.083-.115-.1s-.087-.043-.133-.06-.1,0-.149-.01-.086-.047-.133-.058-.1.013-.146.007-.092-.07-.141-.07a1.166,1.166,0,0,0-.147.013c-.047.006-.09.047-.137.059s-.109.05-.159.058a1.124,1.124,0,0,1-.169.005c-.057,0-.1-.063-.156-.074s-.117.019-.169,0a.548.548,0,0,0-.125-.023c-.046-.006-.086-.048-.128-.046s-.086.006-.13.006a.594.594,0,0,1-.124-.022.45.45,0,0,0-.16-.009c-.051.008-.094.056-.142.069a.806.806,0,0,1-.15.037.264.264,0,0,1-.156-.034.52.52,0,0,0-.124-.041,4.636,4.636,0,0,0-.262.049c-.042.016-.083-.009-.121.016-.041-.041-.1-.013-.145-.021s-.1-.048-.152-.046-.119.048-.166.031a.614.614,0,0,0-.127-.087c-.051-.028-.083-.076-.13-.085a1.419,1.419,0,0,0-.154-.035c-.048,0-.112.052-.168.04s-.079-.082-.126-.107-.081-.066-.127-.092-.1-.043-.142-.069-.083-.07-.129-.094-.1-.043-.145-.065-.11-.011-.159-.03-.089-.058-.139-.073-.1-.026-.14-.054-.058-.09-.094-.12-.082-.058-.115-.092-.094-.053-.123-.091a1,1,0,0,1-.062-.138.866.866,0,0,1-.078-.129c-.017-.048,0-.1,0-.151a.664.664,0,0,1,.008-.144.694.694,0,0,1,.03-.139.885.885,0,0,1,.023-.146,1.255,1.255,0,0,1,.089-.118,1.435,1.435,0,0,1,.087-.116c.03-.038.03-.1.064-.14s.091-.047.128-.08.058-.083.1-.114.071-.069.112-.1.077-.062.119-.089.089-.044.133-.069.11,0,.154-.026.085-.048.13-.069.073-.077.119-.1.083-.062.128-.08.1-.015.147-.03.1,0,.149-.018.094-.031.141-.042.1,0,.149,0,.091-.067.138-.072.1-.006.149-.008a1.42,1.42,0,0,1,.148.023c.051,0,.1-.022.15-.015s.1,0,.145,0,.1.017.145.016.1-.015.145-.02.1-.011.144-.021.109.023.155.008.08-.07.123-.09a1.073,1.073,0,0,0,.123-.076c.042-.027.1-.031.135-.063a.87.87,0,0,0,.1-.11.807.807,0,0,0,.1-.114.645.645,0,0,0,.039-.146c.012-.048-.018-.1-.019-.147s.031-.1.017-.148a.633.633,0,0,0-.079-.125.725.725,0,0,0-.1-.1c-.031-.035-.038-.1-.078-.127a1.109,1.109,0,0,0-.131-.067,1.451,1.451,0,0,0-.137-.049,1.248,1.248,0,0,0-.131-.063c-.045-.015-.082-.067-.132-.079s-.1-.017-.149-.025-.109.025-.156.024-.107-.033-.155-.031-.1.034-.153.038l-.152.012c-.049,0-.1.017-.152.021a1.359,1.359,0,0,0-.153,0c-.049.011-.094.043-.142.058s-.106,0-.154.014-.092.042-.14.056-.092.05-.139.059-.087.056-.137.07-.1.017-.148.032-.11-.021-.159-.006-.09.052-.138.067-.088.054-.137.07-.094.033-.142.049-.105,0-.153.02-.092.042-.139.06-.106.009-.152.028-.078.076-.124.1-.1.03-.142.052-.076.073-.12.1-.106.017-.149.042-.073.073-.115.1-.1.04-.135.071-.06.085-.1.118-.071.069-.106.105-.08.062-.111.1-.1.057-.126.1,0,.113-.019.155-.039.089-.061.131-.1.059-.118.1-.045.086-.067.128,0,.107-.021.15-.04.086-.058.131-.026.09-.041.136-.084.076-.1.123.007.1,0,.148.021.1.018.145-.055.093-.054.142,0,.1,0,.145.039.092.046.141.02.092.029.141,0,.1.016.144.037.089.052.135.051.083.069.127.008.1.028.145.068.073.091.114,0,.111.03.151.06.078.088.117.094.049.124.087.044.088.076.124.083.056.114.091.067.07.1.1.066.071.1.1.04.1.073.13.084.064.116.1a.573.573,0,0,0-.16-.021.716.716,0,0,0-.153.016.888.888,0,0,0-.147.045,1.221,1.221,0,0,0-.152.056.566.566,0,0,0-.135-.034c-.044,0-.081.043-.125.052s-.09,0-.133.013-.091.008-.133.015a.515.515,0,0,1-.131,0c-.042,0-.1,0-.156,0s-.1-.018-.157-.013-.1.016-.155.021-.1.032-.153.037-.1.048-.152.052-.106.008-.156.011-.108,0-.157,0-.106-.031-.153-.033a.624.624,0,0,0-.121-.074c-.041-.016-.088-.03-.137-.044s-.089-.028-.137-.04-.091-.023-.138-.033-.1.021-.148.012-.084-.064-.13-.074-.1.03-.151.02-.082-.068-.127-.08-.1.015-.148,0-.094-.027-.136-.044a.941.941,0,0,1-.126-.067c-.041-.024-.092-.036-.137-.062s-.087-.045-.132-.07-.073-.07-.117-.1l-.128-.077c-.042-.026-.062-.087-.1-.114s-.112-.012-.152-.04-.052-.1-.091-.128-.1-.038-.134-.07-.073-.068-.11-.1-.095-.047-.128-.083-.041-.09-.07-.127-.062-.07-.089-.11-.031-.091-.055-.132-.052-.077-.074-.12-.051-.08-.07-.123-.019-.094-.037-.138-.039-.085-.055-.13-.049-.083-.064-.127-.06-.081-.074-.126-.017-.1-.031-.141-.008-.1-.009-.146.038-.094.041-.143-.035-.1-.03-.146.049-.09.055-.138-.015-.1-.007-.146,0-.1.009-.145.035-.091.045-.138.05-.087.059-.134.021-.094.031-.141-.013-.1,0-.148.016-.095.026-.141.061-.087.07-.133,0-.1.011-.144,0-.1.005-.144.018-.1.018-.144a1.132,1.132,0,0,0,0-.146.906.906,0,0,0-.044-.141c-.015-.045-.059-.079-.083-.121a.679.679,0,0,0-.093-.105.692.692,0,0,0-.1-.1.969.969,0,0,0-.117-.078.6.6,0,0,0-.143-.042c-.052-.015-.1-.058-.144-.056a.532.532,0,0,0-.162.006c-.046.017-.064.1-.106.127a.78.78,0,0,0-.114.095,1.26,1.26,0,0,0-.1.113c-.03.04-.051.085-.078.129s-.1.061-.12.106,0,.113-.023.159-.076.078-.095.126-.031.1-.049.145-.018.1-.032.145-.023.1-.035.141-.073.085-.082.131-.027.1-.034.145.013.1.008.149.014.1.009.148-.06.087-.066.138.027.1.02.15-.006.1-.015.147a1.24,1.24,0,0,0-.027.137c0,.044,0,.091,0,.139s.005.092.006.139,0,.093,0,.139.012.093.015.139-.019.1-.014.142.025.094.031.138.028.094.035.136.011.1.02.136,0,.1.016.148.026.094.045.141.04.089.06.135.073.073.095.118.048.085.071.128.015.1.04.147.046.088.073.129.1.053.128.093.022.105.05.144.049.089.078.127.083.062.113.1.085.055.117.087.058.072.095.1.087.041.121.073.042.09.078.121.083.044.12.073.068.061.108.087a.993.993,0,0,0,.114.08c.041.021.073.069.117.085a1.109,1.109,0,0,0,.138.019c.03.04.085.048.117.081a1.023,1.023,0,0,0,.1.093c.038.031.062.077.1.1s.072.075.116.093a1.074,1.074,0,0,0,.142.035c.046.012.1-.028.149-.021s.088.047.135.049a.786.786,0,0,0,.126.1c.044.026.1.005.156.013s.087.068.149.059a.335.335,0,0,0,.11.063c.039.018.1,0,.139.012s.079.073.121.08a.718.718,0,0,0,.13.009c.044.029.091.04.132.063s.1.032.141.052.089.049.134.065.1.031.142.043.1.012.148.021.1,0,.148.009.092.044.143.051.092.038.143.044.1-.035.155-.027.1,0,.149.015.088.049.135.055.092.034.14.038.1-.041.147-.038.095.005.142.005.1,0,.142,0,.106.04.152.033.076-.052.121-.046.083.034.128.037a.344.344,0,0,0,.131-.017c.04.01.088-.031.145-.033s.1.037.152.03.1,0,.149-.013.09-.056.14-.065.094-.041.142-.05.106.019.155.01.1-.049.143-.055.107.049.153.046.1-.051.145-.053.1.034.148.033.1-.061.144-.063.1.02.146.018.1.021.147.018.095-.044.143-.047.1,0,.145,0,.1.041.15.036.1-.019.144-.025.1,0,.146-.005.1-.02.144-.028.09-.045.138-.056.093-.011.14-.023c.045.026.1.008.145.019s.091.066.14.067a1.288,1.288,0,0,0,.148-.033c.048-.006.092-.045.141-.053l.146-.024c.049-.009.1.024.152.02a.873.873,0,0,1,.145-.006c.048,0,.1-.032.145-.026s.092.034.138.042.091.032.137.041l.139.027c.047.008.1-.007.144,0s.093.015.14.019.094-.021.141-.021.1.059.145.053a1.169,1.169,0,0,0,.137-.049,1.056,1.056,0,0,0,.146-.019.3.3,0,0,1,.155-.044c.056.008.1.054.157.069a.52.52,0,0,0,.177-.022c.047-.006.114.016.182.01s.126-.063.18-.059.113.047.166.031.1-.044.153-.059a.175.175,0,0,1,.141,0,.394.394,0,0,0,.163.019c.052,0,.091-.053.141-.071s.125.02.17-.009.047-.115.087-.148.091-.056.127-.09.106-.05.138-.081" transform="translate(-9.042 -97.779)" fill="#881ea4"/>
    <path id="パス_8" data-name="パス 8" d="M67.512,55.033c.115.352.275.336.642.382.042.136.083.271.124.407a2.125,2.125,0,0,0,.528.181c.081.275.186.313.336.5l.1-.005q.01.207.02.413l.1-.005c.124.112,0,.041.213.093l.145.82.1-.005.01.207.1-.005-.088.314c.025.144.065-.041.109.1l-.026,1.553-.1.005c-.113.466.135.721-.155,1.042-.113.146-.181.167-.4.227A.981.981,0,0,1,68.8,62l-.31.015-.285.532-.207.01.005.1-.409.124.005.1-.31.016.005.1-.311.016.005.1-.207.01.005.1-.725.036-.093.212-.414.021.005.1-.719.139c0-.034,0-.069,0-.1-.155-.012-.6.238-.927.15l-.005-.1-.31.016-.114-.2-.942-.16-.114-.2a1.276,1.276,0,0,0-.636-.278l-.01-.206a2.06,2.06,0,0,1-.989-1.089l-.207.01-.156-1.027-.321-.191c-.115-.228.082-.406.078-.521l-.005-.1-.1.005q.025-.519.052-1.037l.1-.005-.026-.515.3-.222-.016-.31c.021-.044.151-.076.2-.217l-.109-.1.1-.005a1.2,1.2,0,0,0,.284-.531l.207-.01c.156-.266.356-.255.6-.444l.191-.32.207-.01.094-.212.7-.552-.016-.31.207-.01c.21-.535.192-.276.6-.547,0-.034,0-.069,0-.1.136-.1.177-.087.409-.124.31.237.915-.094,1.351.036,0,.034,0,.069,0,.1l.207-.01.005.1.31-.016.005.1.414-.021.114.2.414-.02.005.1a1.264,1.264,0,0,0,.533.284m-3.618,2.353.207-.01-.005-.1.311-.016.093-.212.207-.01-.005-.1.414-.021-.005-.1c.454-.165.723.062,1.025-.258l.725-.036.005.1.212.093.01.206.864.681.016.309.1,0,.031.619-.1.005.01.206-.1.005c-.124.428.083.769-.15,1.145l-.1.005-.093.212-.207.01-.191.32-.207.01-.388.537-.311.015.005.1-.207.01.005.1-.513.129.005.1c-.4.169-.844-.007-1.128.263l-1.449.072-.005-.1-.429-.289-.119-.3-.207.01.073-.625-.1.005-.134-.614.1-.005q.036-.312.073-.624c.1-.276.252-.3.274-.738.277-.092.234-.036.295-.325l.207-.01.083-.418c.518-.058.506-.173.812-.351" transform="translate(-25.158 -22.687)" fill="#fff" fill-rule="evenodd"/>
    <path id="パス_9" data-name="パス 9" d="M99.964,55.033c.115.352.275.336.642.382.042.136.083.271.124.407a2.125,2.125,0,0,0,.528.181c.081.275.186.313.336.5l.1-.005.02.413.1-.005c.124.112,0,.041.213.093l.145.82.1-.005.01.207.1-.005-.088.314c.025.144.065-.041.109.1l-.026,1.553-.1.005c-.113.466.135.721-.155,1.042-.113.146-.181.167-.4.227a.981.981,0,0,1-.481.749l-.31.015-.285.532-.207.01.005.1-.409.124.005.1-.31.016.005.1-.311.016.005.1-.207.01.005.1-.725.036-.093.212L98,63.512l.005.1-.719.139c0-.034,0-.069,0-.1-.155-.012-.6.238-.927.15l-.005-.1-.31.016-.114-.2-.942-.16-.114-.2a1.276,1.276,0,0,0-.636-.278l-.01-.206a2.06,2.06,0,0,1-.989-1.089l-.207.01-.156-1.027-.321-.191c-.115-.228.082-.406.078-.521l-.005-.1-.1.005q.025-.519.052-1.037l.1-.005-.026-.515.3-.222-.016-.31c.021-.044.151-.076.2-.217l-.109-.1.1-.005a1.2,1.2,0,0,0,.284-.531l.207-.01c.156-.266.356-.255.6-.444l.191-.32.207-.01.094-.212.7-.552-.016-.31.207-.01c.21-.535.192-.276.6-.547,0-.034,0-.069,0-.1.136-.1.177-.087.409-.124.31.237.915-.094,1.351.036,0,.034,0,.069,0,.1l.207-.01.005.1.31-.016.005.1.414-.021.114.2.414-.02.005.1a1.264,1.264,0,0,0,.533.284m-3.618,2.353.207-.01-.005-.1.311-.016.093-.212.207-.01-.005-.1.414-.021-.005-.1c.454-.165.723.062,1.025-.258l.725-.036.005.1.212.093.01.206.864.681.016.309.1,0,.031.619-.1.005.01.206-.1.005c-.124.428.083.769-.15,1.145l-.1.005-.093.212-.207.01-.191.32-.207.01-.388.537-.311.015.005.1-.207.01.005.1L98,61.339l.005.1c-.4.169-.844-.007-1.128.263l-1.449.072-.005-.1-.429-.289-.119-.3-.207.01.073-.625-.1.005-.134-.614.1-.005q.036-.312.073-.624c.1-.276.252-.3.274-.738.277-.092.234-.036.295-.325l.207-.01.083-.418c.518-.058.506-.173.812-.351" transform="translate(-38.75 -22.687)" fill="#fff" fill-rule="evenodd"/>
    <path id="パス_10" data-name="パス 10" d="M78.124,74.933l.15-.026c.009.05.017.1.026.15l.15-.026c0,.025.009.049.013.074.106.016-.028-.037.062-.087l.225-.038.112-.25c.143-.1.225.028.313.024,0-.025-.008-.05-.013-.075l.151-.026c0-.025-.009-.05-.013-.075l.3-.051c0-.025-.009-.05-.013-.075l.375-.064c0-.025-.009-.05-.013-.075a1.473,1.473,0,0,1,.887-.228c0,.025.008.05.013.075l.962-.241c0,.025.009.05.013.075l.388.011.1.137.15-.026c0,.025.009.05.013.075l.225-.038.1.137.15-.026c0,.025.008.05.013.074l.15-.025.1.137c.194.095.122-.1.263.186l.238.037.152.436.163.049c.008.05.017.1.026.15l.075-.013c.013.074.026.149.038.224l.163.049c0,.128-.008.257-.012.386l.075-.013a5.344,5.344,0,0,1-.085.861l-.137.1.038.224-.138.1c.009.05.017.1.026.149l-.075.013.064.374-.2.188c-.106.292.167.31-.224.5a.527.527,0,0,1-.024.312l-.075.013L83.6,79l-.138.1c.022.124.042.249.064.374l-.075.013c0,.025.008.05.013.075l-1,.016c-.066-.083-.138-.084-.176-.124-.009-.05-.017-.1-.026-.149l-.163-.049c-.009-.05-.017-.1-.026-.149L82,79.122c0-.024-.009-.049-.013-.074l-.15.026c-.1-.062-.079-.141-.126-.287.071-.1.03-.005.049-.163l-.238-.036c0-.025-.009-.05-.013-.075.08-.058.1-.151.124-.175l.226-.038c0-.025-.009-.05-.013-.075l-.075.013-.038-.224c.435-.176.238-.392.674-.577l.024-.312.075-.013-.038-.224.262-.275c0-.178-.01-.357-.015-.536l.075-.013c-.008-.05-.017-.1-.025-.15l.075-.013c.053-.124.028-.194.011-.386-.284-.011-.533-.138-.8-.172l-1.2.2-.037.237a2.061,2.061,0,0,0-.937.39l-.225.038-.049.162-.213.113c0,.025.009.05.013.075l-.225.038-.049.163-.15.026-.087.4-.15.026c0,.129-.008.258-.012.386l-.15.026c-.03.342-.288.454-.323.825l-.15.026a1.033,1.033,0,0,1-.211.575l-.138.1c.009.05.017.1.026.15-.107.217-.263.173-.3.513l-.287.126c0,.025.009.05.013.075a1.5,1.5,0,0,1-.876-.159L76.3,79.63l-.075.013c-.162-.128-.165-.023-.276-.261.045-.1-.078-.355-.027-.611L76,78.758c-.009-.05-.017-.1-.026-.15l.075-.013c.042-.217-.087-.363-.014-.536l.262-.275-.038-.224.262-.275-.012-.075.15-.026.236-.425.076-.013-.038-.224c.055-.115.188-.035.287-.126.163-.148.167-.542.173-.8a6.459,6.459,0,0,0-.9-.308l-.375.063c0,.025.009.05.013.075l-.75.127c0,.025.009.05.013.075a1.758,1.758,0,0,1-.725.277c.009.05.017.1.026.149-.514.194-.744.618-1.173.815l-.037.237-.225.038c.009.05.017.1.026.15L73,77.5l-.174.337-.15.026c0,.025.008.05.013.075l-.2.188-.112.25-.15.026c.008.05.017.1.026.15l-.138.1-.037.237L71.869,79c.008.05.017.1.025.149l-.137.1.026.149-.262.275.089.524c-.038.228-.209.386-.286.588-.6-.113-1.13-.234-1.254-1.018l.075-.013q-.02-.343-.04-.686l.15-.025.024-.312.15-.026c.033-.1.105-.129.125-.175-.009-.05-.017-.1-.026-.15l.075-.013-.026-.149.137-.1-.038-.224.212-.113c0-.025-.009-.05-.013-.075l.137-.1c-.008-.05-.017-.1-.025-.149a4.533,4.533,0,0,1,.4-.376c-.012-.074-.025-.149-.038-.224l.15-.026c.077-.2.2-.248.224-.5a.68.68,0,0,0,.274-.2c0-.025-.008-.05-.013-.075l.3-.051.112-.25.225-.038.05-.163.15-.025c.016-.055.033-.109.049-.163l.15-.026.05-.162.287-.126.112-.25.588-.177c0-.025-.008-.05-.013-.075l.425-.226c0-.025-.009-.049-.013-.074l.375-.064c0-.025-.009-.05-.013-.075a2.067,2.067,0,0,1,1.151-.042l.45-.076c0,.025.009.049.013.074l.225-.038c0,.024.008.049.013.074l.225-.038.1.137.15-.026.188.2.225-.038c0,.025.009.05.013.075a1.074,1.074,0,0,1,.552.522" transform="translate(-29.348 -30.961)" fill="#fff" fill-rule="evenodd"/>
  </g>
</svg>
