<svg id="グループ_168" data-name="グループ 168" xmlns="http://www.w3.org/2000/svg" xmlns:xlink="http://www.w3.org/1999/xlink" width="497.35" height="91.436" viewBox="0 0 497.35 91.436">
  <defs>
    <clipPath id="clip-path">
      <rect id="長方形_89" data-name="長方形 89" width="497.35" height="91.436" transform="translate(0 0)" fill="none"/>
    </clipPath>
  </defs>
  <g id="グループ_167" data-name="グループ 167" clip-path="url(#clip-path)">
    <path id="パス_328" data-name="パス 328" d="M2.048,70.69C7.9,67.36,13.623,63.782,19.309,60.121c2.916-1.892,5.893-3.866,8.748-5.879a2.182,2.182,0,0,1,.475-.286c.62-.3.966.192,1.333.628a27.343,27.343,0,0,1,1.81,2.853c.446.908-.462,1.251-1.392,1.759a22.472,22.472,0,0,0-6.431,4.23,13.926,13.926,0,0,0-4.044,9.62,17.216,17.216,0,0,0,1.584,8.243c2.35,4.792,6.015,4.428,10.187,2.381.744-.365,1.633-.851,2.046-1.054.619-.3.97-.425,1.294.236a11,11,0,0,1,1.06,4.041c-.087.555-.541.777-.995,1-7.022,3.445-14.147,4.173-18.1-3.881a20.44,20.44,0,0,1-1.272-14.084c.105-.307.379-1.108.258-1.356a.653.653,0,0,0-.863-.192c-.331.163-2.047,1.364-2.461,1.669a92.1,92.1,0,0,0-8.3,6.171,3.419,3.419,0,0,1-.579.387c-.992.486-3.288-3.255-3.491-3.668-.527-1.074.112-1.233,1.869-2.249"/>
    <path id="パス_329" data-name="パス 329" d="M46.277,55.023c4.345-3.784,8.839-8.072,14.234-10.193a12.221,12.221,0,0,1,9.679-.147,11.869,11.869,0,0,1,5.858,6.348c2.928,7.451-1.591,14.566-7.086,19.2a33.3,33.3,0,0,1-6.031,4.149c-.727.286-1.212-.066-1.79-.531a9.4,9.4,0,0,1-2.113-2.482c-.3-.77.578-1.167,1.161-1.445,5.792-2.87,13.882-9.708,10.986-17.072-1.48-3.768-5.251-4.807-8.8-3.41-5.994,2.356-11.385,8.134-15.548,12.884a3,3,0,0,1-1.023.8c-1.283.505-4.422-1.821-4.893-3.019-.219-.557.2-.87,1.711-2.058.868-.686,2.027-1.637,3.659-3.019M73.94,40.392a3.66,3.66,0,0,1-1.264,2.82c-.256.1-.545-.132-.8-.278-1.423-.727-2.888-1.436-4.423-2.069a.9.9,0,0,1-.6-.405,4.222,4.222,0,0,1,1.306-2.589c.47-.185,5.583,2.007,5.784,2.521m2.7-4.82a3.714,3.714,0,0,1-1.221,2.8c-.257.1-.708-.167-1.321-.47-1.3-.674-2.6-1.2-3.971-1.8-.238-.1-.477-.208-.561-.422-.2-.514.86-2.464,1.287-2.633.472-.185,5.567,1.964,5.787,2.521"/>
    <path id="パス_330" data-name="パス 330" d="M104.173,28.427c.134.44-.495.584-.8.678a2.06,2.06,0,0,0-1.027.89q-1.287,1.692-2.533,3.515c-1.846,2.775-3.736,5.564-5.352,8.462-.6,1.047-1.294,2.223-1.038,3.059.335,1.1,2.27,2.24,3.26,2.8,3.326,1.918,6.806,3.549,10.272,5.136.949.432,4.737,1.969,5,2.849.322,1.055-1.6,4.381-2.652,4.7-.484.148-1.341-.456-1.713-.728-2.275-1.469-4.687-2.753-7.055-4.05-3.1-1.65-6.245-3.287-9.179-5.18-1.662-1.033-2.931-2.039-3.535-4.019a5.223,5.223,0,0,1,.041-3.331,44.732,44.732,0,0,1,4.1-6.879,62.811,62.811,0,0,0,5.85-10.3c.108-.274.234-.649.5-.73.571-.174,2.3.932,2.935,1.268.517.275,2.774,1.366,2.921,1.85"/>
    <path id="パス_331" data-name="パス 331" d="M127.413,21.65c.062.269-.2.565-.4.706a2.11,2.11,0,0,0-.645,1.093,18.265,18.265,0,0,0-.433,4.065,24.256,24.256,0,0,0,.575,5.156c.082.358.482,2.3.975,2.183.358-.083.462-.862.538-1.352.111-.545.473-2.658,1.011-2.782.4-.093,1.935.4,2.069.987.031.134-.28,1.858-.436,3.027l-.155,1.169a18.1,18.1,0,0,0-.2,5.9c.145.628.349,1.1.421,1.414.289,1.256-1.963,2.341-2.815,2.538-.986.227-1.486-.507-1.951-1.3a38.21,38.21,0,0,1-3.887-10.1,43.273,43.273,0,0,1-1.086-9.428c.011-1.183.077-2.331,0-3.493-.028-.324-.08-1.162.324-1.255.135-.031,2.293.321,2.638.384,1.089.22,3.348.6,3.461,1.091m13.268-7.165c.852-.2,1.065.321,1.4.952a60.948,60.948,0,0,1,4.365,12.591c1.787,7.755,2.006,14.645-2.321,21.686-.552.881-1.977,3.1-3.008,3.335-.717.166-3.824-1.431-4.04-2.373-.083-.358.258-.72.5-.917a17.493,17.493,0,0,0,4.486-8.4,27.183,27.183,0,0,0-.541-11.772,44.682,44.682,0,0,0-4.452-12.147,2.686,2.686,0,0,1-.223-.562c-.228-.986,3.345-2.282,3.838-2.395"/>
    <path id="パス_332" data-name="パス 332" d="M167.574,35.893c-1.135.188-1.4,0-1.633-1.128l-2.225-11.428c-.543-2.708-1.87-8.736-2.021-9.643-.129-.772.113-1,1.112-1.164L165.984,12c1-.166,1.3-.03,1.428.741.151.908.844,7.042,1.25,10.052l1.59,11.254c.143,1.142-.046,1.406-1.181,1.6Zm5.192,5.992a3.389,3.389,0,0,1-2.959,4.082,2.985,2.985,0,0,1-3.629-2.475,3.441,3.441,0,0,1,2.891-4.211,3.081,3.081,0,0,1,3.7,2.6"/>
    <path id="パス_333" data-name="パス 333" d="M196.5,13.6c.367-.031.723-.2.684-.658a.654.654,0,0,0-.173-.4c-.823-.992-1.714-2.256-3.089-2.14l-.55.046c-.825.07-1.283.108-1.649-.415a6.18,6.18,0,0,1-.947-2.459c-.081-.962.843-.948,1.531-1.006l2.521-.212c6.83-.576,18.552-2.255,24.742-4.946a2.981,2.981,0,0,1,.676-.2c.458-.039.913.43,1.808,1.186l.546.461c.4.336,1.485,1.168,1.526,1.672a.451.451,0,0,1-.42.5,1.961,1.961,0,0,1-.557-.045,2.443,2.443,0,0,0-.795-.118,21.1,21.1,0,0,0-2.562.816c-.179.062-.31.165-.295.348a.366.366,0,0,0,.261.348c.286.114.519.141.71.217,1.276.354,1.555.376,1.587.743.026.321-.2.386-.47.455-.451.13-.584.188-.741.524-.351.769-.618,1.437-1.009,2.255a.886.886,0,0,0-.1.47c.039.458.417.565.829.53,1.655-.093,3.3-.324,4.947-.462,1.237-.1,2.453.07,2.58,1.583.058.687.028,1.428.086,2.116l.123,1.467c.054.641.2,1.275.254,1.917.1,1.146-.645,1.116-2.34,1.259-1.6.135-2.514.3-2.606-.8-.054-.642.025-1.341-.029-1.983l-.027-.321c-.073-.87-.471-1.206-1.388-1.129l-10.221.861c-.367.03-.677.195-.641.608.015.183.115.267.171.4a9.212,9.212,0,0,1,1.737,2.532c.074.871-1.817,2-2.55,2.061a.912.912,0,0,1-.866-.435,25.437,25.437,0,0,0-2.017-2.554,1.039,1.039,0,0,1-.329-.618c-.039-.459.477-.917.778-1.174a.329.329,0,0,0,.115-.286c-.015-.184-.157-.218-.34-.2L195.582,17.46c-.916.077-1.252.475-1.179,1.346l.028.321c.054.641.2,1.321.253,1.917.1,1.146-.736,1.124-2.386,1.263-1.7.142-2.468.3-2.564-.846-.046-.55.025-1.341-.024-1.937l-.124-1.467c-.057-.687-.212-1.413-.27-2.1-.134-1.6,1.133-1.9,2.417-2,1.558-.132,3.076-.213,4.633-.345Zm13.859,12.728a.327.327,0,0,0-.264.16.935.935,0,0,1-.717.246c-.318.072-.653.47-1.073.967l-.252.3a.519.519,0,0,0-.106.378.484.484,0,0,0,.588.412l6.6-.555c1.191-.1,2.38-.247,3.525-.344a2.322,2.322,0,0,1,2.6,1.767c.138,1.65-4.254,5.39-5.511,6.372a.58.58,0,0,0-.233.528.455.455,0,0,0,.452.424,61.928,61.928,0,0,0,13.389.58c.6-.05,1.024.1,1.082.786.05.6-.367,3.308-1.879,3.435-1.147.1-4.291.039-5.59-.037A39.041,39.041,0,0,1,211.6,39.931a3.24,3.24,0,0,0-1.17-.179,2.7,2.7,0,0,0-.989.314,49.042,49.042,0,0,1-12.969,4.417,22.712,22.712,0,0,1-2.46.391c-1.787.15-2.573-2.6-2.6-2.874-.057-.687.68-.7,2-.907a47.937,47.937,0,0,0,11.745-3.067c.263-.161.48-.317.454-.638a.7.7,0,0,0-.368-.523c-.932-.66-1.67-1.2-2.515-1.912a1.532,1.532,0,0,0-1.05-.419,1.763,1.763,0,0,0-.8.345c-.864.718-5.135,3.709-6.007,3.783-.824.07-2.9-1.6-2.974-2.427-.046-.55.573-.879,1.413-1.319a34.3,34.3,0,0,0,9.211-7.377.5.5,0,0,0,.149-.429.836.836,0,0,0-.513-.6,2.187,2.187,0,0,1-1.029-1.805c-.05-.6-.054-1.2-.1-1.746L200.9,21.4c-.012-.138-.107-.176-.245-.165a2.263,2.263,0,0,1-.4.127c-.358.123-.347.26-1.128,1.941a28.818,28.818,0,0,1-2.263,3.838c-.206.294-.411.589-.824.623-.733.062-2.954-1.09-3.027-1.961a1.481,1.481,0,0,1,.472-.963,18.118,18.118,0,0,0,2.846-5.133c.118-.241.24-.435.515-.458a15.189,15.189,0,0,1,3.034.944.882.882,0,0,0,.326.019c.411-.035.526-.321.495-.688-.019-.229-.169-.909-.184-1.092-.035-.413.236-.482.6-.513.6-.05,2.9-.1,3.594-.072.458-.038,1.238-.1,1.284.446.02.229-.152.382-.324.535-.468.455-.6.6-.487,1.887l.116,1.376c.112,1.329.837,1.176,2.12,1.067l5.134-.432c1.971-.166,2.132-.456,2.511-2.519.058-.421.177-.661.634-.7.6-.05,2.98.3,3.069,1.357a10.412,10.412,0,0,1-.692,3.29c-.651,1.578-2.3,1.717-3.815,1.845ZM206.13,12.786c.412-.034.767-.2.729-.661a.788.788,0,0,0-.175-.447c-.518-.649-1.038-1.344-1.646-1.985a1.152,1.152,0,0,0-.967-.519l-2.739.37c-.358.122-.626.237-.591.649a.816.816,0,0,0,.223.443c.255.3,1.119,1.244,1.151,1.611.011.138-.031.188-.016.371.035.412.365.477.686.45Zm4.191,22.359a1.965,1.965,0,0,0,.985-.36c.565-.417,3-2.237,2.943-2.879-.043-.5-.634-.408-2.009-.292l-5.638.474c-.276.024-.543.139-.512.5.012.138.111.222.214.351a25.44,25.44,0,0,0,2.982,1.965,2.008,2.008,0,0,0,1.035.236m5.235-28.277c-1.669.464-3.35.79-5.026,1.162-.363.077-.622.284-.592.65a.974.974,0,0,0,.226.489,8.006,8.006,0,0,1,1.568,2.176c0,.046-.026.233-.015.37.035.413.322.527.693.542l.641-.054a1.791,1.791,0,0,0,1.8-1.12,31.371,31.371,0,0,0,1.471-3.356.782.782,0,0,0,.019-.325.555.555,0,0,0-.646-.545Zm7.878,18.448c-.5.042-.71-.217-.975-.61a39.854,39.854,0,0,0-3.794-5.036,1.573,1.573,0,0,1-.481-.79c-.074-.871,1.583-2.026,2.408-2.095s1.915,1.362,3.15,2.873c.467.607,2.226,2.86,2.28,3.5.085,1.009-1.763,2.088-2.588,2.157"/>
    <path id="パス_334" data-name="パス 334" d="M240.683,8.644c.872.152,1.7.258,1.688.855,0,.23-.236.41-.422.545a1,1,0,0,0-.66.956c-.361,2.386-.526,4.085-1.072,6.514-.8,3.76-1.172,4.214-1.954,4.2s-2.383-.591-2.368-1.511a1.981,1.981,0,0,1,.1-.55,42.061,42.061,0,0,0,1.882-8.25c.057-.643.065-1.149.118-1.562.064-1.149.117-1.562.761-1.552a14.241,14.241,0,0,1,1.926.354m2.064-2.451c.036-2.162-.009-5.106,0-5.382.011-.69.381-.822,1.071-.811.736.012,2.757.229,3.537.334.413.052,1.194.111,1.184.709-.006.368-.377.592-.657.818-.512.405-.572,1.186-.593,2.52l-.478,29.387c-.033,2.07.025,4.141-.009,6.21-.02,1.242-.667,1.462-2.369,1.434-1.886-.03-2.339-.452-2.319-1.648.032-2.023.157-4.045.19-6.069Zm18.067-2.1c.874.014,1.247-.3,1.307-1.175l-.114-1.428a.785.785,0,0,1-.041-.323c.009-.6.379-.683.839-.676.552.009,3.813.292,4.364.393.321.051.78.1.773.518-.006.369-.377.546-.609.681a1.012,1.012,0,0,0-.567.91c-.06.92.349,1.2,1.223,1.217l3.265.052c1.517.025,2.99,0,4.508.028,1.011.016.96.383.938,1.717s-.028,1.748-.948,1.733c-1.518-.025-3.034-.142-4.552-.166l-3.679-.06c-.644-.01-.878.216-.888.86l-.006.367c-.01.6.216.878.813.888l2.392.039c1.517.025,3.083-.042,4.646-.017.966.016.914.383.895,1.579s.02,1.564-.991,1.548c-1.564-.026-3.08-.142-4.6-.167l-2.346-.038c-.643-.011-.878.262-.887.859l-.008.506c-.011.644.216.878.813.888l4.185.068c1.7.028,3.359-.038,5.06-.01,1.012.017.96.384.938,1.763-.022,1.334.018,1.7-.993,1.686-1.7-.028-3.357-.146-5.058-.174l-14.119-.23c-1.7-.028-3.358.038-5.06.01-1.058-.017-1.006-.384-.979-2.086.009-.506-.265-.648-.725-.656-.967.077-1-.43-1.177-1.169a42.057,42.057,0,0,0-1.479-5.222,2.277,2.277,0,0,1-.218-.74c.013-.782,1.722-1.214,2.136-1.207.782.013,1,.8,1.7,2.834a33.414,33.414,0,0,1,1.222,4.022c.169.969.308.879,4.632.949l3.632.059c.644.011.878-.216.888-.86l.008-.46c.011-.643-.215-.923-.859-.933l-1.839-.03c-1.518-.025-3.037.043-4.6.017-1.012-.016-.96-.384-.94-1.579.02-1.242-.021-1.565.991-1.548,1.563.025,3.08.142,4.6.166l1.838.03c.645.011.879-.261.889-.859l.006-.368c.011-.644-.216-.878-.859-.888l-3.312-.054c-1.517-.025-3.037.043-4.509.019-.966-.016-.959-.43-.937-1.764s-.018-1.7.993-1.686c1.518.025,2.989.095,4.507.12Zm8.191,31c.014-.92-.347-1.294-1.221-1.308l-7.635-.124c-.92-.015-1.293.347-1.308,1.267-.073,1.609.039,3.267.012,4.922s-.442,1.7-2.328,1.664c-1.839-.029-2.437-.039-2.412-1.556.031-1.932.2-3.862.232-5.747l.128-7.956c.021-1.288-.05-2.531-.029-3.819.029-1.794.453-2.431,2.293-2.4,1.15.019,2.3.084,3.448.1l8,.13c1.151.019,2.3-.008,3.451.01,1.839.03,2.29.636,2.26,2.429-.02,1.288-.133,2.528-.154,3.816l-.117,7.22c-.018,1.1.056,2.209.037,3.359-.065,4-1.409,4.669-6.377,4.589-2.345-.038-3.261-.329-3.218-2.951.015-.874.116-1.516.853-1.5.689.011,1.332.114,1.975.124,1.932.032,2.072-.058,2.1-1.714Zm-10.078-5.408a.833.833,0,0,0,.858.934l8.416.137a.834.834,0,0,0,.889-.9l.005-.277a.8.8,0,0,0-.86-.887l-8.417-.137a.8.8,0,0,0-.888.859Zm9.357-4.034a.834.834,0,0,0,.889-.905l0-.23a.8.8,0,0,0-.86-.888l-8.416-.137a.8.8,0,0,0-.888.859l0,.23a.833.833,0,0,0,.858.934Z"/>
    <path id="パス_335" data-name="パス 335" d="M297.32,37.178a3.39,3.39,0,0,1-3.845,3.262,2.984,2.984,0,0,1-2.936-3.266,3.44,3.44,0,0,1,3.809-3.4,3.08,3.08,0,0,1,2.972,3.407M293.7,30.124c-1.146-.086-1.358-.333-1.318-1.483l.555-11.629c.117-2.759.259-8.93.328-9.847.06-.78.349-.942,1.358-.866l3.211.242c1.009.076,1.27.281,1.211,1.06-.07.918-.855,7.04-1.175,10.06L296.74,28.97c-.132,1.143-.379,1.355-1.525,1.268Z"/>
    <path id="パス_336" data-name="パス 336" d="M322.579,35.253c-.314,2.046-.8,5.834-.851,6.152-.146.955-.447,1.1-1.493.935l-2.637-.4c-1.045-.161-1.29-.384-1.144-1.339.049-.319.718-4.079,1.032-6.125l1.346-8.776c.313-2.047.8-5.835.851-6.152.146-.956.447-1.1,1.493-.935l2.227.341c1.046.161,1.2.37,1.085,1.424-.045.6,0,.884.232.919a1.405,1.405,0,0,0,.73-.213,9.907,9.907,0,0,1,6.362-1.119,7.3,7.3,0,0,1,5.121,3.019c.34.518.533.78.8.822.228.034.484-.112.993-.406a11.341,11.341,0,0,1,7.177-1.273c4.5.69,7.028,4.242,6.255,9.289L350.907,39.6c-.313,2.047-.8,5.835-.85,6.153-.147.954-.448,1.1-1.493.935l-2.637-.406c-1.046-.16-1.291-.383-1.145-1.338.049-.319.719-4.079,1.032-6.125l1.039-6.775c.426-2.774-.607-4.84-3.426-5.273a6.568,6.568,0,0,0-4.225.842,1.735,1.735,0,0,0-1.136,1.641l-1.255,8.185c-.313,2.046-.8,5.834-.85,6.152-.147.955-.447,1.095-1.493.935l-2.637-.4c-1.046-.16-1.291-.384-1.145-1.339.049-.318.719-4.078,1.033-6.125l1.039-6.775c.425-2.773-.608-4.84-3.427-5.272a6.684,6.684,0,0,0-4.218.8A2.213,2.213,0,0,0,323.8,27.3Z"/>
    <path id="パス_337" data-name="パス 337" d="M381.38,41.327c-1.69,7.542-7.548,11.179-14.642,9.591-6.374-1.428-10.112-6.839-8.574-13.707,1.619-7.227,7.21-11.35,14.662-9.681,6.329,1.418,10.093,6.928,8.554,13.8m-18.019-2.9c-.925,4.13.986,7.387,4.487,8.171,3.861.865,7.228-1.54,8.234-6.029.945-4.22-1.066-7.451-4.567-8.236-4.219-.945-7.188,1.784-8.154,6.094"/>
    <path id="パス_338" data-name="パス 338" d="M394.106,59.591c-1.123,1.453-2.258,2.95-3.638,4.81-.7.951-.966,1.066-2.119.744l-2.79-.781c-.709-.2-.95-.361-.85-.715a1.706,1.706,0,0,1,.431-.691c1.639-1.93,2.875-3.447,3.822-4.615l.891-1.136a2.438,2.438,0,0,0,.694-2.48l-1.912-15.532c-.3-2.185-.522-4.11-.909-6.655a2.348,2.348,0,0,1-.011-.815c.1-.354.434-.356,1.143-.157l3.057.855c1.151.321,1.323.561,1.424,1.735.178,2.438.334,4.44.536,6.454l.9,9.087c.054.493.112.8.289.845.133.037.372-.135.686-.572l5.469-7.258c1.217-1.618,2.389-3.248,3.819-5.285.7-.951.967-1.067,2.118-.744l2.791.78c.709.2.994.374.894.728a2.272,2.272,0,0,1-.431.691c-1.72,2.051-2.982,3.656-4.173,5.186Z"/>
    <path id="パス_339" data-name="パス 339" d="M416.759,56.608c-.687,1.952-1.87,5.583-1.978,5.887-.32.911-.642.993-1.639.641l-2.517-.886c-1-.353-1.2-.618-.876-1.529.108-.3,1.463-3.874,2.152-5.826l2.951-8.372c.687-1.952,1.87-5.583,1.976-5.887.322-.911.643-.993,1.641-.641l2.126.749c1,.351,1.109.587.8,1.6-.156.579-.16.87.056.947a1.4,1.4,0,0,0,.758-.075,9.909,9.909,0,0,1,6.457.082,7.3,7.3,0,0,1,4.472,3.917c.238.572.378.865.639.956.216.077.495-.02,1.05-.214a11.342,11.342,0,0,1,7.287.081c4.3,1.513,6.119,5.472,4.421,10.288l-2.752,7.808c-.688,1.953-1.87,5.583-1.977,5.887-.321.911-.643.993-1.64.641l-2.516-.887c-1-.352-1.2-.616-.876-1.527.107-.3,1.462-3.874,2.151-5.827l2.278-6.463c.933-2.646.3-4.869-2.388-5.816a6.561,6.561,0,0,0-4.307.042,1.733,1.733,0,0,0-1.421,1.4l-2.752,7.808c-.687,1.952-1.87,5.584-1.977,5.888-.321.91-.643.992-1.64.64l-2.517-.886c-1-.352-1.2-.617-.875-1.529.107-.3,1.462-3.873,2.151-5.825l2.278-6.464c.933-2.646.3-4.868-2.389-5.816a6.691,6.691,0,0,0-4.291,0,2.211,2.211,0,0,0-1.642,1.616Z"/>
    <path id="パス_340" data-name="パス 340" d="M473.429,73.526c-3.063,7.1-9.5,9.58-16.171,6.7-6-2.59-8.663-8.6-5.873-15.063,2.936-6.8,9.195-9.81,16.207-6.782,5.955,2.57,8.627,8.684,5.837,15.146m-17.163-6.207c-1.678,3.886-.406,7.441,2.888,8.863,3.633,1.569,7.388-.167,9.212-4.39,1.713-3.971.339-7.52-2.954-8.943-3.971-1.714-7.4.415-9.146,4.47"/>
    <path id="パス_341" data-name="パス 341" d="M484.589,89.4a3.39,3.39,0,0,1-4.782,1.6,2.987,2.987,0,0,1-1.513-4.125,3.442,3.442,0,0,1,4.8-1.744,3.082,3.082,0,0,1,1.493,4.269m-.739-7.9c-1.032-.506-1.138-.814-.673-1.867l4.838-10.592c1.134-2.52,3.56-8.2,3.965-9.022.345-.7.674-.746,1.582-.3l2.892,1.419c.908.445,1.075.732.73,1.434-.4.826-3.409,6.219-4.829,8.906L487.1,81.567c-.548,1.012-.856,1.118-1.889.611Z"/>
  </g>
</svg>
