<svg xmlns="http://www.w3.org/2000/svg" xmlns:xlink="http://www.w3.org/1999/xlink" width="162" height="103.202" viewBox="0 0 162 103.202">
  <defs>
    <clipPath id="clip-path">
      <rect id="長方形_91" data-name="長方形 91" width="162" height="103.201" fill="none"/>
    </clipPath>
  </defs>
  <g id="グループ_172" data-name="グループ 172" transform="translate(0 0)">
    <g id="グループ_171" data-name="グループ 171" transform="translate(0 0)" clip-path="url(#clip-path)">
      <path id="パス_348" data-name="パス 348" d="M145.869,11.244c-6.009-.235-12.021,10.291-12.021,10.291s-1.23-3.911-3.067-8.533S120.731.311,112.928,2.367s-8.5,4.733-11.96,16.505c-2.2-8.45-8.025-20.9-19.484-18.592C71.143,2.357,70.519,19.811,70.519,19.811S66.441,7.683,63.731,4.653C61.857,2.555,57.867-1.207,48.7.779S42.172,20.539,43.194,25.03s-1,9.824-3.316,11.752a3.283,3.283,0,0,1-4,.147c-2.147-1.289-4.745-4.672-5.913-10.475-1.88-9.349-8.75-11.3-14.208-11.7C5.492,14.019-1.938,25.137.448,39.123c.157.925.477,2.783.477,2.783C2.765,51.6,3.346,52.274,5.559,56.791,10.617,67.125,19.772,78.561,27.1,83.415c4.616,3.06,11.569,6.544,21.686,9.866,5.2,1.785,11.912,3.665,21.16,5.9,25.318,6.112,48.166,5.733,64.877-4.462,13.361-8.152,19.422-21.251,23.058-32.124,1.292-3.863,4.148-17.787,4.124-26.178-.023-7.6-2.833-17.208-5.983-20.867s-4.139-4.071-10.148-4.3" transform="translate(0 0.001)" fill="#881ea4" fill-rule="evenodd"/>
      <path id="パス_349" data-name="パス 349" d="M58.035,37.121a.769.769,0,0,0-.242-.377.785.785,0,0,0-.242-.373v0a.818.818,0,0,0-.207-.356.9.9,0,0,0-.246-.261l-.025-.057a.9.9,0,0,0-.521-.48c-.018-.016-.038-.03-.057-.044a.891.891,0,0,0-.507-.433.925.925,0,0,0-.353-.282.716.716,0,0,0-.571-.263c-.048-.007-.186-.041-.331-.081a.887.887,0,0,0-.772-.392,1.7,1.7,0,0,1-.7-.2,5.011,5.011,0,0,0-.591-.225.876.876,0,0,0-.333-.034l-.14.013a.9.9,0,0,0-.69-.1l-.072.02a.772.772,0,0,0-.149-.01.914.914,0,0,0-.261.044.991.991,0,0,0-.278.069,1.018,1.018,0,0,0-.371.024,1.044,1.044,0,0,0-.133.048,1.112,1.112,0,0,0-.456.129.592.592,0,0,0-.067.04l-.486.085a.815.815,0,0,0-.133.037.876.876,0,0,0-.279,0l-.7.108a.88.88,0,0,0-.538.337c-.02.014-.04.03-.061.048a.909.909,0,0,0-.511.72l-.01.093c-.071.047-.143.1-.225.167a.9.9,0,0,0-.528.5c-.028.037-.057.075-.082.113l-.483.278a.873.873,0,0,0-.409.506,1.067,1.067,0,0,0-.2.292,1.741,1.741,0,0,0-.479.65.9.9,0,0,0-.419.595.885.885,0,0,0-.076.207.959.959,0,0,0-.021.1.932.932,0,0,0-.075.139.9.9,0,0,0-.244.817l0,.031a.91.91,0,0,0-.085.433l.006.089a.869.869,0,0,0-.074.545.9.9,0,0,0-.016.517.921.921,0,0,0,0,.272l.252,1.533a.755.755,0,0,0,.059.187,1.265,1.265,0,0,0,.181.606.685.685,0,0,0,.092.119l.024.042.044.3a.914.914,0,0,0,.346.517v0a.762.762,0,0,0,.18.326,1.373,1.373,0,0,0,.418.4l.122.187a.878.878,0,0,0,.289.279,1.042,1.042,0,0,0,.433.306,1.419,1.419,0,0,0,.283.231.815.815,0,0,0,.365.289.876.876,0,0,0,.356.229l.2.068a.9.9,0,0,0,.744.333.78.78,0,0,0,.112.014l.044,0a.9.9,0,0,0,.8.187l.062-.016a1.068,1.068,0,0,0,.228.024l.074,0,.092.014a1.059,1.059,0,0,0,.564.076.91.91,0,0,0,.7.112l.01,0h0a.891.891,0,0,0,.448.027.867.867,0,0,0,.2-.065l.86-.211a.837.837,0,0,0,.357-.163.793.793,0,0,0,.3-.17l.785-.256a.694.694,0,0,0,.254-.152.892.892,0,0,0,.3-.1.766.766,0,0,0,.271-.256.777.777,0,0,0,.115-.112.857.857,0,0,0,.45-.2.929.929,0,0,0,.438-.518.951.951,0,0,0,.214-.225.877.877,0,0,0,.133-.139.838.838,0,0,0,.116-.1.9.9,0,0,0,.341-.387l.058-.062a2.868,2.868,0,0,0,.65-.773l.04-.116a.776.776,0,0,0,.3-.569q.03-.055.055-.115a1.136,1.136,0,0,0,.283-.666l.007-.017c.017-.045.034-.092.057-.163a.865.865,0,0,0,.027-.115.906.906,0,0,0,.112-.229.878.878,0,0,0,.038-.354l-.008-.106a.927.927,0,0,0,.252-.6,1.113,1.113,0,0,0,.061-.221.942.942,0,0,0,.1-.421.9.9,0,0,0,.048-.594l-.054-.21c0-.031.007-.062.008-.092a.858.858,0,0,0,.04-.562l-.054-.211a.914.914,0,0,0-.018-.347,1.016,1.016,0,0,0-.024-.375.828.828,0,0,0-.147-.288ZM54.88,38.732l-.008.068a.906.906,0,0,0-.116.3.871.871,0,0,0-.093.514c0,.021-.008.044-.011.067a.886.886,0,0,0-.074.361v.2l-.007.044a1.021,1.021,0,0,0-.249.4.882.882,0,0,0-.041.3.925.925,0,0,0-.067.129l-.058.143a.905.905,0,0,0-.135.211.719.719,0,0,1-.058.1,1.01,1.01,0,0,0-.164.334,1.069,1.069,0,0,0-.109.261,1.866,1.866,0,0,0-.115.149l-.017.007a.953.953,0,0,0-.347.368l-.067.033a.9.9,0,0,0-.431.458.869.869,0,0,0-.4.377l-1.578.642a1.141,1.141,0,0,0-.45.166l-.027.006a.887.887,0,0,0-.424-.071c-.018,0-.123.016-.252.037l-.042.006a.909.909,0,0,0-.592-.112,1.289,1.289,0,0,0-.394-.119.883.883,0,0,0-.45-.136,1.377,1.377,0,0,0-.149-.089,2.971,2.971,0,0,0-.439-.484.479.479,0,0,0-.068-.047l-.033-.123a.429.429,0,0,0-.017-.061,1.573,1.573,0,0,0-.132-.455.862.862,0,0,0,0-.33,1.473,1.473,0,0,0-.174-.442l-.018-.035a1.006,1.006,0,0,0,.007-.432.907.907,0,0,0-.008-.409l-.007-.028a1.262,1.262,0,0,0,.068-.422.836.836,0,0,0,.024-.153l.01-.129a.9.9,0,0,0,.079-.239.959.959,0,0,0,.091-.258.844.844,0,0,0,.13-.307c.009-.017.016-.035.023-.051v0a.9.9,0,0,0,.241-.3l.16-.317a.9.9,0,0,0,.415-.361.935.935,0,0,0,.221-.237l.044-.021a.847.847,0,0,0,.29-.282.819.819,0,0,0,.283-.2c.011-.007.021-.016.033-.024l.092-.024a.749.749,0,0,0,.363-.22,1,1,0,0,0,.127-.112l.136-.061a.693.693,0,0,0,.255-.2.8.8,0,0,0,.581-.475l.065,0a2.892,2.892,0,0,0,.306,0,1.423,1.423,0,0,0,.449-.122.932.932,0,0,0,.164-.026l.139-.037a.909.909,0,0,0,.178.007h.025a.809.809,0,0,0,.477.034.415.415,0,0,0,.109-.033.634.634,0,0,0,.065.017c.261.057.261.057.323.126a.812.812,0,0,0,.443.215.9.9,0,0,0,.537.251c.115.085.235.164.344.234a.9.9,0,0,0,.377.4l.085.324,0,.027a.968.968,0,0,0-.04.286.947.947,0,0,0,.1.388" transform="translate(18.148 13.805)" fill="#fce833"/>
      <path id="パス_350" data-name="パス 350" d="M101.5,28.9l-.061-.231a.769.769,0,0,0-.242-.377.792.792,0,0,0-.242-.373v0a.818.818,0,0,0-.207-.356.9.9,0,0,0-.246-.261l-.026-.057a.906.906,0,0,0-.521-.48c-.018-.014-.037-.03-.057-.044a.885.885,0,0,0-.506-.432A.91.91,0,0,0,99.037,26a.716.716,0,0,0-.571-.263c-.048-.007-.186-.041-.331-.081a.887.887,0,0,0-.772-.392,1.671,1.671,0,0,1-.694-.2,5.361,5.361,0,0,0-.592-.225.876.876,0,0,0-.333-.034l-.14.013a.9.9,0,0,0-.688-.1l-.074.02a.772.772,0,0,0-.149-.01.914.914,0,0,0-.261.044.991.991,0,0,0-.278.069,1.029,1.029,0,0,0-.373.024.9.9,0,0,0-.132.048,1.137,1.137,0,0,0-.458.129.72.72,0,0,0-.065.04l-.486.085a.7.7,0,0,0-.133.037.876.876,0,0,0-.279,0l-.7.108a.882.882,0,0,0-.538.337c-.02.014-.04.03-.061.048a.909.909,0,0,0-.511.72l-.01.093a2.764,2.764,0,0,0-.225.167.9.9,0,0,0-.528.5c-.028.037-.057.075-.082.113l-.483.278a.873.873,0,0,0-.409.506,1.067,1.067,0,0,0-.2.292,1.736,1.736,0,0,0-.479.65.911.911,0,0,0-.419.595.894.894,0,0,0-.077.208c-.008.035-.016.068-.021.1a1.024,1.024,0,0,0-.075.14.9.9,0,0,0-.246.8l.007.048a.909.909,0,0,0-.085.435l.006.088a.881.881,0,0,0-.074.545.868.868,0,0,0-.014.518.911.911,0,0,0,0,.271l.254,1.533a.7.7,0,0,0,.058.187,1.266,1.266,0,0,0,.181.606.742.742,0,0,0,.092.119l.024.042.044.3a.91.91,0,0,0,.347.517v0a.767.767,0,0,0,.18.327,1.373,1.373,0,0,0,.418.4l.122.187a.878.878,0,0,0,.289.279,1.042,1.042,0,0,0,.433.306,1.471,1.471,0,0,0,.283.231.822.822,0,0,0,.365.289.876.876,0,0,0,.356.229l.2.068a.89.89,0,0,0,.571.324.863.863,0,0,0,.173.008.8.8,0,0,0,.112.014l.044,0a.9.9,0,0,0,.8.187l.062-.016a1.068,1.068,0,0,0,.228.024l.074,0,.092.014a1.061,1.061,0,0,0,.564.076.913.913,0,0,0,.7.112l.01,0h0a.892.892,0,0,0,.448.027.866.866,0,0,0,.2-.065l.86-.211a.889.889,0,0,0,.357-.163.768.768,0,0,0,.3-.171l.785-.255a.694.694,0,0,0,.254-.152.923.923,0,0,0,.3-.1.779.779,0,0,0,.271-.256.713.713,0,0,0,.115-.112.852.852,0,0,0,.45-.2.923.923,0,0,0,.438-.518.924.924,0,0,0,.214-.225.877.877,0,0,0,.133-.139.839.839,0,0,0,.116-.1.9.9,0,0,0,.343-.387l.057-.062a2.868,2.868,0,0,0,.65-.773l.04-.116a.783.783,0,0,0,.3-.569c.018-.037.037-.075.054-.116a1.129,1.129,0,0,0,.283-.664l.007-.018c.017-.045.035-.092.057-.163a.891.891,0,0,0,.027-.113.906.906,0,0,0,.112-.229.881.881,0,0,0,.038-.354l-.008-.106a.936.936,0,0,0,.254-.6A1.247,1.247,0,0,0,101.6,32a.942.942,0,0,0,.1-.421.905.905,0,0,0,.05-.594l-.054-.21c0-.028.006-.059.007-.092a.858.858,0,0,0,.04-.562l-.054-.211a.855.855,0,0,0-.017-.341v0a1,1,0,0,0-.024-.378.834.834,0,0,0-.147-.286m-3.216,1.38c0,.023-.006.045-.007.068a.909.909,0,0,0-.118.3.857.857,0,0,0-.092.513c0,.023-.01.045-.013.068a.886.886,0,0,0-.074.361v.2l-.007.042a1,1,0,0,0-.248.4.862.862,0,0,0-.042.3.925.925,0,0,0-.067.129l-.058.143a.905.905,0,0,0-.135.211.719.719,0,0,1-.058.1,1.01,1.01,0,0,0-.164.334,1.069,1.069,0,0,0-.109.261,1.861,1.861,0,0,0-.115.149l-.017.007a.961.961,0,0,0-.346.368l-.068.033a.9.9,0,0,0-.431.458.869.869,0,0,0-.4.377l-1.578.642a1.121,1.121,0,0,0-.449.166l-.028.006a.887.887,0,0,0-.424-.071c-.02,0-.125.016-.252.037l-.042.006a.909.909,0,0,0-.592-.112,1.336,1.336,0,0,0-.394-.12.9.9,0,0,0-.45-.135,1.273,1.273,0,0,0-.147-.089,3.049,3.049,0,0,0-.442-.486.606.606,0,0,0-.067-.045l-.033-.126-.017-.058a1.56,1.56,0,0,0-.132-.455.892.892,0,0,0,0-.33,1.51,1.51,0,0,0-.176-.442l-.018-.035a.983.983,0,0,0,.007-.432.868.868,0,0,0-.008-.409l-.007-.027a1.333,1.333,0,0,0,.069-.424A.974.974,0,0,0,90.565,32l.01-.129a.9.9,0,0,0,.079-.239.926.926,0,0,0,.091-.258.833.833,0,0,0,.13-.307c.009-.017.016-.035.021-.05l0-.006a.9.9,0,0,0,.242-.3L91.3,30.4a.9.9,0,0,0,.415-.361.934.934,0,0,0,.221-.237l.044-.021a.86.86,0,0,0,.29-.282.838.838,0,0,0,.283-.2c.011-.007.021-.016.033-.024l.092-.024a.749.749,0,0,0,.361-.22.92.92,0,0,0,.129-.112l.136-.061a.693.693,0,0,0,.255-.2.8.8,0,0,0,.581-.475l.067,0a2.909,2.909,0,0,0,.306,0,1.463,1.463,0,0,0,.448-.122.931.931,0,0,0,.164-.025L95.263,28a.908.908,0,0,0,.178.007h.025a.806.806,0,0,0,.477.033.6.6,0,0,0,.109-.033.634.634,0,0,0,.065.017c.261.057.261.057.323.126a.812.812,0,0,0,.443.215.9.9,0,0,0,.537.251c.115.085.235.164.344.234a.9.9,0,0,0,.377.4l.085.324,0,.028a.96.96,0,0,0-.04.285.947.947,0,0,0,.1.388" transform="translate(36.226 10.284)" fill="#fce833"/>
      <path id="パス_351" data-name="パス 351" d="M92.786,30.35l0-.007c-.01-.021-.021-.041-.033-.061a1.223,1.223,0,0,0-.164-.622.744.744,0,0,0-.069-.1.829.829,0,0,0-.126-.217l-.045-.177a.824.824,0,0,0-.248-.391l-.038-.079a.777.777,0,0,0-.207-.261,1.026,1.026,0,0,0-.5-.429,1.739,1.739,0,0,0-.613-.476,2.646,2.646,0,0,1-.613-.2.871.871,0,0,0-.49-.166.948.948,0,0,0-.278-.067l-.126-.007a.884.884,0,0,0-.5-.085l-.119.011a.913.913,0,0,0-.6-.052l-.346.091a.889.889,0,0,0-.356.02l-.415.116a.775.775,0,0,0-.127.023l-.407.106a.743.743,0,0,0-.364.222.222.222,0,0,0-.037.027l-.448.116a.831.831,0,0,0-.38.224l-.181.075a.927.927,0,0,0-.218.13.748.748,0,0,0-.392.167.453.453,0,0,0-.059.014.779.779,0,0,0-.292.147l-.03.008a.88.88,0,0,0-.552.435.9.9,0,0,0-.523.4.744.744,0,0,0-.174.169.889.889,0,0,0-.348.327,1.512,1.512,0,0,0-.21-.127.152.152,0,0,1-.023-.038.975.975,0,0,0-.717-.523,1.755,1.755,0,0,0-.785-.314.907.907,0,0,0-.367-.112l-.047-.016a.9.9,0,0,0-.331-.137.912.912,0,0,0-.472-.1h-.01a.9.9,0,0,0-.9-.136h0a.886.886,0,0,0-.615-.062l-.282.072a.87.87,0,0,0-.392.03l-1.415.441a.766.766,0,0,0-.324.238,1.083,1.083,0,0,0-.659.487l-.625.387a.872.872,0,0,0-.275.263.917.917,0,0,0-.254.351,1.186,1.186,0,0,0-.081.1l-.033.017a4.528,4.528,0,0,0-.452.436,1.081,1.081,0,0,0-.28.322l-.008.014a.888.888,0,0,0-.391.436,2.508,2.508,0,0,0-.419.5.639.639,0,0,0-.041.074.883.883,0,0,0-.231.3,2.472,2.472,0,0,0-.394.47.787.787,0,0,0-.265.307.859.859,0,0,0-.265.384,1.9,1.9,0,0,0-.329.493.979.979,0,0,0-.2.363,1.173,1.173,0,0,0-.089.2c-.014.016-.027.03-.04.045a1.122,1.122,0,0,0-.438.742,1.778,1.778,0,0,0-.285.666,1.157,1.157,0,0,0-.208.4,1.221,1.221,0,0,0-.177.562,1.438,1.438,0,0,0-.166.32,2.835,2.835,0,0,0-.365.837.864.864,0,0,0-.187.5v.034a.893.893,0,0,0-.215.6,1.14,1.14,0,0,0-.051.173.836.836,0,0,0-.186.579,1.535,1.535,0,0,0-.1.173,1.01,1.01,0,0,0-.078.1.915.915,0,0,0-.135.425.881.881,0,0,0-.106.3,1.423,1.423,0,0,0,.006.52,1.058,1.058,0,0,0,0,.629,1.345,1.345,0,0,0,.392.657l.037.03a.894.894,0,0,0,.367.34l.664.333a1.06,1.06,0,0,0,.708.047,1.094,1.094,0,0,0,.8-.67,1.175,1.175,0,0,0,.249-.521l.007-.011a.879.879,0,0,0,.119-.518.9.9,0,0,0,.2-.585,1.432,1.432,0,0,0,.069-.31,1.661,1.661,0,0,0,.214-.6c.01-.021.018-.044.027-.067a.949.949,0,0,0,.1-.266.892.892,0,0,0,.2-.537.921.921,0,0,0,.062-.259.883.883,0,0,0,.2-.276l.237-.5a.867.867,0,0,0,.059-.3.267.267,0,0,0,.018-.04l.016-.037a1.946,1.946,0,0,0,.115-.347,1.449,1.449,0,0,0,.266-.64.964.964,0,0,0,.22-.4,1.247,1.247,0,0,0,.059-.123c.014-.014.028-.031.041-.047a.9.9,0,0,0,.293-.507l.1-.218a.908.908,0,0,0,.286-.357,9.491,9.491,0,0,0,.221-.388,3.461,3.461,0,0,0,.52-.662.88.88,0,0,0,.042-.081.875.875,0,0,0,.28-.278,1.01,1.01,0,0,0,.365-.371.842.842,0,0,0,.387-.449.934.934,0,0,0,.212-.229.916.916,0,0,0,.337-.409,1.154,1.154,0,0,0,.115-.109.9.9,0,0,0,.214-.225.729.729,0,0,0,.1-.1.777.777,0,0,0,.249-.2,1.018,1.018,0,0,0,.156-.164.868.868,0,0,0,.2-.2l.152-.1a.9.9,0,0,0,.109-.088l.48-.169a.722.722,0,0,0,.31-.238L78.2,31.3a.581.581,0,0,0,.147.031.874.874,0,0,0,.419.028l.076.01.232.016a.9.9,0,0,0,.494.113.123.123,0,0,0,.044.007,1.089,1.089,0,0,0,.108.027.863.863,0,0,0,.176.091l.135.051.014.055a1.319,1.319,0,0,0-.048.239.974.974,0,0,0-.054.462.882.882,0,0,0-.118.69.93.93,0,0,0-.12.3.784.784,0,0,0-.051.109.911.911,0,0,0-.415.571l-.035.169a.848.848,0,0,0-.02.187l-.059.072a.855.855,0,0,0-.156.438.914.914,0,0,0-.116.445v.116c-.016.033-.033.067-.052.1a2.65,2.65,0,0,0-.276.745.89.89,0,0,0-.272.669,1.032,1.032,0,0,1-.047.288,3.312,3.312,0,0,0-.082.4,1.2,1.2,0,0,0-.167.538.8.8,0,0,0-.069.106.887.887,0,0,0-.074.7,1.2,1.2,0,0,0-.071.611,2.388,2.388,0,0,0,.326,1.027.7.7,0,0,0,.069.088.838.838,0,0,0,.263.3.956.956,0,0,0,.673.364.927.927,0,0,0,.344.157,1.627,1.627,0,0,0,.98-.143,1.257,1.257,0,0,1,.135-.05,1.028,1.028,0,0,0,.679-.935l0-.007a2,2,0,0,0,.1-.344,1.205,1.205,0,0,0,.106-.194.394.394,0,0,1,.03-.065,1,1,0,0,0,.208-.337.957.957,0,0,0,.259-.577c.01-.021.018-.042.027-.067a.717.717,0,0,0,.079-.14.866.866,0,0,0,.207-.511,1.493,1.493,0,0,0,.042-.183.88.88,0,0,0,.159-.466.8.8,0,0,0,.112-.36.3.3,0,0,1,.01-.038l0-.014a.9.9,0,0,0,.147-.377.671.671,0,0,0,.033-.422,1.092,1.092,0,0,0,.119-.506.838.838,0,0,0,.068-.292.868.868,0,0,0,.092-.652.9.9,0,0,0,.133-.571.181.181,0,0,0,.02-.033.92.92,0,0,0,.044-.084l.1-.13a.867.867,0,0,0,.142-.421.637.637,0,0,0,.044-.095l0,0a.9.9,0,0,0,.258-.334.985.985,0,0,0,.095-.156l.123-.265.347-.225a.888.888,0,0,0,.33-.385l.05-.112.037-.017a1.01,1.01,0,0,0,.353-.385l.014-.007a.707.707,0,0,0,.211-.187,1.016,1.016,0,0,0,.217-.119.879.879,0,0,0,.438-.333l.443-.2a.771.771,0,0,0,.276-.207.711.711,0,0,0,.227-.13l.53-.137a.727.727,0,0,0,.178-.072l.084-.007a.809.809,0,0,0,.472-.215l.108-.04a.823.823,0,0,0,.194.028A1.282,1.282,0,0,0,89,30.017h.017l.057.031a2.342,2.342,0,0,0,.348.156,2.894,2.894,0,0,1,.218.545,1.014,1.014,0,0,0-.016.132.855.855,0,0,0-.054.6l.05.188c-.016.024-.03.05-.044.074a.922.922,0,0,0-.027.747.88.88,0,0,0,.017.374l.048.186,0,.047a1.156,1.156,0,0,0-.057.159.827.827,0,0,0-.1.306,1.27,1.27,0,0,0,.014.443.963.963,0,0,0-.026.133.882.882,0,0,0-.174.613l0,.061a.9.9,0,0,0-.079.266l-.044.055a.906.906,0,0,0-.2.541.484.484,0,0,0-.048.092,1.049,1.049,0,0,0-.16.442c-.027.04-.051.079-.069.113a2.3,2.3,0,0,0-.173.354,1.093,1.093,0,0,0-.186.375l-.016.05-.069.088a.717.717,0,0,0-.125.248c-.027.031-.054.062-.078.1l-.011.014a5.536,5.536,0,0,0-.476.475.9.9,0,0,0-.255.885l.057.187a1.009,1.009,0,0,0,.062.509.8.8,0,0,0,.174.246.879.879,0,0,0,.275.266l.007.007a.91.91,0,0,0,.647.412.5.5,0,0,0,.118-.011l.008,0a.887.887,0,0,0,.615.1c.02-.006.04-.008.058-.016l.545-.14a.939.939,0,0,0,.54-.452c.008-.016.018-.034.027-.052a.968.968,0,0,0,.258-.344.9.9,0,0,0,.062-.067.706.706,0,0,0,.085-.144.9.9,0,0,0,.329-.586.7.7,0,0,0,.026-.1.919.919,0,0,0,.147-.45.852.852,0,0,0,.089-.156l.232-.518A.951.951,0,0,0,92,36.908l.027-.058a.919.919,0,0,0,.194-.336.947.947,0,0,0,.042-.323v-.017a.883.883,0,0,0,.164-.462.744.744,0,0,0,.059-.194.887.887,0,0,0,.125-.415.881.881,0,0,0,.139-.741v-.007c0-.018,0-.037.006-.054a.423.423,0,0,0,.013-.045.905.905,0,0,0,.1-.541l-.03-.227a.879.879,0,0,0,.028-.314.921.921,0,0,0,.04-.445l-.064-.382A.931.931,0,0,0,92.9,32.1c0-.013.007-.031.011-.051a.885.885,0,0,0,.027-.184,1.018,1.018,0,0,0-.129-.516l-.01-.135a1.064,1.064,0,0,0-.016-.867m-14.8,8.678h0l-.038.027h0Z" transform="translate(28.077 11.22)" fill="#fce833"/>
      <path id="パス_352" data-name="パス 352" d="M49.771,39.026h0a.79.79,0,0,0-.146-.282l-.1-.381a.836.836,0,0,0-.1-.237,3.423,3.423,0,0,0-.239-.339.907.907,0,0,1-.18-.295.891.891,0,0,0-.382-.482,1.129,1.129,0,0,0-.262-.407.888.888,0,0,0-.368-.224.9.9,0,0,0-.509-.547l0,0a1.822,1.822,0,0,0-1.011-.486h-.04a1.506,1.506,0,0,0-.3-.084.9.9,0,0,0-.346-.081.869.869,0,0,0-.56-.038l-.079.02a.9.9,0,0,0-.5-.014l-.4.1a1,1,0,0,0-.378.026.911.911,0,0,0-.161.064,1.039,1.039,0,0,0-.269.054.775.775,0,0,0-.207.12l-.285.074a.762.762,0,0,0-.2.084l-.161.018a.715.715,0,0,0-.129.027c-.021,0-.042.009-.061.014l-.408.1a.771.771,0,0,0-.286.149l-.033.008a.759.759,0,0,0-.286.144l-.106.028a.8.8,0,0,0-.3.152.825.825,0,0,0-.242.135l-.034.01a.9.9,0,0,0-.455.28.935.935,0,0,0-.3.261l-.356.229a.687.687,0,0,0-.167.152l-.006,0a.855.855,0,0,0-.3.234l-.008,0a.785.785,0,0,0-.194.15.89.89,0,0,0-.265.279.687.687,0,0,0-.132.12,1.272,1.272,0,0,0-.237-.152,1.824,1.824,0,0,0-.479-.453.8.8,0,0,0-.341-.28l-.044-.068a.827.827,0,0,0-.354-.3.9.9,0,0,0-.854-.446.857.857,0,0,0-.237-.048h-.018a.892.892,0,0,0-.475-.166.878.878,0,0,0-.66-.089l-.013,0a.9.9,0,0,0-.442-.03.9.9,0,0,0-.585.008l-.394.142c-.031,0-.062,0-.091,0a1.108,1.108,0,0,0-.616.214l-.5.13a.724.724,0,0,0-.286.146l-.312.082a.785.785,0,0,0-.414.263,1.2,1.2,0,0,0-.13.137l-.3.113a.807.807,0,0,0-.3.207.7.7,0,0,0-.113.1l-.122.054a.742.742,0,0,0-.275.229.83.83,0,0,0-.139.095.775.775,0,0,0-.2.127.811.811,0,0,0-.211.144,1.328,1.328,0,0,0-.337.354l-.34.173a.9.9,0,0,0-.348.319.869.869,0,0,0-.234.317l-.034.051a.826.826,0,0,0-.3.326.9.9,0,0,0-.268.33l-.016.011a.95.95,0,0,0-.177.15,1.254,1.254,0,0,0-.164.229.847.847,0,0,0-.365.487c-.04.051-.079.106-.126.173l-.018.028a.908.908,0,0,0-.225.378l0,0a.918.918,0,0,0-.3.382.564.564,0,0,0-.054.088,1.423,1.423,0,0,0-.248.431,1.448,1.448,0,0,0-.167.2,1.089,1.089,0,0,0-.244.3,1.219,1.219,0,0,0-.115.139.461.461,0,0,0-.051.086.932.932,0,0,0-.153.371,1.448,1.448,0,0,0-.065.133.916.916,0,0,0-.17.373,1.051,1.051,0,0,0-.188.261.852.852,0,0,0-.276.611c-.008.018-.021.041-.031.064l-.011.021a.841.841,0,0,0-.334.65c-.017.026-.034.051-.05.078a.84.84,0,0,0-.108.358,2.428,2.428,0,0,0-.1.275l0,.007a1.054,1.054,0,0,0-.313.676l0,.01a1.826,1.826,0,0,0-.1.344.951.951,0,0,0-.013.21.883.883,0,0,0-.149.516,1.078,1.078,0,0,0-.014.252c0,.016-.007.033-.013.055-.017.086-.035.178-.05.279a1.755,1.755,0,0,0-.133.19.9.9,0,0,0-.092.674l0,.011a.821.821,0,0,0-.033.113.914.914,0,0,0-.144.537l.007.119a1.287,1.287,0,0,0-.065.178.935.935,0,0,0-.1.472.892.892,0,0,0-.072.632v.007a1.007,1.007,0,0,0-.069.188.848.848,0,0,0-.062.149,1.092,1.092,0,0,0-.044.245.909.909,0,0,0-.018.618,1.956,1.956,0,0,0,.3.568.824.824,0,0,0,.356.36,1.861,1.861,0,0,0,.136.221.9.9,0,0,0,.882.365l.834-.144.016,0a.822.822,0,0,0,.394-.208.894.894,0,0,0,.307-.329,2.772,2.772,0,0,0,.3-1.316l-.035-.3a.832.832,0,0,0,.018-.19.457.457,0,0,0,.008-.091c.006-.021.011-.041.016-.061a.891.891,0,0,0,.173-.477L26,51.2a1.043,1.043,0,0,0,.074-.412,1.2,1.2,0,0,0,.071-.4.889.889,0,0,0,.17-.742.612.612,0,0,0,.023-.122.574.574,0,0,0,.017-.067.893.893,0,0,0,.126-.509,1.1,1.1,0,0,0,.05-.113,1.05,1.05,0,0,0,.052-.193.908.908,0,0,0,.232-.636l-.008-.249a1.392,1.392,0,0,0,.181-.39,1,1,0,0,0,.116-.184c.023-.042.042-.086.062-.133a.908.908,0,0,0,.231-.448,1.031,1.031,0,0,0,.13-.3l.007-.034a1.017,1.017,0,0,0,.061-.1,5.162,5.162,0,0,0,.306-.615,1.072,1.072,0,0,0,.207-.32.9.9,0,0,0,.173-.227l.435-.813a.946.946,0,0,0,.363-.514.585.585,0,0,0,.055-.1.828.828,0,0,0,.266-.347,2.118,2.118,0,0,0,.272-.3l.024-.037c.028-.033.055-.069.081-.1a1.227,1.227,0,0,0,.187-.227A1.545,1.545,0,0,0,30.1,42.4a.916.916,0,0,0,.273-.263.9.9,0,0,0,.249-.341v0a.872.872,0,0,0,.159-.164.794.794,0,0,0,.133-.125.894.894,0,0,0,.123-.12.749.749,0,0,0,.237-.181.6.6,0,0,0,.1-.1,1.056,1.056,0,0,0,.188-.2l.065-.033a.813.813,0,0,0,.261-.2.98.98,0,0,0,.1-.1l.065-.031a.727.727,0,0,0,.15-.1.823.823,0,0,0,.279-.177.92.92,0,0,0,.249-.212l.432-.152a.806.806,0,0,0,.32-.211l.027-.021.161-.041a.761.761,0,0,0,.28-.146L34,39.47a.739.739,0,0,0,.271-.132h.047a1.454,1.454,0,0,0,.453-.071c.025-.01.052-.021.078-.034l.03,0,.058-.006a.885.885,0,0,0,.344.089l.014.007a1.012,1.012,0,0,0,.139.078.609.609,0,0,0,.054.069.882.882,0,0,0,.149.235.987.987,0,0,0,.153.5l.034.2a.437.437,0,0,0-.013.085.89.89,0,0,0-.014.494l.027.109a.693.693,0,0,0,0,.118,1.1,1.1,0,0,0-.014.224,1.309,1.309,0,0,0-.014.13.867.867,0,0,0-.072.5l.035.246a.865.865,0,0,0-.072.377.839.839,0,0,0-.187.487l-.014.062a.566.566,0,0,0-.021.1.925.925,0,0,0-.042.316l-.035.068a2.653,2.653,0,0,0-.261.646.885.885,0,0,0-.17.526,1.329,1.329,0,0,1-.129.3l-.016.034a2.819,2.819,0,0,0-.295.747c-.008.016-.017.03-.024.045a.619.619,0,0,0-.242.394,1.169,1.169,0,0,0-.143.34.979.979,0,0,0-.188.552.865.865,0,0,0-.147.343.884.884,0,0,0-.086.256,1.065,1.065,0,0,0-.01.3.924.924,0,0,0-.075.51l.091.63a.9.9,0,0,0,.343.581,1.018,1.018,0,0,0,.358.271.484.484,0,0,0,.091.033l.159.181a.878.878,0,0,0,.9.279l.882-.231a.89.89,0,0,0,.5-.343l.322-.448a.8.8,0,0,0,.125-.336l.037-.045a.927.927,0,0,0,.181-.425l.068-.092a.887.887,0,0,0,.173-.584v-.033a1.137,1.137,0,0,0,.076-.329l.033-.035a.982.982,0,0,0,.232-.674,1.332,1.332,0,0,0,.035-.173c.01-.017.018-.035.028-.055q.03-.062.059-.132a1.112,1.112,0,0,0,.271-.748,1.916,1.916,0,0,0,.118-.347.892.892,0,0,0,.157-.616l-.016-.135a1.213,1.213,0,0,0,.084-.341l.024-.031a.882.882,0,0,0,.19-.492l.013-.178a1.241,1.241,0,0,0,.082-.316l.028-.038a.887.887,0,0,0,.193-.6l.007-.03a.881.881,0,0,0,.193-.52,1.151,1.151,0,0,0,.057-.12l.013-.031a.9.9,0,0,0,.17-.252l.044-.1a.9.9,0,0,0,.232-.261l.1-.177a.628.628,0,0,0,.054-.132.885.885,0,0,0,.127-.146c.03-.031.058-.065.086-.1a.9.9,0,0,0,.538-.531l.034-.023a.778.778,0,0,0,.292-.374c.052-.047.1-.1.154-.147a1.619,1.619,0,0,1,.323-.19l.188-.122a.742.742,0,0,0,.228-.255l.273-.133a.753.753,0,0,0,.265-.229l.191-.067a1.022,1.022,0,0,0,.307-.03,3.05,3.05,0,0,0,.513-.3l.5-.161a.874.874,0,0,0,.374-.047l.466-.163a.841.841,0,0,0,.171-.007l.227-.03a.715.715,0,0,0,.129.025l.051.016a32.984,32.984,0,0,1,.4.445.767.767,0,0,0,.1.122l.1.244a.781.781,0,0,0,.152.242,3.347,3.347,0,0,1,.038.341.774.774,0,0,0-.059.229.878.878,0,0,0-.014.494l.017.074a.952.952,0,0,0,.02.353l0,.007a.521.521,0,0,0-.008.093.843.843,0,0,0-.058.466l.042.3a.926.926,0,0,0-.028.229v.239l-.006.035a1.008,1.008,0,0,0-.1.275,1.227,1.227,0,0,0-.112.594c-.007.033-.013.067-.017.1a.872.872,0,0,0-.076.336.985.985,0,0,0-.123.494.906.906,0,0,0-.183.688l-.023.057a.894.894,0,0,0-.327.824c0,.031,0,.035-.03.14l-.007.024a1.092,1.092,0,0,0-.215.424c-.031.034-.058.068-.082.1a1.158,1.158,0,0,0-.446.928,1.981,1.981,0,0,0-.045.453.836.836,0,0,0,.323.594,1.288,1.288,0,0,0,.242.316.489.489,0,0,0,.041.035,2.229,2.229,0,0,0,1.031.673l.734.027a.9.9,0,0,0,.795-.429.852.852,0,0,0,.4-.6.92.92,0,0,0,.2-.618l.008-.03a.846.846,0,0,0,.153-.4,1.884,1.884,0,0,0,.093-.309l.014-.037a1.172,1.172,0,0,0,.116-.3,1.068,1.068,0,0,0,.082-.229.72.72,0,0,0,.1-.2,1.514,1.514,0,0,0,.058-.463,1.082,1.082,0,0,0,.2-.422.853.853,0,0,0,.076-.252,1.125,1.125,0,0,0,.129-.486.916.916,0,0,0,.129-.511l0-.027a.877.877,0,0,0,.048-.238l.017-.234a.892.892,0,0,0,.118-.419.922.922,0,0,0,.06-.426l-.024-.211a.86.86,0,0,0,.069-.46l-.017-.154a.868.868,0,0,0,.034-.3v-.031a.87.87,0,0,0,.041-.184,1.164,1.164,0,0,0,.028-.416.847.847,0,0,0,0-.239l-.018-.174A1.029,1.029,0,0,0,49.949,40l-.035-.137A.948.948,0,0,0,49.9,39.5Z" transform="translate(9.262 14.627)" fill="#fce833"/>
      <path id="パス_353" data-name="パス 353" d="M72.636,31.022a.941.941,0,0,0-.212-.261,1.387,1.387,0,0,0-.285-.164,1.805,1.805,0,0,0-.3-.132,2,2,0,0,0-.322-.034c-.108-.017-.214-.116-.319-.115s-.21.119-.31.142a1,1,0,0,0-.293.1c-.093.057-.126.154-.184.246-.069.074-.217.091-.288.17s-.146.15-.211.232-.059.215-.12.3-.154.144-.207.237-.04.21-.082.306-.205.142-.238.242a2.458,2.458,0,0,0-.072.313c-.018.1.037.214.03.322-.007.129.033.256.014.365a2.352,2.352,0,0,1-.1.353c-.04.118-.2.173-.256.273s-.038.254-.113.348a1.286,1.286,0,0,0-.13.244c-.044.091-.154.146-.181.231s-.044.183-.074.273a1.221,1.221,0,0,1-.129.242,1,1,0,0,0-.125.323c-.018.11.055.232.048.34a1.692,1.692,0,0,1-.023.334.565.565,0,0,1-.173.3,1.031,1.031,0,0,0-.166.229,1.194,1.194,0,0,0-.041.288,1.282,1.282,0,0,0-.033.285c0,.1-.074.166-.047.261-.112.057-.091.19-.14.285s-.166.176-.2.283.02.278-.045.363a1.279,1.279,0,0,0-.263.2c-.093.086-.214.119-.262.212a3,3,0,0,0-.177.295c-.038.1.034.265-.028.373-.081.076-.222.109-.307.187s-.19.125-.273.2-.154.167-.237.246-.2.123-.279.2-.153.173-.229.256-.1.218-.167.306-.18.146-.242.239c-.086.071-.12.191-.2.252s-.224.061-.31.115-.176.13-.266.176-.174.157-.269.191a2.048,2.048,0,0,1-.327.037,1.987,1.987,0,0,1-.319.075c-.109,0-.211-.076-.314-.095a1.459,1.459,0,0,1-.292-.112,1.541,1.541,0,0,1-.268-.154c-.088-.057-.205-.071-.286-.144a2.435,2.435,0,0,1-.184-.261,2.857,2.857,0,0,1-.181-.256c-.059-.088-.194-.129-.246-.225s-.035-.22-.081-.317-.133-.174-.171-.276-.095-.193-.129-.3-.075-.2-.1-.306-.031-.214-.054-.319.068-.229.05-.334-.042-.207-.055-.313-.109-.2-.119-.309-.074-.211-.079-.317.037-.218.035-.324.058-.214.062-.32,0-.215.006-.32.078-.207.092-.31-.076-.231-.057-.333.055-.214.082-.313a3.243,3.243,0,0,1,.147-.289,3.135,3.135,0,0,1,.069-.319c.045-.1.062-.2.1-.3s.1-.188.13-.289.033-.21.054-.312.041-.207.052-.31.12-.21.119-.313-.091-.212-.1-.314a2.224,2.224,0,0,0-.075-.3c-.028-.106,0-.225-.041-.32a1.764,1.764,0,0,0-.161-.276,1.741,1.741,0,0,0-.17-.279,1.443,1.443,0,0,0-.275-.177c-.092-.055-.214-.028-.316-.058s-.186-.132-.293-.136a1.386,1.386,0,0,0-.312.081,1.539,1.539,0,0,0-.278.139c-.092.041-.224.014-.316.078a2.271,2.271,0,0,0-.225.227,3.112,3.112,0,0,0-.194.249,2.82,2.82,0,0,0-.217.229c-.059.084-.193.125-.251.22s-.1.191-.15.29-.021.241-.054.339c-.038.113-.137.2-.167.3s0,.237-.023.34-.052.214-.076.323-.031.214-.057.327a2.849,2.849,0,0,0-.109.314c-.011.108.025.221.023.331s-.074.22-.074.327.025.22.023.326.044.224.031.327.057.218.054.33-.03.215-.034.327-.116.214-.119.324.05.22.047.33.054.218.054.329.006.215.007.326-.064.22-.059.329.025.218.033.327-.052.224-.044.333.1.211.118.319,0,.221.013.33.1.2.12.312-.037.231-.013.337.1.2.132.3.02.224.057.326.135.181.178.28.095.194.146.289.076.205.135.3.052.239.12.324.237.068.309.142.159.14.229.214.058.237.129.31.147.152.221.224.22.072.3.143.15.14.231.205.169.115.254.176.1.224.19.279.21.05.3.1.212.021.313.061.154.174.258.205.2.062.3.088.215-.02.322,0,.2.02.312.034.2.057.307.062.21-.017.313-.018.205-.048.307-.057.217.054.319.038.2-.091.3-.112.232.065.333.038.2-.071.3-.1.166-.161.262-.2.211-.034.307-.074.17-.133.263-.177.188-.089.28-.135.19-.089.282-.135.227-.018.317-.064.187-.132.278-.174a1.193,1.193,0,0,0-.152.314,1.528,1.528,0,0,0-.068.327,2.038,2.038,0,0,0,0,.334,2.685,2.685,0,0,0,.014.35,1.191,1.191,0,0,0-.16.256c-.025.092.034.2.023.293s-.055.187-.062.283-.045.193-.058.285a1.07,1.07,0,0,1-.095.268c-.034.085-.061.2-.1.324-.027.1-.1.2-.132.316s-.035.22-.059.333,0,.228-.026.34.033.238.009.347-.057.224-.082.33-.072.222-.1.324c-.033.118-.136.2-.17.295a1.391,1.391,0,0,0-.232.2c-.061.074-.12.161-.181.252s-.119.166-.174.256-.108.173-.16.263-.021.222-.072.313-.188.129-.239.218-.007.235-.058.323-.2.125-.249.21-.037.224-.093.3-.12.177-.181.252a1.991,1.991,0,0,1-.224.217c-.076.068-.135.164-.218.239s-.15.15-.232.225-.193.106-.275.178-.161.142-.245.212-.22.069-.3.139-.1.222-.184.288-.238.041-.326.1-.143.171-.234.229-.187.106-.28.159-.16.164-.258.211-.212.024-.309.059-.187.082-.286.11-.208,0-.309.025-.2.057-.3.072-.2.052-.3.064-.205-.023-.309-.016-.2.023-.3.027-.2.045-.306.047-.205.069-.307.069-.21-.028-.312-.03c-.1-.02-.205-.048-.307-.079s-.169-.14-.268-.178-.225.007-.323-.035-.153-.161-.248-.207-.212-.034-.307-.082-.2-.065-.292-.115-.164-.133-.255-.184-.147-.161-.238-.212-.18-.1-.271-.157-.218-.04-.309-.091-.186-.1-.275-.146-.137-.184-.228-.232-.2-.074-.289-.118-.2-.068-.293-.108-.188-.1-.285-.132a2.641,2.641,0,0,0-.3-.108,1.858,1.858,0,0,0-.32,0,1.618,1.618,0,0,0-.3.089,1.491,1.491,0,0,0-.279.122,1.619,1.619,0,0,0-.266.142,1.9,1.9,0,0,0-.239.19,1.344,1.344,0,0,0-.184.266c-.065.1-.181.159-.211.259a1.193,1.193,0,0,0-.095.337c.006.108.157.2.191.3a1.637,1.637,0,0,0,.12.3,2.489,2.489,0,0,0,.167.278c.062.088.142.16.215.246s.062.239.14.32.231.079.313.154.11.207.2.278.183.13.268.2.2.1.276.163.186.112.269.166.129.207.215.256.184.12.276.166.215.038.313.082.208.035.31.079.14.183.241.229.221.008.323.058.193.076.293.129a2.932,2.932,0,0,0,.263.146c.089.035.186.068.286.1s.193.051.292.081.191.061.289.088.2.037.3.061.187.1.283.123.21.01.3.028.212,0,.3.018c.115.017.211.042.295.05.1.007.205.065.316.065s.212.008.32,0,.212-.021.32-.034.2-.1.3-.118.208-.041.313-.061.225.038.329.016.212-.038.316-.064.174-.173.276-.2.232.025.331-.007.217-.041.313-.076.184-.13.278-.169.169-.139.256-.183a2.6,2.6,0,0,1,.275-.127c.084-.051.142-.152.232-.2s.212-.027.3-.079.144-.143.229-.2.171-.1.251-.163a2.69,2.69,0,0,0,.241-.183c.069-.069.19-.1.252-.187a2.181,2.181,0,0,0,.13-.271c.1-.035.156-.144.245-.188a2.426,2.426,0,0,0,.261-.153,2.5,2.5,0,0,0,.275-.143c.079-.071.2-.1.269-.177a2.506,2.506,0,0,0,.167-.269c.055-.088.01-.229.055-.322s.154-.15.191-.246A1.875,1.875,0,0,0,65.453,54c.084-.074.076-.2.13-.314.044-.091.2-.136.221-.268a.756.756,0,0,0,.2-.186c.064-.069.062-.2.119-.28s.2-.115.246-.2a1.685,1.685,0,0,0,.1-.262c.089-.071.142-.161.217-.229s.132-.181.2-.256.161-.15.224-.232.127-.177.184-.266.091-.194.142-.289.071-.2.118-.3.153-.16.2-.259.139-.166.187-.266-.006-.237.047-.337.074-.2.129-.3.159-.149.2-.244.13-.169.171-.263-.018-.232.018-.329.074-.193.106-.289.064-.2.088-.295.154-.193.169-.292c-.01-.1-.057-.191-.016-.279s.126-.149.161-.241a.735.735,0,0,0,.051-.282c.048-.075,0-.2.028-.322.027-.095.142-.178.161-.293s.057-.207.072-.317-.054-.222-.041-.333-.021-.22-.008-.327.109-.207.125-.312-.037-.229-.018-.331.173-.188.2-.285-.042-.232-.014-.334.137-.181.166-.283-.064-.237-.035-.339.106-.188.135-.29.108-.188.135-.29-.028-.225,0-.327.064-.2.088-.3.153-.181.174-.285.024-.211.044-.314.069-.2.088-.306.023-.211.037-.316-.034-.217-.023-.322.038-.2.045-.3c.082-.075.081-.2.135-.286s.2-.143.232-.245a2.727,2.727,0,0,0,.028-.329c.02-.1-.03-.22-.016-.326s.034-.212.048-.319.12-.2.142-.3a1.912,1.912,0,0,1,.085-.3c.038-.1,0-.225.042-.317s.132-.167.178-.258.126-.166.174-.255.1-.18.149-.271.051-.205.1-.3.092-.183.132-.276.018-.207.05-.3.187-.163.205-.265a2.364,2.364,0,0,0-.008-.314,2.282,2.282,0,0,0,.057-.314.654.654,0,0,1,.013-.347c.054-.11.18-.174.246-.279a1.168,1.168,0,0,0,.072-.38c.018-.1.108-.227.142-.368s-.045-.3,0-.411.173-.2.174-.322-.02-.244-.02-.354a.377.377,0,0,1,.086-.293.857.857,0,0,0,.146-.324c.034-.108-.048-.224-.052-.34s.123-.244.095-.356-.205-.174-.246-.279-.055-.224-.1-.322-.033-.251-.076-.339" transform="translate(21.401 12.629)" fill="#fce833"/>
    </g>
  </g>
</svg>
