<svg xmlns="http://www.w3.org/2000/svg" xmlns:xlink="http://www.w3.org/1999/xlink" width="437.339" height="80.38" viewBox="0 0 437.339 80.38">
  <defs>
    <clipPath id="clip-path">
      <rect id="長方形_69" data-name="長方形 69" width="437.339" height="80.38" transform="translate(0 0)" fill="none"/>
    </clipPath>
  </defs>
  <g id="グループ_126" data-name="グループ 126" transform="translate(0 0)" clip-path="url(#clip-path)">
    <path id="パス_218" data-name="パス 218" d="M6.609,44.276c.159.368-.174.73-.344.967-.34.474-.444.736-.4,1.971a54.776,54.776,0,0,0,4,16.792,23.957,23.957,0,0,0,2.465,4.435.493.493,0,0,0,.638.215c.367-.159.378-.763.367-1.794a10.924,10.924,0,0,0,0-1.142c.005-.492-.024-1.189.389-1.367.459-.2,2.37.063,2.629.66a11.2,11.2,0,0,1,.166,2.27c.087,2.469.29,5.705,1.283,8,.259.6.589,1.108.807,1.613.358.825-.139,1.313-.689,1.932a6.97,6.97,0,0,1-1.76,1.471c-.78.338-1.5-.442-2.052-.964A41.251,41.251,0,0,1,5.278,65.993,61.649,61.649,0,0,1,.951,49.832C.682,48.205.459,46.558.1,44.971c-.093-.342-.24-.932.219-1.131a18.371,18.371,0,0,1,3.965-.028c.624.057,2.088-.086,2.326.464m23.155-7.3c.4.918-.441,1.5-3.4,3.216-1.088.634-1.322,1.226-.825,2.373l.675,1.56c.736,1.7,1.145,2.393,1.925,2.055a38.794,38.794,0,0,0,4.347-3.3,5.126,5.126,0,0,1,1.218-.963c.5-.219.966.345,1.467,1a16.756,16.756,0,0,1,1.486,2.3c.4.918-.421,1.544-4.016,3.809-1.809,1.11-3.185,1.706-2.569,3.128.477,1.1,2.282,4.516,2.983,6.01.6,1.265.865,1.369,2.231,1.377,1.5.06,8.242.79,8.838,2.166.378.872-.293,4.1-1.348,4.562-.413.178-.873,0-1.551-.31-.131-.052-.283-.149-.414-.2-.855-.338-3.551-1.4-4.376-1.047-.551.238-.424.783-.388,1.748.189,3.078-2.954,5.257-5.478,6.35-3.395,1.469-8.069,1.75-9.817-2.288-1.828-4.221,1.744-7.675,5.323-9.225.688-.3,1.462-.523,1.737-.643a1.079,1.079,0,0,0,.573-1.447c-.338-.779-1.859-3.663-2.322-4.606-.3-.577-.726-1.048-1.46-.73-.092.039-.21.145-.347.2-2.058,1.163-5.924,3.056-8.081,3.99-.458.2-1.382.708-1.81.348a29,29,0,0,1-1.838-3.236c-.318-.735-.319-1.115.461-1.453.918-.4,2.013-.763,3.068-1.22,6.745-2.92,7.282-3.316,6.666-4.738-1.768-4.084-2-4.254-2.831-3.9C19.338,44.1,15.735,46.1,13.9,46.9c-.826.358-1.351.53-1.872-.17-.251-.328-1.448-2.588-1.626-3a.861.861,0,0,1,.474-1.295,3.017,3.017,0,0,1,.617-.212c.865-.267,2.9-1.095,3.821-1.492A42.208,42.208,0,0,0,26.5,33.974a2.123,2.123,0,0,1,.465-.311c.826-.357,2.518,2.669,2.8,3.312M25,68.624c.576,1.331,2.688.8,3.7.36,2.019-.874,3.262-1.9,2.368-3.967-.457-1.055-2.18-.254-2.915.063C27,65.577,24.3,67.019,25,68.624"/>
    <path id="パス_219" data-name="パス 219" d="M51.964,25.456c.349-.059,1.028-.065,1.165.363.106.333-.134.568-.344.9-1.273,1.769,3.106,17.007,3.971,19.722,1.183,3.716,2.922,9.511,8.067,7.872a12.656,12.656,0,0,0,7.485-7.472,15.893,15.893,0,0,0,.661-7.976c-.1-.807-.262-1.647.453-1.875,1.047-.334,4.727,1.171,5.182,2.6.425,1.334.094,4.745-.179,6.195A17.5,17.5,0,0,1,66.84,59.492a11.048,11.048,0,0,1-9.552-1c-3.053-2.175-4.763-6.721-5.87-10.2q-1.8-5.644-3.166-11.427c-.555-2.236-1.582-6.946-2.2-8.9l-.167-.525c-.227-.714-.331-1.206.335-1.418a42.5,42.5,0,0,1,5.748-.57"/>
    <path id="パス_220" data-name="パス 220" d="M91.442,19.532c.412.012,1.117-.041,1.225.447.064.294-.11.434-.35.742a3.655,3.655,0,0,0-.365,2.538,37.265,37.265,0,0,0,.745,5.263,28.564,28.564,0,0,0,3.8,9.865c.886,1.24,3.129,3.768,4.839,3.393,1.368-.3,2.313-2.76,2.664-3.963.185-.553.416-1.371,1.05-1.51,1.026-.225,3.956,1.232,4.149,2.111.2.927-1.437,3.95-1.95,4.881-1.063,1.922-2.256,3.719-4.551,4.223-3.614.793-7.165-1.858-9.43-4.484-3.45-4.056-5.19-10.124-6.326-15.3-.171-.781-1.385-7.017-1.383-7.478a.622.622,0,0,1,.566-.687c.634-.14,4.453,0,5.315-.039m19.665-5.337c1.075-.235,5.852,1.941,9.182,5.921,1.936,2.289,4.467,6.6,5.11,9.527.2.929-.231,1.28-1.008,1.706a10.52,10.52,0,0,1-2.639,1.039c-1.563.343-1.664-.351-2.019-1.5-1.839-5.586-4.859-9.787-10.282-12.335a.825.825,0,0,1-.6-.636c-.2-.928,1.279-3.506,2.256-3.72"/>
    <path id="パス_221" data-name="パス 221" d="M150.8,1.861c.032.248-.147.423-.375.6-.65.437-.991.532-1.453,2.407-.292,1.248-.527,2.539-.77,3.781a1.769,1.769,0,0,0-.058.714c.109.843.78.957,1.487.967,1.711-.021,3.417-.091,5.109-.261.943-.122,1.68-.269,1.809.724a14.723,14.723,0,0,1-.127,3.293c-.108.721-.255,1.143-.949,1.233a63.085,63.085,0,0,1-6.841.133,1.452,1.452,0,0,0-.459-.042c-.794.1-1.07.694-1.185,1.364-.071.614-.36,3.829-.309,4.226.136,1.041,1.183.956,1.884.915,1.508-.044,3-.188,4.489-.381,1.339-.174,1.533.154,1.6.649a11.076,11.076,0,0,1-.214,3.406c-.151.777-.4,1.212-1.24,1.322-1.141.148-3.517.1-4.726.109a5.011,5.011,0,0,0-.807,0c-1.339.174-1.177,1.414-.9,3.546.56,4.314,3.138,6.3,7.453,5.739,2.231-.29,5.576-1.329,6.887-3.264a5.031,5.031,0,0,0,.634-3.663,21.573,21.573,0,0,0-2.62-6.971,2.661,2.661,0,0,1-.314-.867c-.154-1.191,3.432-2.312,3.977-2.382.793-.1,1.045.671,1.584,1.71a27.4,27.4,0,0,1,2.763,8.465c1,7.687-5.745,11.287-12.341,12.142-7.488.973-12.462-2.768-13.441-10.307-.161-1.239-.207-3.149-.272-3.645-.141-1.091-1.023-1.279-2.209-1.479a16.677,16.677,0,0,1-3.08-.809c-.584-.228-1.013-.424-1.1-1.069-.038-.3-.051-4.279,1.189-4.44a2.757,2.757,0,0,1,1.3.335,9.1,9.1,0,0,0,3.354.977c.843-.11.9-.824,1.012-2.3.028-.559.143-1.23.195-1.992a10.157,10.157,0,0,0,.057-1.118c-.142-1.09-1.073-1.272-1.8-1.429-3.645-.889-4.695-1.206-4.811-2.1-.11-.843.239-4.368,1.281-4.5a2.69,2.69,0,0,1,1.211.4,31.476,31.476,0,0,0,3.6,1.3,1.543,1.543,0,0,0,.664.065c.794-.1.908-.774.986-1.338.227-1.744.861-5.407,1.071-6.9.078-.565.119-1.025.615-1.089A18.965,18.965,0,0,1,147.2.513c.881.189,3.5.554,3.6,1.348"/>
    <path id="パス_222" data-name="パス 222" d="M177.838,16.272a37.949,37.949,0,0,0,4.515-1.737c4.36-1.83,9.5-4.1,14.191-4.347,5.842-.3,10.581,3.2,10.9,9.243.323,6.192-4.022,10.223-9.147,12.743-1.708.841-5.732,2.4-7.579,2.5-1.648.086-2.524-3.272-2.545-3.671-.044-.849.9-1,1.545-1.083a22.481,22.481,0,0,0,8.408-2.942c2.568-1.636,4.686-4.2,4.519-7.395-.169-3.246-2.809-4.91-5.855-4.75-4.843.253-11.19,3.337-15.314,5.856a2.615,2.615,0,0,1-1.372.572c-1.3.069-3.252-2.833-3.306-3.882-.034-.649.5-.927,1.043-1.106"/>
    <path id="パス_223" data-name="パス 223" d="M218.592,2.97c7.307-.3,14.621-.906,21.936-1.608,3.758-.375,7.617-.8,11.378-1.322a2.44,2.44,0,0,1,.6-.038c.749.016.835.667.974,1.27a30.154,30.154,0,0,1,.326,3.657c-.022,1.1-1.07.979-2.22,1.006-2.951-.01-5.5-.061-8.32.883a15.134,15.134,0,0,0-8.7,7.275,18.712,18.712,0,0,0-2.576,8.75c-.117,5.8,3.6,7.273,8.652,7.375.9.019,2-.01,2.5,0,.75.015,1.149.073,1.132.873a11.956,11.956,0,0,1-.989,4.431,1.559,1.559,0,0,1-1.459.47c-8.5-.171-15.742-3.017-15.546-12.765a22.2,22.2,0,0,1,5.788-14.236c.255-.245.918-.881.924-1.181.008-.4-.438-.61-.738-.615-.4-.008-2.657.3-3.209.385a99.893,99.893,0,0,0-11.088,1.827,3.783,3.783,0,0,1-.752.084c-1.2-.023-1.554-4.781-1.544-5.281.027-1.3.723-1.136,2.926-1.241"/>
    <path id="パス_224" data-name="パス 224" d="M268.723,26.522c1.143.128,8.919,7.942,8.78,9.185-.123,1.092-2.913,3.546-4.055,3.419-.4-.045-.7-.532-.911-.858a30.782,30.782,0,0,0-6.794-7.6c-.326-.239-.838-.6-.789-1.045.1-.845,2.924-3.194,3.769-3.1"/>
    <path id="パス_225" data-name="パス 225" d="M322.945,10.18a13.267,13.267,0,0,0,2.139.244c.3.048.8.029,1.1.077,1.036.168,2.72,3.226,2.616,3.867a9.589,9.589,0,0,1-1.4,1.75c-.367.4-.743.842-1,1.156a72.5,72.5,0,0,1-7.933,8.342,1.36,1.36,0,0,0-.547.874,1.336,1.336,0,0,0,.549,1.3,80.385,80.385,0,0,1,7.313,7.717c1.017,1.229,2.067,2.564,3.011,3.932a.951.951,0,0,1,.234.746c-.167,1.037-3.353,3.511-4.39,3.343a1.672,1.672,0,0,1-1.114-.94A53.184,53.184,0,0,0,314.2,31.053a1.76,1.76,0,0,0-1.064-.627,2.387,2.387,0,0,0-1.616.6,55.645,55.645,0,0,1-13.737,6.642,8.341,8.341,0,0,1-2.323.587c-1.037-.167-2.774-3.842-2.629-4.73.1-.592.727-.743,1.2-.82,9.28-1.944,18.794-8.156,25.041-15.149.311-.355,1.038-1.1,1.11-1.542.12-.741-.555-.951-1.3-1.071l-10.218-1.652c-2.123-.343-4.262-.588-6.384-.93-1.333-.216-1.114-.941-.748-3.211.279-1.728.35-2.476,1.584-2.277,2.123.343,4.229.786,6.4,1.136Z"/>
    <path id="パス_226" data-name="パス 226" d="M369.029,22.515c1.26.32,2.483.58,3.743.9,1.938.492,3.1.994,2.51,3.32-.369,1.454-.787,2.9-1.157,4.349l-4.137,16.283c-.382,1.5-.655,2.982-1.024,4.435-.381,1.5-.684,1.477-3.3.812-2.23-.566-2.253-.675-2.2-1.694.03-1.128-.636-1.349-2.043-1.706l-15.75-4c-2.131-.541-5.077-1.135-6.288-1.442-1.259-.321-.991-.975-.436-3.156.492-1.938.543-2.545,1.706-2.249s3.949,1.107,6.275,1.7l16.72,4.249a1.539,1.539,0,0,0,1.823-1.085l3.485-13.715a1.537,1.537,0,0,0-1.084-1.823L351.1,23.428c-2.084-.529-5.029-1.122-6.24-1.431-1.067-.27-.991-.973-.388-3.348.505-1.987.8-2.326,1.67-2.1.727.185,1.381.454,2.059.627,1.393.4,2.8.763,4.2,1.119Zm11.156.152c-.185.727-2.311,1.786-2.893,1.638-.242-.062-.375-.353-.47-.583a47.408,47.408,0,0,0-2.65-4.8c-.108-.183-.338-.5-.276-.741.136-.533,2.358-1.568,2.844-1.445.533.136,3.605,5.3,3.445,5.932m5.5-2.162c-.185.728-2.263,1.8-2.893,1.639-.242-.062-.411-.414-.506-.645a46.211,46.211,0,0,0-2.614-4.74c-.108-.182-.35-.45-.289-.692.149-.582,2.263-1.592,2.844-1.445.484.123,3.63,5.2,3.458,5.883"/>
    <path id="パス_227" data-name="パス 227" d="M400.676,60.226c-.746,2.07-1.4,4.174-2.127,6.2-.458,1.271-1.12,1.192-2.86.564-2.588-.932-3.007-1.242-2.567-2.466.729-2.023,1.552-4.012,2.282-6.034l4.61-12.8c.1-.282.616-1.267-.277-1.589a5.581,5.581,0,0,0-2.225.421c-1.784.526-11.062,2.817-12.284,2.377-.8-.288-2.636-4.193-2.314-5.086.17-.471.661-.506,1.041-.528a71.969,71.969,0,0,0,22.981-5.8,42.436,42.436,0,0,0,9.262-5.645c.226-.184.678-.553,1.007-.434a18.438,18.438,0,0,1,2.5,3.081c.4.515,1.428,1.79,1.225,2.354-.1.283-.371.292-.641.3a2.7,2.7,0,0,0-2.241.468,97.478,97.478,0,0,1-8.987,4.733c-.96.451-1.455.646-1.846,1.728Z"/>
    <path id="パス_228" data-name="パス 228" d="M436.567,75.926a6.952,6.952,0,1,1-3.012-9.358,6.969,6.969,0,0,1,3.012,9.358m-10.146-5.205a4.451,4.451,0,1,0,7.92,4.063,4.4,4.4,0,0,0-1.928-5.991,4.461,4.461,0,0,0-5.992,1.928"/>
  </g>
</svg>
