<svg xmlns="http://www.w3.org/2000/svg" xmlns:xlink="http://www.w3.org/1999/xlink" width="452.019" height="176.433" viewBox="0 0 452.019 176.433">
  <defs>
    <clipPath id="clip-path">
      <rect id="長方形_2" data-name="長方形 2" width="300" height="72.828"/>
    </clipPath>
    <clipPath id="clip-path-2">
      <rect id="長方形_5" data-name="長方形 5" width="73.541" height="22.376"/>
    </clipPath>
    <clipPath id="clip-path-3">
      <rect id="長方形_21" data-name="長方形 21" width="452.019" height="82.263" fill="none"/>
    </clipPath>
  </defs>
  <g id="グループ_178" data-name="グループ 178" transform="translate(-414 -2178)">
    <g id="グループ_22" data-name="グループ 22" transform="translate(26 754.834)">
      <g id="グループ_21" data-name="グループ 21" transform="translate(464 1526.771)">
        <g id="グループ_18" data-name="グループ 18" transform="translate(0 0)">
          <g id="グループ_3" data-name="グループ 3" transform="translate(0 0)" clip-path="url(#clip-path)">
            <path id="パス_11" data-name="パス 11" d="M143.8,18.356a2.129,2.129,0,0,0-.455-1.14,2.176,2.176,0,0,0-.453-1.128v-.007a2.2,2.2,0,0,0-.369-1.063,2.476,2.476,0,0,0-.523-.831l-.039-.163a2.455,2.455,0,0,0-1.148-1.56c-.042-.053-.085-.1-.128-.151a2.431,2.431,0,0,0-1.135-1.425,2.5,2.5,0,0,0-.8-.941,1.954,1.954,0,0,0-1.4-1.005c-.124-.045-.478-.209-.846-.391a2.428,2.428,0,0,0-1.867-1.458,4.6,4.6,0,0,1-1.759-.9,14.907,14.907,0,0,0-1.467-.912,2.437,2.437,0,0,0-.877-.263l-.38-.043a2.474,2.474,0,0,0-1.8-.629l-.2.014a2.2,2.2,0,0,0-.394-.1,2.432,2.432,0,0,0-.725-.019,2.73,2.73,0,0,0-.781.041,2.789,2.789,0,0,0-1.01-.13,2.688,2.688,0,0,0-.38.058,3.084,3.084,0,0,0-1.293.111,1.973,1.973,0,0,0-.2.07l-1.345-.026a2.366,2.366,0,0,0-.375.028,2.463,2.463,0,0,0-.747-.152l-1.93-.077a2.4,2.4,0,0,0-1.618.623c-.06.028-.123.06-.188.1a2.485,2.485,0,0,0-1.751,1.662l-.075.249a6.635,6.635,0,0,0-.691.329,2.451,2.451,0,0,0-1.68,1.076c-.1.083-.19.17-.279.261l-1.444.492a2.375,2.375,0,0,0-1.359,1.141,2.936,2.936,0,0,0-.7.679,4.779,4.779,0,0,0-1.625,1.494,2.464,2.464,0,0,0-1.433,1.375,2.4,2.4,0,0,0-.315.517c-.043.091-.079.178-.112.266a2.682,2.682,0,0,0-.275.333,2.478,2.478,0,0,0-1.081,2.067l0,.085a2.465,2.465,0,0,0-.456,1.121l-.033.239a2.407,2.407,0,0,0-.483,1.427,2.432,2.432,0,0,0-.31,1.378,2.5,2.5,0,0,0-.134.729l-.123,4.244a1.981,1.981,0,0,0,.06.534,3.435,3.435,0,0,0,.171,1.721,1.91,1.91,0,0,0,.181.367q.02.065.046.128l-.038.821a2.481,2.481,0,0,0,.658,1.567V31.2a2.07,2.07,0,0,0,.311.967,3.746,3.746,0,0,0,.914,1.282l.228.569a2.477,2.477,0,0,0,.63.9,2.89,2.89,0,0,0,1,1.045,3.931,3.931,0,0,0,.641.769,2.221,2.221,0,0,0,.829.968,2.413,2.413,0,0,0,.835.8l.491.285a2.428,2.428,0,0,0,1.364,1.168,2.4,2.4,0,0,0,.46.112,1.888,1.888,0,0,0,.291.1l.115.031a2.447,2.447,0,0,0,2.063.922l.174-.009a3.064,3.064,0,0,0,.6.184l.2.028c.079.03.159.058.238.083a2.849,2.849,0,0,0,1.475.5,2.477,2.477,0,0,0,1.83.668h.035a2.433,2.433,0,0,0,1.764.238l2.416-.119a2.305,2.305,0,0,0,1.044-.249,2.151,2.151,0,0,0,.888-.3l2.24-.276a1.928,1.928,0,0,0,.758-.275,2.461,2.461,0,0,0,.864-.1,2.136,2.136,0,0,0,.86-.545,2.046,2.046,0,0,0,.366-.242,2.328,2.328,0,0,0,1.313-.3,2.518,2.518,0,0,0,1.444-1.164,2.5,2.5,0,0,0,.694-.489,2.494,2.494,0,0,0,.431-.306,2.239,2.239,0,0,0,.361-.2,2.451,2.451,0,0,0,1.119-.858l.188-.135a2.464,2.464,0,0,0,1.223-.832,2.419,2.419,0,0,0,.924-.9l.168-.289a2.14,2.14,0,0,0,1.093-1.375c.07-.09.14-.182.207-.281a3.111,3.111,0,0,0,1.108-1.634l.026-.043c.071-.113.142-.228.239-.409a2.632,2.632,0,0,0,.134-.293,2.464,2.464,0,0,0,.417-.558,2.409,2.409,0,0,0,.289-.928l.031-.29a2.537,2.537,0,0,0,.991-1.466,3.293,3.293,0,0,0,.276-.564,2.589,2.589,0,0,0,.486-1.077,2.448,2.448,0,0,0,.443-1.568l-.035-.588c.027-.081.051-.163.07-.243a2.342,2.342,0,0,0,.4-1.488l-.034-.595a2.5,2.5,0,0,0,.134-.938,2.738,2.738,0,0,0,.131-1.022,2.245,2.245,0,0,0-.244-.849Zm-9.307,2.671c-.021.059-.039.118-.057.179a2.417,2.417,0,0,0-.469.742,2.369,2.369,0,0,0-.518,1.327c-.023.057-.046.116-.066.176a2.364,2.364,0,0,0-.386.931l-.1.532c-.014.037-.03.074-.043.114a2.763,2.763,0,0,0-.878.946,2.424,2.424,0,0,0-.269.782,2.306,2.306,0,0,0-.244.311l-.232.351a2.628,2.628,0,0,0-.472.5,1.5,1.5,0,0,1-.205.232,2.766,2.766,0,0,0-.615.809,2.869,2.869,0,0,0-.426.644c-.131.1-.257.214-.389.337l-.049.012a2.63,2.63,0,0,0-1.12.8l-.2.053a2.491,2.491,0,0,0-1.393,1.005,2.354,2.354,0,0,0-1.261.8l-4.57.9a3.008,3.008,0,0,0-1.292.209l-.078,0a2.409,2.409,0,0,0-1.1-.409c-.053-.005-.341-.025-.695-.035l-.118-.005a2.455,2.455,0,0,0-1.531-.61,3.582,3.582,0,0,0-.993-.529,2.484,2.484,0,0,0-1.139-.6,3.959,3.959,0,0,0-.35-.315,8.258,8.258,0,0,0-.928-1.53,1.33,1.33,0,0,0-.157-.161l-.022-.347a1.419,1.419,0,0,0-.015-.171A4.263,4.263,0,0,0,112,27.718a2.44,2.44,0,0,0,.174-.885,4.018,4.018,0,0,0-.237-1.277c-.01-.033-.021-.071-.033-.106a2.708,2.708,0,0,0,.244-1.156,2.39,2.39,0,0,0,.192-1.1l0-.077a3.572,3.572,0,0,0,.4-1.1,2.4,2.4,0,0,0,.144-.4l.092-.341a2.4,2.4,0,0,0,.338-.6,2.607,2.607,0,0,0,.379-.645,2.227,2.227,0,0,0,.509-.754c.033-.043.063-.088.088-.128l.007-.009a2.466,2.466,0,0,0,.8-.672l.592-.767a2.448,2.448,0,0,0,1.3-.752,2.562,2.562,0,0,0,.718-.52l.129-.035a2.292,2.292,0,0,0,.926-.605,2.233,2.233,0,0,0,.864-.378c.034-.015.066-.032.1-.048l.26-.018a2.068,2.068,0,0,0,1.088-.4,2.783,2.783,0,0,0,.4-.233l.4-.091a1.956,1.956,0,0,0,.788-.4,2.194,2.194,0,0,0,1.805-.97l.175.04a7.933,7.933,0,0,0,.821.154,3.936,3.936,0,0,0,1.267-.092,2.6,2.6,0,0,0,.455.015l.391-.027a2.554,2.554,0,0,0,.477.117l.069.009a2.209,2.209,0,0,0,1.262.338,1.08,1.08,0,0,0,.311-.029,1.588,1.588,0,0,0,.164.078c.67.291.67.291.8.508a2.248,2.248,0,0,0,1.075.811,2.475,2.475,0,0,0,1.313.952c.26.288.541.562.8.806a2.475,2.475,0,0,0,.8,1.273l.061.917c-.009.024-.016.047-.024.071a2.739,2.739,0,0,0-.255.745,2.562,2.562,0,0,0,.059,1.093" transform="translate(-15.298 -0.616)"/>
            <path id="パス_12" data-name="パス 12" d="M344.976,19l-.041-.649a2.135,2.135,0,0,0-.455-1.138,2.173,2.173,0,0,0-.454-1.129v-.008a2.193,2.193,0,0,0-.369-1.064,2.474,2.474,0,0,0-.523-.829l-.038-.163a2.46,2.46,0,0,0-1.149-1.559c-.041-.052-.084-.1-.127-.151a2.424,2.424,0,0,0-1.133-1.424,2.515,2.515,0,0,0-.8-.943,1.96,1.96,0,0,0-1.394-1.006c-.124-.044-.478-.207-.847-.39a2.426,2.426,0,0,0-1.866-1.457,4.534,4.534,0,0,1-1.759-.9,14.6,14.6,0,0,0-1.468-.913,2.443,2.443,0,0,0-.877-.263l-.38-.042a2.474,2.474,0,0,0-1.8-.63l-.205.014a2.205,2.205,0,0,0-.394-.1,2.431,2.431,0,0,0-.725-.02,2.727,2.727,0,0,0-.781.042,2.734,2.734,0,0,0-1.01-.13,2.5,2.5,0,0,0-.379.058,3.075,3.075,0,0,0-1.295.11,2,2,0,0,0-.2.071l-1.345-.026a2.037,2.037,0,0,0-.376.028,2.489,2.489,0,0,0-.747-.152l-1.93-.076a2.391,2.391,0,0,0-1.618.623c-.06.028-.123.06-.188.1a2.485,2.485,0,0,0-1.751,1.662l-.075.248a7.394,7.394,0,0,0-.691.329A2.451,2.451,0,0,0,314.109,8.2c-.1.083-.191.171-.28.262l-1.444.491a2.381,2.381,0,0,0-1.358,1.142,2.932,2.932,0,0,0-.7.678,4.767,4.767,0,0,0-1.626,1.494,2.469,2.469,0,0,0-1.433,1.376,2.449,2.449,0,0,0-.317.518c-.042.09-.077.177-.109.262a2.9,2.9,0,0,0-.276.335,2.457,2.457,0,0,0-1.08,2.021l0,.131a2.487,2.487,0,0,0-.457,1.122l-.031.24a2.4,2.4,0,0,0-.483,1.426,2.41,2.41,0,0,0-.309,1.381,2.477,2.477,0,0,0-.135.727l-.123,4.244a2,2,0,0,0,.06.534,3.435,3.435,0,0,0,.171,1.721,1.972,1.972,0,0,0,.182.368c.014.043.028.085.045.126l-.038.821a2.483,2.483,0,0,0,.659,1.568V31.2a2.065,2.065,0,0,0,.31.97,3.763,3.763,0,0,0,.914,1.282l.229.568a2.453,2.453,0,0,0,.63.9,2.876,2.876,0,0,0,1,1.045,3.931,3.931,0,0,0,.641.769,2.222,2.222,0,0,0,.828.967,2.406,2.406,0,0,0,.835.8l.491.285a2.43,2.43,0,0,0,1.364,1.168,2.372,2.372,0,0,0,.46.112,2.015,2.015,0,0,0,.291.1l.115.031a2.449,2.449,0,0,0,2.063.921l.174-.009a3.148,3.148,0,0,0,.6.183l.2.029c.079.029.16.058.239.083a2.862,2.862,0,0,0,1.474.5,2.491,2.491,0,0,0,1.83.669h.035a2.444,2.444,0,0,0,1.765.239l2.416-.119a2.421,2.421,0,0,0,1.044-.249,2.129,2.129,0,0,0,.887-.3l2.24-.274a1.933,1.933,0,0,0,.759-.276,2.485,2.485,0,0,0,.865-.1,2.145,2.145,0,0,0,.86-.545,2.113,2.113,0,0,0,.366-.243,2.319,2.319,0,0,0,1.313-.3,2.511,2.511,0,0,0,1.444-1.164,2.42,2.42,0,0,0,.695-.49,2.513,2.513,0,0,0,.43-.3,2.314,2.314,0,0,0,.361-.2,2.447,2.447,0,0,0,1.12-.86l.187-.134a2.453,2.453,0,0,0,1.223-.832,2.427,2.427,0,0,0,.924-.906l.168-.289a2.147,2.147,0,0,0,1.094-1.376c.07-.089.139-.181.207-.28a3.111,3.111,0,0,0,1.107-1.635l.028-.046c.071-.113.141-.228.237-.408a2.384,2.384,0,0,0,.133-.291,2.5,2.5,0,0,0,.419-.558,2.451,2.451,0,0,0,.288-.927l.031-.291a2.534,2.534,0,0,0,.992-1.467,3.315,3.315,0,0,0,.275-.563,2.6,2.6,0,0,0,.487-1.077,2.453,2.453,0,0,0,.443-1.567l-.036-.588a2.3,2.3,0,0,0,.069-.243,2.341,2.341,0,0,0,.4-1.489l-.034-.594a2.312,2.312,0,0,0,.134-.925v-.012a2.742,2.742,0,0,0,.132-1.027,2.246,2.246,0,0,0-.245-.847m-9.348,2.022c-.02.059-.038.118-.056.179a2.444,2.444,0,0,0-.469.741,2.359,2.359,0,0,0-.518,1.328c-.023.057-.047.116-.067.175a2.373,2.373,0,0,0-.386.932l-.1.533c-.014.036-.027.072-.043.112a2.767,2.767,0,0,0-.877.946,2.4,2.4,0,0,0-.271.784,2.313,2.313,0,0,0-.244.31l-.232.352a2.579,2.579,0,0,0-.472.5,1.679,1.679,0,0,1-.2.231,2.737,2.737,0,0,0-.618.809,2.889,2.889,0,0,0-.426.644c-.131.1-.256.215-.387.337l-.051.013a2.62,2.62,0,0,0-1.119.8l-.2.052a2.486,2.486,0,0,0-1.393,1.006,2.353,2.353,0,0,0-1.261.8l-4.571.9a3.023,3.023,0,0,0-1.291.209l-.078,0a2.416,2.416,0,0,0-1.1-.409c-.054-.005-.342-.025-.695-.035l-.118,0a2.455,2.455,0,0,0-1.53-.611,3.581,3.581,0,0,0-.994-.528,2.479,2.479,0,0,0-1.14-.6,3.6,3.6,0,0,0-.349-.315,8.337,8.337,0,0,0-.93-1.535,1.413,1.413,0,0,0-.155-.157l-.022-.356a1.464,1.464,0,0,0-.016-.163,4.25,4.25,0,0,0-.115-1.289,2.446,2.446,0,0,0,.175-.886,4.082,4.082,0,0,0-.237-1.276c-.01-.033-.021-.069-.033-.1a2.711,2.711,0,0,0,.244-1.158,2.378,2.378,0,0,0,.192-1.1l0-.075a3.581,3.581,0,0,0,.405-1.1,2.45,2.45,0,0,0,.143-.4l.093-.341a2.376,2.376,0,0,0,.337-.6,2.612,2.612,0,0,0,.38-.645,2.2,2.2,0,0,0,.508-.754c.033-.043.063-.087.086-.124l.008-.012a2.481,2.481,0,0,0,.806-.674l.59-.766a2.443,2.443,0,0,0,1.3-.752,2.562,2.562,0,0,0,.719-.52l.129-.034a2.3,2.3,0,0,0,.924-.606,2.234,2.234,0,0,0,.864-.378c.034-.015.066-.031.1-.048l.261-.017a2.059,2.059,0,0,0,1.085-.4,2.588,2.588,0,0,0,.4-.233l.4-.09a1.948,1.948,0,0,0,.788-.4,2.193,2.193,0,0,0,1.805-.969l.176.04a8.178,8.178,0,0,0,.822.154,4,4,0,0,0,1.266-.093,2.608,2.608,0,0,0,.455.015l.391-.027a2.427,2.427,0,0,0,.477.117l.069.01a2.17,2.17,0,0,0,1.263.336,1.606,1.606,0,0,0,.31-.027c.055.028.11.055.164.077.671.291.671.291.8.508a2.237,2.237,0,0,0,1.074.811,2.477,2.477,0,0,0,1.313.953c.26.287.541.561.8.806a2.467,2.467,0,0,0,.8,1.272l.06.917c-.009.024-.016.049-.024.072a2.666,2.666,0,0,0-.254.744,2.573,2.573,0,0,0,.058,1.092" transform="translate(-45.227 -0.616)"/>
            <path id="パス_13" data-name="パス 13" d="M284.542,16.4l0-.016c-.017-.063-.035-.124-.056-.185a3.331,3.331,0,0,0-.113-1.753,2.01,2.01,0,0,0-.134-.315,2.141,2.141,0,0,0-.224-.65l-.029-.5a2.239,2.239,0,0,0-.46-1.175l-.063-.236a2.181,2.181,0,0,0-.418-.809,2.766,2.766,0,0,0-1.111-1.408,4.735,4.735,0,0,0-1.4-1.6,2.581,2.581,0,0,0-.425-.186,2.5,2.5,0,0,0-1.117-.659,2.433,2.433,0,0,0-1.229-.7,2.527,2.527,0,0,0-.712-.319l-.335-.089a2.415,2.415,0,0,0-1.291-.489l-.326-.028a2.458,2.458,0,0,0-1.58-.456l-.974.06a2.45,2.45,0,0,0-.965-.131l-1.173.1a2.048,2.048,0,0,0-.353-.005l-1.15.071a2.064,2.064,0,0,0-1.092.4c-.038.018-.077.037-.114.057l-1.26.076a2.24,2.24,0,0,0-1.135.4l-.527.112a2.361,2.361,0,0,0-.65.229,2.105,2.105,0,0,0-1.141.243,1.676,1.676,0,0,0-.17.006,2.171,2.171,0,0,0-.86.249l-.085,0a2.437,2.437,0,0,0-1.708.876,2.464,2.464,0,0,0-1.608.8,2.209,2.209,0,0,0-.558.363,2.449,2.449,0,0,0-1.1.7,4.016,4.016,0,0,0-.5-.45.518.518,0,0,1-.041-.112,2.674,2.674,0,0,0-1.65-1.778,2.444,2.444,0,0,0-1.158-.9,2.377,2.377,0,0,0-.784-.351,2.446,2.446,0,0,0-.926-.5c-.037-.02-.076-.039-.119-.06a2.458,2.458,0,0,0-.815-.543,2.474,2.474,0,0,0-1.214-.516l-.027-.008a2.459,2.459,0,0,0-2.338-.83l-.011,0a2.433,2.433,0,0,0-1.616-.494l-.8.049a2.4,2.4,0,0,0-1.067-.123l-4.025.438a2.091,2.091,0,0,0-1,.473,2.93,2.93,0,0,0-2.021.959l-1.879.71a2.416,2.416,0,0,0-.876.563,2.5,2.5,0,0,0-.864.813c-.092.072-.182.149-.271.231l-.094.031a2.5,2.5,0,0,0-.978.6,2.441,2.441,0,0,0-.464.336,3,3,0,0,0-.921.712l-.031.036a2.441,2.441,0,0,0-1.277.963,6.938,6.938,0,0,0-1.387,1.127c-.052.057-.1.114-.148.174a2.446,2.446,0,0,0-.772.678,7,7,0,0,0-1.3,1.053,2.153,2.153,0,0,0-.868.686,2.383,2.383,0,0,0-.913.891,5.255,5.255,0,0,0-1.14,1.157,2.7,2.7,0,0,0-.73.862,3.351,3.351,0,0,0-.338.479c-.046.032-.09.066-.132.1a3.077,3.077,0,0,0-1.563,1.768,4.828,4.828,0,0,0-1.113,1.633,3.275,3.275,0,0,0-.764.952,3.306,3.306,0,0,0-.769,1.421,3.773,3.773,0,0,0-.609.766,7.8,7.8,0,0,0-1.419,2.054,2.383,2.383,0,0,0-.763,1.24h0c-.006.015-.009.03-.013.041l-.009.048a2.453,2.453,0,0,0-.892,1.494,3.4,3.4,0,0,0-.227.442,2.265,2.265,0,0,0-.8,1.455,4.007,4.007,0,0,0-.357.409,3.346,3.346,0,0,0-.263.239,2.494,2.494,0,0,0-.585,1.068,2.408,2.408,0,0,0-.437.738,3.926,3.926,0,0,0-.259,1.4,2.877,2.877,0,0,0-.331,1.684,3.636,3.636,0,0,0,.711,1.967c.025.031.052.065.08.1a2.457,2.457,0,0,0,.807,1.107l1.609,1.244a2.894,2.894,0,0,0,1.879.489,2.977,2.977,0,0,0,2.509-1.375A3.185,3.185,0,0,0,218.768,38l.024-.026a2.376,2.376,0,0,0,.59-1.325,2.459,2.459,0,0,0,.847-1.468,3.728,3.728,0,0,0,.349-.8,4.55,4.55,0,0,0,.889-1.5c.037-.051.072-.1.1-.161a2.519,2.519,0,0,0,.417-.657,2.467,2.467,0,0,0,.819-1.342,2.524,2.524,0,0,0,.3-.657,2.5,2.5,0,0,0,.69-.635l.9-1.222a2.5,2.5,0,0,0,.314-.762l.07-.1.06-.092a5.3,5.3,0,0,0,.491-.872,4.021,4.021,0,0,0,1.05-1.582,2.614,2.614,0,0,0,.792-.944,3.674,3.674,0,0,0,.223-.3c.047-.035.094-.072.139-.109a2.431,2.431,0,0,0,1.049-1.209l.393-.53a2.462,2.462,0,0,0,.954-.806,2.467,2.467,0,0,0,.359-.406,2.384,2.384,0,0,0,.437-.522,9.315,9.315,0,0,0,1.739-1.5,2.074,2.074,0,0,0,.159-.2,2.425,2.425,0,0,0,.9-.593,2.814,2.814,0,0,0,1.173-.809,2.307,2.307,0,0,0,1.273-1,2.488,2.488,0,0,0,.689-.508,2.486,2.486,0,0,0,1.117-.918,3.17,3.17,0,0,0,.366-.236,2.457,2.457,0,0,0,.694-.492,2.411,2.411,0,0,0,.314-.211,2.159,2.159,0,0,0,.772-.4,3.02,3.02,0,0,0,.506-.363,2.427,2.427,0,0,0,.643-.433l.461-.185a2.083,2.083,0,0,0,.335-.173l1.379-.2a2.04,2.04,0,0,0,.958-.48l.427.042a2.638,2.638,0,0,0,.381.161,2.485,2.485,0,0,0,1.107.291c.065.023.132.043.2.064l.615.163a2.448,2.448,0,0,0,1.267.568c.061.025.117.046.116.037a2.672,2.672,0,0,0,.274.13,2.286,2.286,0,0,0,.422.334l.334.21.009.152a3.96,3.96,0,0,0-.255.621,2.622,2.622,0,0,0-.384,1.205,2.408,2.408,0,0,0-.675,1.793,2.424,2.424,0,0,0-.481.748,1.989,1.989,0,0,0-.195.267,2.5,2.5,0,0,0-1.412,1.316l-.186.436a2.337,2.337,0,0,0-.149.491l-.2.16a2.347,2.347,0,0,0-.65,1.1,2.507,2.507,0,0,0-.544,1.131l-.059.312c-.06.079-.124.159-.195.245a7.2,7.2,0,0,0-1.13,1.851,2.41,2.41,0,0,0-1.077,1.65,2.949,2.949,0,0,1-.279.749,9.794,9.794,0,0,0-.43,1.039,3.256,3.256,0,0,0-.728,1.352,2.21,2.21,0,0,0-.241.25,2.408,2.408,0,0,0-.564,1.833,3.287,3.287,0,0,0-.508,1.6,6.541,6.541,0,0,0,.335,2.929,2.1,2.1,0,0,0,.139.272,2.326,2.326,0,0,0,.553.944,2.616,2.616,0,0,0,1.613,1.329,2.5,2.5,0,0,0,.842.6,4.451,4.451,0,0,0,2.7.134,3.3,3.3,0,0,1,.386-.068,2.806,2.806,0,0,0,2.31-2.148l.012-.018a5.288,5.288,0,0,0,.449-.87,3.078,3.078,0,0,0,.388-.472q.056-.079.112-.153a2.758,2.758,0,0,0,.738-.8,2.611,2.611,0,0,0,1-1.41c.037-.052.071-.106.1-.161a2.127,2.127,0,0,0,.289-.334,2.417,2.417,0,0,0,.823-1.269,3.8,3.8,0,0,0,.207-.469,2.389,2.389,0,0,0,.67-1.161,2.208,2.208,0,0,0,.488-.914c.014-.031.032-.064.049-.1l.015-.03a2.5,2.5,0,0,0,.593-.941,1.823,1.823,0,0,0,.308-1.112,3,3,0,0,0,.585-1.295,2.348,2.348,0,0,0,.335-.752,2.378,2.378,0,0,0,.589-1.7,2.454,2.454,0,0,0,.655-1.461l.069-.074c.056-.066.11-.134.16-.206l.341-.3a2.331,2.331,0,0,0,.6-1.056,2.164,2.164,0,0,0,.169-.226l.009-.012a2.44,2.44,0,0,0,.866-.76,2.7,2.7,0,0,0,.335-.367l.472-.648,1.049-.42a2.464,2.464,0,0,0,1.085-.861l.194-.278.106-.027a2.732,2.732,0,0,0,1.15-.85l.039-.012a1.874,1.874,0,0,0,.665-.39,2.451,2.451,0,0,0,.643-.2,2.447,2.447,0,0,0,1.349-.661l1.292-.295a2.138,2.138,0,0,0,.849-.41,1.965,1.965,0,0,0,.676-.232l1.493-.093a1.763,1.763,0,0,0,.516-.1l.231.026a2.207,2.207,0,0,0,1.376-.33l.31-.051a2.386,2.386,0,0,0,.506.177,3.4,3.4,0,0,0,1.4.028l.045.012c.043.038.087.076.135.114a6.727,6.727,0,0,0,.855.6,7.89,7.89,0,0,1,.3,1.576,3.433,3.433,0,0,0-.112.347,2.352,2.352,0,0,0-.455,1.573l.034.529a2.355,2.355,0,0,0-.157.181,2.5,2.5,0,0,0-.46,1.981,2.466,2.466,0,0,0-.153,1.018l.034.521c-.014.04-.026.081-.037.122a3.137,3.137,0,0,0-.234.395,2.315,2.315,0,0,0-.427.768,3.564,3.564,0,0,0-.192,1.2,3.213,3.213,0,0,0-.138.341,2.422,2.422,0,0,0-.788,1.554l-.019.166a2.508,2.508,0,0,0-.356.678l-.144.123a2.478,2.478,0,0,0-.816,1.347,1.338,1.338,0,0,0-.175.225,2.847,2.847,0,0,0-.66,1.1c-.094.094-.18.186-.249.268a6.5,6.5,0,0,0-.647.859,3.038,3.038,0,0,0-.693.912l-.067.123-.235.2a1.97,1.97,0,0,0-.462.6c-.089.069-.178.146-.261.22a.422.422,0,0,0-.035.03,2.374,2.374,0,0,0-.6.369,2.29,2.29,0,0,0-.934.661,2.46,2.46,0,0,0-1.144,2.242l.053.529a2.736,2.736,0,0,0-.1,1.394,2.115,2.115,0,0,0,.339.752,2.4,2.4,0,0,0,.6.862l.019.018a2.461,2.461,0,0,0,1.519,1.443,1.261,1.261,0,0,0,.322.031l.025,0a2.431,2.431,0,0,0,1.6.6q.082,0,.163-.005l1.536-.1a2.543,2.543,0,0,0,1.685-.929c.033-.04.067-.081.1-.126a2.665,2.665,0,0,0,.872-.788c.071-.047.139-.1.2-.146a2,2,0,0,0,.3-.34,2.477,2.477,0,0,0,1.189-1.406,1.841,1.841,0,0,0,.117-.246,2.467,2.467,0,0,0,.631-1.132,2.254,2.254,0,0,0,.321-.369l.895-1.273a2.594,2.594,0,0,0,1.306-1.662c.036-.047.071-.094.1-.142a2.475,2.475,0,0,0,.977-1.645l.006-.043a2.434,2.434,0,0,0,.683-1.151,2.27,2.27,0,0,0,.26-.49,2.463,2.463,0,0,0,.55-1.048,2.4,2.4,0,0,0,.758-1.917v-.019c.017-.048.032-.1.046-.146s.039-.072.058-.111a2.513,2.513,0,0,0,.549-1.4l.038-.625a2.414,2.414,0,0,0,.24-.829,2.521,2.521,0,0,0,.34-1.172l.03-1.061a2.562,2.562,0,0,0,.293-.62c.013-.038.034-.084.057-.135a2.363,2.363,0,0,0,.169-.478,2.787,2.787,0,0,0-.077-1.45l.043-.365a2.9,2.9,0,0,0,.411-2.337M240.294,31.945h0l-.116.053-.01-.006Z" transform="translate(-31.28 -0.416)"/>
            <path id="パス_14" data-name="パス 14" d="M81.065,16.088v0a2.112,2.112,0,0,0-.244-.832l-.068-1.078a2.374,2.374,0,0,0-.145-.685,9.517,9.517,0,0,0-.464-1.033,2.512,2.512,0,0,1-.329-.883,2.429,2.429,0,0,0-.773-1.494,3.133,3.133,0,0,0-.493-1.227,2.423,2.423,0,0,0-.87-.792A2.463,2.463,0,0,0,76.6,6.325l-.01-.007a2.445,2.445,0,0,0-.876-.944,2.462,2.462,0,0,0-1.585-.89l-.1-.015a3.915,3.915,0,0,0-.758-.38,2.434,2.434,0,0,0-.883-.4A2.382,2.382,0,0,0,70.9,3.3l-.226.012a2.439,2.439,0,0,0-1.336-.3l-1.121.066a2.745,2.745,0,0,0-1.028-.128,2.285,2.285,0,0,0-.466.088,2.733,2.733,0,0,0-.75,0,2.135,2.135,0,0,0-.621.213l-.8.049a1.968,1.968,0,0,0-.571.122l-.444-.037a2.073,2.073,0,0,0-.358.007c-.062,0-.119,0-.172,0l-1.151.071a2.064,2.064,0,0,0-.843.248l-.093.007a2.075,2.075,0,0,0-.845.238l-.3.021a2.1,2.1,0,0,0-.884.248,2.192,2.192,0,0,0-.718.237l-.1.007a2.467,2.467,0,0,0-1.37.515,2.547,2.547,0,0,0-.949.541l-1.074.431a1.9,1.9,0,0,0-.527.317l-.018.009a2.327,2.327,0,0,0-.918.472l-.026.008a2.12,2.12,0,0,0-.6.3,2.454,2.454,0,0,0-.856.611,1.984,1.984,0,0,0-.416.255,3.39,3.39,0,0,0-.558-.529,4.916,4.916,0,0,0-1.045-1.467A2.19,2.19,0,0,0,48.955,5l-.083-.208a2.279,2.279,0,0,0-.793-.987,2.452,2.452,0,0,0-2.059-1.641,2.334,2.334,0,0,0-.608-.255L45.36,1.9A2.42,2.42,0,0,0,44.176,1.2,2.418,2.418,0,0,0,42.449.62l-.036,0a2.453,2.453,0,0,0-1.168-.31A2.454,2.454,0,0,0,39.67.03L38.538.2A1.827,1.827,0,0,0,38.3.157a3.025,3.025,0,0,0-1.765.249L35.121.494a2.038,2.038,0,0,0-.844.243L33.4.792a2.132,2.132,0,0,0-1.246.492,3.16,3.16,0,0,0-.423.3l-.862.15a2.169,2.169,0,0,0-.911.4,2.281,2.281,0,0,0-.358.214l-.353.081a2.054,2.054,0,0,0-.859.472,2.351,2.351,0,0,0-.421.182,2.225,2.225,0,0,0-.589.239,2.268,2.268,0,0,0-.643.278,3.722,3.722,0,0,0-1.091.772l-1,.289a2.461,2.461,0,0,0-1.1.672,2.421,2.421,0,0,0-.792.73l-.117.117a2.271,2.271,0,0,0-.964.722,2.432,2.432,0,0,0-.889.747l-.05.021a2.58,2.58,0,0,0-.552.31,3.462,3.462,0,0,0-.561.528A2.309,2.309,0,0,0,18.38,9.623c-.136.115-.271.243-.432.4l-.063.066a2.483,2.483,0,0,0-.8.9l-.014.01a2.507,2.507,0,0,0-1.01.869,1.548,1.548,0,0,0-.186.205,3.888,3.888,0,0,0-.892,1.026,4.216,4.216,0,0,0-.552.438,2.976,2.976,0,0,0-.81.69,3.1,3.1,0,0,0-.381.313,1.175,1.175,0,0,0-.181.206,2.55,2.55,0,0,0-.606.912c-.087.1-.167.213-.243.324a2.515,2.515,0,0,0-.652.911,3.03,3.03,0,0,0-.643.6,2.339,2.339,0,0,0-1.06,1.494c-.03.045-.075.1-.116.152l-.043.054a2.3,2.3,0,0,0-1.236,1.568c-.059.06-.117.121-.174.182a2.355,2.355,0,0,0-.476.9,6.886,6.886,0,0,0-.409.689l-.014.016A2.876,2.876,0,0,0,6.19,24.2l-.014.025a4.956,4.956,0,0,0-.45.871,2.607,2.607,0,0,0-.146.553v0a2.429,2.429,0,0,0-.669,1.3,2.91,2.91,0,0,0-.169.672c-.017.037-.037.082-.062.139-.092.224-.191.461-.281.725a4.375,4.375,0,0,0-.455.439,2.454,2.454,0,0,0-.6,1.759l0,.031a2.836,2.836,0,0,0-.148.288,2.467,2.467,0,0,0-.665,1.365l-.044.323a3.408,3.408,0,0,0-.27.446,2.549,2.549,0,0,0-.526,1.211,2.434,2.434,0,0,0-.523,1.657v.017a2.664,2.664,0,0,0-.287.472,2.358,2.358,0,0,0-.246.364,3.156,3.156,0,0,0-.243.636A2.469,2.469,0,0,0,.02,39.145a5.31,5.31,0,0,0,.5,1.681,2.294,2.294,0,0,0,.769,1.153,4.92,4.92,0,0,0,.248.662,2.456,2.456,0,0,0,2.177,1.44l2.313.049h.044a2.233,2.233,0,0,0,1.166-.352,2.449,2.449,0,0,0,1-.719,2.474,2.474,0,0,0,1.351-2.689,2.446,2.446,0,0,0,.153-.683l.066-.837a2.567,2.567,0,0,0,.15-.5,1.294,1.294,0,0,0,.07-.237c.026-.054.049-.1.072-.157a2.392,2.392,0,0,0,.712-1.187l.114-.433a2.867,2.867,0,0,0,.412-1.067,3.443,3.443,0,0,0,.4-1.024,2.45,2.45,0,0,0,.844-1.9,2.171,2.171,0,0,0,.124-.315c.028-.056.054-.111.08-.167a2.432,2.432,0,0,0,.6-1.3,2.43,2.43,0,0,0,.192-.278,2.842,2.842,0,0,0,.242-.489,2.482,2.482,0,0,0,.957-1.582l.106-.676a3.772,3.772,0,0,0,.691-.949,3.012,3.012,0,0,0,.408-.432c.081-.1.16-.212.237-.326a2.468,2.468,0,0,0,.853-1.08,2.841,2.841,0,0,0,.508-.751l.037-.088a2.863,2.863,0,0,0,.216-.228,14.447,14.447,0,0,0,1.14-1.49,2.9,2.9,0,0,0,.722-.751,2.511,2.511,0,0,0,.584-.518l1.589-1.955a2.582,2.582,0,0,0,1.245-1.19,2,2,0,0,0,.2-.247,2.29,2.29,0,0,0,.9-.792,5.65,5.65,0,0,0,.888-.675.569.569,0,0,0,.085-.087h0c.092-.075.185-.157.271-.239a3.493,3.493,0,0,0,.621-.508,4.547,4.547,0,0,0,.455-.368A2.468,2.468,0,0,0,27.4,14.3a2.445,2.445,0,0,0,.848-.787l.008-.01a2.424,2.424,0,0,0,.511-.358,2.164,2.164,0,0,0,.424-.264,2.666,2.666,0,0,0,.392-.26,2.083,2.083,0,0,0,.729-.363,1.676,1.676,0,0,0,.336-.22,3.108,3.108,0,0,0,.609-.435l.192-.051a2.183,2.183,0,0,0,.8-.4,2.792,2.792,0,0,0,.333-.213l.188-.052a2,2,0,0,0,.455-.18,2.2,2.2,0,0,0,.84-.329,2.5,2.5,0,0,0,.781-.439l1.238-.181a2.2,2.2,0,0,0,.967-.4l.083-.042.455-.027a2.067,2.067,0,0,0,.829-.244l.1-.008a2.013,2.013,0,0,0,.793-.214c.045.007.089.014.127.022a3.937,3.937,0,0,0,1.254.048,2.107,2.107,0,0,0,.226-.052A.764.764,0,0,0,41,8.846l.158.016a2.445,2.445,0,0,0,.878.42l.035.025a2.451,2.451,0,0,0,.329.281,2.27,2.27,0,0,0,.11.218,2.45,2.45,0,0,0,.276.706,2.961,2.961,0,0,0-.037.491,2.585,2.585,0,0,0,.186.933l-.012.552a1.213,1.213,0,0,0-.08.22,2.424,2.424,0,0,0-.3,1.318l.018.307a1.851,1.851,0,0,0-.07.315,2.886,2.886,0,0,0-.157.591c-.042.114-.077.229-.107.343a2.4,2.4,0,0,0-.457,1.316l-.032.68a2.4,2.4,0,0,0-.392.973,2.273,2.273,0,0,0-.753,1.21l-.073.159a1.5,1.5,0,0,0-.106.249,2.447,2.447,0,0,0-.28.828L40,21.163a7.186,7.186,0,0,0-1.035,1.594,2.413,2.413,0,0,0-.732,1.32,3.75,3.75,0,0,1-.5.735l-.062.079a7.856,7.856,0,0,0-1.181,1.851c-.031.036-.06.072-.088.108a1.688,1.688,0,0,0-.854.93,3.167,3.167,0,0,0-.563.838A2.685,2.685,0,0,0,34.194,30a2.343,2.343,0,0,0-.573.842,2.386,2.386,0,0,0-.367.643,2.879,2.879,0,0,0-.185.815,2.472,2.472,0,0,0-.469,1.328l-.085,1.739a2.464,2.464,0,0,0,.616,1.739,2.815,2.815,0,0,0,.818.912,1.529,1.529,0,0,0,.226.134l.33.571a2.4,2.4,0,0,0,2.267,1.215l2.491-.154a2.458,2.458,0,0,0,1.528-.66l1.1-1.032a2.192,2.192,0,0,0,.508-.835l.124-.1a2.5,2.5,0,0,0,.707-1.045l.232-.212a2.415,2.415,0,0,0,.771-1.473l.012-.089a3.11,3.11,0,0,0,.377-.842c.033-.025.068-.05.1-.078a2.7,2.7,0,0,0,.98-1.687,4.057,4.057,0,0,0,.181-.443c.035-.042.069-.086.106-.133.074-.1.152-.208.228-.324a3.024,3.024,0,0,0,1.118-1.863,5.381,5.381,0,0,0,.5-.87,2.436,2.436,0,0,0,.744-1.571l.03-.369a3.333,3.333,0,0,0,.4-.875l.079-.068a2.433,2.433,0,0,0,.768-1.222l.127-.471a3.275,3.275,0,0,0,.384-.806l.1-.086A2.437,2.437,0,0,0,51.3,21.1l.032-.074a2.43,2.43,0,0,0,.789-1.294,2.583,2.583,0,0,0,.214-.3l.053-.077a2.482,2.482,0,0,0,.587-.587l.17-.243a2.5,2.5,0,0,0,.758-.576l.37-.42a1.877,1.877,0,0,0,.213-.328,2.427,2.427,0,0,0,.419-.324c.1-.069.191-.145.283-.225a2.465,2.465,0,0,0,1.723-1.144l.1-.041a2.14,2.14,0,0,0,.978-.851c.165-.1.326-.205.491-.317a2.349,2.349,0,0,0,.448-.189,2.363,2.363,0,0,0,.517-.149l.571-.23a2.025,2.025,0,0,0,.745-.563l.8-.215a2.064,2.064,0,0,0,.83-.476l.549-.079a2.814,2.814,0,0,0,.839.081,2.215,2.215,0,0,0,.93-.287,2.21,2.21,0,0,0,.6-.252l1.432-.171a2.385,2.385,0,0,0,1.026.07l1.337-.192a2.4,2.4,0,0,0,.461.071l.625.039a2.4,2.4,0,0,0,.332.136c.044.024.086.046.128.066a2.476,2.476,0,0,0,.383.622,2.469,2.469,0,0,0,.464.783,2.525,2.525,0,0,0,.206.379l.134.7a2.123,2.123,0,0,0,.278.728c-.007.277-.034.623-.073.938a2.174,2.174,0,0,0-.283.584,2.409,2.409,0,0,0-.3,1.321l.009.2a2.484,2.484,0,0,0-.13.957v.02a2.2,2.2,0,0,0-.072.249,2.3,2.3,0,0,0-.4,1.22l-.042.821a2.372,2.372,0,0,0-.195.6l-.124.646-.031.092a2.676,2.676,0,0,0-.414.684,3.37,3.37,0,0,0-.61,1.533c-.036.085-.07.171-.1.259a2.378,2.378,0,0,0-.378.859,2.687,2.687,0,0,0-.591,1.265,2.472,2.472,0,0,0-.849,1.748l-.092.14a2.449,2.449,0,0,0-1.31,2.042c0,.087-.005.1-.15.359l-.034.06a3.038,3.038,0,0,0-.8,1.027c-.1.076-.19.151-.272.222a3.168,3.168,0,0,0-1.681,2.257,5.321,5.321,0,0,0-.356,1.19,2.282,2.282,0,0,0,.554,1.763,3.611,3.611,0,0,0,.485.973,1.472,1.472,0,0,0,.089.117,2.463,2.463,0,0,0,.8,1.09A2.453,2.453,0,0,0,66.4,41.671l1.956.455a2.452,2.452,0,0,0,2.354-.734,2.327,2.327,0,0,0,1.385-1.406,2.492,2.492,0,0,0,.867-1.547L73,38.36a2.315,2.315,0,0,0,.619-1,4.807,4.807,0,0,0,.414-.782c.019-.026.036-.055.057-.091a3.114,3.114,0,0,0,.466-.732,2.76,2.76,0,0,0,.34-.571,1.924,1.924,0,0,0,.372-.489,4.028,4.028,0,0,0,.4-1.212,2.971,2.971,0,0,0,.767-1.027,2.37,2.37,0,0,0,.335-.636,3.1,3.1,0,0,0,.6-1.236,2.513,2.513,0,0,0,.611-1.306l.01-.076a2.524,2.524,0,0,0,.254-.611l.167-.616a2.48,2.48,0,0,0,.535-1.065,2.543,2.543,0,0,0,.381-1.115l.046-.577a2.348,2.348,0,0,0,.426-1.2l.034-.422a2.391,2.391,0,0,0,.25-.8l.012-.086a2.326,2.326,0,0,0,.209-.473,3.141,3.141,0,0,0,.293-1.1,2.5,2.5,0,0,0,.139-.643l.04-.475a2.856,2.856,0,0,0,.264-1.237l-.023-.384a2.544,2.544,0,0,0,.135-.97Z" transform="translate(0 0)"/>
            <path id="パス_15" data-name="パス 15" d="M199.648,8.257a2.614,2.614,0,0,0-.433-.81,3.9,3.9,0,0,0-.678-.588,5.027,5.027,0,0,0-.725-.511,5.779,5.779,0,0,0-.847-.258c-.279-.1-.511-.423-.8-.474s-.622.208-.906.22a2.664,2.664,0,0,0-.842.121c-.279.1-.416.352-.62.565-.226.164-.63.13-.861.307s-.47.327-.691.512-.272.547-.478.747-.49.311-.68.525-.214.544-.38.779-.626.273-.765.525a7.116,7.116,0,0,0-.355.8c-.1.26-.015.6-.088.88-.087.342-.05.7-.156.987a6.291,6.291,0,0,1-.456.893c-.169.294-.627.358-.832.6s-.235.661-.484.878a3.269,3.269,0,0,0-.477.584c-.168.221-.494.309-.609.528s-.215.466-.341.692a3.573,3.573,0,0,1-.471.585,2.7,2.7,0,0,0-.5.8c-.106.283.025.648-.048.935a4.721,4.721,0,0,1-.236.887,1.575,1.575,0,0,1-.62.709,2.9,2.9,0,0,0-.567.529,3.577,3.577,0,0,0-.26.752,3.521,3.521,0,0,0-.235.747c-.039.266-.285.407-.263.674-.33.093-.342.461-.523.693s-.537.385-.678.656-.09.754-.312.95a3.543,3.543,0,0,0-.815.409c-.295.184-.633.209-.813.432a8.432,8.432,0,0,0-.627.7c-.152.239-.049.729-.272.986-.255.164-.652.176-.92.343s-.577.234-.843.4-.5.371-.761.539-.6.226-.855.4-.5.382-.749.567-.374.537-.609.735-.558.3-.775.515c-.268.145-.426.452-.682.57-.277.129-.629.046-.892.144-.286.108-.537.259-.806.333-.3.081-.547.333-.822.375a7.382,7.382,0,0,0-1.789-.036c-.3-.053-.529-.317-.793-.422a4.034,4.034,0,0,1-.725-.451,4.257,4.257,0,0,1-.638-.554c-.205-.2-.515-.3-.692-.536a7.212,7.212,0,0,1-.359-.8,7.843,7.843,0,0,1-.353-.784c-.111-.262-.453-.447-.543-.73s.019-.606-.05-.9-.264-.536-.314-.828-.157-.569-.191-.862-.1-.581-.118-.875.026-.59.02-.883.3-.58.31-.873,0-.577.014-.868-.187-.6-.157-.89-.088-.606-.045-.894.211-.564.265-.85.267-.544.333-.825.1-.579.183-.856.317-.513.409-.786-.086-.66.021-.923c.114-.279.259-.543.385-.8s.4-.458.544-.7c.159-.259.18-.6.353-.819.175-.242.274-.512.424-.752.158-.255.37-.457.5-.707.138-.267.2-.547.306-.809.115-.277.22-.535.3-.805.089-.288.433-.5.487-.779.056-.3-.134-.616-.115-.9a6.12,6.12,0,0,0-.043-.856,6.491,6.491,0,0,0,.059-.88,4.916,4.916,0,0,0-.292-.825,4.748,4.748,0,0,0-.308-.839,3.877,3.877,0,0,0-.646-.616c-.216-.2-.56-.187-.815-.324s-.432-.45-.718-.516a3.827,3.827,0,0,0-.877.052,4.231,4.231,0,0,0-.818.228c-.27.065-.606-.077-.886.043a6.682,6.682,0,0,0-.724.491,8.023,8.023,0,0,0-.649.569,7.932,7.932,0,0,0-.7.5c-.2.192-.582.234-.785.459-.188.209-.371.461-.558.7-.169.282-.18.636-.319.882-.162.286-.473.462-.6.713-.148.286-.117.638-.241.9-.13.278-.251.548-.374.827s-.193.558-.321.85a7.355,7.355,0,0,0-.46.785c-.084.287-.045.609-.109.9s-.312.549-.369.841-.046.6-.11.886,0,.62-.09.894c-.064.283.04.614-.028.912s-.192.563-.26.86-.425.514-.49.81.017.612-.045.908.03.614-.029.909-.1.584-.152.878-.283.555-.33.852-.044.6-.085.894-.256.574-.289.871.171.62.147.918-.123.592-.137.89.161.6.158.9-.22.6-.208.9.168.59.195.886-.066.61-.021.9.268.557.332.847.153.568.241.852.1.591.209.867.013.671.152.935c.163.242.6.306.752.54s.354.459.506.7.032.662.185.9.317.483.475.716.552.31.719.538.331.455.512.674.393.393.591.6.149.656.363.849.535.245.767.42.558.169.8.324.326.549.586.687c.242.129.5.271.765.392.251.115.586.061.861.168.258.1.536.16.817.252s.521.261.792.33.573.063.85.113.576-.021.856.009.552.256.833.27.573-.145.855-.148.589.3.871.277.575-.086.855-.121.529-.348.808-.4.586.022.862-.037.526-.27.8-.336.553-.143.823-.216.558-.138.827-.214.618.071.884,0c.283-.08.571-.256.836-.324a3.274,3.274,0,0,0-.57.768,4,4,0,0,0-.352.841,5.2,5.2,0,0,0-.187.893,7.092,7.092,0,0,0-.145.947c-.177.2-.447.369-.564.605s-.011.545-.091.8-.247.475-.314.727-.222.495-.3.735a3.075,3.075,0,0,1-.4.668,9.093,9.093,0,0,0-.426.822c-.124.252-.386.476-.521.776-.12.269-.207.57-.333.861s-.123.612-.246.9-.037.657-.16.937-.266.57-.392.844c-.133.292-.311.557-.44.818-.148.3-.467.461-.608.7a3.7,3.7,0,0,0-.729.42c-.2.165-.409.372-.621.581-.19.189-.4.382-.6.6s-.378.409-.566.626-.175.586-.359.8-.571.249-.754.461-.142.626-.327.837-.587.23-.775.431-.218.581-.412.769c-.21.2-.413.411-.618.581a5.533,5.533,0,0,1-.712.462c-.242.146-.449.372-.711.531-.244.149-.483.324-.742.483s-.572.183-.832.335-.506.3-.765.444-.628.07-.889.209-.38.546-.645.678-.659-.016-.928.106-.473.387-.747.5-.56.186-.838.279-.516.357-.8.428-.583-.044-.861,0-.545.123-.827.146-.558-.1-.841-.093-.552.049-.834.039-.558.036-.839.012-.541-.169-.821-.2-.555-.044-.832-.088-.569.015-.844-.036-.588.081-.862.026-.547-.183-.82-.242c-.252-.1-.524-.236-.785-.373-.243-.129-.376-.466-.625-.621s-.606-.1-.846-.265-.325-.511-.558-.684-.554-.2-.781-.38-.5-.278-.726-.459-.369-.444-.587-.627-.311-.512-.528-.7-.426-.376-.644-.561-.564-.22-.781-.405-.444-.355-.66-.535-.272-.566-.489-.742-.494-.3-.715-.469-.5-.284-.732-.439-.45-.371-.692-.5a7.194,7.194,0,0,0-.75-.443,5.146,5.146,0,0,0-.86-.173,4.373,4.373,0,0,0-.863.082,4.022,4.022,0,0,0-.812.18,4.388,4.388,0,0,0-.79.241,5.71,5.71,0,0,0-.741.384,3.518,3.518,0,0,0-.631.62c-.227.229-.572.328-.7.585a3.157,3.157,0,0,0-.43.854c-.044.293.318.607.352.916a4.58,4.58,0,0,0,.167.861,6.793,6.793,0,0,0,.306.834c.12.271.295.5.445.774s.043.675.209.931.58.334.759.577.191.617.379.849.423.444.616.669.471.381.656.581c.212.226.44.4.635.586.22.214.238.62.445.8.229.2.429.42.655.589s.556.215.8.383.541.207.789.377c.223.154.282.563.529.741.221.157.588.14.835.326.218.163.477.3.718.5a7.219,7.219,0,0,0,.633.531c.22.142.46.28.711.424.232.134.491.236.741.368s.482.265.732.386.516.2.765.319.448.374.7.481.556.134.8.232c.275.111.566.125.805.21.3.106.546.226.765.287.269.072.518.284.814.34.277.052.565.133.861.17s.579.053.873.077.589-.168.882-.156.577-.005.869,0,.586.222.877.215.59.009.878-.008.56-.373.846-.4.611.19.893.155c.3-.037.6,0,.883-.042.3-.049.562-.25.832-.307.3-.065.523-.284.781-.358.236-.121.541-.1.808-.2.248-.094.459-.332.726-.423s.586.039.851-.054.464-.306.721-.415.512-.178.759-.307a7.26,7.26,0,0,0,.741-.363c.222-.151.563-.181.775-.368a6.765,6.765,0,0,0,.492-.659c.291-.043.492-.308.754-.378a5.958,5.958,0,0,0,.78-.276,6.7,6.7,0,0,0,.814-.24c.247-.146.595-.158.811-.334a6.62,6.62,0,0,0,.59-.637c.193-.2.146-.606.316-.832s.494-.318.642-.561a4.835,4.835,0,0,0,.861-.373c.262-.152.312-.5.517-.776.164-.219.6-.259.73-.6a2.059,2.059,0,0,0,.643-.392c.205-.152.269-.5.463-.69s.6-.2.764-.4a4.551,4.551,0,0,0,.42-.646c.275-.145.464-.358.7-.5.266-.163.449-.417.676-.582.248-.181.509-.319.721-.5.227-.2.432-.409.63-.618s.346-.475.532-.7.295-.5.472-.741.495-.352.672-.595c.165-.227.459-.372.64-.616.169-.226.111-.638.3-.879.174-.221.3-.5.5-.733.169-.22.5-.317.672-.546s.44-.385.6-.619.07-.633.219-.871.3-.478.436-.723.274-.493.391-.742.513-.438.6-.7c.026-.267-.053-.542.1-.758.145-.2.415-.331.558-.56a1.953,1.953,0,0,0,.286-.729c.168-.177.092-.543.245-.849.12-.24.473-.4.587-.7.1-.262.26-.524.358-.814.093-.274-.029-.626.063-.913s.06-.6.151-.883.4-.5.495-.772.022-.635.127-.9c.114-.289.559-.414.682-.66s.008-.645.138-.9.463-.415.593-.673-.046-.669.083-.926.382-.452.51-.71.39-.45.516-.708.04-.62.163-.878.275-.507.394-.769.5-.409.616-.673.174-.554.282-.821.293-.507.394-.775.171-.557.264-.827.022-.6.106-.876.209-.513.283-.792c.26-.159.319-.488.512-.7s.6-.281.748-.536a7.353,7.353,0,0,0,.249-.863c.108-.271.034-.606.128-.885s.2-.553.3-.828.426-.471.538-.735a5.436,5.436,0,0,1,.386-.771c.151-.24.118-.6.28-.829s.44-.38.613-.6.426-.379.6-.595.363-.43.539-.645.244-.525.412-.747.344-.441.5-.672.158-.545.292-.792.586-.337.69-.6a7.161,7.161,0,0,0,.141-.851,6.228,6.228,0,0,0,.316-.812,1.778,1.778,0,0,1,.216-.926c.2-.267.573-.371.807-.619a3.114,3.114,0,0,0,.392-.982c.1-.26.409-.548.575-.912.152-.335.036-.834.211-1.1s.568-.453.634-.772.073-.665.131-.96a1.041,1.041,0,0,1,.385-.742,2.358,2.358,0,0,0,.563-.793c.146-.269-.015-.626.033-.939.047-.3.46-.591.442-.9s-.46-.573-.516-.875-.031-.632-.106-.918c-.087-.33.043-.691-.027-.949" transform="translate(-19.446 -0.708)"/>
          </g>
        </g>
        <g id="グループ_17" data-name="グループ 17" transform="translate(177.901 50.452)">
          <g id="グループ_9" data-name="グループ 9" transform="translate(0 0)" clip-path="url(#clip-path-2)">
            <path id="パス_23" data-name="パス 23" d="M13.851,1.888c.787,0,1.547.026,2.334,0,.341-.026.656-.052,1-.052.682,0,.708.315.708,1.654,0,.918-.052,1.179-.761,1.179-1.1,0-2.177-.052-3.278-.052H12.512a.773.773,0,0,0-.787.788V8.343a.783.783,0,0,0,.787.759h4.461c1.206,0,2.465-.052,3.408-.052.71,0,.71.288.71,1.495,0,.762,0,1.339-.682,1.339-1.154,0-2.309-.052-3.435-.052H12.46a.728.728,0,0,0-.734.71v2.229c0,1.993.131,2.046,2.965,2.046a34.657,34.657,0,0,0,4.407-.236,1.97,1.97,0,0,1,.393-.026c.6,0,.551.97.551,1.364,0,1.575-.236,1.626-2.126,1.626-8.71,0-9.051-.131-9.051-4.329V12.593a.76.76,0,0,0-.759-.762H3.986c-1.1,0-2.177.052-3.278.052C0,11.883,0,11.385,0,10.624c0-1.259.026-1.6.656-1.6.6,0,2.072.079,3.331.079h4.12a.759.759,0,0,0,.759-.759V5.378a.752.752,0,0,0-.787-.762H6.768c-1.049,0-2.124.028-3.2.028-.733,0-.864-.131-.864-.97,0-1.68,0-1.837.839-1.837,1.023,0,2.124.052,3.278.052Z" transform="translate(0 0.838)"/>
            <path id="パス_24" data-name="パス 24" d="M30.546,18.152c0,1.155.051,2.309.051,3.437,0,.708-.339.787-1.31.787-1.442,0-1.706-.079-1.706-.761,0-1.128.052-2.257.052-3.383V11.1c0-.157.079-.736-.42-.736-.262,0-.814.447-1.023.6-.787.578-4.959,3.358-5.64,3.358a4.418,4.418,0,0,1-2.047-2.1c0-.262.236-.367.42-.446A37.749,37.749,0,0,0,29.234,4.827,22.289,22.289,0,0,0,32.8.393c.08-.131.236-.393.42-.393a9.723,9.723,0,0,1,1.785,1.074c.288.184,1.023.631,1.023.946,0,.157-.131.21-.262.262a1.418,1.418,0,0,0-1.023.629,51.42,51.42,0,0,1-3.594,3.935,1.4,1.4,0,0,0-.6,1.18Z" transform="translate(8.455 -0.001)"/>
            <path id="パス_25" data-name="パス 25" d="M49.851,1.888c.787,0,1.547.026,2.334,0,.341-.026.656-.052,1-.052.682,0,.708.315.708,1.654,0,.918-.052,1.179-.761,1.179-1.1,0-2.177-.052-3.278-.052H48.512a.773.773,0,0,0-.787.788V8.343a.783.783,0,0,0,.787.759h4.461c1.206,0,2.465-.052,3.408-.052.71,0,.71.288.71,1.495,0,.762,0,1.339-.682,1.339-1.154,0-2.309-.052-3.435-.052H48.46a.728.728,0,0,0-.734.71v2.229c0,1.993.131,2.046,2.965,2.046a34.657,34.657,0,0,0,4.407-.236,1.97,1.97,0,0,1,.393-.026c.6,0,.551.97.551,1.364,0,1.575-.236,1.626-2.126,1.626-8.71,0-9.051-.131-9.051-4.329V12.593a.76.76,0,0,0-.759-.762h-4.12c-1.1,0-2.177.052-3.278.052-.708,0-.708-.5-.708-1.259,0-1.259.026-1.6.656-1.6.6,0,2.072.079,3.331.079h4.12a.759.759,0,0,0,.759-.759V5.378a.752.752,0,0,0-.787-.762H42.768c-1.049,0-2.124.028-3.2.028-.733,0-.864-.131-.864-.97,0-1.68,0-1.837.839-1.837,1.023,0,2.124.052,3.278.052Z" transform="translate(16.45 0.838)"/>
          </g>
        </g>
      </g>
    </g>
    <g id="グループ_37" data-name="グループ 37" transform="translate(414 2178)">
      <g id="グループ_36" data-name="グループ 36" clip-path="url(#clip-path-3)">
        <path id="パス_70" data-name="パス 70" d="M11.834,72.974c.876,2.072,2.584,5.855,2.721,6.178.408.967.21,1.268-.85,1.716L11.034,82c-1.058.448-1.413.38-1.822-.586-.136-.323-1.66-4.184-2.536-6.256L2.918,66.267C2.042,64.195.334,60.411.2,60.089c-.408-.967-.21-1.268.85-1.716L3.3,57.419c1.059-.448,1.321-.341,1.815.7.3.579.508.816.738.719a1.53,1.53,0,0,0,.555-.614,10.768,10.768,0,0,1,5.248-4.662,7.937,7.937,0,0,1,6.461-.126c.61.285.937.418,1.213.3.23-.1.383-.379.688-.942a12.336,12.336,0,0,1,5.915-5.269c4.558-1.927,8.921-.081,11.083,5.031l3.5,8.289c.876,2.072,2.584,5.856,2.721,6.178.409.967.21,1.268-.848,1.716l-2.671,1.129c-1.06.448-1.414.38-1.823-.586-.136-.323-1.66-4.184-2.536-6.256l-2.9-6.862c-1.188-2.809-3.321-4.132-6.177-2.925a7.142,7.142,0,0,0-3.43,3.187,1.883,1.883,0,0,0-.115,2.166l3.5,8.289c.876,2.072,2.584,5.855,2.721,6.177.408.968.21,1.269-.85,1.717L25.448,75.9c-1.058.448-1.413.381-1.822-.587-.136-.322-1.66-4.183-2.536-6.256l-2.9-6.861C17,59.39,14.867,58.066,12.013,59.273a7.274,7.274,0,0,0-3.45,3.141,2.4,2.4,0,0,0-.136,2.5Z" fill="#1a1311"/>
        <path id="パス_71" data-name="パス 71" d="M70.788,44.968c2.666,7.964-.74,14.641-8.232,17.148-6.73,2.253-13.248-.679-15.676-7.933-2.555-7.632.328-14.608,8.2-17.242,6.684-2.238,13.281.773,15.708,8.027M52.4,52.39c1.459,4.362,5.067,6.317,8.765,5.08,4.078-1.365,5.859-5.494,4.272-10.234-1.493-4.457-5.178-6.334-8.876-5.1-4.456,1.492-5.684,5.7-4.161,10.25" fill="#1a1311"/>
        <path id="パス_72" data-name="パス 72" d="M88.531,26.974c6.137-1.634,11.235,1.769,13.061,8.632,2.573,9.665-3.264,15.928-10.223,17.78a23.389,23.389,0,0,1-7.543.818c-1.2-.042-1.583-.3-1.852-1.318-.168-.628-1.123-4.411-1.7-6.585L75.256,27.454c-.579-2.174-1.743-6.16-1.834-6.5-.269-1.015-.031-1.285,1.08-1.581l2.8-.746c1.111-.3,1.453-.18,1.724.835.089.338,1.06,4.375,1.639,6.549l1.068,4.011c.18.677.367.989.657.912a1.9,1.9,0,0,0,.67-.592,11.431,11.431,0,0,1,5.468-3.37M96.18,37.823c-1.158-4.349-4.327-6.145-7.758-5.231a7.986,7.986,0,0,0-4.1,2.694,2.349,2.349,0,0,0-.532,2.47l2.689,10.1c.295,1.112.676,1.373,1.838,1.27a12.787,12.787,0,0,0,2.068-.4c4.107-1.094,7.3-5.254,5.791-10.908" fill="#1a1311"/>
        <path id="パス_73" data-name="パス 73" d="M112.629,14.456a3.648,3.648,0,0,1-2.827,4.655,3.283,3.283,0,0,1-4.082-2.541,3.606,3.606,0,0,1,2.859-4.508,3.222,3.222,0,0,1,4.05,2.394m1.979,32.927c-1.123.244-1.459.112-1.682-.914-.074-.342-.856-4.419-1.334-6.616l-2.046-9.43c-.478-2.2-1.456-6.233-1.53-6.576-.222-1.026.029-1.284,1.153-1.528L112,21.7c1.124-.244,1.46-.112,1.682.915.074.341.857,4.418,1.334,6.617l2.047,9.429c.477,2.2,1.455,6.233,1.529,6.575.223,1.026-.028,1.285-1.152,1.529Z" fill="#1a1311"/>
        <path id="パス_74" data-name="パス 74" d="M137.157,43.036c-.482.139-.975.229-1.467.319-5.7,1.043-8.045-.918-9.105-6.721l-3.739-20.459c-.369-2.016-1.249-6.277-1.311-6.621-.19-1.033.07-1.284,1.2-1.49l2.853-.522c1.13-.206,1.462-.064,1.65.969.064.344.711,4.444,1.115,6.657L132,35.135c.459,2.508,1.216,3.59,3.732,3.181.394-.072.966-.279,1.212-.323.491-.09.733.12.859.808l.458,2.508c.207,1.131.006,1.422-1.107,1.727" fill="#1a1311"/>
        <path id="パス_75" data-name="パス 75" d="M164.2,35.361a2.248,2.248,0,0,1,.427.9c.06.446-.2.734-.849,1.176a18.655,18.655,0,0,1-7.871,2.946c-8.816,1.209-13.276-4.084-14.193-10.77-1.052-7.678,3-14.187,10.678-15.24,6.339-.869,10.6,2.987,11.648,10.615.346,2.526,0,2.976-1.283,3.153L148.74,30.062c-.891.123-1.218.319-1.137.913a6.5,6.5,0,0,0,1.421,2.631c1.384,1.627,3.508,2.4,6.727,1.954a12.031,12.031,0,0,0,5.364-2.1,2.651,2.651,0,0,1,.937-.532c.4-.055.641.265,1.083.911Zm-5.829-11.968a5.683,5.683,0,0,0-1.013-2.232,4.375,4.375,0,0,0-4.486-1.808,6.358,6.358,0,0,0-5.067,3.521,4.756,4.756,0,0,0-.614,2.153c.054.4.421.5,1.214.388l8.767-1.2c.891-.123,1.218-.319,1.2-.821" fill="#1a1311"/>
        <path id="パス_76" data-name="パス 76" d="M176.122,27.079c-1.246.113-1.517-.113-1.679-1.354l-1.461-12.266c-.4-3.277-1.145-8.781-1.235-9.777-.076-.847.205-1.073,1.3-1.172l3.237-.292c1.1-.1,1.412.073,1.488.919.09,1,.342,6.545.571,10.188l.782,11.977c.062,1.25-.166,1.521-1.41,1.633Zm5.024,6.724a3.643,3.643,0,0,1-3.442,4.126A3.189,3.189,0,0,1,174.027,35a3.672,3.672,0,0,1,3.379-4.271,3.353,3.353,0,0,1,3.74,3.075" fill="#1a1311"/>
        <path id="パス_77" data-name="パス 77" d="M202.4,45.813c-.8.025-.96-.32-.993-1.369l-.089-2.8c-.023-.7.121-.9.77-.925l.45-.014c2.049-.065,2.554-1.482,2.467-4.23l-.579-18.24c-.072-2.249-.3-6.394-.314-6.743-.034-1.049.259-1.259,1.409-1.3l2.9-.092c1.15-.036,1.456.154,1.49,1.2.01.349.043,4.5.114,6.749l.589,18.54c.125,3.948-.743,6.576-3.6,8.068a14.48,14.48,0,0,1-4.616,1.147m7.948-42.722a3.649,3.649,0,0,1-3.623,4.067,3.285,3.285,0,0,1-3.555-3.239A3.607,3.607,0,0,1,206.8,0a3.224,3.224,0,0,1,3.55,3.089" fill="#1a1311"/>
        <path id="パス_78" data-name="パス 78" d="M244.528,22.437c-.135,8.4-5.569,13.561-13.467,13.433-7.1-.115-12.269-5.049-12.145-12.7.13-8.048,5.171-13.667,13.47-13.532,7.048.113,12.266,5.148,12.142,12.8m-19.814.88c-.074,4.6,2.677,7.643,6.575,7.706,4.3.07,7.353-3.231,7.434-8.229.076-4.7-2.776-7.7-6.675-7.759-4.7-.076-7.256,3.483-7.334,8.282" fill="#1a1311"/>
        <path id="パス_79" data-name="パス 79" d="M262.829,39.124c-.881,1.791-1.765,3.632-2.831,5.911-.535,1.165-.8,1.346-2.095,1.253l-3.141-.226c-.8-.057-1.09-.178-1.062-.577a1.875,1.875,0,0,1,.311-.83c1.326-2.411,2.313-4.295,3.069-5.744l.7-1.4a3.551,3.551,0,0,0,.5-1.368,3.557,3.557,0,0,0-.3-1.425l-5.406-16.127c-.79-2.262-1.448-4.265-2.412-6.89a2.581,2.581,0,0,1-.189-.866c.03-.4.385-.474,1.183-.416l3.441.248c1.3.093,1.532.31,1.894,1.539.719,2.558,1.319,4.656,1.971,6.758l2.927,9.483c.164.513.291.824.491.838.149.01.367-.224.605-.759l4.25-8.917c.945-1.987,1.841-3.978,2.921-6.456.535-1.165.8-1.346,2.1-1.253l3.141.226c.8.057,1.14.182,1.112.581a2.555,2.555,0,0,1-.311.83c-1.387,2.557-2.382,4.54-3.319,6.427Z" fill="#1a1311"/>
        <path id="パス_80" data-name="パス 80" d="M288.849,36.06a3.645,3.645,0,0,1-4.222,3.325,3.191,3.191,0,0,1-2.992-3.629,3.673,3.673,0,0,1,4.19-3.48,3.352,3.352,0,0,1,3.024,3.784m-3.525-7.62c-1.241-.147-1.46-.425-1.361-1.672l1.11-12.306c.291-3.289.7-8.83.816-9.823.1-.844.422-1.007,1.514-.877l3.228.384c1.092.13,1.366.364,1.266,1.208-.118.993-1.022,6.475-1.552,10.087L288.63,27.323c-.2,1.235-.476,1.454-1.717,1.306Z" fill="#1a1311"/>
        <path id="パス_81" data-name="パス 81" d="M337.75,34.42c-1.617,8.242-7.878,12.363-15.629,10.842-6.966-1.368-11.182-7.137-9.71-14.643,1.55-7.9,7.5-12.538,15.649-10.939,6.917,1.357,11.163,7.235,9.69,14.74m-19.658-2.635c-.886,4.513,1.284,8,5.11,8.747,4.219.828,7.808-1.881,8.771-6.787.9-4.611-1.372-8.064-5.2-8.815-4.612-.905-7.758,2.146-8.683,6.855" fill="#1a1311"/>
        <path id="パス_82" data-name="パス 82" d="M344.445,49.843c-1.116-.275-1.359-.54-1.109-1.56.084-.34,1.171-4.346,1.708-6.531l2.3-9.371c.537-2.185,1.43-6.239,1.513-6.578.251-1.02.59-1.143,1.708-.868l2.815.692c1.117.274,1.36.54,1.11,1.56-.084.34-1.171,4.346-1.708,6.531l-2.3,9.37c-.538,2.185-1.431,6.239-1.514,6.579-.251,1.019-.59,1.142-1.707.868ZM357.13,19.391a3.648,3.648,0,0,1-4.584,2.941,3.283,3.283,0,0,1-2.551-4.077,3.607,3.607,0,0,1,4.548-2.795,3.224,3.224,0,0,1,2.587,3.931" fill="#1a1311"/>
        <path id="パス_83" data-name="パス 83" d="M365.608,46.99c-.669,2.148-1.807,6.141-1.91,6.475-.313,1-.658,1.1-1.757.763l-2.769-.863c-1.1-.341-1.325-.621-1.013-1.624.1-.334,1.433-4.267,2.1-6.416l2.868-9.214c.669-2.149,1.807-6.142,1.912-6.476.311-1,.657-1.1,1.755-.762l2.339.728c1.1.342,1.231.592.936,1.7-.145.636-.139.952.1,1.026a1.523,1.523,0,0,0,.821-.111,10.773,10.773,0,0,1,7.019-.172,7.94,7.94,0,0,1,5.016,4.075c.281.612.445.925.732,1.013.239.075.537-.042,1.133-.275a12.331,12.331,0,0,1,7.92-.206c4.727,1.472,6.867,5.7,5.218,11l-2.676,8.594c-.669,2.148-1.807,6.141-1.911,6.475-.312,1-.657,1.1-1.756.763l-2.769-.862c-1.1-.342-1.326-.622-1.013-1.625.1-.334,1.433-4.267,2.1-6.416l2.215-7.114c.907-2.912.131-5.3-2.829-6.222a7.141,7.141,0,0,0-4.677.22,1.885,1.885,0,0,0-1.487,1.58l-2.675,8.594c-.669,2.148-1.806,6.14-1.911,6.475-.311,1-.657,1.1-1.756.763l-2.769-.863c-1.1-.341-1.325-.621-1.013-1.624.105-.334,1.433-4.267,2.1-6.416l2.215-7.114c.906-2.913.13-5.3-2.83-6.222a7.264,7.264,0,0,0-4.662.172,2.4,2.4,0,0,0-1.718,1.822Z" fill="#1a1311"/>
        <path id="パス_84" data-name="パス 84" d="M428.729,63.667c-3.108,7.806-10.021,10.706-17.362,7.784-6.6-2.626-9.682-9.075-6.853-16.184,2.977-7.48,9.685-10.946,17.4-7.876,6.552,2.607,9.646,9.168,6.817,16.276m-18.844-6.208c-1.7,4.274-.209,8.1,3.415,9.541,4,1.59,8.023-.414,9.872-5.06,1.738-4.367.135-8.181-3.489-9.624-4.367-1.738-8.023.683-9.8,5.143" fill="#1a1311"/>
        <path id="パス_85" data-name="パス 85" d="M439.587,79.453a3.645,3.645,0,0,1-5.035,1.879,3.192,3.192,0,0,1-1.743-4.369,3.674,3.674,0,0,1,5.052-2.036,3.353,3.353,0,0,1,1.726,4.526m-1.033-8.332c-1.137-.519-1.261-.85-.787-2.008l4.811-11.381c1.28-3.043,3.358-8.2,3.773-9.106.353-.773.709-.831,1.71-.374l2.956,1.35c1,.457,1.191.764.838,1.537-.415.91-2.948,5.855-4.555,9.134l-5.257,10.792c-.565,1.117-.9,1.24-2.033.721Z" fill="#1a1311"/>
      </g>
    </g>
  </g>
</svg>
